/* XPM */
static char *result[] = {
/* columns rows colors chars-per-pixel */
"70 70 230 2 ",
"   c #1C1217",
".  c #27151C",
"X  c #3E0B1E",
"o  c #390927",
"O  c #2C1B26",
"+  c #231B24",
"@  c #351C25",
"#  c #381A28",
"$  c #3D0A3D",
"%  c #3C0634",
"&  c #35232D",
"*  c #332330",
"=  c #470A19",
"-  c #5E0B1E",
";  c #67091C",
":  c #75091E",
">  c #4C0C2E",
",  c #470E27",
"<  c #570C29",
"1  c #471628",
"2  c #511D2D",
"3  c #581223",
"4  c #4A0B34",
"5  c #470639",
"6  c #580C39",
"7  c #481538",
"8  c #551234",
"9  c #5B1238",
"0  c #690B29",
"q  c #7B0B25",
"w  c #750C26",
"e  c #69122D",
"r  c #671427",
"t  c #78122D",
"y  c #670F35",
"u  c #760D31",
"i  c #681537",
"p  c #741435",
"a  c #7D1434",
"s  c #7C1B3B",
"d  c #761939",
"f  c #492435",
"g  c #5C2234",
"h  c #57263A",
"j  c #4B353C",
"k  c #66263D",
"l  c #782539",
"z  c #3B0B4D",
"x  c #3A0B43",
"c  c #3A1347",
"v  c #4A0D42",
"b  c #4B0749",
"n  c #460846",
"m  c #52064C",
"M  c #590B47",
"N  c #5A1348",
"B  c #4A0959",
"V  c #540D53",
"C  c #5C0A54",
"Z  c #560A5A",
"A  c #49175C",
"S  c #4C1653",
"D  c #670C45",
"F  c #691648",
"G  c #761848",
"H  c #670D5B",
"J  c #661254",
"K  c #741457",
"L  c #572C41",
"P  c #472359",
"I  c #562756",
"U  c #542D48",
"Y  c #662547",
"T  c #772643",
"R  c #713454",
"E  c #570B63",
"W  c #580968",
"Q  c #491765",
"!  c #531D64",
"~  c #580A77",
"^  c #5B167E",
"/  c #490D72",
"(  c #670B66",
")  c #750E61",
"_  c #6C1A6A",
"`  c #781966",
"'  c #640B75",
"]  c #6B0B7B",
"[  c #720C77",
"{  c #671677",
"}  c #721576",
"|  c #582C6C",
" . c #652868",
".. c #772C67",
"X. c #693667",
"o. c #763866",
"O. c #75207B",
"+. c #714E73",
"@. c #704A54",
"#. c #850C26",
"$. c #960E2A",
"%. c #8B122B",
"&. c #84122D",
"*. c #93142E",
"=. c #820E32",
"-. c #831035",
";. c #8C1434",
":. c #871739",
">. c #941432",
",. c #97183A",
"<. c #9E0E34",
"1. c #A91635",
"2. c #95213F",
"3. c #A5233F",
"4. c #851845",
"5. c #981B42",
"6. c #A21C43",
"7. c #B31E54",
"8. c #892943",
"9. c #982848",
"0. c #8A2154",
"q. c #8D375B",
"w. c #8F3852",
"e. c #A42446",
"r. c #B42147",
"t. c #A82753",
"y. c #BC3456",
"u. c #A93E56",
"i. c #891364",
"p. c #821678",
"a. c #913D68",
"s. c #C92E55",
"d. c #C43556",
"f. c #C23265",
"g. c #88475C",
"h. c #8C4F5C",
"j. c #B1415B",
"k. c #944568",
"l. c #945768",
"z. c #8B4E6F",
"x. c #9E6C76",
"c. c #94646E",
"v. c #A96179",
"b. c #AD6F7A",
"n. c #B55373",
"m. c #C1707E",
"M. c #580A85",
"N. c #57069B",
"B. c #541792",
"V. c #630B8C",
"C. c #6B0C87",
"Z. c #770B86",
"A. c #6A1389",
"S. c #791687",
"D. c #630A97",
"F. c #740790",
"G. c #5B318E",
"H. c #7B2683",
"J. c #5E08A9",
"K. c #5709B6",
"L. c #5818BA",
"P. c #6708A2",
"I. c #6A09BA",
"U. c #770ABA",
"Y. c #7A06A2",
"T. c #5720AA",
"R. c #7625B5",
"E. c #7F4A85",
"W. c #4F02C7",
"Q. c #5907C5",
"!. c #5A13C7",
"~. c #6708C6",
"^. c #7A11C8",
"/. c #8C188B",
"(. c #890D9A",
"). c #81109E",
"_. c #870E88",
"`. c #87378A",
"'. c #973896",
"]. c #912E8D",
"[. c #A8398D",
"{. c #8409A7",
"}. c #9815BD",
"|. c #8F11B2",
" X c #943EA4",
".X c #A92FB9",
"XX c #92488A",
"oX c #964E8C",
"OX c #A9578B",
"+X c #B6509E",
"@X c #BB7787",
"#X c #B96799",
"$X c #AE7292",
"%X c #9D45B1",
"&X c #B750B4",
"*X c #B96EAD",
"=X c #D77598",
"-X c #C77291",
";X c #C175AA",
":X c #CB6BB4",
">X c #CE7AB8",
",X c #8C15C5",
"<X c #9236C2",
"1X c #B23CCC",
"2X c #B14AC8",
"3X c #BB65C4",
"4X c #D478C1",
"5X c #BA838D",
"6X c #C88995",
"7X c #D1899B",
"8X c #D5939F",
"9X c #DD92B5",
"0X c #D48DAD",
"qX c #E199A9",
"wX c #E188BD",
"eX c #E798B7",
"rX c #E9A3AE",
"tX c #ECA5B5",
"yX c #F2AAB6",
"uX c #F3ABBB",
"iX c #F5A7BE",
"pX c #FBB2BE",
"aX c #DB87C6",
"sX c #EE9CC3",
"dX c #E894C1",
"fX c #E08FC1",
"gX c #F5ACC1",
"hX c #F6A7C2",
"jX c #FFB6C1",
"kX c #ECA2C2",
/* pixels */
"jXjXjXjXjXjXjXjXjXjXjXjXjXjXjXjXjXjXjXjXjXjXjXjXjXjXjXjXjXjXjXjXjXjXjXjXjXjXjXjXjXjXjXjXjXjXjXjXjXjXjXjXjXjXjXjXjXjXjXjXjXjXjXjXjXjXjXjXjXjX",
"jXjXjXjXjXjXjXjXjXjXjXjXjXjXjXjXjXjXjXjXjXjXjXjXjXjXjXjXjXjXjXjXjXjXjXjXjXjXjXjXjXjXjXjXjXjXjXjXjXjXjXjXjXjXjXjXjXjXjXjXjXjXjXjXjXjXjXjXjXjX",
"jXjXjXjXjXjXjXjXjXjXjXjXjXjXjXjXjXjXjXjXjXjXjXjXjXjXjXjXjXjXjXjXjXjXjXjXjXjXjXjXjXjXjXjXjXjXjXjXjXjXjXjXjXjXjXjXjXjXjXjXjXjXjXjXjXjXjXjXjXjX",
"jXjXjXjXjXjXjXjXjXjXjXjXjXjXjXjXjXjXjXjXjXjXjXjXjXjXjXjXjXjXjXjXjXjXjXjXjXjXjXjXjXjXjXjXjXjXjXjXjXjXjXjXjXjXjXjXjXjXjXjXjXjXjXjXjXjXjXjXjXjX",
"jXjXjXjXjXjXjXjXjXjXjXjXjXjXjXjXjXjXjXjXjXjXjXjXjXjXjXjXjXjXjXjXjXjXjXjXjXjXjXjXjXjXjXjXjXjXjXjXjXjXjXjXjXjXjXjXjXjXjXjXjXjXjXjXjXjXjXjXjXjX",
"jXjXjXjXjXjXjXjXjXjXjXjXjXjXjXjXjXjXjXjXjXjXjXjXjXjXjXjXjXjXjXjXjXjXjXjXjXjXjXjXjXjXjXjXjXjXjXjXjXjXjXjXjXjXjXjXjXjXjXjXjXjXjXjXjXjXjXjXjXjX",
"jXjXjXjXjXjXjXjXjXjXjXjXjXjXjXjXjXjXjXjXjXjXjXjXjXjXjXjXjXjXjXjXjXjXjXjXjXjXjXjXjXjXjXjXjXjXjXjXjXjXjXjXjXjXjXjXjXjXjXjXjXjXjXjXjXjXjXjXjXjX",
"jXjXjXjXjXjXjXjXjXjXjXjXjXjXjXjXjXjXjXjXjXjXjXjXjXjXjXjXjXjXjXjXjXiXjXjXjXjXjXjXjXjXjXjXjXjXjXjXjXjXjXjXjXjXjXjXjXjXjXjXjXjXjXjXjXjXjXjXjXjX",
"jXjXjXjXjXjXjXjXjXjXjXjXjXjXjXjXjXjXjXjXjXjXjXjXjXjXjXjXjXjXjXjXwX.X4XjXjXjXjXjXjXjXjXjXjXjXjXjXjXjXjXjXjXjXjXjXjXjXjXjXjXjXjXjXjXjXjXjXjXjX",
"jXjXjXjXjXjXjXjXjXjXjXjXjXjXjXjXjXjXjXjXjXjXjXjXjXjXjXjXjXjXjXjX&X|..XhXjXjXjXjXjXjXjXjXjXjXjXjXjXjXjXjXjXjXjXjXjXjXjXjXjXjXjXjXjXjXjXjXjXjX",
"jXjXjXjXjXjXjXjXjXjXjXjXjXjXjXjXjXjXjXjXjXjXjXjXjXjXjXjXjXjXjXsX}.I.^.&XjXjXjXjXjXjXjXjXjXjXjXjXjXjXjXjXjXjXjXjXjXjXjXjXjXjXjXjXjXjXjXjXjXjX",
"jXjXjXjXjXjXjXjXjXjXjXjXjXjXjXjXjXjXjXjXjXjXjXjXjXjXjXjXjXjXjX4X~.Q.~.,X4XjXjXjXjXjXjXjXjXjXjXjXjXjXjXjXjXjXjXjXjXjXjXjXjXjXjXjXjXjXjXjXjXjX",
"jXjXjXjXjXjXjXjXjXjXjXjXjXjXjXjXjXjXjXjXjXjXjXjXjXjXjXjXjXjXjX2XQ.W.Q.^.1XgXjXjXjXjXjXjXjXjXjXjXjXjXjXjXjXjXjXjXjXjXjXjXjXjXjXjXjXjXjXjXjXjX",
"jXjXjXjXjXjXjXjXjXjXjXjXjXjXjXjXjXjXjXjXjXjXjXjXjXjXjXjXjXjXsX^.Q.W.!.~.^.dXjXjXjXjXjXjXjXjXjXjXjXjXjXjXjXjXjXjXjXjXjXjXjXjXjXjXjXjXjXjXjXjX",
"jXjXjXjXjXjXjXjXjXjXjXjXjXjXjXjXjXjXjXjXjXjXjXjXjXjXjXjXjXjX4X!.!.W.K.K.~.3XgXjXjXjXjXjXjXjXjXjXjXjXjXjXjXjXjXjXjXjXjXjXjXjXjXjXjXjXjXjXjXjX",
"jXjXjXjXjXjXjXjXjXjXjXjXjXjXjXjXjXjXjXjXjXjXjXjXjXjXjXjXjXgX3X!.L.K.I.K.K. XgXjXjXjXjXjXjXjXjXjXjXjXjXjXjXjXjXjXjXjXjXjXjXjXjXjXjXjXjXjXjXjX",
"jXjXjXjXjXjXjXjXjXjXjXjXjXjXjXjXjXjXjXjXjXjXjXjXjXjXjXjXjXjX<XK.T.P.I.J.N.I.fXjXjXjXjXjXjXjXjXjXjXjXjXjXjXjXjXjXjXjXjXjXjXjXjXjXjXjXjXjXjXjX",
"jXjXjXjXjXjXjXjXjXjXjXjXjXjXjXjXjXjXjXjXjXjXjXjXjXjXjXjXjXkXR.T.T.D.D.N.M.P.aXjXjXjXjXjXjXjXjXjXjXjXjXjXjXjXjXjXjXjXjXjXjXjXjXjXjXjXjXjXjXjX",
"jXjXjXjXjXjXjXjXjXjXjXjXjXjXjXjXjXjXjXjXjXjXjXjXjXjXjXjXjX0XT./ G.^ D.D./ M.9XjXjXjXjXjXjXjXjXjXjXjXjXjXjXjXjXjXjXjXjXjXjXjXjXjXjXjXjXjXjXjX",
"jXjXjXjXjXjXjXjXjXjXjXjXjXjXjXjXjXjXjXjXjXjXjXjXjXjXjXjXjXaXB.z | ~ V.V.W { eXjXjXjXjXjXjXjXjXjXjXjXjXjXjXjXjXjXjXjXjXjXjXjXjXjXjXjXjXjXjXjX",
"jXjXjXjXjXjXjXjXjXjXjXjXjXjXjXjXjXjXjXjXjXjXjXjXjXjXjXjXjX*XQ z | ^ A.V.B ! kXjXjXjXjXjXjXjXjXjXjXjXjXjXjXjXjXjXjXjXjXjXjXjXjXjXjXjXjXjXjXjX",
"jXjXjXjXjXjXjXjXjXjXjXjXjXjXjXjXjXjXjXjXjXjXjXjXjXjXjXjXjX;XQ z ! ^ ^ ^ /  .iXjXjXjXjXjXjXjXjXjXjXjXjXjXjXjXjXjXjXjXjXjXjXjXjXjXjXjXjXjXjXjX",
"jXjXjXjXjXjXjXjXjXjXjXjXjXjXjXjXjXjXjXjXjXjXjXjXjXjXjXjXjX0XQ z A +.! / B X.jXjXsXjXjXjXjXjXjXjXjXjXjXjXjXjXjXjXjXjXjXjXjXjXjXjXjXjXjXjXjXjX",
"jXjXjXjXjXjXjXjXjXjXjXjXjXjXjXjXjXjXjXjXjXjXjXjXjXjXjXjXjX9X! x P +.! E B o.gX4X1XhXjXjXjXjXjXjXjXjXjXjXjXjXjXjXjXjXjXjXjXjXjXjXjXjXjXjXjXjX",
"jXjXjXjXjXjXjXjXjXjXjXjXjXjXjXjXjXjXjXjXjXjXjXjXjXjXjXjXjXuXX.x P +.! Z z X.tX1X,XwXjXjXjXjXjXjXjXjXjXjXjXjXjXjXjXjXjXjXjXjXjXjXjXjXjXjXjXjX",
"jXjXjXjXjXjXjXjXjXjXjXjXjXjXjXjXjXjXjXjXjXjXjXjXjXjXjXjXjXpX+.x c | P B z I *X).A.:XjXjXjXjXjXjXjXjXjXjXjXjXjXjXjXjXjXjXjXjXjXjXjXjXjXjXjXjX",
"jXjXjXjXjXjXjXjXjXjXjXjXjXjXjXjXjXjXjXjXjXjXjXjXjXjXjXjXjXjXoXc c | P B n b H.H.{ oXjXjXjXjXjXjXjXjXjXjXjXjXjXjXjXjXjXjXjXjXjXjXjXjXjXjXjXjX",
"jXjXjXjXjXjXjXjXjXjXjXjXjXjXjXjXjXjXjXjXjXjXjXjXjXjXjXjXpXpX$Xc c P ! E n n ' _ { H.uXjXjXjXjXjXjXjXjXjXjXjXjXjXjXjXjXjXjXjXjXjXjXjXjXjXjXjX",
"jXjXjXjXjXjXjXjXjXjXjXjXjXjXjXjXjXjXjXjXjXjXjXjXjXjXpXeXjXjX6Xc x n E W b n C Z ] S.eXjXjXjXjXjXjXjXjXjXjXjXjXjXjXjXjXjXjXjXjXjXjXjXjXjXjXjX",
"jXjXjXjXjXjXjXjXjXjXjXjXjXjXjXjXjXjXjXjXjXjXjXjXjXjXuX%X>XjXqXP $ x V E b n C Z ' C.wXjXjXjXjXjXjXjXjXjXjXjXjXjXjXjXjXjXjXjXjXjXjXjXjXjXjXjX",
"jXjXjXjXjXjXjXjXjXjXjXjXjXjXjXjXjXjXjXjXjXjXjXjXjXjXgX%X].eXtXI $ B ' V n 5 m m E Z.4XhXjXjXjXjXjXjXjXjXjXjXjXjXjXjXjXjXjXjXjXjXjXjXjXjXjXjX",
"jXjXjXjXjXjXjXjXjXjXjXjXjXjXjXjXjXjXjXjXjXjXjXjXjXjXuX%XS.`.9XI v {.{.m % 5 M M C F.,X1XhXjXjXjXjXjXjXjXjXjXjXjXjXjXjXjXjXjXjXjXjXjXjXjXjXjX",
"jXjXjXjXjXjXjXjXjXjXjXjXjXjXjXjXjXjXjXjXjXjXjXjXjXjXhX'.O.( #XX.} }.{.H 5 5 6 D K Y.{.}.eXpXjXjXjXjXjXjXjXjXjXjXjXjXjXjXjXjXjXjXjXjXjXjXjXjX",
"jXjXjXjXjXjXjXjXjXjXjXjXjXjXjXjXjXjXjXjXjXjXjXjXjXjXiX'.XXV OXa./.|.{.) % > M G S.C.] |.wXjXjXjXjXjXjXjXjXjXjXjXjXjXjXjXjXjXjXjXjXjXjXjXjXjX",
"jXjXjXjXjXjXjXjXjXjXjXjXjXjXjXjXjXjXjXjXjXjXjXjXjXjXiXoXoXN k.z./.(.Y.[ 5 4 y ..} W ( (.>XjXjXjXjXjXjXjXjXjXjXjXjXjXjXjXjXjXjXjXjXjXjXjXjXjX",
"jXjXjXjXjXjXjXjXjXjXjXjXjXjXjXjXjXjXjXjXjXjXjXjXjXjXiX'.O.J ..OXp.p.F.[ 4 5 N E.` m H _.:XjXjXjXjXjXjXjXjXjXjXjXjXjXjXjXjXjXjXjXjXjXjXjXjXjX",
"jXjXjXjXjXjXjXjXjXjXjXjXjXjXjXjXjXjXjXjXjXjXjXjXjXjXuX[.} ` F ].) ( ] C.5 > N XXK D K _.#XjXjXjXjXjXjXjXjXjXjXjXjXjXjXjXjXjXjXjXjXjXjXjXjXjX",
"jXjXjXjXjXjXjXjXjXjXjXjXjXjXjXjXjXjXjXjXjXjXjXjXjXjXpX[.[ ` G ` C b ' V.v > Y a.G D ) Z.+XjXjXjXjXjXjXjXjXjXjXjXjXjXjXjXjXjXjXjXjXjXjXjXjXjX",
"jXjXjXjXjXjXjXjXjXjXjXjXjXjXjXjXjXjXjXjXjXjXjXjXjXjXjX#XH N N C m 5 W ] v 8 o.a.:.G i.Z.:XpXjXjXjXjXjXjXjXjXjXjXjXjXjXjXjXjXjXjXjXjXjXjXjXjX",
"jXjXjXjXjXjXjXjXjXjXjXjXjXjXjXjXjXjXjXjXjXjXjXjXjXjXpX7XF 6 9 m 5 $ B ~ 6 i z.v.q.4.i.i.qXpXjXjXjXjXjXjXjXjXjXjXjXjXjXjXjXjXjXjXjXjXjXjXjXjX",
"jXjXjXjXjXjXjXjXjXjXjXjXjXjXjXjXjXjXjXjXjXjXjXjXjXjXjXrXY 6 y v $ % z E 6 y q.j.w.G 4.q.uXjXjXjXjXjXjXjXjXjXjXjXjXjXjXjXjXjXjXjXjXjXjXjXjXjX",
"jXjXjXjXjXjXjXjXjXjXjXjXjXjXjXjXjXjXjXjXjXjXjXjXjXjXjXpXq.< y 6 % o % B 6 p 9.1.a 4.y v.jXjXjXjXjXjXjXjXjXjXjXjXjXjXjXjXjXjXjXjXjXjXjXjXjXjX",
"jXjXjXjXjXjXjXjXjXjXjXjXjXjXjXjXjXjXjXjXjXjXjXjXpXjXqX-Xq.4.=.0 o o 4 N y d 3.$.t -.9 6XjXjXjXjXjXjXjXjXjXjXjXjXjXjXjXjXjXjXjXjXjXjXjXjXjXjX",
"jXjXjXjXjXjXjXjXjXjXjXjXjXjXjXjXjXjXjXjXjXjXjXjXpX=X7.=.;.6.-.u , o 4 4 e :.2.#.%.u Y yXjXjXjXjXjXjXjXjXjXjXjXjXjXjXjXjXjXjXjXjXjXjXjXjXjXjX",
"jXjXjXjXjXjXjXjXjXjXjXjXjXjXjXjXjXjXjXjXjXjXjXjXeXf.1.$.$.1.=.;.> o 7 4 e 5.e.%.,.y k.jXjXjXjXjXjXjXjXjXjXjXjXjXjXjXjXjXjXjXjXjXjXjXjXjXjXjX",
"jXjXjXjXjXjXjXjXjXjXjXjXjXjXjXjXjXjXjXjXjXjXjXjX=X7.<.$.<.1.#.>.> # 7 > u t.9.>.8.< 6XjXjXjXjXjXjXjXjXjXjXjXjXjXjXjXjXjXjXjXjXjXjXjXjXjXjXjX",
"jXjXjXjXjXjXjXjXjXjXjXjXjXjXjXjXjXjXjXjXjXjXjXjX=X5.1.,.>.$.: q 0 > o 4 -.0...T d k tXjXjXjXjXjXjXjXjXjXjXjXjXjXjXjXjXjXjXjXjXjXjXjXjXjXjXjX",
"jXjXjXjXjXjXjXjXjXjXjXjXjXjXjXjXjXjXjXjXjXjXjXjXqX,.,.e.,.$.: 0 a < < i :.G K F i T @XyXjXjXjXjXjXjXjXjXjXjXjXjXjXjXjXjXjXjXjXjXjXjXjXjXjXjX",
"jXjXjXjXjXjXjXjXjXjXjXjXjXjXjXjXjXjXjXjXjXjXjXjXyX9.q w <.>.q 0 -.0 p d :.G 0.0.G l i k.yXjXjXjXjXjXjXjXjXjXjXjXjXjXjXjXjXjXjXjXjXjXjXjXjXjX",
"jXjXjXjXjXjXjXjXjXjXjXjXjXjXjXjXjXjXjXjXjXjXjXjXpXh.w ; ,.,.#.w =.-.4.4.:.e 8 F G @.i e n.pXjXjXjXjXjXjXjXjXjXjXjXjXjXjXjXjXjXjXjXjXjXjXjXjX",
"jXjXjXjXjXjXjXjXjXjXjXjXjXjXjXjXjXjXjXjXjXjXjXjXpXb.; ; %.e e q q ,.9.9.:.3 1 8 e l l %.u.pXjXjXjXjXjXjXjXjXjXjXjXjXjXjXjXjXjXjXjXjXjXjXjXjX",
"jXjXjXjXjXjXjXjXjXjXjXjXjXjXjXjXjXjXjXjXjXjXjXjXpX6X3 ; ; o , a ;.y.f.e.%.- 1 8 i d r 3 -XjXjXjXjXjXjXjXjXjXjXjXjXjXjXjXjXjXjXjXjXjXjXjXjXjX",
"jXjXjXjXjXjXjXjXjXjXjXjXjXjXjXjXjXjXjXjXjXjXjXjXjXrXl : - = 3 p 6.d.s.r.*.: i i r = = g rXjXjXjXjXjXjXjXjXjXjXjXjXjXjXjXjXjXjXjXjXjXjXjXjXjX",
"jXjXjXjXjXjXjXjXjXjXjXjXjXjXjXjXjXjXjXjXjXjXjXjXjXpX5Xl 3 1 r l e.y.s.r.*.%.l p : = = c.pXjXjXjXjXjXjXjXjXjXjXjXjXjXjXjXjXjXjXjXjXjXjXjXjXjX",
"jXjXjXjXjXjXjXjXjXjXjXjXjXjXjXjXjXjXjXjXjXjXjXjXjXjXjXrXh.2 - t 2.e.e.,.2.2.l l q r R rXjXjXjXjXjXjXjXjXjXjXjXjXjXjXjXjXjXjXjXjXjXjXjXjXjXjX",
"jXjXjXjXjXjXjXjXjXjXjXjXjXjXjXjXjXjXjXjXjXjXjXjXjXjXjXjXpX6Xl &.s l l t :.l g k 3.m.yXpXjXjXjXjXjXjXjXjXjXjXjXjXjXjXjXjXjXjXjXjXjXjXjXjXjXjX",
"jXjXjXjXjXjXjXjXjXjXjXjXjXjXjXjXjXjXjXjXjXjXjXjXjXjXjXjXjXjXl.l l h h 3 k h 2 g 8XpXjXjXjXjXjXjXjXjXjXjXjXjXjXjXjXjXjXjXjXjXjXjXjXjXjXjXjXjX",
"jXjXjXjXjXjXjXjXjXjXjXjXjXjXjXjXjXjXjXjXjXjXjXjXjXjXjXjXjXpXx.1 Y h h X h h @ @.pXjXjXjXjXjXjXjXjXjXjXjXjXjXjXjXjXjXjXjXjXjXjXjXjXjXjXjXjXjX",
"jXjXjXjXjXjXjXjXjXjXjXjXjXjXjXjXjXjXjXjXjXjXjXjXjXjXjXjXjXjX5X. L f f 1 2 f O c.jXjXjXjXjXjXjXjXjXjXjXjXjXjXjXjXjXjXjXjXjXjXjXjXjXjXjXjXjXjX",
"jXjXjXjXjXjXjXjXjXjXjXjXjXjXjXjXjXjXjXjXjXjXjXjXjXjXjXjXjXjX8X@ j h g 2 2 f O 6XjXjXjXjXjXjXjXjXjXjXjXjXjXjXjXjXjXjXjXjXjXjXjXjXjXjXjXjXjXjX",
"jXjXjXjXjXjXjXjXjXjXjXjXjXjXjXjXjXjXjXjXjXjXjXjXjXjXjXjXjXjX5X@ * L & O 2 f j yXjXjXjXjXjXjXjXjXjXjXjXjXjXjXjXjXjXjXjXjXjXjXjXjXjXjXjXjXjXjX",
"jXjXjXjXjXjXjXjXjXjXjXjXjXjXjXjXjXjXjXjXjXjXjXjXjXjXjXjXjXjX5X& O f + + h * @.jXjXjXjXjXjXjXjXjXjXjXjXjXjXjXjXjXjXjXjXjXjXjXjXjXjXjXjXjXjXjX",
"jXjXjXjXjXjXjXjXjXjXjXjXjXjXjXjXjXjXjXjXjXjXjXjXjXjXjXjXjXjXyXj # & +   g & 8XjXjXjXjXjXjXjXjXjXjXjXjXjXjXjXjXjXjXjXjXjXjXjXjXjXjXjXjXjXjXjX",
"jXjXjXjXjXjXjXjXjXjXjXjXjXjXjXjXjXjXjXjXjXjXjXjXjXjXjXjXjXjXjXb.@ @ .   1 h.pXjXjXjXjXjXjXjXjXjXjXjXjXjXjXjXjXjXjXjXjXjXjXjXjXjXjXjXjXjXjXjX",
"jXjXjXjXjXjXjXjXjXjXjXjXjXjXjXjXjXjXjXjXjXjXjXjXjXjXjXjXjXjXjXuX@.@ .   & 6XjXjXjXjXjXjXjXjXjXjXjXjXjXjXjXjXjXjXjXjXjXjXjXjXjXjXjXjXjXjXjXjX",
"jXjXjXjXjXjXjXjXjXjXjXjXjXjXjXjXjXjXjXjXjXjXjXjXjXjXjXjXjXjXjXpXpXx.@.b.8XjXjXjXjXjXjXjXjXjXjXjXjXjXjXjXjXjXjXjXjXjXjXjXjXjXjXjXjXjXjXjXjXjX",
"jXjXjXjXjXjXjXjXjXjXjXjXjXjXjXjXjXjXjXjXjXjXjXjXjXjXjXjXjXjXjXjXjXjXpXjXjXjXjXjXjXjXjXjXjXjXjXjXjXjXjXjXjXjXjXjXjXjXjXjXjXjXjXjXjXjXjXjXjXjX",
"jXjXjXjXjXjXjXjXjXjXjXjXjXjXjXjXjXjXjXjXjXjXjXjXjXjXjXjXjXjXjXjXjXjXjXjXjXjXjXjXjXjXjXjXjXjXjXjXjXjXjXjXjXjXjXjXjXjXjXjXjXjXjXjXjXjXjXjXjXjX",
"jXjXjXjXjXjXjXjXjXjXjXjXjXjXjXjXjXjXjXjXjXjXjXjXjXjXjXjXjXjXjXjXjXjXjXjXjXjXjXjXjXjXjXjXjXjXjXjXjXjXjXjXjXjXjXjXjXjXjXjXjXjXjXjXjXjXjXjXjXjX",
"jXjXjXjXjXjXjXjXjXjXjXjXjXjXjXjXjXjXjXjXjXjXjXjXjXjXjXjXjXjXjXjXjXjXjXjXjXjXjXjXjXjXjXjXjXjXjXjXjXjXjXjXjXjXjXjXjXjXjXjXjXjXjXjXjXjXjXjXjXjX"
};
