/* XPM */
static char *result[] = {
/* columns rows colors chars-per-pixel */
"70 70 227 2 ",
"   c #1B1318",
".  c #27151C",
"X  c #34141E",
"o  c #1E1C25",
"O  c #390827",
"+  c #281B25",
"@  c #381924",
"#  c #3C0838",
"$  c #38212D",
"%  c #382331",
"&  c #440A1B",
"*  c #58091B",
"=  c #67081D",
"-  c #770A1D",
";  c #460B2A",
":  c #4A0B2A",
">  c #550D26",
",  c #5A0B2C",
"<  c #461624",
"1  c #56182B",
"2  c #4B073A",
"3  c #45083A",
"4  c #530A32",
"5  c #590D3A",
"6  c #481735",
"7  c #591237",
"8  c #6B0B24",
"9  c #680A2A",
"0  c #780B28",
"q  c #66152C",
"w  c #78142E",
"e  c #650C39",
"r  c #780E37",
"t  c #661737",
"y  c #6B1234",
"u  c #771935",
"i  c #731538",
"p  c #4A2435",
"a  c #572537",
"s  c #692439",
"d  c #74273D",
"f  c #380A44",
"g  c #3C0D4D",
"h  c #391447",
"j  c #3D0C51",
"k  c #430643",
"l  c #480848",
"z  c #560946",
"x  c #4B1847",
"c  c #5A1444",
"v  c #480656",
"b  c #540D5B",
"n  c #580958",
"m  c #491B5C",
"M  c #571659",
"N  c #660C49",
"B  c #790D4E",
"V  c #651647",
"C  c #781A47",
"Z  c #630A57",
"A  c #66155C",
"S  c #7A1956",
"D  c #5A2D43",
"F  c #533949",
"G  c #542958",
"H  c #662D45",
"J  c #762C48",
"K  c #7B3D4D",
"L  c #692655",
"P  c #420F6C",
"I  c #560A69",
"U  c #57166B",
"Y  c #5B0879",
"T  c #5A177B",
"R  c #660C6B",
"E  c #68136B",
"W  c #76156A",
"Q  c #670A79",
"!  c #760D73",
"~  c #761675",
"^  c #592D6D",
"/  c #573564",
"(  c #592175",
")  c #683569",
"_  c #783869",
"`  c #633F71",
"'  c #584D52",
"]  c #724C57",
"[  c #735564",
"{  c #684775",
"}  c #6A6569",
"|  c #8A0C24",
" . c #840D28",
".. c #980C2A",
"X. c #89102B",
"o. c #92122D",
"O. c #880E33",
"+. c #841332",
"@. c #871738",
"#. c #951635",
"$. c #941539",
"%. c #98193A",
"&. c #A6173C",
"*. c #B11A3C",
"=. c #8C233D",
"-. c #902339",
";. c #A9233C",
":. c #881945",
">. c #971B44",
",. c #881853",
"<. c #B21B51",
"1. c #862547",
"2. c #8C284E",
"3. c #962D58",
"4. c #A32949",
"5. c #B7294B",
"6. c #A92C57",
"7. c #A8395C",
"8. c #841269",
"9. c #86167B",
"0. c #863E61",
"q. c #803F72",
"w. c #CC385D",
"e. c #C43676",
"r. c #8C4D5B",
"t. c #8E4A6D",
"y. c #A94F68",
"u. c #976B79",
"i. c #590888",
"p. c #4F1093",
"a. c #680987",
"s. c #760987",
"d. c #66118E",
"f. c #731486",
"g. c #660996",
"h. c #780A97",
"j. c #782983",
"k. c #683987",
"l. c #70329A",
"z. c #4D05A4",
"x. c #5909AE",
"c. c #5707BA",
"v. c #6706A5",
"b. c #6708BB",
"n. c #5A2AAB",
"m. c #5507C5",
"M. c #550CC6",
"N. c #6807C7",
"B. c #7B06C4",
"V. c #7E21C5",
"C. c #880C8E",
"Z. c #931B88",
"A. c #8A0D97",
"S. c #8C3187",
"D. c #892891",
"F. c #8809AC",
"G. c #8D11B3",
"H. c #A116A9",
"J. c #932BAD",
"K. c #954A88",
"L. c #8D4D92",
"P. c #92708E",
"I. c #B26F92",
"U. c #9C44B6",
"Y. c #8D53BF",
"T. c #AA55AB",
"R. c #A96DB0",
"E. c #9314C7",
"W. c #9028C9",
"Q. c #A731CE",
"!. c #9F50D6",
"~. c #B35BCD",
"^. c #B96AD6",
"/. c #C878CD",
"(. c #91828A",
"). c #9D9197",
"_. c #AA8792",
"`. c #AE93A9",
"'. c #B8A7AE",
"]. c #B8A5B5",
"[. c #B6B1B4",
"{. c #CD92B1",
"}. c #CDADBE",
"|. c #C8B5BC",
" X c #BD97D4",
".X c #BD8DE2",
"XX c #CF97D1",
"oX c #C5A2C9",
"OX c #CEBAC9",
"+X c #D5A4DA",
"@X c #CAB3D6",
"#X c #FBBECB",
"$X c #E4A9D8",
"%X c #E4B4D8",
"&X c #DA9DE9",
"*X c #DCBAE6",
"=X c #E4B8E9",
"-X c #D6C7CC",
";X c #DACFD3",
":X c #E3C7CE",
">X c #E9C7DA",
",X c #FAC8D5",
"<X c #FCCBD5",
"1X c #FDCEDA",
"2X c #E6D8DC",
"3X c #F8D7DE",
"4X c #FDD4DD",
"5X c #DFCAE0",
"6X c #E5C9EB",
"7X c #ECDAE7",
"8X c #FDD7E0",
"9X c #F1DCE5",
"0X c #FDDCE4",
"qX c #ECD6F1",
"wX c #EFE2E9",
"eX c #FDE1E7",
"rX c #F4E6EB",
"tX c #FEE4EB",
"yX c #F2EBEE",
"uX c #FEE9EE",
"iX c #EFE2F1",
"pX c #F5E7F4",
"aX c #F5EBF3",
"sX c #FEEDF1",
"dX c #FEF2F5",
"fX c #FEF6F9",
"gX c #FEF9FB",
/* pixels */
"gXgXgXgXgXfXfXgXfXgXfXdXdXsXsXsXuXsXuXtXsXdXdXdXuXsXdXuXdXdXfXfXgXgXgXgXgXgXgXgXgXgXgXfXgXgXgXgXgXsXuXsXsXdXfXdXfXfXdXuXuX0XuXuXuXuXuXsXdXdX",
"gXgXgXgXgXfXfXfXfXfXfXfXsXsXuXuXsXtXtXtXtXsXdXsXdXuXdXdXdXdXgXgXgXgXgXgXgXgXgXgXgXgXgXfXgXgXgXgXgXdXtXsXdXfXdXfXfXfXfXfXfXdXdXdXsXsXsXsXsXsX",
"gXgXgXgXfXfXfXdXfXfXfXsXsXuXsXuXtXeXeXuXtXsXsXsXsXdXdXdXfXfXfXfXgXgXgXgXgXgXgXgXgXgXgXgXfXgXgXgXgXfXdXdXdXdXfXgXfXgXgXgXfXfXfXfXfXsXsXsXsXaX",
"gXgXgXgXfXfXfXfXsXsXsXdXsXsXsXsXsXuXtXtXuXuXuXuXuXuXdXdXfXfXdXfXgXgXgXgXgXgXgXgXgXgXgXgXgXgXfXgXgXfXfXdXsXsXdXfXgXfXfXfXfXfXfXfXdXfXdXsXsXsX",
"gXgXgXgXfXfXfXfXdXdXdXdXdXdXsXsXsXuXuXtXtXuXtXuXuXsXdXdXfXfXfXfXgXgXgXgXgXgXgXgXgXgXgXfXgXfXfXfXgXfXfXsXsXdXfXfXfXfXfXfXfXfXfXfXfXfXsXsXuXuX",
"gXgXgXfXfXfXfXfXfXdXsXsXsXdXdXsXuXuXsXuXuXuXuXuXuXdXsXdXdXfXfXfXgXgXgXgXgXgXgXgXgXgXgXfXfXfXfXfXgXgXfXdXfXdXdXdXsXdXfXfXfXfXfXdXdXsXsXuXeXuX",
"gXgXgXfXfXfXdXfXdXdXdXdXdXsXsXsXsXsXdXdXsXsXdXsXuXuXsXsXdXfXfXgXgXgXgXgXgXgXgXgXgXgXfXfXfXdXfXfXfXfXfXfXfXsXdXdXsXsXdXdXdXfXfXsXsXdXsXuXsXsX",
"gXgXfXfXfXfXfXdXfXdXdXdXuXdXdXdXsXsXsXuXsXdXdXaXsXdXdXdXdXfXgXgXgXgXgXgXgXgXgXgXgXfXfXgXfXfXfXfXfXgXfXfXfXsXsXsXsXsXsXsXdXfXdXsXsXdXsXsXfXsX",
"gXfXfXfXfXdXdXdXdXfXdXdXdXfXfXdXsXsXsXsXuXuXsXsXsXdXfXdXdXgXgXgXgXgXgXgXgXgXgXgXgXgXfXfXfXfXfXfXfXfXfXfXfXsXsXsXuXtXeXsXdXfXdXsXfXfXfXfXfXfX",
"gXfXfXfXfXfXfXfXfXfXgXfXfXgXfXdXsXsXsXsXuXtXsXsXsXdXsXfXgXfXgXgXgXgXgXgXgXgXgXgXgXfXsXtXsXsXdXdXfXfXfXfXfXsXtXtXtX0X0XsXdXdXfXdXaXfXfXgXfXdX",
"gXfXfXfXfXfXgXgXgXgXgXgXgXfXfXdXsXsXsXsXsXsXsXsXdXdXfXfXgXgXgXgXgXgXgXgXgXgXfXfXfXdXeX0XeXuXsXsXsXfXsXsXsXsXtX0X0X0XsXdXdXdXfXdXfXfXgXfXfXdX",
"gXfXfXfXfXfXgXgXgXgXgXgXgXfXfXdXsXsXsXsXsXsXsXdXdXdXfXdXgXfXgXgXgXgXgXgXgXgXfXfXsXsXuXuXuXuXsXaXsXsXsXsXtXtXsXtXuXuXfXdXfXdXfXfXfXgXfXfXgXfX",
"gXgXfXfXfXgXgXgXgXgXgXgXgXfXdXdXsXsXsXsXuXsXdXfXdXfXfXfXfXdXfXgXgXgXgXgXgXgXfXfXgXfXdXsXdXdXdXdXdXdXsXsXsXsXsXsXsXsXfXdXfXfXfXfXgXgXgXgXgXgX",
"fXfXfXfXgXgXgXgXgXgXgXgXfXfXsXdXsXsXsXsXtXsXdXfXfXfXdXfXdXsXsXsX*XXXaXgXgXgXgXgXgXgXgXgXdXgXgXgXfXfXdXfXdXfXfXfXdXsXfXfXfXfXfXfXgXgXgXgXgXgX",
"fXfXdXfXfXfXgXgXgXgXgXgXfXdXuXsXuXuXtXtXsXdXfXfXfXfXdXsXsXtXdX&XG.G.~.qXgXgXgXgXgXgXgXgXgXgXgXgXfXfXfXfXfXfXfXfXfXdXfXfXgXfXfXfXgXgXgXgXgXgX",
"dXsXsXdXfXgXgXgXgXgXgXfXdXsXuXtX0XeXtXsXdXgXgXgXfXdXsXtX0X0X3XW.N.N.F.Q.*XgXgXgXgXgXgXgXgXgXgXgXfXfXfXdXfXsXdXfXdXsXsXsXdXgXgXgXgXgXgXgXgXgX",
"sXsXdXdXdXdXfXgXfXgXfXdXsXuXtXeXeXtXtXdXfXfXgXgXgXfXyX0X0X0X^.N.m.m.N.B.W.6XgXgXgXgXgXgXgXgXgXgXgXfXfXfXdXuXtXuXuXtXuXuXfXgXgXgXgXgXgXgXgXgX",
"sXdXdXdXdXdXfXdXdXfXfXdXuXtXeXtXtXuXsXdXfXfXfXfXgXaXsX0XtX+XE.m.m.m.M.N.N.!.aXgXgXgXgXgXgXgXgXgXfXfXfXdXdXsXtXtXsX0X0XuXdXgXgXgXgXgXgXgXgXgX",
"sXdXdXdXfXfXfXdXdXsXuXuXtX0XeXuXuXsXdXfXfXfXfXfXfXfXfXfXsX^.m.M.m.c.N.c.m.N..XgXgXgXgXgXgXgXgXfXfXfXdXdXsXuXeXsXsXsXuXtXuXfXgXgXgXgXgXgXgXgX",
"uXdXdXfXdXfXdXfXsXsXuXtXeXeXtXtXdXsXdXuXuXdXfXfXfXgXfXgXqXW.c.n.z.c.b.x.z.x.V.6XgXgXgXgXgXgXfXdXdXdXdXdXsXuX0XsXdXsXsXuXuXsXgXgXgXgXgXgXgXgX",
"sXdXdXfXfXfXdXsXsXtXtXtXtXtXtXsXdXsXuXuXuXfXdXfXgXgXgXgX.Xz.p.n.p.v.v.v.i.p.x.XXgXgXgXgXgXfXdXsXsXsXfXsXsXtXtXsXsXsXsXuXsXsXgXgXgXgXgXgXgXgX",
"sXdXdXsXfXfXfXsXuXtXuXtXtXtXuXsXuXuXtXuXsXfXfXfXgXgXgXiXY.p.P k.T a.g.g.i.I i.+XgXgXgXgXdXdXsXsXsXsXsXsXuXeXtXsXdXsXsXsXsXfXgXgXgXgXgXgXgXgX",
"sXsXfXfXfXsXfXsXsXuXuXuXtXtXuXuXuXeXeXtXuXdXfXgXgXgXgX6Xl.P P / T i.d.d.i.v U >XfXfXfXfXdXuXtXuXuXsXsXuX0X0XtXuXsXsXsXuXsXfXgXgXgXgXgXgXgXgX",
"sXsXsXsXfXfXfXdXdXsXsXuXuXuXuXtXeX3X4XuXdXdXfXgXgXgXgXiXk.h j m ^ ( T i.I j ` 7XfXdXfXdXuX8X4X0X0X0X8X0X0XtXtXuXsXsXsXtXsXfXgXgXgXgXgXgXgXgX",
"sXsXdXdXdXfXdXfXsXsXsXuXuXuXuXtX8X4X3XsXdXdXfXgXgXgXgXdXL.j j j ` { U I v j { pXgX=X&XtX0X8X1X4X8X0X0X0XtX0XtXsXsXsXsXtXsXfXgXgXgXgXgXgXgXgX",
"dXsXsXsXdXdXfXsXfXsXuXuXuXuXuXeXeX0XtXsXfXfXfXgXfXfXgXgX`.j h h { { m b v g ` rX*XQ.E.=X8X8X8X4X8X0XuXtXuXuXuXsXuXuXuXsXsXfXgXgXgXgXgXgXgXgX",
"dXsXsXsXdXfXfXdXfXsXsXuXuXsXsXtX0XeXuXuXdXdXfXgXgXgXgXgX-Xj # h / / m b v f G oXJ.J.s.R.1X0X0X0X0X0XuXsXsXuXuXuXuXuXtXsXdXgXfXsXfXfXfXfXdXdX",
"dXdXsXsXsXsXdXfXfXsXsXuXuXsXsXuXuXuXuXsXsXdXfXfXgXgXgXgXwX` h f m / m b v k l j.~ j.Y j.>XtXeX0X0XtXtXuXuXuXuXuX0X0X0XeXuXsXsXsXsXdXfXdXtXtX",
"dXdXdXsXdXdXsXfXsXsXuXdXuXdXdXsXuXsXuXuXdXfXgXgXpXqXgXgXgXP.# h f m M I n 3 l R n R Q d.XX0X0X8X8X0X0XuXuXtX0X8X0X0X0XeX0XsXeXeXuXsXdXeX0XeX",
"fXdXfXsXdXdXfXdXdXdXdXdXuXdXdXsXdXuXuXdXsXfXfXgX*XU.@XgXgX].h x # l b I v 3 3 n z n Q a.T.0X8X8X8X8X8X0XeX0X8X8X0X0X0X0XeX0X0X8X0XyXtX0X0X8X",
"fXfXfXfXdXsXfXfXfXdXdXdXdXdXsXdXtXuXtXuXdXfXfXgX@XJ.f.R.iX@Xh 3 l s.s.n l # 2 z l N n Q J./.XX#X8X8X8X0XeX0X8X0X0XeX0X0XtX0XtXtXtXsXeXeX0X8X",
"fXdXdXfXfXfXdXdXsXsXsXsXsXsXsXsXuXtXtXuXsXdXfXgX Xf.9.E L.5XG x A.E.F.A 2 # 2 z l B n h.F.E.Q.$X8X8X8X0XeX0X0XeXtXeX0XtXsXuXuXuXdXdXuXuXtXtX",
"fXfXdXdXdXdXdXdXdXsXsXsXsXdXsXsXuXuXuXuXdXfXgXgXoXD.K.M M |.) ~ H.F.F.! 2 O 2 N c S f.f.a.f.H.XX8X0XeXtX0X0XeXtX0XeX0XtXsXsXsXsXdXgXdXdXdXpX",
"dXdXdXdXdXdXdXsXdXdXdXsXsXsXsXsXuXuXsXuXuXdXgXgXXXD.L.A z I.K.Z.C.A.h.s.z O 4 5 L S.~ b n W A./.uXsXsXdXuXtXtXeXeXtXtX0XuXsXsXfXgXfXfXsXuX0X",
"dXdXdXsXdXdXdXdXdXdXsXdXsXsXsXuXdXsXsXdXdXgXfXgXoXZ.~ W c _ L.8.R ! a.a.Z ; 4 5 _ L.V z n W C.T.sXfXfXdXsXtXsXdXfXfXpXsXsXsXfXfXgXgXdXuXeX0X",
"dXsXsXsXsXsXsXdXdXsXdXsXsXdXsXuXuXdXdXsXdXgXfXdX>XZ.R W C N ~ A l z Q a.U O 4 V q.3.i N B ! s.T.0XsXpXuXsXsXfXpXsXsXsXsXsXsXfXgXgXgXdXuXsXsX",
"dXsXuXsXsXsXsXdXdXsXdXsXsXsXdXdXdXsXdXdXfXgXgXdXuXP.N z N 5 n l 3 g I Q I ; , 0.t.7.1.:.,.9.! {.sXsXsXsXsXfXfXdXsXuXdXsXsXsXdXfXdXdXdXdXdXdX",
"fXdXdXdXsXsXdXsXdXdXdXdXsXsXdXdXdXdXdXsXfXgXgXgXgXOXe 4 e c 5 # # # l I A , y 0.y.y.2.C ,.:.q.9XfXfXfXfXsXsXdXsXtXuXfXfXdXfXfXtXuXfXaXuXdXfX",
"fXfXfXfXdXsXsXsXsXdXdXdXgXdXdXfXfXfXdXdXfXgXfXfXdX9Xt.4 9 r 4 # O O 3 v V , r 3.;.o.r :.e e '.fXsXfXfXfXfXfXsXuXsXsXsXfXsXsX0XtXsX0X8XtXfXgX",
"gXgXfXfXdXdXsXsXsXdXdXdXgXgXgXfXfXfXdXdXdXdX3X{.I.t.1.>.:.+.9 ; O O 6 2 5 9 C 4.o. . .O.4 [ rXdXfXsXsXsXsXuXuXdXsXtX0XtX0X0X0X0X0X0X0XdXfXgX",
"fXgXgXgXdXdXsXsXsXdXdXdXgXgXfXfXgXgXdXdXfX%Xe.*...X.O.*.O.o.o.4 O O x ; , r >.5.| | %.y 6 |.dXdXdXfXsXsX0X0XsXsXtX0X0X0X8X0XtX0XeXuXsXfXgXfX",
"dXfXgXgXgXgXdXsXsXdXsXsXfXfXfXgXgXgXgXfXfXI.<.&...o...*...0 #.y O @ 6 ; e O.6.3.+.#.1.: u.dXdXdXfXfXfXdX0X4XsXuX0X0X0X0X0XsXsX0X0XsXsXfXfXfX",
"dXgXgXgXgXgXgXdXdXdXsXdXfXfXsXgXgXgXgXgXfX{.%.&.&.4.$...| = 8 O., : ; : i @.2.L L C y 1 `.wXdXfXdXfXsXsX0X8X0XeX0XtXuX0XuXdXsXtXuXsXaXfXfXfX",
"fXdXdXgXgXgXdXgXdXsXsXsXdXsXsXgXgXgXgXfXgX2X1.o.9 +.%.$.| - 8 0 r , i i :.@.C C C ,.i d C K _.wXfXdXsXsX0X8X0X0XtXsXsXuXsXdXsXuXaXdXgXfXgXfX",
"dXdXdXfXdXgXdXdXdXdXsXsXsXuXsXgXgXdXgXgXgXdXu.- = 8 O.$.X.0 0 r O.O.:.:.>.d 9 7 c V C K s y w y.7XfXsXuX0XtX0XsXsXsXsXsXsXsXdXsXfXfXfXfXfXdX",
"dXdXdXfXdXgXgXgXdXsXsXdXsXuXsXgXgXgXgXgXgXfX|.q * -  .> : >  .X.$.6.6.4.%.w > < 6 , u u d w - y.pXsXuXsXuXsXdXaXfXdXdXdXdXdXfXfXfXfXfXfXfXfX",
"gXgXfXdXdXfXfXgXdXdXsXsXsXsXdXgXgXgXgXgXdXdXrXr.= - = & & 1 u %.5.w.w.5.#.| - 1 t y y * & & a ;XgXsXsXsXdXsXsXsXfXfXfXdXdXfXfXfXfXfXfXfXfXdX",
"gXgXdXfXgXgXfXdXgXdXsXsXsXsXdXgXgXgXgXgXsXsXsX;X_.r.1 @ * 9 u %.5.5.5.5.#.#.$.u d u - * & p [.gXgXfXfXfXfXsXfXfXfXfXfXfXfXfXfXfXfXfXfXfXfXfX",
"fXgXfXfXfXdXdXdXfXdXdXdXsXuXdXdXgXgXdXdXdXsXeX0X0X9X}._.] - w @.=.=.-.+.u >.=.s d w -.r.).-XgXgXgXgXgXgXfXsXsXfXgXgXfXfXfXdXfXfXfXfXfXfXfXgX",
"fXdXfXdXgXfXsXsXdXdXdXdXsXtXsXdXfXgXdXdXsXsX8X4X8X0XtXtX-Xd u J s s a 1 q H a 1 1 ] :XaXgXgXgXgXgXgXgXgXfXaXdXgXgXgXgXfXsXsXdXfXfXfXfXfXdXdX",
"dXdXdXfXfXfXuXtXsXsXsXdXdXuXsXdXfXsXsXdXsX0X4X8XtXtXuXsXyX} @ a a p p < < D p % . [.gXgXgXgXgXgXgXgXgXgXgXgXgXgXgXgXgXfXdXdXfXfXfXfXdXsXdXdX",
"fXfXdXdXdXfXuXtXuX3XeXdXdXsXdXdXsXsXsXsXaX0X8XsXuXdXfXdXgX).. % H p a 1 1 p p + ' yXgXgXgXgXgXgXgXgXgXgXgXgXgXgXgXfXfXdXdXdXdXfXfXfXdXdXdXdX",
"fXdXdXdXsXdXuXuXuX4X4XuXsXsXdXdXdXsXdXsXsXtX0XfXfXfXfXgXfX(.@ . F a $ + X a p + [.gXgXgXgXgXgXgXgXgXgXdXgXgXgXgXgXgXfXfXdXfXdXfXfXdXfXdXdXdX",
"fXdXdXdXsXtXtXtXeX4XeXtXeXsXsXsXdXdXdXsXtX0XsXfXfXfXgXgXgX`.$ . % % o + @ H + } aXgXgXgXgXgXgXgXgXgXgXfXfXgXgXgXfXfXdXdXdXdXsXdXdXdXdXfXsXsX",
"dXdXsXuX3X3XeX4X4X4X3XeXeXsXsXsXdXdXsXsX0X0XsXfXfXfXgXgXgXdX(.X + @     @ 1 ' wXgXgXgXgXgXgXgXgXgXdXgXgXgXgXgXdXfXfXfXsXdXsXdXsXdXdXdXdXsXsX",
"dXsXtX3X4X3X0X4X4X4XeX3XeXuXuXsXdXsXfXeX8XuXsXfXfXfXgXgXgXgXyX).' @ . . % ' -XgXgXgXgXgXgXgXgXgXgXfXgXgXgXgXgXdXdXdXsXsXsXsXsXsXsXsXsXsXsXsX",
"sXuX8X1X0XeXuXeXeXeX0X0X0XeXuXdXdXsXsX0XtXfXfXfXgXgXgXgXgXgXgXgX2X'.).[.;XaXgXgXgXgXgXgXgXgXgXgXfXfXfXfXfXfXfXsXsXsXsXuXtXeXeXuXsXsXuXsXtXtX",
"uX8X,X0XuXsXuXsXuXuX0X4X0XtXuXsXsXtX0X0XtXfXfXfXgXgXgXgXgXgXgXfXaXfXgXgXgXgXgXgXgXgXfXgXgXfXgXgXgXfXfXdXsXuXsXsXuXeX0X0X8X4X4X1X8X0X0X8X0XtX",
"8X,X4XtXsXsXsXsXuXuX0X4X8XeXuXuX0X0X0X0XtXsXfXfXfXfXgXgXgXgXdXsXdXfXgXgXgXgXgXgXgXgXgXgXfXfXfXfXdXdXuXeX4X4X8X8X8X1X8X8X4X4X8X0X1X,X8X0XtXsX",
",X8XuXsXsXdXfXdXuXuXuXeX0X0XeXeX0XtXsXsXsXsXsXsXuXuXsXfXgXfXuXuXdXfXfXgXgXgXgXgXgXgXdXdXdXdXsXuXuXeX4X<X<X<X1X4X8X0XeXeX0X0X0X8X1X1X0XuXsXsX",
"8XeXuXsXsXdXfXdXsXsXuX0XtXeX0XeXuXsXsXsXsXsXsXaXsXsXtXuXdXsXuXsXfXfXfXgXgXgXgXgXgXdXsXuXsXuX0X0XeX0X4X<X1X1X4X0XeXuXsXtXeXeXeX0X0X0X0XtXsXdX",
"uXuXuXuXsXsXsXfXfXsXsXeX0X0XeXsXsXsXsXdXdXsXfXdXfXfXsXuXdXuXsXfXgXgXfXfXgXgXfXfXdXdXsXtX0X4X4X4X4X4X8X3X8X0X0XuXsXsXsXtXeXeXeX0XuX0X0XuXuXsX",
"uXtXeXuXsXfXfXfXdXdXsXtXeXuXsXdXfXfXfXfXfXfXfXgXgXfXgXfXfXdXdXgXgXgXfXfXfXdXdXdXdXdXuXeX4X4X,X1X8X8X4X8X0X0XuXsXsXfXaXsXtXtXtXuXtXuXtXtXtXuX",
"uXtXtXtXfXdXfXfXfXsXuXsXdXdXfXfXgXgXgXgXfXfXfXfXfXgXfXgXgXfXfXgXgXfXgXfXfXdXdXsXdXsXeX8X0X0X1X4X8X4X8X8X0XuXsXdXdXdXsXtXtXtXtXsXtXtXtX0XtXuX",
"sXuXsXdXfXfXfXfXgXdXdXdXfXfXgXgXgXgXgXgXgXfXgXfXgXgXgXgXfXfXgXgXfXgXgXfXfXdXsXsXsX0X8X8XeX8X4X4X4X4X4XeXsXdXdXfXfXsXsX0XsXtXuXuXtXtXuX0XuXuX",
"sXsXfXfXgXfXgXgXgXgXfXfXgXgXgXgXgXgXgXgXgXgXgXgXgXgXfXfXfXgXfXgXgXgXgXgXfXdXsXuX0X4X4X8X4X8X8X0X0XeXuXsXfXfXfXfXfXsXuXuXdXsXsXuXtXtXtXtXtXuX",
"sXfXfXfXgXgXgXgXgXgXgXgXgXgXgXgXgXgXgXgXgXfXfXfXfXgXfXfXfXgXfXfXgXgXgXgXfXsXtX0X4X1X8X8X0XeXtXtXuXsXdXdXfXfXfXfXfXsXsXsXsXsXsX0X0XuXuXtXtXtX",
"fXfXfXfXgXgXgXgXgXgXgXgXgXgXgXgXgXfXgXgXfXfXfXdXfXfXfXfXgXgXfXfXdXgXfXgXsXsXtX8X#X,X4X0XuXuXuXsXsXdXdXfXfXfXfXfXdXfXfXsXfXdXsXtXuXsXsXuXsXtX",
"gXfXfXgXgXgXgXgXgXgXgXgXgXgXgXfXfXfXdXfXdXsXsXdXsXsXfXfXgXgXfXfXfXgXfXdXsXtX0X1X,X4X8XtXuXsXsXsXsXsXsXfXdXfXfXsXfXfXfXfXfXfXsXuXtXuXuXuXtXtX",
"gXgXgXgXgXgXgXgXgXgXgXgXgXgXdXfXfXdXdXdXsXuXsXuXsXsXdXfXgXfXfXfXfXfXdXsXuX0X1X<X4X4XeXuXsXdXdXsXsXsXfXdXdXfXdXfXfXfXdXfXfXdXsXuXtXtXuXuXsXsX"
};
