/* XPM */
static char *result[] = {
/* columns rows colors chars-per-pixel */
"70 70 226 2 ",
"   c #141416",
".  c #171718",
"X  c #1B1B1B",
"o  c #191719",
"O  c #211F1D",
"+  c #24211E",
"@  c #38281B",
"#  c #1F1F20",
"$  c #241F21",
"%  c #252321",
"&  c #2A2523",
"*  c #2D2925",
"=  c #2C2B29",
"-  c #312C25",
";  c #332D2A",
":  c #372C27",
">  c #3C3223",
",  c #35312D",
"<  c #3A342C",
"1  c #343333",
"2  c #3B3532",
"3  c #39393A",
"4  c #2E2F31",
"5  c #452D1D",
"6  c #4B341D",
"7  c #47341D",
"8  c #533A1D",
"9  c #413425",
"0  c #443A2B",
"q  c #4A3D2C",
"w  c #463827",
"e  c #543C22",
"r  c #443A38",
"t  c #463B37",
"y  c #442D22",
"u  c #633923",
"i  c #77541E",
"p  c #4E412D",
"a  c #53442D",
"s  c #59462D",
"d  c #5A472B",
"f  c #4B433D",
"g  c #484236",
"h  c #5C4C34",
"j  c #554737",
"k  c #5A503C",
"l  c #664325",
"z  c #784C24",
"x  c #63533A",
"c  c #685335",
"v  c #745A37",
"b  c #71552D",
"n  c #7D6236",
"m  c #3D3E40",
"M  c #4F3F40",
"N  c #484746",
"B  c #534244",
"V  c #5D4A4B",
"C  c #554B46",
"Z  c #58544B",
"A  c #5B5C5D",
"S  c #555455",
"D  c #4D5052",
"F  c #624C4E",
"G  c #61524D",
"H  c #68584A",
"J  c #685B54",
"K  c #755B58",
"L  c #6D534D",
"P  c #6A6357",
"I  c #736A5F",
"U  c #5D5F63",
"Y  c #7A5D60",
"T  c #5E6664",
"R  c #616265",
"E  c #6A6B6D",
"W  c #666569",
"Q  c #766966",
"!  c #79736A",
"~  c #6C6E71",
"^  c #6E7175",
"/  c #687876",
"(  c #717375",
")  c #737579",
"_  c #75797C",
"`  c #797C7E",
"'  c #845E1D",
"]  c #8E5A2B",
"[  c #9B652C",
"{  c #876539",
"}  c #956938",
"|  c #906E39",
" . c #A87625",
".. c #AB6B34",
"X. c #93661E",
"o. c #805E5D",
"O. c #846A48",
"+. c #997744",
"@. c #8E705D",
"#. c #A37744",
"$. c #A67954",
"%. c #88676A",
"&. c #946D6F",
"*. c #927064",
"=. c #936E72",
"-. c #9B7477",
";. c #877869",
":. c #A37B7D",
">. c #A2766C",
",. c #C07E43",
"<. c #BA8624",
"1. c #C8932C",
"2. c #A88449",
"3. c #B8874A",
"4. c #BA934C",
"5. c #BA9356",
"6. c #AF8B52",
"7. c #928471",
"8. c #AB837D",
"9. c #C79A59",
"0. c #CB904C",
"q. c #C49B63",
"w. c #C58D70",
"e. c #D9AD72",
"r. c #E0AE6A",
"t. c #7A7E81",
"y. c #887F84",
"u. c #A97D83",
"i. c #7E8183",
"p. c #838685",
"a. c #858A8B",
"s. c #8A8D8C",
"d. c #838789",
"f. c #938B89",
"g. c #8F918F",
"h. c #8A8E91",
"j. c #8E9293",
"k. c #929493",
"l. c #9A9995",
"z. c #969A9C",
"x. c #9C9D9C",
"c. c #959797",
"v. c #99948F",
"b. c #AC8385",
"n. c #B3848A",
"m. c #B8888A",
"M. c #AA9A83",
"N. c #BB8990",
"B. c #B7969B",
"V. c #AB9499",
"C. c #9FA09F",
"Z. c #A1A29F",
"A. c #B6A589",
"S. c #9EA2A4",
"D. c #A3A5A4",
"F. c #ACADAB",
"G. c #A9A8A5",
"H. c #B2B1AE",
"J. c #AEB2B3",
"K. c #B4B4B2",
"L. c #B9B9B6",
"P. c #BCBCBA",
"I. c #B4ADA9",
"U. c #C38E96",
"Y. c #CC939B",
"T. c #C89298",
"R. c #CE968C",
"E. c #D2B192",
"W. c #C59CA4",
"Q. c #DB9EA6",
"!. c #D59BA3",
"~. c #DAA3AA",
"^. c #C4BBB8",
"/. c #D4A8AF",
"(. c #E4A4AD",
"). c #E8A5A8",
"_. c #ECAAB4",
"`. c #EBABB5",
"'. c #F3AEB8",
"]. c #F3AEB7",
"[. c #F6B1BB",
"{. c #FAB3BD",
"}. c #F7B2B6",
"|. c #EEB5B0",
" X c #EDB394",
".X c #D9C39C",
"XX c #DBC8A7",
"oX c #C1C1BE",
"OX c #CBC6BD",
"+X c #DBD1B9",
"@X c #E7D5BB",
"#X c #EBC6B6",
"$X c #FFB6C1",
"%X c #FCBAC3",
"&X c #FBBFC8",
"*X c #BFC1C0",
"=X c #C4C4C3",
"-X c #CBCAC6",
";X c #CCCCCB",
":X c #C8C7C4",
">X c #D1CECA",
",X c #CFD0CF",
"<X c #D3D2CE",
"1X c #D5D5D4",
"2X c #DCDAD6",
"3X c #DCDCDA",
"4X c #D7D7D6",
"5X c #E4DBDB",
"6X c #F8D3D8",
"7X c #F2C8CE",
"8X c #DFE0DF",
"9X c #E2E1DE",
"0X c #E9E5DD",
"qX c #F9E6D4",
"wX c #DFE1E0",
"eX c #E4E4E3",
"rX c #E8E7E4",
"tX c #EBE9E6",
"yX c #EDEDEB",
"uX c #E7E8E7",
"iX c #F7E7E8",
"pX c #F2F1EF",
"aX c #F5F5F3",
"sX c #F8F5F4",
"dX c #F9F9F7",
"fX c #FAFAF9",
/* pixels */
"$X$X$X$X$X$X$X$X$X$X$X$X$X$X$X$X$X$X$X$X$X$X$X$X$X$X$X$X$X$X$X$X$X$X$X$X$X$X$X$X$X$X$X$X$X$X$X$X$X$X$X$X$X$X$X$X$X$X$X$X$X$X$X$X$X$X$X$X$X$X",
"$X$X$X$X$X$X$X$X$X$X$X$X$X$X$X$X$X$X$X$X$X$X$X$X$X$X$X$X$X$X$X$X$X$X$X$X$X$X$X$X$X$X$X$X$X$X$X$X$X$X$X$X$X$X$X$X$X$X$X$X$X$X$X$X$X$X$X$X$X$X",
"$X$X$X$X$X$X$X$X$X$X$X$X$X$X$X$X$X$X$X$X$X$X$X$X$X$X$X$X$X$X$X$X$X$X$X$X$X$X$X$X$X$X$X$X$X$X$X$X$X$X$X$X$X$X$X$X$X$X$X$X$X$X$X$X$X$X$X$X$X$X",
"$X$X$X$X$X$X$X$X$X$X$X$X$X$X$X$X$X$X$X$X$X$X$X$X$X$X$X$X$X$X$X$X$X$X$X$X$X$X$X$X$X$X$X$X$X$X$X$X$X$X$X$X$X$X$X$X$X$X$X$X$X$X$X$X$X$X$X$X$X$X",
"$X$X$X$X$X$X$X$X$X$X$X$X$X$X$X$X$X$X$X$X$X$X$X$X$X$X$X$X$X$X$X$X$X$X$X$X$X$X$X$X$X$X$X$X$X$X$X$X$X$X$X$X$X$X$X$X$X$X$X$X$X$X$X$X$X$X$X$X$X$X",
"$X$X$X$X$X$X$X$X$X$X$X$X$X$X$X$X$X$X$X$X$X[.$X$X$X$X$X$X$X$X$X$X$X$X$X$X$X$X$X$X$X$X$X$X$X$X$X$X$X$X$X$X$X$X$X$X$X$X$X$X$X$X$X$X$X$X$X$X$X$X",
"$X$X$X$X$X$X$X$X$X$X$X$X$X$X$X$X$X$X$X$Xu.G m.$X$X$X$X$X$X$X$X$X$X$X$X$X$X$X$X$X$X$X$X$X$X$X$X$X$X$X$X$X$X$X$X$X$X$X$X$X$X$X$X$X$X$X$X$X$X$X",
"$X$X$X$X$X$X$X$X$X$X$X$X$X$X$X$X$X$X$X$X%.% C '.$X$X$X$X$X$X$XQ.N.`.$X$X$X$X$X$X$X$X$X$X$X$X$X$X$X$X$X$X$X$X$X$X$X$X$X$X$X$X$X$X$X$X$X$X$X$X",
"$X$X$X$X$X$X$X$X$X$X$X$X$X$X$X$X$X$X$X$X(.Y S /.6X6X7X6X7X$XQ.f = -.$X$X$X$X$X$X$X$X$X$X$X$X$X$X$X$X$X$X$X$X$X$X$X$X$X$X$X$X$X$X$X$X$X$X$X$X",
"$X$X$X$X$X$X$X$X$X$X$X$X$X$X$X$X$X$X$X$X&X7X<XrXpXaXsXsXsXiXV.& = u.$X$X$X$X$X$X$X$X$X$X$X$X$X$X$X$X$X$X$X$X$X$X$X$X$X$X$X$X$X$X$X$X$X$X$X$X",
"$X$X$X$X$X$X$X$X$X$X$X$X$X$X$X$X$X$X%X7X4X2XeXyXsXsXsXdXsXsXtXG.I.%X$X$X$X$X$X$X$X$X$X$X$X$X$X$X$X$X$X$X$X$X$X$X$X$X$X$X$X$X$X$X$X$X$X$X$X$X",
"$X$X$X$X$X$X$X$X$X$X$X$X$X$X$X$X$X$X4X4X1X8XtXpXaXsXsXsXfXsXfXfXsXiX%X$X$X$X$X$X$X$X$X$X$X$X$X$X$X$X$X$X$X$X$X$X$X$X$X$X$X$X$X$X$X$X$X$X$X$X",
"$X$X$X$X$X$X$X$X$X$X$X$X$X$X$X$X$X^.F.D.K.-X2XtXpXsXpXdXdXdXdXfXfXfX6X$X$X$X$X$X$X$X$X$X$X$X$X$X$X$X$X$X$X$X$X$X$X$X$X$X$X$X$X$X$X$X$X$X$X$X",
"$X$X$X$X$X$X$X$X$X$X$X$X$X$X$X$X'.g.) E ( c.P.4XtXtXyXpXaXaXdXdXfXfXsX&X$X$X$X$X$X$X$X$X$X$X$X$X$X$X$X$X$X$X$X$X$X$X$X$X$X$X$X$X$X$X$X$X$X$X",
"$X$X$X$X$X$X$X$X$X$X$X$X$X$X$X$XW.p.D % 1 S D S.;X-X0XtXpXaXaXaXfXfXfX6X$X$X$X$X$X$X$X$X$X$X$X$X$X$X$X$X$X$X$X$X$X$X$X$X$X$X$X$X$X$X$X$X$X$X",
"$X$X$X$X$X$X$X$X$X$X$X$X$X$X$X$XV.p.f X U / 1 U k.D.:X-X*XH.P.8XyXsXaX5X$X$X$X$X$X$X$X$X$X$X$X$X$X$X$X$X$X$X$X$X$X$X$X$X$X$X$X$X$X$X$X$X$X$X",
"$X$X$X$X$X$X$X$X$X$X$X$X$X$X$X$XV.a.Q * 1 D A l.H.s.E R ` f 4 f.tXaXsX>X~.$X$X$X$X_.!.~.{.$X$X$X$X$X$X$X$X$X$X$X$X$X$X$X$X$X$X$X$X$X$X$X$X$X",
"$X$X$X$X$X$X$X$X$X$X$X$X$X$X$X$XV.i.s.G 1 S P.rXtXrXC.D S 2 = 7.tXaXaXK.b.$X$X$X{.*.Z f u.$X$X$X$X$X$X$X$X$X$X$X$X$X$X$X$X$X$X$X$X$X$X$X$X$X",
"$X$X$X$X$X$X$X$X$X$X$X$X$X$X$X$XB.) p.h.p.p.H.9XrX0X0XG.f 2 P OXpXyXtXk.=.%X$X$X{.L t < Y $X$X$X$X$X$X$X$X$X$X$X$X$X$X$X$X$X$X$X$X$X$X$X$X$X",
"$X$X$X$X$X$X$X$X$X$X$X$X$X$X$X$X/.~ ( t.p.E g I ;.H M.yXOXI.+XtXrXeX;XQ Q {.$X$X$XG , r t n.$X$X$X$X$X$X$X$X$X$X$X$X$X$X$X$X$X$X$X$X$X$X$X$X",
"$X$X$X$X$X$X$X$X$X$X$X$X$X$X$X$X(.W E ) ) ( D - - I ^.>XP.P.,X4X1X;Xc.N K $X{.n.%.Z < 3 % t _.$X$X$X$X$X$X$X$X$X$X$X$X$X$X$X$X$X$X$X$X$X$X$X",
"$X$X$X$X$X$X$X$X$X$X$X$X$X$X$X$X$XY U ~ ) ( R A U d.G.=XJ.a.z.J.K.x.C < G ].Q.3 < f t 2 O - Q.$X$X$X$X$X$X$X$X$X$X$X$X$X$X$X$X$X$X$X$X$X$X$X",
"$X$X$X$X$X$X$X$X$X$X$X$X$X$X$X$X$Xu.3 R ~ W R E t.z.P.*Xz.t.i.i.` N ; ; 2 u.}.K g k 0 g & O &.{.$X$X$X$X$X$X$X$X$X$X$X$X$X$X$X$X$X$X$X$X$X$X",
"$X$X$X$X$X$X$X$X$X$X$X$X$X$X$X$X$X!.; 3 U W A W t.a.z.h.t.^ ^ A 1 - , 3 2 t U._.Z g 0 < & O r (.$X$X$X$X$X$X$X$X$X$X$X$X$X$X$X$X$X$X$X$X$X$X",
"$X$X$X$X$X$X$X$X$X$X$X$X$X$X$X$X$X`.r X 4 S U T E ) t.^ / U N & * ; ; ; ; , M T.N.0 , > ; O + -.$X$X$X$X$X$X$X$X$X$X$X$X$X$X$X$X$X$X$X$X$X$X",
"$X$X$X$X$X$X$X$X$X$X$X$X$X$X$X$X$X_.M $ X O 4 N D S S D 1 % + & * * - - ; ; 2 t u.C & & + X + t (.$X$X$X$X$X$X$X$X$X$X$X$X$X$X$X$X$X$X$X$X$X",
"$X$X$X$X$X$X$X$X$X$X$X$X$X$X$X$X$X{.M X . . .   . X .   X + & = * & * - ; = ; < f = X # X X + + -.$X$X$X$X$X$X$X$X$X$X$X$X$X$X$X$X$X$X$X$X$X",
"$X$X$X$X$X$X$X$X$X$X$X$X$X$X$X$X$X{.V X . X     .   . X & & & & * & O & - ; ; 2 3 X   X X X + & B '.$X$X$X$X$X$X$X$X$X$X$X$X$X$X$X$X$X$X$X$X",
"$X$X$X$X$X$X$X$X$X$X$X$X$X$X$X$X$X{.F X X X . . . # + & = & * + & X X X O & & ; * o o X O O O & = U.$X$X$X$X$X$X$X$X$X$X$X$X$X$X$X$X$X$X$X$X",
"$X$X$X$X$X$X$X$X$X$X$X$X$X$X$X$X$X'.C % X O X + % * & & - & + + X X o o o o o % %     X O O & & & %.$X$X$X$X$X$X$X$X$X$X$X$X$X$X$X$X$X$X$X$X",
"$X$X$X$X$X$X$X$X$X$X$X$X$X'.$X$X$X`.M + & < C P Q P H p * * * O X X . o o o X & O       o O & & & M _.$X$X$X$X$X$X$X$X$X$X$X$X$X$X$X$X$X$X$X",
"$X$X$X$X$X$X$X$X$X$X$X$XN.B m.$XU.K r B Q k.K.oX:X-X>XOX7.Z * + X o . . o X X = o       o O $ & & = Y.$X$X$X$X$X$X$X$X$X$X$X$X$X$X$X$X$X$X$X",
"$X$X$X$X$X$X$X$X$X$X`.Q.K = F Y % , I a.D.L.P.=X-X<X2X0XtX2XM.f X o . X X . % = o         X + & & O :.$X$X$X$X$X$X$X$X$X$X$X$X$X$X$X$X$X$X$X",
"$X$X$X$X$X$X$X$X$X(.F 1 1 # % # . D a.S.K.L.P.OX;X<X2X0XtXaXaX-XE %   X o X # O . .     o X O & & O =.$X$X$X$X$X$X$X$X$X$X$X$X$X$X$X$X$X$X$X",
"$X$X$X$X$X$X$X$X$Xu.= = $ o % X # ~ j.D.K.L.P.oX-X<X2X8XtXpXaXyX-X) %   X . X X . . . . o X % % + O =.$X$X$X$X$X$X$X$X$X$X$X$X$X$X$X$X$X$X$X",
"$X$X$X$X$X$X$X$X$Xn.% % X # $ . = i.z.D.F.J.L.*X-X,X1X8XrXyXaXpX3XF.A X   . X . . . . . . X # % + O =.$X$X$X$X$X$X$X$X$X$X$X$X$X$X$X$X$X$X$X",
"$X$X$X$X$X$X$X$X$X$Xu.r   $ $   1 i.z.z.G.H.L.*XoX-X<X2X9XyXaXaXyX;Xj.N .   . . . . X X X X O $ O O -.$X$X$X$X$X$X$X$X$X$X$X$X$X$X$X$X$X$X$X",
"$X$X$X$X$X$X$X$X$X$X$XY.r = % . D i.j.z.Z.F.H.L.*X-X<X1X3XrXpXdXdXtX=Xt.3   . . . . . X o X X X X $ U.$X$X$X$X$X$X$X$X$X$X$X$X$X$X$X$X$X$X$X",
"$X$X$X$X$X$X$X$X$X$X$X$X`.Y.u.J W i.a.c.x.D.H.H.L.oX-X;X1X9XuXaXaXdXeXF.~ 1     . . . X . X o o o M '.$X$X$X$X$X$X$X$X$X$X$X$X$X$X$X$X$X$X$X",
"$X$X$X$X$X$X$X$X$X$X$X$X$X$X$X$Xs.i.i.h.k.x.Z.Z.H.K.P.:X,X4XeXuXaXaXpX-Xh.T 3     . . . . . o o & U.$X$X$X$X$X$X$X$X$X$X$X$X$X$X$X$X$X$X$X$X",
"$X$X$X$X$X$X$X$X$X$X$X$X$X$X%X'.p.t.t.p.s.k.c.C.D.F.L.P.=X<X3XuXyXaXpX4XS.t.U m X       o o o & u.$X$X$X$X$X$X$X$X$X$X$X$X$X$X$X$X$X$X$X$X$X",
"$X$X$X$X$X$X$X$X$X$X$X$X$X$X%X(._ ) _ i.p.a.g.c.Z.D.H.L.P.;X1XwXuXyXaXrXP.h.t.U D = .   o O y m.$X$X$X$X$X$X$X$X$X$X$X$X$X$X$X$X$X$X$X$X$X$X",
"$X$X$X$X$X$X$X$X$X$X$X$X$X$X$XW.) ) ) _ 7.p.s.k.x.D.G.H.L.*X,X3XwXuXyXpX,XS.i.t.E U N # O u ,.}.$X$X$X$X$X$X$X$X$X$X$X$X$X$X$X$X$X$X$X$X$X$X",
"$X$X$X$X$X$X$X$X$X$X$X$X$X$X$XW.^ ) ) ) ) ` d.s.k.x.S.F.K.P.:X1X8XuXyXyXwXP.z.a.t.E r & @ X.0. X$X$X$X$X$X$X$X$X$X$X$X$X$X$X$X$X$X$X$X$X$X$X",
"$X$X$X$X$X$X$X$X$X$X$X$X$X$X%XW.) ^ ( ( ^ ) t.a.j.c.x.G.H.L.*X;X4XwXuXyXuX4XJ.z.d.C @ 5 5 [ 9.e.{.$X$X$X$X$X$X$X$X$X$X$X$X$X$X$X$X$X$X$X$X$X",
"$X$X$X$X$X$X$X$X$X$X$X$X$X$X$XW.^ ^ ^ ~ ~ / _ p.s.k.z.Z.G.J.P.*X,X3XwXuXuXuX-XZ.K i 8 6 i [ 9.r.|.$X$X$X$X$X$X$X$X$X$X$X$X$X$X$X$X$X$X$X$X$X",
"$X$X$X$X$X$X$X$X$X$X$X$X$X$X$X(._ ~ ^ ~ E ^ ( i.s.h.c.x.D.F.K.L.*X,X3XwXuXuX>X9... .X.] [ #.3.q. X{.$X$X$X$X$X$X$X$X$X$X$X$X$X$X$X$X$X$X$X$X",
"$X$X$X$X$X$X$X$X$X$X$X$X$X$X$X}.y.^ ~ ~ ~ ~ ( ` i.s.c.z.S.D.F.K.K.*X,X4X4XE.r.1... . .[ { ..#.$.w._.$X$X$X$X$X$X$X$X$X$X$X$X$X$X$X$X$X$X$X$X",
"$X$X$X$X$X$X$X$X$X$X$X$X$X$X$X$XB.E ~ E ~ ^ ^ ) i.p.s.k.x.D.G.F.J.L.P.E.0... .1.[ [ [ } } } | ..5.R.}.{.$X$X$X$X$X$X$X$X$X$X$X$X$X$X$X$X$X$X",
"$X$X$X$X$X$X$X$X$X$X$X$X$X$X$X$XT.k J E E ~ ^ ) _ t.d.s.k.x.D.F.G.M.$.1.<.[ [  .] } } } } O.#.3.9.e.R.}.$X$X$X$X$X$X$X$X$X$X$X$X$X$X$X$X$X$X",
"$X$X$X$X$X$X$X$X$X$X$X$X$X$X$X$X;.s p f P ~ ( ^ ) ` i.s.g.l.V.7.2.] ] [  .z d b { | } } ..3.3.0.9.9.$.=.{.%X$X$X$X$X$X$X$X$X$X$X$X$X$X$X$X$X",
"$X$X$X$X$X$X$X$X$X$X$X$X$X$X$X!.x a p > 0 f J Q ~ ( ! ! ! O.b l ' i u l u e b { | | 2.5.5.3.3.3.O.j 2 r n.$X$X$X$X$X$X$X$X$X$X$X$X$X$X$X$X$X",
"$X$X$X$X$X$X$X$X$X$X$X$X$X$X$Xu.d d p p 0 @ > w 9 q a 5 5 e 7 5 8 8 6 6 a c { +.#.2.6.5.5.2.n 9 * , , , f N.$X$X$X$X$X$X$X$X$X$X$X$X$X$X$X$X",
"$X$X$X$X$X$X$X$X$X$X$X$X$X$X{.*.d d a p 0 p > > > 9 5 @ @ 7 7 7 6 6 8 l v n n O.+.2.6.2.v w * * - ; , , , B Y.$X$X$X$X$X$X$X$X$X$X$X$X$X$X$X",
"$X$X$X$X$X$X$X$X$X$X$X$X$X$X[.K p d h h p p < w 9 9 9 7 6 7 6 7 6 6 d l x c c v { O.k * X + & * * ; , ; , ; V (.$X$X$X$X$X$X$X$X$X$X$X$X$X$X",
"$X$X$X$X$X$X$X$X$X$X$X$X$X{.{.L 0 d h h h p p 0 9 0 w 6 6 8 8 8 e e s h h x H x 0 +   X + + & * * * - ; ; , < %.[.$X$X$X$X$X$X$X$X$X$X$X$X$X",
"$X$X$X$X$X$X$X$X$X$X$X$X$X$X$X&.$ q s h c x h h j p p e e 8 e e e h j j j 0 & o   .   X # $ % & & - - - - , , < n.$X$X$X$X$X$X$X$X$X$X$X$X$X",
"$X$X$X$X$X$X$X$X$X$X$X$X$X$X{.~.2 X + - > 0 q g q 0 0 0 j L @.>.>.*.@.K t $       . o # # X % % + % & - = = - , C `.$X$X$X$X$X$X$X$X$X$X$X$X",
"$X$X$X$X$X$X$X$X$X$X$X$X$X$X$X$XT.t X . o o o . % 1 N n.(.'.$X$X$X$X{.[.'.N.F O . o X $ $ O X X + + % & * * = - Z |.%X$X$X$X$X$X$X$X$X$X$X$X",
"$X$X$X$X$X$X$X$X$X$X$X$X$X$X$X$X{._.F + O * 4 g Z P %.'.$X$X$X$X$X$X$X$X$X$X{.U.K * o X X X X X X X + % % % 0 7.@XqX&X$X$X$X$X$X$X$X$X$X$X$X",
"$X$X$X$X$X$X$X$X$X$X$X$X$X$X$X$X$X{.L > > w g G P H b.$X$X$X$X$X$X$X$X$X$X$X$X$X$XU.F X       o X X X X + k 7.+X@X7X#X$X$X$X$X$X$X$X$X$X$X$X",
"$X$X$X$X$X$X$X$X$X$X$X$X$X$X$X$X$X{.o.> 9 9 9 p Z K T.$X$X$X$X$X$X$X$X$X$X$X$X$X$X$X{.N.V $   o   X X X g 7.A.A.E.XX@X%X$X$X$X$X$X$X$X$X$X$X",
"$X$X$X$X$X$X$X$X$X$X$X$X$X$X$X$X$X$X}.~.Y.T.Y.!.(.[.{.%X$X$X$X$X$X$X$X$X$X$X$X$X$X$X$X$X{.Y.K ;       3 P ;.q..XXXXX.X#X$X$X$X$X$X$X$X$X$X$X",
"$X$X$X$X$X$X$X$X$X$X$X$X$X$X$X$X$X$X{.%X{.{.$X%X{.$X$X$X$X$X$X$X$X$X$X$X$X$X$X$X$X$X$X$X$X$X{.).=.C g P T ;.6.4.4..X4.q.}.$X$X$X$X$X$X$X$X$X",
"$X$X$X$X$X$X$X$X$X$X$X$X$X$X$X$X$X$X$X$X$X$X$X$X$X$X$X$X$X$X$X$X$X$X$X$X$X$X$X$X$X$X$X$X$X$X$X$X$X{.`.~.8.d n | +.4.2.| E.{.$X$X$X$X$X$X$X$X",
"$X$X$X$X$X$X$X$X$X$X$X$X$X$X$X$X$X$X$X$X$X$X$X$X$X$X$X$X$X$X$X$X$X$X$X$X$X$X$X$X$X$X$X$X$X$X$X$X$X$X$X$X~.K d d c b b v R.{.$X$X$X$X$X$X$X$X",
"$X$X$X$X$X$X$X$X$X$X$X$X$X$X$X$X$X$X$X$X$X$X$X$X$X$X$X$X$X$X$X$X$X$X$X$X$X$X$X$X$X$X$X$X$X$X$X$X$X$X$X$X$X{.).Y.U.w.R.).{.$X$X$X$X$X$X$X$X$X",
"$X$X$X$X$X$X$X$X$X$X$X$X$X$X$X$X$X$X$X$X$X$X$X$X$X$X$X$X$X$X$X$X$X$X$X$X$X$X$X$X$X$X$X$X$X$X$X$X$X$X$X$X$X$X$X{.$X$X{.$X$X$X$X$X$X$X$X$X$X$X",
"$X$X$X$X$X$X$X$X$X$X$X$X$X$X$X$X$X$X$X$X$X$X$X$X$X$X$X$X$X$X$X$X$X$X$X$X$X$X$X$X$X$X$X$X$X$X$X$X$X$X$X$X$X$X$X$X$X$X$X$X$X$X$X$X$X$X$X$X$X$X",
"$X$X$X$X$X$X$X$X$X$X$X$X$X$X$X$X$X$X$X$X$X$X$X$X$X$X$X$X$X$X$X$X$X$X$X$X$X$X$X$X$X$X$X$X$X$X$X$X$X$X$X$X$X$X$X$X$X$X$X$X$X$X$X$X$X$X$X$X$X$X"
};
