/* XPM */
static char *_7724e4ce0544e17f70ef37a08a86208bNPD40VpjEZ3kND2[] = {
/* columns rows colors chars-per-pixel */
"70 70 199 2 ",
"   c #F51914",
".  c #F61D1A",
"X  c #F62515",
"o  c #F62B17",
"O  c #F6231D",
"+  c #F62A1D",
"@  c #F73719",
"#  c #F62422",
"$  c #F62C23",
"%  c #F72C2D",
"&  c #F63426",
"*  c #F63B24",
"=  c #F7342A",
"-  c #F63B2C",
";  c #F83C2B",
":  c #F73D34",
">  c #F83D38",
",  c #F8401E",
"<  c #F7561D",
"1  c #F96618",
"2  c #FA7818",
"3  c #F8422B",
"4  c #F74B29",
"5  c #F75427",
"6  c #F54434",
"7  c #F94C31",
"8  c #F8443B",
"9  c #F74839",
"0  c #F55235",
"q  c #F95334",
"w  c #F95A34",
"e  c #F55B39",
"r  c #F95C3B",
"t  c #F86D24",
"y  c #F86829",
"u  c #F97B23",
"i  c #F87529",
"p  c #F86735",
"a  c #F9643E",
"s  c #F96D3C",
"d  c #F77834",
"f  c #F97C34",
"g  c #F64445",
"h  c #F84944",
"j  c #F84E4B",
"k  c #F75744",
"l  c #F8544C",
"z  c #F85554",
"x  c #F0545A",
"c  c #F95B5B",
"v  c #F86646",
"b  c #F8684A",
"n  c #F96B4D",
"m  c #F97C47",
"M  c #F96C53",
"N  c #F96758",
"B  c #F9635C",
"V  c #F97756",
"C  c #F66663",
"Z  c #F96D62",
"A  c #F96B6C",
"S  c #F7736B",
"D  c #F97373",
"F  c #FA7C75",
"G  c #F97C79",
"H  c #FB8616",
"J  c #FC981A",
"K  c #FEA31A",
"L  c #FCA91C",
"P  c #FEB61F",
"I  c #F8862A",
"U  c #F78D2C",
"Y  c #F9942C",
"T  c #F99928",
"R  c #F98732",
"E  c #FB8B3C",
"W  c #F99335",
"Q  c #F99C33",
"!  c #F9973A",
"~  c #FAA524",
"^  c #FAAC23",
"/  c #FBA62B",
"(  c #F9AC2B",
")  c #FCB323",
"_  c #FDBC26",
"`  c #FBB42A",
"'  c #FBBC2C",
"]  c #F7A337",
"[  c #FAA533",
"{  c #FBAB32",
"}  c #FBA43B",
"|  c #FAAA3C",
" . c #FAB335",
".. c #FAB836",
"X. c #FBBB3B",
"o. c #FEC926",
"O. c #FCC52B",
"+. c #FDCA2C",
"@. c #FED328",
"#. c #FEDB2D",
"$. c #FCC533",
"%. c #FBCB34",
"&. c #FDC43E",
"*. c #FBCD3B",
"=. c #FCDA38",
"-. c #FEE42F",
";. c #FEE432",
":. c #FEEC34",
">. c #FCE738",
",. c #FDED3A",
"<. c #FFF536",
"1. c #FFFD3A",
"2. c #F98448",
"3. c #FC9B44",
"4. c #F8994A",
"5. c #F78657",
"6. c #F99558",
"7. c #FAAB46",
"8. c #F8A648",
"9. c #F9AB4E",
"0. c #FAB748",
"q. c #FBA25C",
"w. c #FAAB58",
"e. c #F98A64",
"r. c #FC9266",
"t. c #FA9D6C",
"y. c #FA8177",
"u. c #FA837E",
"i. c #FD9473",
"p. c #FBAA62",
"a. c #FBA26B",
"s. c #FCA96D",
"d. c #FBB868",
"f. c #FBBD6D",
"g. c #F7A570",
"h. c #FCAD75",
"j. c #FBB777",
"k. c #FBC547",
"l. c #FBCB57",
"z. c #FCD05D",
"x. c #FDEA4C",
"c. c #FCC263",
"v. c #FDD86A",
"b. c #FCC879",
"n. c #FDD77C",
"m. c #FA8283",
"M. c #FA8688",
"N. c #FA8C8D",
"B. c #FB8F95",
"V. c #FB9595",
"C. c #FB9995",
"Z. c #FB969B",
"A. c #FB9B9D",
"S. c #FCBD81",
"D. c #FBA3A5",
"F. c #FBA9AB",
"G. c #FBADB2",
"H. c #FCB4B7",
"J. c #FCBABE",
"K. c #FCCD8B",
"L. c #FDD686",
"P. c #FEE798",
"I. c #FDEBA0",
"U. c #FCBDC1",
"Y. c #FBBCC9",
"T. c #FCC3C7",
"R. c #FCC5CB",
"E. c #FDC9CD",
"W. c #FCC4D0",
"Q. c #FCCBD4",
"!. c #FDCED9",
"~. c #FCD3D5",
"^. c #FDD3DD",
"/. c #FEDBDE",
"(. c #FDD7E0",
"). c #FDDCE4",
"_. c #FEDFE8",
"`. c #FDE1E7",
"'. c #FDE4EB",
"]. c #FEE9EE",
"[. c #FDEDF1",
"{. c #FDEEF2",
"}. c #FEEEF3",
"|. c #FEEFF3",
" X c #FDF0F3",
".X c #FEF2F5",
"XX c #FDF2F6",
"oX c #FEF2F6",
"OX c #FFF3F7",
"+X c #FDF4F7",
"@X c #FEF4F7",
"#X c #FFF3F8",
"$X c #FDF6F9",
"%X c #FDF7F9",
"&X c #FFF6FA",
"*X c #FDF9FB",
"=X c #FEF8FA",
"-X c #FEF8FB",
";X c #FEFAFC",
/* pixels */
"&X&XOX#XOX{.XXOX{.{. X{.{.{.{.{. X{.{.]. X].].{.{.]. X@X%X&X=X;X;X;X;X;X;X;X;X;X;X;X&XOXOXXX#X%X&X&X&X&XOXOXOX XOX{.{. X@XOXOX&XOXOX{.{.{.].",
"&XOX&X#XXXOXOX{.{.{. X{. X{.{.{. X X{.{.@X X].{.{.{.OX@X&X&X;X;X;X=X*X;X;X;X*X;X;X=X&X&X&X%XXX%X%X&X&X&X&X#X{. X X X{. X XOXOXOXOXOX{. X X{.",
"#X&XOXOXOXOXOX X{. X@XOXOX{.{.{.{.].{.{. XOX{.{.OX{.OX@X&X*X;X;X;X=X;X;X;X;X;X;X;X=X%X+X%X%X#X&X&X&X&X&X&X#X{.[.{.].].{.].].{.OXOX X X X@XOX",
"&X@XOXOXXX&X@XXXOX+X%X&X{.{.{.].].].].].{.].].OX XOX&X=X&X;X=X;X=X;X;X;X;X;X;X;X=X*XXXXXXX+XOX%X+X&X&X#X#XOXOX[.].'.'.`.).].OXOXOXOX XOXOX&X",
"&X@X&X&X&X&X;X&X&X=X&X@X{.{.{.{.{.].].].].{.{.XXXX@X=X=X=X;X;X=X*X&X;X;X;X;X;X;X&XXX]._.].]. XXX#XOX@X@X&XOX{.[.'.'._.).).{.OXOX&XOXXX+X&X&X",
"&X&X=X;X=X;X;X;X;X=X=XOXOX{.{.{.{.].{.].{.{. X{.OX&X&X=X;X=X=X;X=X;X;X=X;X*X&X&XOX{.'._.`.'.].].{.{.OX X{.{.[.].'.'.`._.{.OXOXOXOX&XOX%X=X&X",
"&X&X=X=X=X;X;X;X;X;X&XOXOX{.{.{.{.{.{. X X X|.#XXX&X%X&X=X=X;X=X;X=X;X;X%X&X&XOXOX{.].].].].].].{.].{.].'.`.{.{.].'.'.].OXOXOXOX#XOX&X;X;X&X",
"=X=X=X;X;X;X;X;X;X=X&XOXOX{.{.{. X{.].{.OX@XOX%X&X%X&X%X#X&X=X=X&X;X=X;X=X&X%XXX%X%X&X{. X{.OXOXOXOXOX{.{.{.{.{. X].{.{.OXOX#X&X&X&X&X&X;X&X",
"=X;X;X;X;X;X;X;X=X&XOX X X X{.].{.'.].{.OXOX&X#X&X&X@X{.{. X@X@X%X%X&X*X&X=X&X&X&X=X=X&X&X&X=X;X*X&XXXOXOXOX&X@X@X@X{.OXOX@X%X&X&X%X&X;X&X;X",
"=X=X;X;X;X;X;X=X=X&X{.{.{.].{.].'.].{.{.%X%X%X#X@X{.{.{.'.{. XOX&X&X%X&X;X=X;X=X=X;X;X;X;X;X=X=X&X%X&XOX@X#X+XXXOX@XOXOX&X+X&X=X&X%X*X-X&X;X",
"@X&X=X;X;X;X=X=X&XOX{.{.].`.`.'.'.{.OX&X&X-X&X%X{.].'.`.`.{.{. XOXOX%X&X=X;X=X;X;X;X;X;X;X;X;X;X*X&XXX&XXXOXOX&X%XOXOXOXOX{.XX=X=X=X=X;X;X*X",
"#X@X=X;X=X=X&X&XOX{.].].`.^.`.'.].OX&X&X;X-X%X#X].].`.).).'.].{.].{.#X%X;X=X;X;X=X;X;X;X;X;X;X;X*X*X&X&XOXOX{.{.{.{.{.].].'.OX;X;X=X;X;X&X*X",
"OXOX&X%X@X&XOXOXOX X{.'.`.'.'.].{.OX%X%X=X=X*XOX].`.(.).).).`.'.].].#X&X&X*X;X;X;X;X*X;X;X;X;X;X;X=X&X&XOXOX{.'.'.'.'.`.`.].+X=X;X;X;X;X&X;X",
"OXOXXXOXOXOXOX{.].'.).).'.].]. XOX#X&XXX&X=X+X@X@X'.`.'.'.).`.'.].XX).M.).*X;X;X;X;X;X;X;X;X;X=X=X&X%XOXOXOX{.'.'.].].'.`.].].&X;X;X*X;X*X;X",
"OXOXOX#XOX{.{.{.'.).).`.].]. XOXOXOXOXXXOXOX+X&X%XOXOXOX X{.].].{.*XD.X A.;X;X;X;X;X;X;X;X;X*X=X%XOXOXOXOX{.].'.].{.{.{.].].].{.*X;X;X;X;X;X",
"#X&XXX&X X{.].'.`.`.`.'.].{.{.{.{.{.{.OX&X&X&X&X&X&X&X%X@X@X@X@X{.J.C + F.=X;X;X;X;X;X;X;X;X=X@XOXOXOXXXOX X].`.'.{. X X{.].].].=X;X;X*X;X;X",
"&X&XOX X{.].'.'.'.'.'.'.].{.{.{.].].{.&XOX&X&X&X=X;X&X&X&X&X=XE.m.y 2 4 J.;X=X=X=X=X=X=X&X&X&X{.].{. X X@X{.'.].].{.OX{.].].].{.%X=X;X;X;X;X",
"&XOXOX{.'.'.{.'.'.'.'.].].{.{.'.].].{.OX#X&X=X;X;X;X;X=X&X&XJ.a Y %...y B `.=X=X&X&X&X&X&XOX{.{.{.{.{.{. X].`.`.].{.{.{.{.{. XOX-X;X;X;X;X;X",
"OXOXOX{.{.].[.'.'.'.].].{.{.'.).'.].{.#X&X;X=X;X;X;X*X&X&X].M $.=.' Q w.u N.+X%X%X%XOX&XOX{.'.].].].].{.]._.).).`.].{.{.{.{.].&X;X=X;X;X;X;X",
"XXOXOXOX{.{.{.[.].].].].].'.).^.`.{.{.OX%X;X;X;X;X*X&X&X*XU.i k.| U 2.k.] 7 A `.&XXXOXOX{.'.).).`.`.'.`._.'.).].].].{.{.{.'.'.OX=X*X;X;X;X;X",
"OXOXOXOX{.{.{.].].].].].`.).^.!.].{.XXXX&X;X*X&X=X;X&X;X;XN.T $.Q W 9.l.9.i j '.+XOX{.{.'.).^.!._./.).(.).`.`.].'.{.{.{.{.'. XOX;X;X;X*X*X*X",
"OXOXOX{.OX{.{.'.'.'.].].`.).^.).].{.&X#X%X=X*X&X;X=X*X*X@XZ { %.( 7.0.c.0.U S XXOX{.{.'.).^.^.^.^.^.).'.).'.'.'.{.].].{.].'.{.#X*X*X&X&X;X&X",
" XOXOXOXOXOX{.].'.{.{.].'.).`.'.].OX#X+X&X;X*X%X*X=X*X;X].b  .$.^ 0.d.b.0.T G OX X{.{.`.^.^.).).(.).`.].].].{.'.].].].'.'.{.{.&X*X&X&X=X*X*X",
" XOXOXOXOX{.{.[.{.].].{.].).).].].{.XX#X%X%X&X%X*X*X*X*X{.n  .' ( 4.K.j.7.t A.OX X{.`.^.Q.).).).).).`.].{.].].].].{.].'.`.'.{.OX%X{.{.%X&X*X",
" XOXOXOX@X X].].]. X{.{.].].]. X{.{. XXX&X&X&X&X;X;X=X&X XV ` ^ Q w.b.9.Y * F.OX].'.(.^.).`.`.).).).).'.'.[.].].'.`.`.).).).'. XOX{.].{.XXXX",
" XOXOXOX@X X X X X X X X{.{.].].].{.XX&X=X&X=X;X;X;X&X;X=XF [ d.4.7.b.0.0.< N.J.M.W.(.).].`.).).(.^.'._.'.'.].`.).^.).).).`.`.'.[.)._.].{.OX",
" XOXOXOX@X XOX X X{. X X X{.].].].{.OX@X=X;X=X;X;X;X*X;X@XC 6.P.7.O.n.v.l.y m.j - M.).`.'._.(.(.^.).(.(.).'.`.(.^.).).).).).`.).(.(.(.).[.'.",
" XOX XOX@X X X X X X X X{.{.'.].].{.OXOX=X=X=X=X;X;X;X;XJ.q s.h./ -.x.v.=.' y k V g Q.`._.).!.^.^.^.^.(.)._.).^.^.).).'.).).`.`.).]._.].[.).",
"@X@X@XOX X X X X X{. X X X].].'.'.{.OXOX@X&X=X;X;X;X;X/.B h.2.W L :.x.z.0.*.*.q.k C (._.).(.!.^.^.^.^.^.)._._.).'.).).'.).'.{.].'.[.].#X{.`.",
"OX@X@X X X X]. X X{. X X{.].'.'.].]. X@X=X=X;X=X*X;X;XN.a.h.$ I L -.1.l.j.L.n.q.4.p B.(.`.(.^.^.^.`.).`.'.).).).'.'.'.).`.`.'.{.].].|.&X%XOX",
"OX@XOXOX X X X X X{. X].].{.].].].]. X&X;X=X=X=X*X%X;XF.5.K.- w T o.,.8.h.c.| ..X...i N H.).).).`.'.'.{.'.'.).).'.).).).).'.].{.{.{.&X;X%X&X",
" XOX X X@X X XOX X{.{.].]. X]. X X XOX@X&X*X&X&X&X=X;X{.D h.a.r f P >.8.Q ^ ^ ^ X.=.! t p D.).).{.{.OXOX#XOX].'.].].{.{.].`.].{.{.&X%X%X%XXX",
" X X XOX X X X X X{.{.{.].].{. X{.#X&X%XOX&X&XOXOX&X&X;XU.6 t.6.d.9...X.~ ^ ^ ~ ] <.*.5 u v Y.).{.{.XX+XOX[.[.{.{.#X#XOX{.[.[.[.#X&X;X;X&X&X",
"]. XOX X X{.{. X{.{.{. X X{.{. X{.XX%X*XXXXXXX&XOX&X;XE.j 6 d 7.w.6.3.( ( T ~ ~ Y #.,.d @ t A.).'.].'.{.'.[.{.#X{.{.|.].{.{.[.{.{.@X=X=XXXXX",
"{.{. X X XOX X X X{.{.{.OX X X X{.OX*X*X%XOXOX%XOX#X#XS 3 v Q [ ]  .] ` ] R I U U _ ,.3.o < u.].].{.{.{.{.{.#X#X#X|.].].OX{.{.|.{.#X{.{.{.%X",
"]. X X{.OX=X=X X X{. X X+X X+XXX{.OX*X*X*X*X%X&XOX&X).h w w } } _ %.| @...v m s Y ^ %.3.* o N XXXXOX%X%X{.{.OX{.|.[.].].#X#X#XOXOX{.].{.XX{.",
" X]. X X{. XOX{.@X&X XOX&X%X&X%X{.OX&X&X%X%X&X%XOXOXR.6 a + ( 0...' 7.o.Q k 6.b i L [ 3.0 z D OXOXOX&X+XOXOXOXOX].].{.{.{.{.{.].].`.'.].'.(.",
"@X{.].{.{.{. XOX=X;X=X=X=X&X&XXX{.#XOX&X&X#XXXOXOXOXR.: k 7  .#.| 7.9...t n 5.e + 2 W 4.e Q.].&XOX{.+XOX{.{.{.{.{.OX{.'.`.{.)._.`.).)._.(.).",
"&XOX X X{.{.OX&X&X;X=X=X&X*X&X&XXXXXOXXX#X+XOXOX+X&XU.6 7 r ! _ K ~ 9.w.5.0 O : N.w E ! N `.XX{.{.XX#X{.{.'._.].XXXX[.).).).).).'.).).'.'.{.",
"=X@X X X{. X{. XXX=X=X=X&X;X*X&XXXOXOX&X+XXX&X@XOX&XG.- = # < { 7.8.8.4.0 - $ g J.l m p m.+X{.{.#X#X+X+X{.'.(.`.{.].).).).).(.'.].`.).).{.{.",
"=X&X%XOX{.{.{.{.OX*XOXOX=X=X;X;X;X&X%X&XOX#X%XXXOX@XH.- = k j.n.l.[ ) ( e . 5 d x * m 7 A.*X@X&X&XOX&XOXOX'.^.).`.'.).`.`.`.`.{.{.'.`.'.{.{.",
"=X=X%XOXOX{. X{.{.&X X X;X;X;X%X;X%X&X#XOX#XXXOX X{.~.9 n K.p.T K ' >.^ 0 - 1 5 5.d s 7 N.&X=X&XXX&XXX{.{.'.^.^._._.`.'.].'.].OXOX].'.].OXOX",
"=X&X%X&XOX X{.{.{. X].{.;X;X*X;X&X*X&X&XOXXX#X{.].].R.N g.v 1 J +.>.1._ o 4 $ > N V 7 0 A ].J.G D E.&X X].).(.(.).`.].{.{.].]. XXX{.].{.OX%X",
"&X+X%X%XOX{. X X{.OX'.XX;X=X=X&X&X%X*X#XXXXX{.`.)._.Z.i.g.5 J K ;.,.1.O.o k A Q.T.h * 3 : c 6 7 7 l _.{.'.`.'.`.].{. X X{.{.{. X{.{.#X#X&X%X",
"+X@X&X=X@X X X{.{.{.].OX&X%X=X=X=X=X&XOXXX{.].'.'.'.M.j.S.s T ) ,.,.1.+.4 t.u.*XD.9 6 x = 3 0 0 r 3 F.{.{.].{.].{.{.XXOXOXOX XOX#X#X#X%X%X%X",
"@X&X=X=X@X X].].{.].{.OX=X=X;X;X;X&XOX{.{.{.'._._.(.B.V i.V R +.,.<.<._ f.j.u.A.h x g ~.G.S S M.h - M.OX XXXXX{.{.OX@X+XOXOXOX@X-X-X&X&X%X%X",
"=X=X@X=X=X%X X{.{.].{.%X;X=X=X=X=XOX X{.{.{.`._.V.j c 8 t.e.m &.,.-._ d.P.r.c k p.k D %X;X;X;X;XG + A.=XXXXX XXX+X=X&X&X@X&X@X@X-X+X%X&X%X%X",
"&XOXOX@X&X@X X@XOX{.{.OX=X;X*X%XXX@X X]._.)._.T.8 w & O w.d.m &.;.( 4.F S Z c M 2.j ~.;X;X%X/.D.9 - R.;X*X*X X].+X%X&X=X&X@X@X@X#X%X+X%X+X%X",
"&X{. XOX@XOX{. X{.{.'.].=X=X=X&X#XOX{.].).^.).Z.- = # @ W 6.2.$.| q.d.C 6 F.F.z D /.;X;X].D 8 # = c ].&X;X=XXX].%X=X;X;X=X#XOX X{.OX%X%X%X&X",
"=X%X].].{. X{.OX X].'.{.OX@XOX X{. X{.`.!.^.).D.% . + t Y W ` } r.d.5.R 1 F.;X+X;X;X;X;XT.= w = C M.~.;X;X;X%X+X=X=X=X;X;X&XOX{.OXOX%X%XOXXX",
"@XOX'.'.].'.`.{.OX X{. X X X X].{.{.'.^.^.).{.Q.% O p U ) ;.:.{ E ! ^ _ 2 C.=X;X=X;X;X;XOXm.3 - O + S &X;X*X;X=X=X;X=X=X=XXX{.#X@X&X@X&XOX X",
" X X{.].{.).^.]. X{.{. X X X X X{.{.].).`.OX=XJ.O O d ~ -.1.1.:.-.:.1.>.J Z  X*X;X;X;X;X=X@XF.g   O N.;X=X;X=X;X;X=X;X=X&XOXOXXX@X@X&X@XXX#X",
" X{.].].].).^.'.{.{.{. XOX X X X X{.]./.E.G.N.l * t L #.1.1.1.1.1.1.1.1.O.u N y.N.D.U.`.;X;X;XJ.z m.'.=X+X=X;X=X=X*X=X&X%XOXXXOX@X@XOXOXXXXX",
"].'.`._.(./.^._.).'.{.{. XOXOX@X{.{.Q.B 4 < 1 H J J o.<.1.1.1.1.1.1.1.1.<.O.O.' ( T i v C. X;X;X&X&X*X&X=X=X=X;X=X&X&X&XOXOXXXOX X X XOXOXOX",
"^./.^.^.(.(.(.).).].{.{. X@X XOX{.'.H.@ H J K K K J P -.<.1.1.1.1.1.1.1.1.:.O.,.1.,.=.' 5 Q.;X;X&X;X&X&X=X=X;X;X=X&XOX+XOX{.{.{. X X X XOXOX",
"(._.).^.^.^.(._.).'.].].]. X X X{.(.(.A.r 5 < < 2 2 2 H J P +.O.O.' ' O.~ R r y u d s M C. X;X;X=X=X&X&X=X=X;X=X%XOXOXOXOX{.{.{.{.]. X X].{.",
").'.'.`.).).).).).).'.{.{. X X{.].).'.%X_.W.U.F.V.m.u.G F F y.u.u.u.m.m.C.E.).T.U.E./.{.;X;X&X*X&X&X%X+X-X-X;X&XXX{.#X{.{.{.'.'.'.'.].].{.{.",
"'.'.{.].].].].(.).).'.].{.].].).)._.{.&X&X*X;X;X=X;X;X;X=X;X&X#X=X=X;X;X;X;X;X;X;X;X;X;X;X;X*X&X&X#X%X%X#X|.|.|.{.].'.'.`.`.).).^.^.(.'.'.).",
"|.{.{.{.].`.`.!.).).`.{.{.'.).).).'.].#X&X&X;X-X=X=X;X;X=X&X{.OX*X%X*X*X;X;X;X;X=X;X=X=X&X&X%X%X%X&X&X{.].'._.).`.).).(.^.^.^.!.!.(.^.!.!.^.",
"{.|.OX{.].{.'.`.).^.`.'.'.'.).'.'.'.[.{.OX{.{.|.&X=X;X=X#X{.{.{.%X%X*X*X;X;X;X;X;X=X=X@X&XOX&XOX{.{.{.).^.!.Q.!.^.!.^.^.(.).(.).(.).).!.!.^.",
"|.#X#XOX{.].].`._.).)._.).`.'.].{.[.{.[.[.[.].].].{.%XXX{.].].OX&X&X=X=X=X=X;X=X*X%XXX{.{.OX{.'.[.].).!.Q.Q.!.Q.^.).).'.].'.).`.'.).(.!.^.).",
"{.#XOX&XOX].].`.'.].).'.'.{.{.{.{.{.{.[.{.{.XX#X].].[.{.].{.OX&X&X&X&X&X=X=X=X;X&XOX{.].].'._.(.(.).(.^.^.!.^.!.).'.'.[.{.'.`.`.).).).].)._.",
"{.OXOXOXOX{.{.].).).).).{.{.OX{.OX{.OX{.#X%X-X%X#X[.{.{.]. X=X=X=X&X+X%X&X&X&X&XOX X{.'._.^.!.!.Q.^.(.(.(.^.(.).'.[.[.{.{.].].)._._.'.'.).).",
"OXXXOXOXOXOX{.[.'.'.[.[.#X#X;X&X&X&XOX&XOX&X+X%X&X%X&X&XOX&X=X=X=X&X&X&X@X XOX{.{.OX].).).^.!.Q.^.(.(.(.(.(.).'.].[.OXOX[.{.'.].'.'.].'.'.].",
"XXOX&X%X#XOX[.'.{.{.XXXX&X-X;X;X-X&X&X&X&X&X%X&X*X;X;X%X&X%X&X=X&X;X&X&XOXOX X X X{.`._.).).).!.^.(.^.(._._.'.{.XXOXXXOX{.'.'.'.'.].{.'.'.).",
"%X%X%X%X%XXX{.OXXX&X%X-X;X;X*X&X;X&X&X&X;X=X;X&X=X%X&X%X&X&X&X;X;X=X&X&XOX{. X{.].`.).).).).^.^.^.^.^.^.).'.{.OX#X#XOX{.[.).].'.'.].'.'.'.{.",
"%X&X*X&X*X&X&X%X*X*X-X*X%X;X;X;X=X;X*X;X=X;X&X*X;X;X&X&X&X&X;X&X=X;X=X&XOX{.].].).^.!.^.(.(.(.(.(.)._._.].OXOX&X#X%X#X{.].'.{.{.{.{.).[.'.].",
"*X*X;X*X;X=X&X&X;X;X;X;X;X;X;X;X;X=X=X&X=X=X*X&X&X&X%X&X=X&X&X=X;X=X=X%XXX{.'.`.^.^.).^.).).).)._.'.{.[.OXOX&XOX&X%XOXXX{.].OX{.{.].'.).[.].",
";X;X*X*X;X;X;X;X;X;X;X;X;X;X;X=X&X&X&X+X&X&X%X&X&X+X%X&X=X%X&X%X&X&X&XXX{.{.`./.R.!.~.).).'.].[.].{.{.XXOX&X&XXX%XOXXX#XOX{.{.OX{.'.).'.[.[.",
";X;X*X;X;X;X;X;X;X;X;X;X;X-X%X%X&X&X@XOXOXXXOXOX#X-X%X&X;X&X%X%X&X&X#X#X{.].`.^.Y.Q.!.).'.[.[.[. X{.{.#XOXOXXX%XOXOX&X%XOXOXOX+X{.{.'.].[.[."
};
