/* XPM */
static char *result[] = {
/* columns rows colors chars-per-pixel */
"70 70 204 2 ",
"   c #100F0C",
".  c #151310",
"X  c #191612",
"o  c #1D1B16",
"O  c #1F1D18",
"+  c #13110E",
"@  c #211E19",
"#  c #25211C",
"$  c #29251E",
"%  c #2F291F",
"&  c #2B2621",
"*  c #2E2923",
"=  c #322D26",
"-  c #342E28",
";  c #3A2F2C",
":  c #363129",
">  c #3B342C",
",  c #3E382F",
"<  c #3A3730",
"1  c #3E3A31",
"2  c #363630",
"3  c #433A2D",
"4  c #473B2A",
"5  c #413631",
"6  c #433C33",
"7  c #483C33",
"8  c #4B3D38",
"9  c #3F403A",
"0  c #474037",
"q  c #4C4335",
"w  c #45423A",
"e  c #4A443B",
"r  c #4D4A3F",
"t  c #544634",
"y  c #5B4A34",
"u  c #51443D",
"i  c #544A3B",
"p  c #5B4E3A",
"a  c #564835",
"s  c #5C503E",
"d  c #614F36",
"f  c #604F39",
"g  c #64523A",
"h  c #6A563A",
"j  c #6A5538",
"k  c #745C3C",
"l  c #795F3C",
"z  c #7F633E",
"x  c #4E4C43",
"c  c #4C4B44",
"v  c #534D44",
"b  c #5B4945",
"n  c #535146",
"m  c #54534A",
"M  c #5C5448",
"N  c #5B5D54",
"B  c #575A52",
"V  c #624C4A",
"C  c #6D5C43",
"Z  c #63534C",
"A  c #625A49",
"S  c #765E4A",
"D  c #6A5A54",
"F  c #725956",
"G  c #745A59",
"H  c #7C5E5E",
"J  c #6E614C",
"K  c #736145",
"L  c #786446",
"P  c #656154",
"I  c #636459",
"U  c #6C6A5C",
"Y  c #6C6657",
"T  c #7A625D",
"R  c #726D5C",
"E  c #766654",
"W  c #7C725D",
"Q  c #7E5F60",
"!  c #6B6E63",
"~  c #666A60",
"^  c #706E61",
"/  c #6E7164",
"(  c #73766A",
")  c #7C7B6E",
"_  c #777567",
"`  c #7D7E71",
"'  c #84663F",
"]  c #816641",
"[  c #836944",
"{  c #8A6B42",
"}  c #84694D",
"|  c #927145",
" . c #83675D",
".. c #867355",
"X. c #937659",
"o. c #8E6D6D",
"O. c #856766",
"+. c #936D6F",
"@. c #817760",
"#. c #827D6C",
"$. c #97736E",
"%. c #966F72",
"&. c #807F70",
"*. c #957373",
"=. c #997273",
"-. c #9D7979",
";. c #A67B7E",
":. c #A0786B",
">. c #7D8174",
",. c #7D877E",
"<. c #928568",
"1. c #838679",
"2. c #8C8B7D",
"3. c #848474",
"4. c #918E7C",
"5. c #908A75",
"6. c #8C8974",
"7. c #AD867E",
"8. c #AB7D82",
"9. c #A77E80",
"0. c #7F8A81",
"q. c #858C83",
"w. c #9A8B82",
"e. c #85958E",
"r. c #8D9488",
"t. c #949484",
"y. c #969886",
"u. c #999886",
"i. c #9B9C8A",
"p. c #959C8D",
"a. c #939D92",
"s. c #A98284",
"d. c #B68A8B",
"f. c #BB898F",
"g. c #B58788",
"h. c #B8908C",
"j. c #BC9496",
"k. c #AB9692",
"l. c #9EA08E",
"z. c #9DA292",
"x. c #A7A38F",
"c. c #A3A593",
"v. c #A6A997",
"b. c #A9A995",
"n. c #ABAD9A",
"m. c #A6A69A",
"M. c #BAA79D",
"N. c #AFB19D",
"B. c #B1B29E",
"V. c #B4B5A1",
"C. c #B7B8A4",
"Z. c #BABBA6",
"A. c #BDBEA9",
"S. c #B9B3A2",
"D. c #C0938F",
"F. c #C48E95",
"G. c #CD949B",
"H. c #C69294",
"J. c #D2989C",
"K. c #CB9EA1",
"L. c #D49CA0",
"P. c #DB9EA6",
"I. c #C6ACA7",
"U. c #DDA2AA",
"Y. c #DFA9AF",
"T. c #D4A4A8",
"R. c #C1BFAE",
"E. c #DFADB2",
"W. c #E2A3AB",
"Q. c #E4A7AB",
"!. c #EBA9B2",
"~. c #E7A7B0",
"^. c #F2AEB7",
"/. c #F4AFB9",
"(. c #E9B5B9",
"). c #F4B1BA",
"_. c #FAB3BE",
"`. c #BFC0AB",
"'. c #C2C3AD",
"]. c #C6C6B0",
"[. c #CBCBB5",
"{. c #CFCEB8",
"}. c #C8C7B2",
"|. c #D0CFBA",
" X c #D3D2BC",
".X c #DAD1BF",
"XX c #F0C0BF",
"oX c #FFB6C1",
"OX c #FDBAC2",
"+X c #F4BFC1",
"@X c #DBDAC5",
"#X c #DBD8C4",
"$X c #E7CCC4",
"%X c #F6C3C4",
"&X c #FAC7C9",
"*X c #ECDFD0",
"=X c #F8DED6",
"-X c #EAD6C8",
";X c #E2E2CD",
":X c #EAEAD5",
">X c #E8E8D4",
",X c #F3F3DE",
"<X c #F2E5D5",
"1X c #F5F4E1",
/* pixels */
"oXoXoXoXoXoXoXoXoXoXoXoXoXoXoXoXoXoXoXoXoXoXoXoX^.OXoXoXoXoXoXoXoXoXoXoXoXoXoXoXoXoXoXoXoXoXoXoXoXoXoXoXoXoXoXoXoXoXoXoXoXoXoXoXoXoXoXoXoXoX",
"oXoXoXoXoXoXoXoXoXoXoXoXoXoXoXoXoXoXoXoXoXoXoX/.9.L.oXoXoXoXoXoX_._.oXoXoXoXoXoXoXoXoXoXoXoXoXoXoXoXoXoXoXoXoXoXoXoXoXoXoXoXoXoXoXoXoXoXoXoX",
"oXoXoXoXoXoXoXoXoXoXoXoXoXoXoXoXoXoXoXoXoXoXoXF.1 O.^.oXoXoXoXoXG.H _.oXoXoXoXoXoXoXoXoXoXoXoXoXoXoXoXoXoXoXoXoXoXoXoXoXoXoXoXoXoXoXoXoXoXoX",
"oXoXoXoXoXoXoXoXoXoXoXoXoXoXoXoXoXoXoXoXoXoXoXo.1 v g.oXoXoXoXoX8.- W._._.oXoXoX_.oXoXoXoXoXoXoXoXoXoXoXoXoXoXoXoXoXoXoXoXoXoXoXoXoXoXoXoXoX",
"oXoXoXoXoXoXoXoXoXoXoXoXoXoXoXoXoXoXoXoXoXoXoXO.w x =.OXoXoXOXoX(.m.$X=X=X&XoXg.+.oXoXoXoXoXoXoXoXoXoXoXoXoXoXoXoXoXoXoXoXoXoXoXoXoXoXoXoXoX",
"oXoXoXoXoXoXoXoXoXoXoXoXoXoXoXoXoXoXoXoXoXoXoXF : r $.oXoXoX_.%X-X;X:X1X1X1X=XQ b _.oXoXoXoXoXoXoXoXoXoXoXoXoXoXoXoXoXoXoXoXoXoXoXoXoXoXoXoX",
"oXoXoXoXoXoXoXoXoXoXoXoXoXoXoXoXoXoXoXoXoXoX_.V = 7 o.OXoX_.OX.X].1.q.@X:X,X,X#XK.oXoXoXoXoXoXoXoXoXoXoXoXoXoXoXoXoXoXoXoXoXoXoXoXoXoXoXoXoX",
"oXoXoXoXoXoXoXoXoXoXoXoXoXoXoXoXoXoXoXoXoXoX!.8 : 3 =._.oXOX$X`._ = = m.>X;X;X;X=XOXoXoXoXoXoXoXoXoXoXoXoXoXoXoXoXoXoXoXoXoXoXoXoXoXoXoXoXoX",
"oXoXoXoXoXoXoXoXoXoXoXoXoXoXoXoXoXoXoXoXoXoXF.* % 6 o.G.oX+X Xy.= * * &.;X'.`  X>X&XOXoXoXoXoXoXoXoXoXoXoXoXoXoXoXoXoXoXoXoXoXoXoXoXoXoXoXoX",
"oXoXoXoXoXoXoXoXoXoXoXoXoXoXoXoXoXoXoXoXoXoXO.* * e e u W.$X#XU : i.U ^ #X2.; ) ;X*XOXoXoXoXoXoXoXoXoXoXoXoXoXoXoXoXoXoXoXoXoXoXoXoXoXoXoXoX",
"oXoXoXoXoXoXoXoXoXoXoXoXoXoXoXoXoXoXoXoXoX/.b * 3 n q 7 F.#X;XU M m.q.^ {.D 8 8 u.;X&XoXoXoXoXoXoXoXoXoXoXoXoXoXoXoXoXoXoXoXoXoXoXoXoXoXoXoX",
"oXoXoXoXoXoXoXoXoXoXoXoXoXoXoXoXoXoXoXoXoXL.; = q i q u F.R.#Xl.M &._ ) ].Y q.q.e R.-XoXoXoXoXoXoXoXoXoXoXoXoXoXoXoXoXoXoXoXoXoXoXoXoXoXoXoX",
"oXoXoXoXoXoXoXoXoXoXoXoXoXoXoXoXoXoXoXoXoX8.& : q i t T T.m.`.#X_ n B b.|.) ` t.e S.<XOX_.oXoXoXoXoXoXoXoXoXoXoXoXoXoXoXoXoXoXoXoXoXoXoXoXoX",
"oXoXoXoXoXoXoXoXoXoXoXoXoXoXoXoXoXoXoXoXoXO.& > q q i G.E.r.N.`.S.^ t.@X;X&.` u.S.;X>X%XoXoXoXoXoXoXoXoXoXoXoXoXoXoXoXoXoXoXoXoXoXoXoXoXoXoX",
"oXoXoXoXoXoXoXoXoXoXoXoXoXoXoXoXoXoXoXoX).V $ , q q b Q.Y.` p.n.c.N.[.>X:XA.#.V.{.#X#X%XoXoXoXoXoXoXoXoXoXoXoXoXoXoXoXoXoXoXoXoXoXoXoXoXoXoX",
"oXoXoXoXoXoXoXoXoXoXoXoXoXoXoXoXoXoXoXoXW.5 $ , q q A !.Y.! >.l.3.( I S.#X{.{.l.n.{.{.XXoXoXoXoXoXoXoXoXoXoXoXoXoXoXoXoXoXoXoXoXoXoXoXoXoXoX",
"oXoXoXoXoXoXoXoXoXoXoXoXoXoXoXoXoXoXoXoX9.& $ > q > M !.f.N / y.>.B * , r P B.2.i.A.'.(.oXoXoXoXoXoXoXoXoXoXoXoXoXoXoXoXoXoXoXoXoXoXoXoXoXoX",
"oXoXoXoXoXoXoXoXoXoXoXoXoXoXoXoXoXoXoXW.u $ @ : 0 : 6 g.G c N 1.>.m 9 o # _ 4.u.i.N.S.).oXoXoXoXoXoXoXoXoXoXoXoXoXoXoXoXoXoXoXoXoXoXoXoXoXoX",
"oXoXoXoXoXoXoXoXoXoXoXoXoXoXoXoXoXoXoX%.* # @ $ * * : Z ; = c / >.9 9 w I _ Y b.i.l.M.oXoXoXoXoXoXoXoXoXoXoXoXoXoXoXoXoXoXoXoXoXoXoXoXoXoXoX",
"oXoXoXoXoXoXoXoXoXoXoXoXoXoXoXoXoXoXW.u * $ @ $ & * : w : & 1 N ~ c $ 2 9 0 6.n.y.r.T.oXoXoXoXoXoXoXoXoXoXoXoXoXoXoXoXoXoXoXoXoXoXoXoXoXoXoX",
"oXoXoXoXoXoXoXoXoXoXoXoXoXoXoXoXoX_.;.= * # @ $ & * : 6 6 < = 6 B B r , v @.B.x.2.w.(.oXoXoXoXoXoXoXoXoXoXoXoXoXoXoXoXoXoXoXoXoXoXoXoXoXoXoX",
"oXoXoXoXoXoXoXoXoXoXoXoXoXoXoXoXoX_.D = & # # $ & = = , w 1 > = w x / W <.b.b.2./ h.oXoXoXoXoXoXoXoXoXoXoXoXoXoXoXoXoXoXoXoXoXoXoXoXoXoXoXoX",
"oXoXoXoXoXoXoXoXoXoXoXoXoXoXoXoXoXP.6 & $ @ # $ * * * : 8 6 , = = 0 I 4.N.c.>.! w 9.oXoXoXoXoXoXoXoXoXoXoXoXoXoXoXoXoXoXoXoXoXoXoXoXoXoXoXoX",
"oXoXoXoXoXoXoXoXoXoXoXoXoXoXoXoXoXg.= & $ # @ $ $ & * : 0 6 > > % = w I ( I I 1 & u H.oXoXoXoXoXoXoXoXoXoXoXoXoXoXoXoXoXoXoXoXoXoXoXoXoXoXoX",
"oXoXoXoXoXoXoXoXoXoXoXoXoXoXoXoXoX%.* $ # # @ # $ & * > 6 6 1 > = o % , 0 9 * . & > Z ~.OXOXoXoXoXoXoXoXoXoXoXoXoXoXoXoXoXoXoXoXoXoXoXoXoXoX",
"oXoXoXoXoXoXoXoXoXoXoXoXoXoXoXoXoXH * $ # @ @ @ # $ $ = , 6 6 , 2 #   X X .   o * : 1 -.oXoXoXoXoXoXoXoXoXoXoXoXoXoXoXoXoXoXoXoXoXoXoXoXoXoX",
"oXoXoXoXoXoXoXoXoXoXoXoXoXoXoXoXoXG & $ # # @ @ # # $ = , 5 , , > > #   + . o & = * > b U.oXoXoXoXoXoXoXoXoXoXoXoXoXoXoXoXoXoXoXoXoXoXoXoXoX",
"oXoXoXoXoXoXoXoXoXoXoXoXoXoXoXoX_.F & $ # # @ @ @ # $ = > 5 , > > : : * * = = > : * : 6 o._.oXoXoXoXoXoXoXoXoXoXoXoXoXoXoXoXoXoXoXoXoXoXoXoX",
"oXoXoXoXoXoXoXoXoXoXoXoXoXoXoXoXoXF & $ $ O O o @ @ $ * > , , > : = , > > > > 1 : & * > r G.oXoXoXoXoXoXoXoXoXoXoXoXoXoXoXoXoXoXoXoXoXoXoXoX",
"oXoXoXoXoXoXoXoXoXoXoXoXoXoXoXoXoXQ & $ $ @ @ o @ # $ = > , > > : : : > 1 , > 0 > & * : 6 O._.oXoXoXoXoXoXoXoXoXoXoXoXoXoXoXoXoXoXoXoXoXoXoX",
"oXoXoXoXoXoXoXoXoXoXoXoXoXoXoXoXoX=.& $ # # O O o @ $ & = > > = = = > > 4 M Y Y i $ $ : 6 u G.oXoXoXoXoXoXoXoXoXoXoXoXoXoXoXoXoXoXoXoXoXoXoX",
"oXoXoXoXoXoXoXoXoXoXoXoXoXoXoXoXoXF.= & @ @ @ O o @ @ $ = > - = * = : 3 R B.].'.u.* $ : 1 6 o.oXoXoXoXoXoXoXoXoXoXoXoXoXoXoXoXoXoXoXoXoXoXoX",
"oXoXoXoXoXoXoXoXoXoXoXoXoXoXoXoXoX!.u # @ @ O o O @ @ # = > = & * * 3 Y Z.'.'.n.c.w # = > 6 v W.oXoXoXoXoXoXoXoXoXoXoXoXoXoXoXoXoXoXoXoXoXoX",
"oXoXoXoXoXoXoXoXoXoXoXoXoXoXoXoXoXoX+.$ @ @ o O O O O # * : * $ * = A C.{.i.n i B e @ = : , w s.oXoXoXoXoXoXoXoXoXoXoXoXoXoXoXoXoXoXoXoXoXoX",
"oXoXoXoXoXoXoXoXoXoXoXoXoXoXoXoXoXoXW.8 @ @ O O O @ O O % * # $ * q x. X}.3.* * > r $ : , 6 6 T _.oXoXoXoXoXoXoXoXoXoXoXoXoXoXoXoXoXoXoXoXoX",
"oXoXoXoXoXoXoXoXoXoXoXoXoXoXoXoXoXoXoXf.; @ @ @ @ @ O O # O @ % > 3.{.{.].t.= $ = 1 = : , 6 6 v P.oXoXoXoXoXoXoXoXoXoXoXoXoXoXoXoXoXoXoXoXoX",
"oXoXoXoXoXoXoXOXoXoXoXoXoXoXoXoXoXoXoXoX8.; @ @ O @ O o X X $ * P A.|.[.C.b.< X $ > > 6 6 6 8 e d.oXoXoXoXoXoXoXoXoXoXoXoXoXoXoXoXoXoXoXoXoX",
"oXoXoXoXoXoXoXoXoXoXoXoXoXoXoXoXoXoXoXoXoXF.b @ o X o o X @ % n c.[.{.'.1.y.n X o = > 6 w 0 w e *.oXoXoXoXoXoXoXoXoXoXoXoXoXoXoXoXoXoXoXoXoX",
"oXoXoXoXoXoXoXoXoXoXoXoXoXoXoXoXoXoXoXoXoXoX/.f.O.B e # @ = m y.Z.[.{.`.~ e < * O # = 0 w 0 e e T _.oXoXoXoXoXoXoXoXoXoXoXoXoXoXoXoXoXoXoXoX",
"oXoXoXoXoXoXoXoXoXoXoXoXoXoXoXoXoXoXoXoXoXoXoXoXS.0./ N Y >.c.N.Z.].{.].! : $ = * = = 6 e e e e D /.oXoXoXoXoXoXoXoXoXoXoXoXoXoXoXoXoXoXoXoX",
"oXoXoXoXoXoXoXoXoXoXoXoXoXoXoXoXoXoXoXoXoXoXoXoXm.0.( >.y.z.N.V.A.'.{.'.I : & * = = , < e e w w Z !.oXoXoXoXoXoXoXoXoXoXoXoXoXoXoXoXoXoXoXoX",
"oXoXoXoXoXoXoXoXoXoXoXoXoXoXoXoXoXoXoXoXoXoXoX~.a.,.,.r.l.b.N.`.'.[.{.{.` > $ * * = > , w e e w M !.oXoXoXoXoXoXoXoXoXoXoXoXoXoXoXoXoXoXoXoX",
"oXoXoXoXoXoXoXoXoXoXoXoXoXoXoXoXoXoXoXoXoXoXoXk.e.0.q.z.c.v.C.`.'.[.[.[.c.n : = = = : : 0 e e e Z ^.oXoXoXoXoXoXoXoXoXoXoXoXoXoXoXoXoXoXoXoX",
"oXoXoXoXoXoXoXoXoXoXoXoXoXoXoXoXoXoXoXoXoXoXj.,.e.q.e.z.v.N.C.`.].[.{.[.A.` w & # * = * > 8 e e D oXoXoXoXoXoXoXoXoXoXoXoXoXoXoXoXoXoXoXoXoX",
"oXoXoXoXoXoXoXoXoXoXoXoXoXoXoXoXoXoXoXoXoXoX$.( e.e.z.z.v.N.Z.`.].{. X{.'.y.x * X @ $ # : 6 6 6 O.oXoXoXoXoXoXoXoXoXoXoXoXoXoXoXoXoXoXoXoXoX",
"oXoXoXoXoXoXoXoXoXoXoXoXoXoXoXoXoXoXoXoXoXoXo.A 0.l.v.v.b.N.Z.'.[. X X{.[.b.I 1 o o o o * , 6 3 8.oXoXoXoXoXoXoXoXoXoXoXoXoXoXoXoXoXoXoXoXoX",
"oXoXoXoXoXoXoXoXoXoXoXoXoXoXoXoXoXoXoXoXOX!.L h ,.v.n.n.N.N.C.'.[.{.{. X[.Z.) r $ X o O # > > 8 P.oXoXoXoXoXoXoXoXoXoXoXoXoXoXoXoXoXoXoXoXoX",
"oXoXoXoXoXoXoXoXoXoXoXoXoXoXoXoXoXoXoXOX_.J.E h / v.n.N.N.B.`.`.'.{. X X{.'.r.m : X o O @ * = G oXoXoXoXoXoXoXoXoXoXoXoXoXoXoXoXoXoXoXoXoXoX",
"oXoXoXoXoXoXoXoXoXoXoXoXoXoXoXoXoXoXoXoXoXD.J g L i.n.n.N.C.`.`.].{. X X|.[.v.I w & o o @ $ > F.oXoXoXoXoXoXoXoXoXoXoXoXoXoXoXoXoXoXoXoXoXoX",
"oXoXoXoXoXoXoXoXoXoXoXoXoXoXoXoXoXoXoXoXoXh.L h z 3.v.n.N.C.C.`.'.{. X X#X{.V.( m 6 < & o & %._.oXoXoXoXoXoXoXoXoXoXoXoXoXoXoXoXoXoXoXoXoXoX",
"oXoXoXoXoXoXoXoXoXoXoXoXoXoXoXoXoXoXoXoXoXh.K L g C 4.n.N.B.C.`.].{. X#X X{.`.1.N c *.F.=.F._.oXoXoXoXoXoXoXoXoXoXoXoXoXoXoXoXoXoXoXoXoXoXoX",
"oXoXoXoXoXoXoXoXoXoXoXoXoXoXoXoXoXoXoXoXoX7.K L h g ..l.v.N.B.`.].{. X X X{.}.i.~ N s.oXoXoXoXoXoXoXoXoXoXoXoXoXoXoXoXoXoXoXoXoXoXoXoXoXoXoX",
"oXoXoXoXoXoXoXoXoXoXoXoXoXoXoXoXoXoXoXoX_.7.K [ z j k 3.l.v.N.`.`.[.{. X#X[.}.N.` I j.oXoXoXoXoXoXoXoXoXoXoXoXoXoXoXoXoXoXoXoXoXoXoXoXoXoXoX",
"oXoXoXoXoXoXoXoXoXoXoXoXoXoXoXoXoXoXoXoX_.7.K { z z t K 4.x.N.C.`.{.{. X#X{.}.Z.p.( K.oXoXoXoXoXoXoXoXoXoXoXoXoXoXoXoXoXoXoXoXoXoXoXoXoXoXoX",
"oXoXoXoXoXoXoXoXoXoXoXoXoXoXoXoX_.oXOX_.OXg.C ' ' [ K j ..u.b.B.`.].{.{.{.{.}.R.m.&.Y.oXoXoXoXoXoXoXoXoXoXoXoXoXoXoXoXoXoXoXoXoXoXoXoXoXoXoX",
"oXoXoXoXoXoXoXoXoXoXoXoXoXoXoXoXOXOX_._._.g.z | L ..[ j a E l.N.C.`.].{.{.[.].].A.i.^.oXoXoXoXoXoXoXoXoXoXoXoXoXoXoXoXoXoXoXoXoXoXoXoXoXoXoX",
"oXoXoXoXoXoXoXoXoXoXoXoXoXoXoXoXoXoXoXoXoXD.L ..<.' ' j t d <.x.N.`.`.'.{.[.'.'.R.M._.oXoXoXoXoXoXoXoXoXoXoXoXoXoXoXoXoXoXoXoXoXoXoXoXoXoXoX",
"oXoXoXoXoXoXoXoXoXoXoXoXoXoXoXoXoXoXoXoXOXJ.E K j y z y j y d E l.N.`.`.'.`.`.`.R.4./._.oXoXoXoXoXoXoXoXoXoXoXoXoXoXoXoXoXoXoXoXoXoXoXoXoXoX",
"oXoXoXoXoXoXoXoXoXoXoXoXoXoXoXoXoXoXoXoXoXQ.J = % : q y ' y q y ..4.N.`.C.`.`.`.c.D W.oXoXoXoXoXoXoXoXoXoXoXoXoXoXoXoXoXoXoXoXoXoXoXoXoXoXoX",
"oXoXoXoXoXoXoXoXoXoXoXoXoXoXoXoXoXoXoXoXoX).Z < 0 : % 4 ' z 0 t h h W 4.z.v.n.l.R u L.oXoXoXoXoXoXoXoXoXoXoXoXoXoXoXoXoXoXoXoXoXoXoXoXoXoXoX",
"oXoXoXoXoXoXoXoXoXoXoXoXoXoXoXoXoXoXoXoXOX_.G , > : : % y ' j 0 p p k k E R R K p 6 J.oXoXoXoXoXoXoXoXoXoXoXoXoXoXoXoXoXoXoXoXoXoXoXoXoXoXoX",
"oXoXoXoXoXoXoXoXoXoXoXoXoXoXoXoXoXoXoXoXoX_.F , : % : > = z z q a p M p z d j p t 5 P.oXoXoXoXoXoXoXoXoXoXoXoXoXoXoXoXoXoXoXoXoXoXoXoXoXoXoX",
"oXoXoXoXoXoXoXoXoXoXoXoXoXoXoXoXoXoXoXoXoX).A > : = = : : q ' y q a p s i y p p 5 8 ~.oXoXoXoXoXoXoXoXoXoXoXoXoXoXoXoXoXoXoXoXoXoXoXoXoXoXoX",
"oXoXoXoXoXoXoXoXoXoXoXoXoXoXoXoXoXoXoXoXoX^.s : : % : > 2 : j k i a s p p s s t $ Q oXoXoXoXoXoXoXoXoXoXoXoXoXoXoXoXoXoXoXoXoXoXoXoXoXoXoXoX",
"oXoXoXoXoXoXoXoXoXoXoXoXoXoXoXoXoXoXoXoXoXW.8 - > = : > > : 4 } G S  .$. .h q # # g._.oXoXoXoXoXoXoXoXoXoXoXoXoXoXoXoXoXoXoXoXoXoXoXoXoXoXoX",
"oXoXoXoXoXoXoXoXoXoXoXoXoXoXoXoXoXoXoXoXOXG.< > ; = : > > = 4 W.^.^._.OXh.Y 3 o % $.oXoXoXoXoXoXoXoXoXoXoXoXoXoXoXoXoXoXoXoXoXoXoXoXoXoXoXoX",
"oXoXoXoXoXoXoXoXoXoXoXoXoXoXoXoXoXoXoXoXoXf.: > = = : > > - V _.oXoXoXoXs.r e > 4 S /._.oXoXoXoXoXoXoXoXoXoXoXoXoXoXoXoXoXoXoXoXoXoXoXoXoXoX",
"oXoXoXoXoXoXoXoXoXoXoXoXoXoXoXoXoXoXoXoXoX8.* * = = = > > 8 F.oXoXoXoXoX!.;.H T $.J.oXoXoXoXoXoXoXoXoXoXoXoXoXoXoXoXoXoXoXoXoXoXoXoXoXoXoXoX",
"oXoXoXoXoXoXoXoXoXoXoXoXoXoXoXoXoXoXoXoXoXd.P A c = = = - O._.oXoXoXoXoXoXoXoX_._.OXoXoXoXoXoXoXoXoXoXoXoXoXoXoXoXoXoXoXoXoXoXoXoXoXoXoXoXoX",
"oXoXoXoXoXoXoXoXoXoXoXoXoXoXoXoXoXoXoXoXOXI.Z. X'.t.6 * - f.oXoXoXoXoXoXoXoXoXoXoXoXoXoXoXoXoXoXoXoXoXoXoXoXoXoXoXoXoXoXoXoXoXoXoXoXoXoXoXoX"
};
