/* XPM */
static char *result[] = {
/* columns rows colors chars-per-pixel */
"70 70 223 2 ",
"   c #0D0D0D",
".  c #100F0F",
"X  c #11100F",
"o  c #141312",
"O  c #181715",
"+  c #1A1917",
"@  c #1D1C19",
"#  c #0F1010",
"$  c #211E1B",
"%  c #24211D",
"&  c #29241E",
"*  c #2F281F",
"=  c #3C2719",
"-  c #252421",
";  c #2B2622",
":  c #2D2924",
">  c #2B2B28",
",  c #322C25",
"<  c #342F29",
"1  c #3D3325",
"2  c #35312B",
"3  c #3B352D",
"4  c #3E382E",
"5  c #363123",
"6  c #353632",
"7  c #3D3631",
"8  c #3E3933",
"9  c #393C39",
"0  c #2E302E",
"q  c #45341D",
"w  c #543A1D",
"e  c #512D19",
"r  c #473922",
"t  c #443C2B",
"y  c #4B3B24",
"u  c #533D22",
"i  c #433C35",
"p  c #453D39",
"a  c #503F3E",
"s  c #3F4039",
"d  c #57401F",
"f  c #564224",
"g  c #594324",
"h  c #57482D",
"j  c #4B443B",
"k  c #4F493E",
"l  c #474336",
"z  c #544B34",
"x  c #534A3D",
"c  c #574A37",
"v  c #5C5136",
"b  c #5E553A",
"n  c #4F432A",
"m  c #724625",
"M  c #675329",
"N  c #7B5928",
"B  c #6D5C3C",
"V  c #655538",
"C  c #705532",
"Z  c #75643E",
"A  c #494944",
"S  c #564545",
"D  c #544C43",
"F  c #5A4A48",
"G  c #4F514D",
"H  c #595146",
"J  c #55524A",
"K  c #5C5449",
"L  c #585648",
"P  c #5B5B54",
"I  c #5B5E59",
"U  c #565954",
"Y  c #695D40",
"T  c #6D5D4D",
"R  c #615041",
"E  c #645A52",
"W  c #6A5A54",
"Q  c #745B58",
"!  c #634F4E",
"~  c #5D635E",
"^  c #7C6943",
"/  c #776744",
"(  c #62625A",
")  c #6B655C",
"_  c #696859",
"`  c #736859",
"'  c #7A725E",
"]  c #62604E",
"[  c #666A65",
"{  c #6B6C65",
"}  c #6B6E69",
"|  c #676662",
" . c #786A63",
".. c #6F726C",
"X. c #75756C",
"o. c #7F7A6A",
"O. c #737671",
"+. c #767B75",
"@. c #7A7D75",
"#. c #7C7F79",
"$. c #86562C",
"%. c #8C512D",
"&. c #886238",
"*. c #89622A",
"=. c #AC7637",
"-. c #A6683B",
";. c #846D45",
":. c #967649",
">. c #846B57",
",. c #89775D",
"<. c #927152",
"1. c #A07A4C",
"2. c #8D6D6C",
"3. c #846767",
"4. c #847664",
"5. c #887772",
"6. c #9A7B78",
"7. c #A47B7C",
"8. c #AA7E61",
"9. c #7D817A",
"0. c #7E8076",
"q. c #AB8239",
"w. c #C1913E",
"e. c #A48553",
"r. c #AA8955",
"t. c #B9955B",
"y. c #AA884A",
"u. c #8A806B",
"i. c #9A866B",
"p. c #80857D",
"a. c #898679",
"s. c #9B8C73",
"d. c #98917C",
"f. c #A68A6A",
"g. c #A99878",
"h. c #B08F70",
"j. c #BAA477",
"k. c #C29E64",
"l. c #CBA76B",
"z. c #D8B57D",
"x. c #A87A81",
"c. c #858982",
"v. c #8A8C84",
"b. c #898B85",
"n. c #928E82",
"m. c #8D9089",
"M. c #93948A",
"N. c #989688",
"B. c #9B9C93",
"V. c #AD8485",
"C. c #A38E8A",
"Z. c #B58988",
"A. c #A39C8B",
"S. c #A99785",
"D. c #AF9A97",
"F. c #BE9392",
"G. c #BB948C",
"H. c #9FA197",
"J. c #A5A295",
"K. c #ADAA9D",
"L. c #A8A599",
"P. c #B2AC9B",
"I. c #BDAB82",
"U. c #ADACA2",
"Y. c #B7ADA6",
"T. c #B5B1A5",
"R. c #BDB9A6",
"E. c #BAB6AA",
"W. c #B9B7A9",
"Q. c #AFB0A3",
"!. c #C48E95",
"~. c #C29493",
"^. c #C9969A",
"/. c #D1979E",
"(. c #D79A9F",
"). c #CF9D85",
"_. c #C6B188",
"`. c #D2BB9C",
"'. c #E4B698",
"]. c #DA9DA4",
"[. c #D59EA4",
"{. c #DDA3A9",
"}. c #D7A2A5",
"|. c #C1BDAD",
" X c #C1B8A5",
".X c #C2BEB1",
"XX c #D6B5B4",
"oX c #E2A4AC",
"OX c #E5A8AF",
"+X c #EBB6A7",
"@X c #ECAAB3",
"#X c #F1AEB6",
"$X c #F3AEB8",
"%X c #F6B3BB",
"&X c #FAB4BE",
"*X c #F5B9BA",
"=X c #EABCB3",
"-X c #CAC2AE",
";X c #C5C2B3",
":X c #CECABA",
">X c #CCC7B5",
",X c #D2CEBC",
"<X c #D3C6B9",
"1X c #D4D0BD",
"2X c #FFB6C1",
"3X c #FDBAC3",
"4X c #F6BFC5",
"5X c #D6D2C3",
"6X c #DAD5C3",
"7X c #DCD9C6",
"8X c #DBD8CB",
"9X c #ECC9C7",
"0X c #F6C7C9",
"qX c #E3DCCB",
"wX c #E7D4CB",
"eX c #F2DDD4",
"rX c #E5E1CE",
"tX c #E6E2D0",
"yX c #EAE5D2",
"uX c #EDE9D6",
"iX c #F2EDD9",
"pX c #FAE0D8",
"aX c #F8F3E0",
/* pixels */
"2X2X2X2X2X2X2X2X2X2X2X2X2X2X2X2X2X2X2X2X2X2X2X2X2X2X2X2X2X2X2X2X2X2X2X2X2X2X2X2X2X2X2X2X2X2X2X2X2X2X2X2X2X2X2X2X2X2X2X2X2X2X2X2X2X2X2X2X2X2X",
"2X2X2X2X2X2X2X2X2X2X2X2X2X2X2X2X2X2X2X2X2X2X2X2X2X2X2X2X2X2X2X2X2X2X2X2X2X2X2X2X2X2X2X2X2X2X2X2X2X2X2X2X2X2X2X2X2X2X2X2X2X2X2X2X2X2X2X2X2X2X",
"2X2X2X2X2X2X2X2X2X2X2X2X2X2X2X2X2X2X2X2X2X2X2X2X2X2X2X2X2X2X2X2X2X2X2X2X2X2X2X2X2X2X2X2X2X2X2X2X2X2X2X2X2X2X2X2X2X2X2X2X2X2X2X2X2X2X2X2X2X2X",
"2X2X2X2X2X2X2X2X2X2X2X2X2X2X2X2X2X2X2X2X2X2X2X2X2X2X2X2X2X2X2X2X2X2X2X2X2X2X2X2X2X2X2X2X2X2X2X2X2X2X2X2X2X2X2X2X2X2X2X2X2X2X2X2X2X2X2X2X2X2X",
"2X2X2X2X2X2X2X2X2X2X2X2X2X2X2X2X2X2X2X2X2X2X2X2X2X2X2X2X2X2X2X2X2X2X2X2X2X2X2X2X2X2X2X2X2X2X2X2X2X2X2X2X2X2X2X2X2X2X2X2X2X2X2X2X2X2X2X2X2X2X",
"2X2X2X2X2X2X2X2X2X2X2X2X2X2X2X2X2X2X2X2X2X2X2X2X2X2X2X2X2X2X2X2X2X2X2X2X2X2X2X2X2X2X2X2X2X2X2X2X2X2X2X2X2X2X2X2X2X2X2X2X2X2X2X2X2X2X2X2X2X2X",
"2X2X2X2X2X2X2X2X2X2X2X2X2X2X2X2X2X2X2X2X2X2X2X2X2X2X2X2X2X2X2X2X2X2X2X2X2X2X2X2X2X2X2X2X2X2X2X2X2X2X2X2X2X2X2X2X2X2X2X2X2X2X2X2X2X2X2X2X2X2X",
"2X2X2X2X2X2X2X2X2X2X2X2X2X2X2X2X2X2X2X2X2X2X2X2X2X2X2X2X2X2X2X2X2X2X2X2X2X2X2X2X2X2X2X2X2X2X2X2X2X2X2X2X2X2X2X2X2X2X2X2X2X2X2X2X2X2X2X2X2X2X",
"2X2X2X2X2X2X2X2X2X2X2X2X2X2X2X2X2X2X2X2X2X2X2X2X2X2X2X2X2X2X2X2X2X2X2X2X2X2X2X2X2X2X2X2X2X2X2X2X2X2X2X2X2X2X2X2X2X2X2X2X2X2X2X2X2X2X2X2X2X2X",
"2X2X2X2X2X2X2X2X2X2X2X2X2X2X2X2X2X2X2X2X2X2X2X2X2X2X2X2X2X2X2X2X2X2X2X2X2X2X2X2X2X2X2X2X2X2X2X2X2X2X2X2X2X2X2X2X2X2X2X2X2X2X2X2X2X2X2X2X2X2X",
"2X2X2X2X2X2X2X2X2X2X2X2X2X2X2X2X2X2X2X2X2X2X2X2X2X2X2X2X2X2X2X2X2X2X2X2X2X2X2X2X2X2X2X2X2X2X2X2X2X2X2X2X2X2X2X2X2X2X2X2X2X2X2X2X2X2X2X2X2X2X",
"2X2X2X2X2X2X2X2X2X2X2X2X2X2X2X2X2X2X2X2X2X2X2X2X2X2X2X2X2X2X2X2X2X2X2X2X2X2X2X2X2X2X2X2X2X2X2X2X2X2X2X2X2X2X2X2X2X2X2X2X2X2X2X2X2X2X2X2X2X2X",
"2X2X2X2X2X2X2X2X2X2X2X2X2X2X2X2X2X2X2X2X2X2X2X2X2X2X2X2X@XoX2X2X2X2X2X2X2X2XoX{.3X2X2X2X2X2X2X2X2X2X2X2X2X2X2X2X2X2X2X2X2X2X2X2X2X2X2X2X2X2X",
"2X2X2X2X2X2X2X2X2X2X2X2X2X2X2X2X2X2X2X2X2X2X2X2X2X2X2XOXS 3 !.2X2X4X3X2X2X/.7 7 [.2X2X2X2X2X2X2X2X2X2X2X2X2X2X2X2X2X2X2X2X2X2X2X2X2X2X2X2X2X",
"2X2X2X2X2X2X2X2X2X2X2X2X2X2X2X2X2X2X2X2X2X2X2X2X2X2X2X@XQ p C.9XwX8XwXwXwXD.3 F oX2X2X2X2X2X2X2X2X2X2X2X2X2X2X2X2X2X2X2X2X2X2X2X2X2X2X2X2X2X",
"2X2X2X2X2X2X2X2X2X2X2X2X2X2X2X2X2X2X2X2X2X2X2X2X2X2X2X2X9X7XyXtXrXrXuXyXtX8X.X=X3X2X2X2X2X2X2X2X2X2X2X2X2X2X2X2X2X2X2X2X2X2X2X2X2X2X2X2X2X2X",
"2X2X2X2X2X2X2X2X2X2X2X2X2X2X2X2X2X2X2X2X2X2X2X2X2X2X3XpXuXuXaXiXyXrXuXiXyXtX8X5XwX0X2X2X2X2X2X2X2X2X2X2X2X2X2X2X2X2X2X2X2X2X2X2X2X2X2X2X2X2X",
"2X2X2X2X2X2X2X2X2X2X2X2X2X2X2X2X2X2X2X2X2X2X2X2X2X3XeXaXuX7XP.v.E.tXuXrX8X5X5X8X8XeX2X2X2X2X2X2X2X2X2X2X2X2X2X2X2X2X2X2X2X2X2X2X2X2X2X2X2X2X",
"2X2X2X2X2X2X2X2X2X2X2X2X2X2X2X2X2X2X2X2X2X2X2X2X2X0XyXyXP.D J J J 1X6Xn.X.( E J.5X8X9X2X2X2X2X2X2X2X2X2X2X2X2X2X2X2X2X2X2X2X2X2X2X2X2X2X2X2X",
"2X2X2X2X2X2X2X2X2X2X2X2X2X2X2X2X2X2X2X2X2X2X2X2X2X9XyX1Xx : B.c.{ 5X,X) } c.% x 8X8X<X3X2X2X2X2X2X2X2X2X2X2X2X2X2X2X2X2X2X2X2X2X2X2X2X2X2X2X",
"2X2X2X2X2X2X2X2X2X2X2X2X2X2X2X2X2X2X2X2X2X2X2X2X%X<XtX7X] & j ( -XaXiX;X[ 8 8 a.8XQ.W.4X2X2X2X2X2X2X2X2X2X2X2X2X2X2X2X2X2X2X2X2X2X2X2X2X2X2X",
"2X2X2X2X2X2X2X2X2X2X2X2X2X2X2X2X2X2X2X2X2X2X2X2X[.Y.5X8X-X` K P.qXuXyXT.m.m.J..XU.m.B.|.2X2X2X2X2X2X2X2X2X2X2X2X2X2X2X2X2X2X2X2X2X2X2X2X2X2X",
"2X2X2X2X2X2X2X2X2X2X2X2X2X2X2X2X2X2X2X2X2X2X2X2Xx.m.>X:X1X:X;X;X' T H t [ b.Q.H.p.x.O.2.%X2X2X2X2X2X2X2X2X2X2X2X2X2X2X2X2X2X2X2X2X2X2X2X2X2X",
"2X2X2X2X2X2X2X2X2X2X2X2X2X2X2X2X2X2X2X2X2X2X2X%X) E Q.;XE.E.E.Y.a.k : A I #.H.m.+.} A G OX2X2X2X2X2X2X2X2X2X2X2X2X2X2X2X2X2X2X2X2X2X2X2X2X2X",
"2X2X2X2X2X2X2X2X2X2X2X2X2X2X2X2X2X2X2X2X2X2X2X{.D 3 { U.Y.T.E..XA.) J A | +.5.9.} 9 @ 8 ^.3X2X2X2X2X2X2X2X2X2X2X2X2X2X2X2X2X2X2X2X2X2X2X2X2X",
"2X2X2X2X2X2X2X2X2X2X2X2X2X2X2X2X2X2X2X2X2X2X2XV.i < , P M.L.U.K.K.J.M.0.{ [ } ~ 6 # # 2 6.2X2X2X2X2X2X2X2X2X2X2X2X2X2X2X2X2X2X2X2X2X2X2X2X2X",
"2X2X2X2X2X2X2X2X2X2X2X2X2X2X2X2X2X2X2X2X2X2X[.E i , ; $ 8 { n.N.5.{ ( P P U G >       > J ^.3X3X2X2X2X2X2X2X2X2X2X2X2X2X2X2X2X2X2X2X2X2X2X2X",
"2X2X2X2X2X2X2X2X2X2X2X2X2X2X2X2X2X2X2X2X&X~.) j 3 , , & $ $ 6 U ~ G k s 9 > #       # + 2 E ^.3X2X2X2X2X2X2X2X2X2X2X2X2X2X2X2X2X2X2X2X2X2X2X",
"2X2X2X2X2X2X2X2X2X2X2X2X2X2X2X2X2X2X2X&XZ.J k i 2 , ; $ $ $ @ @ @ + O o           # O @ > i E ^.2X2X2X2X2X2X2X2X2X2X2X2X2X2X2X2X2X2X2X2X2X2X",
"2X2X2X2X2X2X2X2X2X2X2X2X2X2X2X2X2X2X2XG.H i i < , , * * $ $ $ $ @ @ + o         # o @ $ - 2 p W [.2X2X2X2X2X2X2X2X2X2X2X2X2X2X2X2X2X2X2X2X2X",
"2X2X2X2X2X2X2X2X2X2X2X2X2X2X2X2X2X2X[.E j i 7 < ; ; $ $ $ $ $ $ $ $ % $ @ + O O + @ $ @ % ; 6 k  .4X2X2X2X2X2X2X2X2X2X2X2X2X2X2X2X2X2X2X2X2X",
"2X2X2X2X2X2X2X2X2X2X2X2X2X2X2X2X2X@X3.D p j k D p t < $ $ $ & $ $ $ @ $ @ $ $ @ $ @ @ $ % - , 8 F F.2X2X2X2X2X2X2X2X2X2X2X2X2X2X2X2X2X2X2X2X",
"2X2X2X2X2X2X2X2X2X2X2X2X2X2X2X2X3XV.x p p j x S K ! K i , & , 1 n z v c t , & $ @ @ $ $ $ ; , 2 A ` @X2X2X2X2X2X2X2X2X2X2X2X2X2X2X2X2X2X2X2X",
"2X2X2X2X2X2X2X2X2X2X2X2X2X2X2X2X#XQ i < , t i i i 3 i j x z ,.P.-X,X,X-X XA.4.c * @ $ $ $ : < 2 i S Z.2X2X2X2X2X2X2X2X2X2X2X2X2X2X2X2X2X2X2X",
"2X2X2X2X2X2X2X2X2X2X2X2X2X2X2X2X~.p < ; ; , , 2 , < , < 2 3 s _ J.1XtXqX7X6X,XR.u.3 ; % $ , < 2 8 j ` @X2X2X2X2X2X2X2X2X2X2X2X2X2X2X2X2X2X2X",
"2X2X2X2X2X2X2X2X2X2X2X2X2X2X2X2X2., ; ; & * * , : : , ; ; % % @ ; A N.6XqX1X,X>X|.N.j & , , < < 4 i H ~.2X2X2X2X2X2X2X2X2X2X2X2X2X2X2X2X2X2X",
"2X2X2X2X2X2X2X2X2X2X2X2X2X2X2X$X! ; & $ $ & & & & & & & - - @ - $ $ & { ,X7X1X>X;XT.) : , < 2 < 3 i x 6.*X&X2X2X2X2X2X2X2X2X2X2X2X2X2X2X2X2X",
"2X2X2X2X2X2X2X2X2X2X2X2X2X2X2X@Xa % $ $ $ $ $ $ % $ $ $ - @ @ @ @ @ $ : _ >X5X>XE.P.P : < < < < 2 8 j ` oX2X2X2X2X2X2X2X2X2X2X2X2X2X2X2X2X2X",
"2X2X2X2X2X2X2X2X2X2X2X2X2X2X2X@Xa $ $ $ $ $ + $ $ @ $ @ + + o # - - $ % & X.5X:XE.J.j 3 2 < < < 2 2 8 D ~.2X2X2X2X2X2X2X2X2X2X2X2X2X2X2X2X2X",
"2X2X2X2X2X2X2X2X2X2X2X2X2X2X2X2X! $ @ @ + @ @ @ + + + O o # # 0 [ O.+.G + l :X,XR.` i 7 < < : ; ; ; 2 j s.2X2X2X2X2X2X2X2X2X2X2X2X2X2X2X2X2X",
"2X2X2X2X2X2X2X2X2X2X2X2X2X2X2X2X7.$ + @ + + @ + + o o #   # > I ..9.v.p.9 ~ R.R.o.8 < , : : ; - - > - >  .2X2X2X2X2X2X2X2X2X2X2X2X2X2X2X2X2X",
"2X2X2X2X2X2X2X2X2X2X2X2X2X2X2X2XOXS O O O O O o # # #   # 0 I } +.9.c.m.c.c.a.E 2 : ; & - - % % - $ $ % Q $X2X2X2X2X2X2X2X2X2X2X2X2X2X2X2X2X",
"2X2X2X2X2X2X2X2X2X2X2X2X2X2X2X2X2X].a o # # # # #   # + 9 I [ ..9.a.a.b.c.0.L , % % & % @ @ @ @ + O o > Q $X2X2X2X2X2X2X2X2X2X2X2X2X2X2X2X2X",
"2X2X2X2X2X2X2X2X2X2X2X2X2X2X2X2X2X2X@Xx.p @ + o + > 9 G ~ [ ..9.9.9.9.9.@.L : % % % @ @ @ + + O o o o > 2.2X2X2X2X2X2X2X2X2X2X2X2X2X2X2X2X2X",
"2X2X2X2X2X2X2X2X2X2X2X2X2X2X2X2X2X2X2X2XD.} I U I ~ [ [ } ~ L O.9.9.0.O.L : % @ @ @ + + O O O o o # o > ^.2X2X2X2X2X2X2X2X2X2X2X2X2X2X2X2X2X",
"2X2X2X2X2X2X2X2X2X2X2X2X2X2X2X2X2X2X2X2XE.p.O.+.9.9.9.9.9.s $ l _ { L s & @ @ @ + + O O o o o   # # o 3.2X2X2X2X2X2X2X2X2X2X2X2X2X2X2X2X2X2X",
"2X2X2X2X2X2X2X2X2X2X2X2X2X2X2X2X2X2X2X#XS.b.+.#.p.c.c.c.p.~ + > s * % @ @ + + + O O o # # # #     . Q $X2X2X2X2X2X2X2X2X2X2X2X2X2X2X2X2X2X2X",
"2X2X2X2X2X2X2X2X2X2X2X2X2X2X2X2X2X2X2X&X8.6.B.B.M.m.m.b.p.9.G > O # o O O O o o o #             $ 2.$X2X2X2X2X2X2X2X2X2X2X2X2X2X2X2X2X2X2X2X",
"2X2X2X2X2X2X2X2X2X2X2X2X2X2X2X2X2X2X2X3Xz.:.h.-X;XE.Q.H.M.v.9...A % #   X X X X           X X l !.2X2X2X2X2X2X2X2X2X2X2X2X2X2X2X2X2X2X2X2X2X",
"2X2X2X2X2X2X2X2X2X2X2X2X2X2X2X2X2X&X&X'.z.l.1.1._.E.E.W.Q.K.J.B.m.@.~ 2 + o X X # # X O $ * t i.4X2X2X2X2X2X2X2X2X2X2X2X2X2X2X2X2X2X2X2X2X2X",
"2X2X2X2X2X2X2X2X2X2X2X2X2X2X2X2X2X3X'.k.k.k.k.y.&.:.h.g.g.N.A.N.d.d.s.i.' &.*.e q = w y y h V i.`.=X2X2X2X2X2X2X2X2X2X2X2X2X2X2X2X2X2X2X2X2X",
"2X2X2X2X2X2X2X2X2X2X2X2X2X2X2X2X&X#Xk.t.y.r.y.r.:.&.m N $.=.=.-.w.=.%.$.m N N e w w w u V B Z ;.f.6.F.2X2X2X2X2X2X2X2X2X2X2X2X2X2X2X2X2X2X2X",
"2X2X2X2X2X2X2X2X2X2X2X2X2X2X2X2X@X>.e.t.r.:.;.:.:.:.;.Y v h f g M g u f q w f d d d g C B Z Z ^ V 2 D }.2X2X2X2X2X2X2X2X2X2X2X2X2X2X2X2X2X2X",
"2X2X2X2X2X2X2X2X2X2X2X2X2X2X2X2X7.* 5 V e.e.:.;.^ ^ ^ ^ / V z z z z g f f d d g g g V B B Z ^ z $ + 0 2.2X2X2X2X2X2X2X2X2X2X2X2X2X2X2X2X2X2X",
"2X2X2X2X2X2X2X2X2X2X2X2X2X2X2X2X` $ @ % 5 B :.:.;.Y Y Y B b z z z z n g d n f d d f b v b v 1 #   o + F $X2X2X2X2X2X2X2X2X2X2X2X2X2X2X2X2X2X",
"2X2X2X2X2X2X2X2X2X2X2X2X2X2X2X2XG.Y 4 % @ @ % t B Y b v z z z z z v n y n r q q 1 n s n 5 @         o F %X2X2X2X2X2X2X2X2X2X2X2X2X2X2X2X2X2X",
"2X2X2X2X2X2X2X2X2X2X2X2X2X2X2X2X+XI.g.o.L 2 $ o o $ t c V Q 2.7.G.^.~.Z.7.2.T c t t % o . .         o 2.2X2X2X2X2X2X2X2X2X2X2X2X2X2X2X2X2X2X",
"2X2X2X2X2X2X2X2X2X2X2X2X2X2X2X2X*X_.I.j.s.' L s p 6.!.].@X&X&X2X2X&X2X2X&X2X&X#XoX/.x.: @ $ % & & < F oX2X2X2X2X2X2X2X2X2X2X2X2X2X2X2X2X2X2X",
"2X2X2X2X2X2X2X2X2X2X2X2X2X2X2X2X+Xz._.S.i.' ] L x.2X2X2X2X2X2X2X2X2X2X2X2X2X2X2X2X2X2X3.3 i l z b Y f.*X2X2X2X2X2X2X2X2X2X2X2X2X2X2X2X2X2X2X",
"2X2X2X2X2X2X2X2X2X2X2X2X2X2X2X).q.q.t.l.g.' b 4.#X2X2X2X2X2X2X2X2X2X2X2X2X2X2X2X2X2X2X].S 4 z / Z M C ,.{.2X2X2X2X2X2X2X2X2X2X2X2X2X2X2X2X2X",
"2X2X2X2X2X2X2X2X2X2X2X2X2X2X%X<.M N N C ,.` ! oX2X2X2X2X2X2X2X2X2X2X2X2X2X2X2X2X2X2X2X2Xx.p v c 1 q 1 1 x.2X2X2X2X2X2X2X2X2X2X2X2X2X2X2X2X2X",
"2X2X2X2X2X2X2X2X2X2X2X2X2X2X2X@X].(.].].].].@X2X2X2X2X2X2X2X2X2X2X2X2X2X2X2X2X2X2X2X2X2X&XoX]./.^.^./.(.#X2X2X2X2X2X2X2X2X2X2X2X2X2X2X2X2X2X",
"2X2X2X2X2X2X2X2X2X2X2X2X2X2X2X2X2X2X2X2X2X2X2X2X2X2X2X2X2X2X2X2X2X2X2X2X2X2X2X2X2X2X2X2X2X2X2X2X2X&X&X&X2X2X2X2X2X2X2X2X2X2X2X2X2X2X2X2X2X2X",
"2X2X2X2X2X2X2X2X2X2X2X2X2X2X2X2X2X2X2X2X2X2X2X2X2X2X2X2X2X2X2X2X2X2X2X2X2X2X2X2X2X2X2X2X2X2X2X2X2X3X3X&X2X2X2X2X2X2X2X2X2X2X2X2X2X2X2X2X2X2X",
"2X2X2X2X2X2X2X2X2X2X2X2X2X2X2X2X2X2X2X2X2X2X2X2X2X2X2X2X2X2X2X2X2X2X2X2X2X2X2X2X2X2X2X2X2X2X2X2X2X2X2X2X2X2X2X2X2X2X2X2X2X2X2X2X2X2X2X2X2X2X",
"2X2X2X2X2X2X2X2X2X2X2X2X2X2X2X2X2X2X2X2X2X2X2X2X2X2X2X2X2X2X2X2X2X2X2X2X2X2X2X2X2X2X2X2X2X2X2X2X2X2X2X2X2X2X2X2X2X2X2X2X2X2X2X2X2X2X2X2X2X2X",
"2X2X2X2X2X2X2X2X2X2X2X2X2X2X2X2X2X2X2X2X2X2X2X2X2X2X2X2X2X2X2X2X2X2X2X2X2X2X2X2X2X2X2X2X2X2X2X2X2X2X2X2X2X2X2X2X2X2X2X2X2X2X2X2X2X2X2X2X2X2X",
"2X2X2X2X2X2X2X2X2X2X2X2X2X2X2X2X2X2X2X2X2X2X2X2X2X2X2X2X2X2X2X2X2X2X2X2X2X2X2X2X2X2X2X2X2X2X2X2X2X2X2X2X2X2X2X2X2X2X2X2X2X2X2X2X2X2X2X2X2X2X",
"2X2X2X2X2X2X2X2X2X2X2X2X2X2X2X2X2X2X2X2X2X2X2X2X2X2X2X2X2X2X2X2X2X2X2X2X2X2X2X2X2X2X2X2X2X2X2X2X2X2X2X2X2X2X2X2X2X2X2X2X2X2X2X2X2X2X2X2X2X2X",
"2X2X2X2X2X2X2X2X2X2X2X2X2X2X2X2X2X2X2X2X2X2X2X2X2X2X2X2X2X2X2X2X2X2X2X2X2X2X2X2X2X2X2X2X2X2X2X2X2X2X2X2X2X2X2X2X2X2X2X2X2X2X2X2X2X2X2X2X2X2X"
};
