/* XPM */
static char *result[] = {
/* columns rows colors chars-per-pixel */
"70 70 217 2 ",
"   c #090906",
".  c #0D0C09",
"X  c #110E0B",
"o  c #15110E",
"O  c #18130F",
"+  c #171310",
"@  c #1A1612",
"#  c #1C1914",
"$  c #181E18",
"%  c #261A0F",
"&  c #221C15",
"*  c #231D1A",
"=  c #281F1F",
"-  c #2C241B",
";  c #27231A",
":  c #332A1D",
">  c #302416",
",  c #1F2921",
"<  c #2C2522",
"1  c #2A2922",
"2  c #302624",
"3  c #312A24",
"4  c #382D29",
"5  c #3B342A",
"6  c #3D3933",
"7  c #3E3231",
"8  c #56310E",
"9  c #46331C",
"0  c #563716",
"q  c #502D14",
"w  c #673C19",
"e  c #453928",
"r  c #5A3E23",
"t  c #463836",
"y  c #523F3E",
"u  c #5F4315",
"i  c #644414",
"p  c #68461B",
"a  c #7B501A",
"s  c #5B4324",
"d  c #584528",
"f  c #4C4337",
"g  c #5C513F",
"h  c #55452E",
"j  c #634423",
"k  c #654926",
"l  c #694C29",
"z  c #794622",
"x  c #6B502C",
"c  c #785526",
"v  c #684B35",
"b  c #754E37",
"n  c #6D5736",
"m  c #7C5133",
"M  c #71583A",
"N  c #77613E",
"B  c #4D4A43",
"V  c #4A4741",
"C  c #584A46",
"Z  c #55544C",
"A  c #595245",
"S  c #5B5D55",
"D  c #595C55",
"F  c #644C4C",
"G  c #684D4F",
"H  c #625A4C",
"J  c #675644",
"K  c #765E46",
"L  c #6D5254",
"P  c #605953",
"I  c #775A5A",
"U  c #5F6158",
"Y  c #6D614C",
"T  c #7B634B",
"R  c #63655B",
"E  c #66685F",
"W  c #6A695E",
"Q  c #676157",
"!  c #74685C",
"~  c #7B705D",
"^  c #7F5E61",
"/  c #6C6C62",
"(  c #7A6A62",
")  c #707166",
"_  c #74746A",
"`  c #77786C",
"'  c #797A6E",
"]  c #78766A",
"[  c #7F7E72",
"{  c #8C621F",
"}  c #8F4E28",
"|  c #855629",
" . c #97552A",
".. c #896329",
"X. c #896326",
"o. c #966733",
"O. c #A56A2A",
"+. c #88685B",
"@. c #946A5B",
"#. c #887559",
"$. c #92734B",
"%. c #A27459",
"&. c #815F63",
"*. c #866567",
"=. c #867C6C",
"-. c #947967",
";. c #956E72",
":. c #986F74",
">. c #847E73",
",. c #997175",
"<. c #997776",
"1. c #9A6F66",
"2. c #A57B7E",
"3. c #B57F74",
"4. c #99825E",
"5. c #9B886C",
"6. c #9B8664",
"7. c #838275",
"8. c #8C8473",
"9. c #868579",
"0. c #8A857B",
"q. c #8C8B7D",
"w. c #92877D",
"e. c #8E816B",
"r. c #B18378",
"t. c #A18E70",
"y. c #AB7D83",
"u. c #8F8E80",
"i. c #918D82",
"p. c #998783",
"a. c #959285",
"s. c #9A9689",
"d. c #9C9A8B",
"f. c #989687",
"g. c #AD8283",
"h. c #A88887",
"j. c #B18186",
"k. c #BB8A8C",
"l. c #B68788",
"z. c #A19C8F",
"x. c #A69787",
"c. c #BE8C91",
"v. c #A29E92",
"b. c #A89F92",
"n. c #B59291",
"m. c #BB9898",
"M. c #A8A28D",
"N. c #A5A294",
"B. c #AAA496",
"V. c #AAA897",
"C. c #ABA69A",
"Z. c #ADAA9B",
"A. c #B1AE9D",
"S. c #B0A59C",
"D. c #B7B29E",
"F. c #B2AEA1",
"G. c #B6B2A2",
"H. c #B8B4A3",
"J. c #BBB8A6",
"K. c #BBB6AA",
"L. c #BEBBA9",
"P. c #AEAAA0",
"I. c #C58C8D",
"U. c #C3928D",
"Y. c #C28E95",
"T. c #CC939B",
"R. c #C39699",
"E. c #D69A9C",
"W. c #CE99A1",
"Q. c #D49AA2",
"!. c #DA9DA4",
"~. c #DC9FA8",
"^. c #C7A7A7",
"/. c #DBA1A5",
"(. c #DDAAAF",
"). c #D7A5A9",
"_. c #C1BDAB",
"`. c #C6BCA6",
"'. c #DBB9B8",
"]. c #E4A4AD",
"[. c #E4A3A8",
"{. c #E7A6B0",
"}. c #EBAAB3",
"|. c #E7ACB3",
" X c #F3AFB9",
".X c #F2AEB7",
"XX c #EEB5BC",
"oX c #F5B1BB",
"OX c #FBB3BE",
"+X c #C5C1AF",
"@X c #C6C4B1",
"#X c #C9C6B3",
"$X c #CDC9B5",
"%X c #CFCBBA",
"&X c #CCC6B9",
"*X c #D1CDBA",
"=X c #DEC5BF",
"-X c #D5D1BD",
";X c #D9D2BD",
":X c #E2C0BE",
">X c #FFB6C1",
",X c #DAD5C2",
"<X c #DDD9C5",
"1X c #D7D5C0",
"2X c #DACCC3",
"3X c #E1DDC7",
"4X c #E3DECA",
"5X c #EFC3C5",
"6X c #E6E1CC",
"7X c #E9E4CE",
"8X c #EBE6D0",
"9X c #EEE9D2",
"0X c #EFEBDB",
"qX c #F1ECD5",
"wX c #F4EFD8",
"eX c #F6F1DA",
"rX c #F9F4DE",
/* pixels */
">X>X>X>X>X>X>X>X>X>X>X>X>X>X>X>X>X>X>X>X>X>X>X>X>X>X>X>X>X>X>X>X>X>X>X>X>X>X>X>X>X>X>X>X>X>X>X>X>X>X>X>X>X>X>X>X>X>X>X>X>X>X>X>X>X>X>X>X>X>X",
">X>X>X>X>X>X>X>X>X>X>X>X>X>X>X>X>X>X>X>X>X>X>X>X>X>X>X>X>X>X>X>X>X>X>X>X>X>X>X>X>X>X>X>X>X>X>X>X>X>X>X>X>X>X>X>X>X>X>X>X>X>X>X>X>X>X>X>X>X>X",
">X>X>X>X>X>X>X>X>X>X>X>X>X>X>X>X>X>X>X>X>X>X>X>X>X>X>X>X>X>X>X>X>X>X>X>X>X>X>X>X>X>X>X>X>X>X>X>X>X>X>X>X>X>X>X>X>X>X>X>X>X>X>X>X>X>X>X>X>X>X",
">X>X>X>X>X>X>X>X>X>X>X>X>X>X>X>X>X>X>X>X>X>X>X>X>X>X>X>X>X>X>X>X>X>X>X>X>X>X>X>X>X>X>X>X>X>X>X>X>X>X>X>X>X>X>X>X>X>X>X>X>X>X>X>X>X>X>X>X>X>X",
">X>X>X>X>X>X>X>X>X>X>X>X>X>X>X>X>X>X>X>X>X>X>X>X>X>X>X>X>X>X>X].>X>X>X>X>X>X].>X>X>X>X>X>X>X>X>X>X>X>X>X>X>X>X>X>X>X>X>X>X>X>X>X>X>X>X>X>X>X",
">X>X>X>X>X>X>X>X>X>X>X>X>X>X>X>X>X>X>X>X>X>X>X>X>X>X>X>X>X>XT.C ^.2X'.=X:X^.t Y.>X>X>X>X>X>X>X>X>X>X>X>X>X>X>X>X>X>X>X>X>X>X>X>X>X>X>X>X>X>X",
">X>X>X>X>X>X>X>X>X>X>X>X>X>X>X>X>X>X>X>X>X>X>X>X>X>X>X>X>X>Xc.[ a.P.1X1XP.N._ y.>X>X>X>X>X>X>X>X>X>X>X>X>X>X>X>X>X>X>X>X>X>X>X>X>X>X>X>X>X>X",
">X>X>X>X>X>X>X>X>X>X>X>X>X>X>X>X>X>X>X>X>X>X>X>X>X>X>X>X>X>XF.C $ 6 2XK.6 1 9.>X>X>X>X>X>X>X>X>X>X>X>X>X>X>X>X>X>X>X>X>X>X>X>X>X>X>X>X>X>X>X",
">X>X>X>X>X>X>X>X>X>X>X>X>X>X>X>X>X>X>X>X>X>X>X>X>X>X>X>X>X'./ + $ = 2XC.1 $ 3 A.5X>X>X>X>X>X>X>X>X>X>X>X>X>X>X>X>X>X>X>X>X>X>X>X>X>X>X>X>X>X",
">X>X>X>X>X>X>X>X>X>X>X>X>X>X>X>X>X>X>X>X>X>X>X>X>X>X>X>X>XS.7 $ , / 0X2XB 1 $ W 2X>X>X>X>X>X>X>X>X>X>X>X>X>X>X>X>X>X>X>X>X>X>X>X>X>X>X>X>X>X",
">X>X>X>X>X>X>X>X>X>X>X>X>X>X>X>X>X>X>X>X>X>X>X>X>X>X>X>X^.C.y # V w.@XK.=.7 # H @X>X>X>X>X>X>X>X>X>X>X>X>X>X>X>X>X>X>X>X>X>X>X>X>X>X>X>X>X>X",
">X>X>X>X>X>X>X>X>X>X>X>X>X>X>X>X>X>X>X>X>X>X>X>X>X>X>X>X^.K.v.s.w.- & & H B.=.B.&X'.>X>X>X>X>X>X>X>X>X>X>X>X>X>X>X>X>X>X>X>X>X>X>X>X>X>X>X>X",
">X>X>X>X>X>X>X>X>X>X>X>X>X>X>X>X>X>X>X>X>X>X>X>X>X>X>X>XS.P.&XK.9.P - f =.C.&X2XK.^.>X>X>X>X>X>X>X>X>X>X>X>X>X>X>X>X>X>X>X>X>X>X>X>X>X>X>X>X",
">X>X>X>X>X>X>X>X>X>X>X>X>X>X>X>X>X>X>X>X>X>X>X>X>X>X>X>Xv.v.P.v.9.=./ 0.>.v.K.K.P.S.>X>X>X>X>X>X>X>X>X>X>X>X>X>X>X>X>X>X>X>X>X>X>X>X>X>X>X>X",
">X>X>X>X>X>X>X>X>X>X>X>X>X>X>X>X>X>X>X>X>X>X>X>X>X>X>X>Xy.a.C.v.w.( ( *.w.C.F.F.b.p. X>X>X>X>X>X>X>X>X>X>X>X>X>X>X>X>X>X>X>X>X>X>X>X>X>X>X>X",
">X>X>X>X>X>X>X>X>X>X>X>X>X>X>X>X>X>X>X>X>X>X>X>X>X>X>X].I i.v.a.a.B.B.H.H.B.F.F.d.D {.>X>X>X>X>X>X>X>X>X>X>X>X>X>X>X>X>X>X>X>X>X>X>X>X>X>X>X",
">X>X>X>X>X>X>X>X>X>X>X>X>X>X>X>X>X>X>X>X>X>X>X>X>X>X>X/.t _ v.a.i.C.K.K.P.C.G.F./ 2 ~.>X>X>X>X>X>X>X>X>X>X>X>X>X>X>X>X>X>X>X>X>X>X>X>X>X>X>X",
">X>X>X>X>X>X>X>X>X>X>X>X>X>X>X>X>X>X>X>X>X>X>X>X>X>X>X~.# 6 i.s.y.s.b.C.N.C.G.a.3 = ~.>X>X>X>X>X>X>X>X>X>X>X>X>X>X>X>X>X>X>X>X>X>X>X>X>X>X>X",
">X>X>X>X>X>X>X>X>X>X>X>X>X>X>X>X>X>X>X>X>X>X>X>X>X>X>XQ.@ . C a.9.9.s.s.d.P.f.6 + # T.>X>X>X>X>X>X>X>X>X>X>X>X>X>X>X>X>X>X>X>X>X>X>X>X>X>X>X",
">X>X>X>X>X>X>X>X>X>X>X>X>X>X>X>X>X>X>X>X>X>X>X>X>X>X>XT.+   X V 9.9.>.>.i.[ 6 + X o l.>X>X>X>X>X>X>X>X>X>X>X>X>X>X>X>X>X>X>X>X>X>X>X>X>X>X>X",
">X>X>X>X>X>X>X>X>X>X>X>X>X>X>X>X>X>X>X>X>X>X>X>X>X>X>X:.  . . . , V D S B ; # o X X ^ >X>X>X>X>X>X>X>X>X>X>X>X>X>X>X>X>X>X>X>X>X>X>X>X>X>X>X",
">X>X>X>X>X>X>X>X>X>X>X>X>X>X>X>X>X>X>X>X>X>X>X>X>X>XQ.7 . . . . + + @ $ # O o o + X = Y.>X>X>X>X>X>X>X>X>X>X>X>X>X>X>X>X>X>X>X>X>X>X>X>X>X>X",
">X>X>X>X>X>X>X>X>X>X>X>X>X>X>X>X>X>X>X>X>X>X>X>X}.g.7 O . . . o X o o o o X X o o o + 2 ,.{.>X>X>X>X>X>X>X>X>X>X>X>X>X>X>X>X>X>X>X>X>X>X>X>X",
">X>X>X>X>X>X>X>X>X>X>X>X>X>X>X>X>XOX}.~.W.c.y.&.y # @ @ o X X o X X X o X o o o o @ @ @ + t ^ y.c.T.Q.}.>X>X>X>X>X>X>X>X>X>X>X>X>X>X>X>X>X>X",
">X>X>X>X>X>X>X>X>X>X>X>X>X>X>XQ.:.F t 2 = & @ @ @ @ @ + O o o o @ o + + X + X + + @ @ + @ @ @ @ # = - t F :.W.OX>X>X>X>X>X>X>X>X>X>X>X>X>X>X",
">X>X>X>X>X>X>X>X>X>X>X>X.Xc.G 2 # # @ # & @ @ @ @ @ @ @ O # + # @ @ @ @ @ @ + @ @ @ @ @ @ @ @ @ # @ @ @ @ # < G y.}.>X>X>X>X>X>X>X>X>X>X>X>X",
">X>X>X>X>X>X>X>X>X>X{.<.y * # # # # # # # # @ @ @ @ @ @ # # @ # $ # # @ @ # @ @ # @ @ @ @ @ @ @ # @ # # # # # * * t ;.~.>X>X>X>X>X>X>X>X>X>X",
">X>X>X>X>X>X>X>X~.*.4 @ # # & & # @ # # @ @ @ @ o + + @ # @ @ # @ @ @ # # @ @ @ @ # @ + o @ @ @ # @ # # @ # # # # # @ 2 I Q.>X>X>X>X>X>X>X>X",
">X>X>X>X>XoXT.:.4 @ @ @ & @ # @ # @ @ @ @ @ @ + + o O @ @ & % # > : 9 9 4 ; ; O @ & @ + o @ @ X @ @ @ @ @ @ # # # # @ @ + 2 &.Y. X>X>X>X>X>X",
">X>X>X>X.XI * + + + @ + @ @ @ @ @ @ X @ @ o + X X X O @ @ & : g e.M.`.+X^.x.~ e & @ @ o X X o @ o @ o o @ @ @ @ # @ + @ + o + * L }.>X>X>X>X",
">X>X>X>XW.< + 1 + . X o + + + + @ @ X o X O X X X . o @ : J x.;X9XeXrXrXrXwX6X+X~ : # X X X X X o + o + + @ + + + + X X . + < o < W.>X>X>X>X",
">X>X>X>XoXc.g.y.4 . . . X X o o X X @ X X X X X X . X 4 8.$X6X7X9XwXeXeXwXqX9X7X;X8.2 X . . X X X X X o o + X o o . X . . 3 y.y.Y. X>X>X>X>X",
">X>X>X>X>X>X>X>X{.y.^ F = . . X X . . . . . .       & =.$X,X3X7X9XwXwXeXwXqX9X7X3X*X7.@       . . . X X X X X X . @ F &.y.{.>X>X>X>X>X>X>X>X",
">X>X>X>X>X>X>X>X>X>X>X>XT.C X     .             . . C G.$X-X<X4X8X9XqXwXqXqX7X6X<X-XJ.A . .               .     t c.>X>X>X>X>X>X>X>X>X>X>X>X",
">X>X>X>X>X>X>X>X>X>X>X>X>X>Xy.7 .           = F y.j.w.G.@X*X<X4X6X7X9XqX9X9X6X3X;X%X+Xq.r.y.L <             < ;. X>X>X>X>X>X>X>X>X>X>X>X>X>X",
">X>X>X>X>X>X>X>X>X>X>X>X>X>X>X}.y.^ L I ;.j./.>X>XoXz.A._.*X;X<X6X6X7X7X6X6X3X<X-X#XJ.M.XX>X>X{.c.;.^ L ^ ,.~.>X>X>X>X>X>X>X>X>X>X>X>X>X>X>X",
">X>X>X>X>X>X>X>X>X>X>X>X>X>X>X>X>X>X>X>X>X>X>X>X>X|.s.A.+X$X*X;X<X3X6X3X4X3X<X1X%X@XJ.N.|.>X>X>X>X>X>X>X>X>X>X>X>X>X>X>X>X>X>X>X>X>X>X>X>X>X",
">X>X>X>X>X>X>X>X>X>X>X>X>X>X>X>X>X>X>X>X>X>X>X>X>X(.s.A.J.+X$X-X-X1X;X,X<X1X-X-X%X+XH.z.(.>X>X>X>X>X>X>X>X>X>X>X>X>X>X>X>X>X>X>X>X>X>X>X>X>X",
">X>X>X>X>X>X>X>X>X>X>X>X>X>X>X>X>X>X>X>X>X>X>X>X>X^.a.Z.J.+X+X@X%X*X*X*X-X*X%X$X+X_.D.z.).OX>X>X>X>X>X>X>X>X>X>X>X>X>X>X>X>X>X>X>X>X>X>X>X>X",
">X>X>X>X>X>X>X>X>X>X>X>X>X>X>X>X>X>X>X>X>X>X>X>X>XE.q.V.H.J.L._.+X@X#X#X@X$X#X+X+XJ.A.x.S.>X>X>X>X>X>X>X>X>X>X>X>X>X>X>X>X>X>X>X>X>X>X>X>X>X",
">X>X>X>X>X>X>X>X>X>X>X>X>X>X>X>X>X>X>X>X>X>X>X>X>XR.q.N.Z.A.D.H.J.L._._.L._._.L.J.G.V.q.m.>X>X>X>X>X>X>X>X>X>X>X>X>X>X>X>X>X>X>X>X>X>X>X>X>X",
">X>X>X>X>X>X>X>X>X>X>X>X>X>X>X>X>X>X>X>X>X>X>X>X>Xm.9.s.N.V.V.Z.A.D.D.J.G.G.G.G.A.V.V.q.n.>X>X>X>X>X>X>X>X>X>X>X>X>X>X>X>X>X>X>X>X>X>X>X>X>X",
">X>X>X>X>X>X>X>X>X>X>X>X>X>X>X>X>X>X>X>X>X>X>X>X>Xh.] q.d.d.N.V.V.V.Z.Z.V.A.Z.Z.V.d.f.7.n.>X>X>X>X>X>X>X>X>X>X>X>X>X>X>X>X>X>X>X>X>X>X>X>X>X",
">X>X>X>X>X>X>X>X>X>X>X>X>X>X>X>X>X>X>X>X>X>X>X>X>Xn._ 9.q.f.d.N.N.N.N.N.V.V.N.d.d.d.u.' h.>X>X>X>X>X>X>X>X>X>X>X>X>X>X>X>X>X>X>X>X>X>X>X>X>X",
">X>X>X>X>X>X>X>X>X>X>X>X>X>X>X>X>X>X>X>X>X>X>X>X>Xn./ [ q.u.f.d.f.f.d.d.d.d.d.f.q.q.7./ e.:X>X>X>X>X>X>X>X>X>X>X>X>X>X>X>X>X>X>X>X>X>X>X>X>X",
">X>X>X>X>X>X>X>X>X>X>X>X>X>X>X>X>X>X>X>X>X>X>X>X>Xm.W ` 7.q.u.u.q.q.q.u.a.q.q.q.q.q.` R #.OX>X>X>X>X>X>X>X>X>X>X>X>X>X>X>X>X>X>X>X>X>X>X>X>X",
">X>X>X>X>X>X>X>X>X>X>X>X>X>X>X>X>X>X>X>X>X>X>X>X>Xl.U / ` [ 9.9.9.7.q.9.7.9.7.7.' ` / U $.oXOX>X>X>X>X>X>X>X>X>X>X>X>X>X>X>X>X>X>X>X>X>X>X>X",
">X>X>X>X>X>X>X>X>X>X>X>X>X>X>X>X>X>X>X>X>X>X>X>X>Xr.Z R ) _ ` [ 7.[ 7.' ' ' ` ` ) E U Z %.OXOX>X>X>X>X>X>X>X>X>X>X>X>X>X>X>X>X>X>X>X>X>X>X>X",
">X>X>X>X>X>X>X>X>X>X>X>X>X>X>X>X>X>X>X>X>X>X>X>X>Xr.A Q R / ) ) _ ` ` ` _ ) / W E R U J r.>X>X>X>X>X>X>X>X>X>X>X>X>X>X>X>X>X>X>X>X>X>X>X>X>X",
">X>X>X>X>X>X>X>X>X>X>X>X>X>X>X>X>X>X>X>X>X>X>X>X>X/.J Z S R E / / / ) / E / W R U U Y | I.>X>X>X>X>X>X>X>X>X>X>X>X>X>X>X>X>X>X>X>X>X>X>X>X>X",
">X>X>X>X>X>X>X>X>X>X>X>X>X>X>X>X>X>X>X>X>X>X>X>X>X[.m A Z D S R U / E E E R R S S Q m z E.OX>X>X>X>X>X>X>X>X>X>X>X>X>X>X>X>X>X>X>X>X>X>X>X>X",
">X>X>X>X>X>X>X>X>X>X>X>X>X>X>X>X>X>X>X>X>X>X>X>X>X|.b | J D D S U U R U R U S D Y o.w r [.OX>X>X>X>X>X>X>X>X>X>X>X>X>X>X>X>X>X>X>X>X>X>X>X>X",
">X>X>X>X>X>X>X>X>X>X>X>X>X>X>X>X>X>X>X>X>X>X>X>X>XoXK l z M H D D S U S D S Y v | | q d }.OX>X>X>X>X>X>X>X>X>X>X>X>X>X>X>X>X>X>X>X>X>X>X>X>X",
">X>X>X>X>X>X>X>X>X>X>X>X>X>X>X>X>X>X>X>X>X>X>X>X>XOXQ x j | o.b Y J J T b b O.z w 0 q J .X>X>X>X>X>X>X>X>X>X>X>X>X>X>X>X>X>X>X>X>X>X>X>X>X>X",
">X>X>X>X>X>X>X>X>X>X>X>X>X>X>X>X>X>X>X>X>X>X>X>X>X>X! h x k z z O. .} O.} } a 8 q r k +.oX>X>X>X>X>X>X>X>X>X>X>X>X>X>X>X>X>X>X>X>X>X>X>X>X>X",
">X>X>X>X>X>X>X>X>X>X>X>X>X>X>X>X>X>X>X>X>X>X>X>X>X>X*.s k k s s p j j i 0 8 8 0 x M n 1.>X>X>X>X>X>X>X>X>X>X>X>X>X>X>X>X>X>X>X>X>X>X>X>X>X>X",
">X>X>X>X>X>X>X>X>X>X>X>X>X>X>X>X>X>X>X>X>X>X>X>X>XOXl.l l l l p r s x l 8 0 p n N n h g.>X>X>X>X>X>X>X>X>X>X>X>X>X>X>X>X>X>X>X>X>X>X>X>X>X>X",
">X>X>X>X>X>X>X>X>X>X>X>X>X>X>X>X>X>X>X>X>X>X>X>X>XOX[.h k c x k j v /.[.+.x M n h ; # E.>X>X>X>X>X>X>X>X>X>X>X>X>X>X>X>X>X>X>X>X>X>X>X>X>X>X",
">X>X>X>X>X>X>X>X>X>X>X>X>X>X>X>X>X>X>X>X>X>X>X>X>X>XOXA > : 9 5 > I >X>X2.: ; & @ o t }.>X>X>X>X>X>X>X>X>X>X>X>X>X>X>X>X>X>X>X>X>X>X>X>X>X>X",
">X>X>X>X>X>X>X>X>X>X>X>X>X>X>X>X>X>X>X>X>X>X>X>X>X>XOXr.g f : 5 f T.>X>X}.A 4 3 5 g <.>X>X>X>X>X>X>X>X>X>X>X>X>X>X>X>X>X>X>X>X>X>X>X>X>X>X>X",
">X>X>X>X>X>X>X>X>X>X>X>X>X>X>X>X>X>X>X>X>X>X>X>X>X>X>X/.e.5.5.#.e.OX>X>XOXl.#.5.t.6.l.>X>X>X>X>X>X>X>X>X>X>X>X>X>X>X>X>X>X>X>X>X>X>X>X>X>X>X",
">X>X>X>X>X>X>X>X>X>X>X>X>X>X>X>X>X>X>X>X>X>X>X>X>X>XOX).4.6.4.#.U.>X>X>XOX/.#.6.t.#.U.>X>X>X>X>X>X>X>X>X>X>X>X>X>X>X>X>X>X>X>X>X>X>X>X>X>X>X",
">X>X>X>X>X>X>X>X>X>X>X>X>X>X>X>X>X>X>X>X>X>X>X>X>X>X>XU.X.$.{ { k.OX>X>XOXE.c { $...3.>X>X>X>X>X>X>X>X>X>X>X>X>X>X>X>X>X>X>X>X>X>X>X>X>X>X>X",
">X>X>X>X>X>X>X>X>X>X>X>X>X>X>X>X>X>X>X>X>X>X>X>X>XOXOXr.i | i i U.OX>XOXOX/.p i ..p @.>X>X>X>X>X>X>X>X>X>X>X>X>X>X>X>X>X>X>X>X>X>X>X>X>X>X>X",
">X>X>X>X>X>X>X>X>X>X>X>X>X>X>X>X>X>X>X>X>X>X>X>X>X>X>XT.r 0 0 @. X>X>X>X>X>X1.0 u r k.>X>X>X>X>X>X>X>X>X>X>X>X>X>X>X>X>X>X>X>X>X>X>X>X>X>X>X",
">X>X>X>X>X>X>X>X>X>X>X>X>X>X>X>X>X>X>X>X>X>X>X>X>X>X>X>X~.I.W.>X>X>X>X>X>X>XOXW.c.!.>X>X>X>X>X>X>X>X>X>X>X>X>X>X>X>X>X>X>X>X>X>X>X>X>X>X>X>X",
">X>X>X>X>X>X>X>X>X>X>X>X>X>X>X>X>X>X>X>X>X>X>X>X>X>X>X>X>X>X>X>X>X>X>X>X>X>X>X>X>X>X>X>X>X>X>X>X>X>X>X>X>X>X>X>X>X>X>X>X>X>X>X>X>X>X>X>X>X>X",
">X>X>X>X>X>X>X>X>X>X>X>X>X>X>X>X>X>X>X>X>X>X>X>X>X>X>X>X>X>X>X>X>X>X>X>X>X>X>X>X>X>X>X>X>X>X>X>X>X>X>X>X>X>X>X>X>X>X>X>X>X>X>X>X>X>X>X>X>X>X",
">X>X>X>X>X>X>X>X>X>X>X>X>X>X>X>X>X>X>X>X>X>X>X>X>X>X>X>X>X>X>X>X>X>X>X>X>X>X>X>X>X>X>X>X>X>X>X>X>X>X>X>X>X>X>X>X>X>X>X>X>X>X>X>X>X>X>X>X>X>X",
">X>X>X>X>X>X>X>X>X>X>X>X>X>X>X>X>X>X>X>X>X>X>X>X>X>X>X>X>X>X>X>X>X>X>X>X>X>X>X>X>X>X>X>X>X>X>X>X>X>X>X>X>X>X>X>X>X>X>X>X>X>X>X>X>X>X>X>X>X>X"
};
