/* XPM */
static char *result[] = {
/* columns rows colors chars-per-pixel */
"70 70 223 2 ",
"   c #02040F",
".  c #030511",
"X  c #050913",
"o  c #090C16",
"O  c #0C0F18",
"+  c #0E111A",
"@  c #13141D",
"#  c #1D1B1F",
"$  c #23211E",
"%  c #161620",
"&  c #171921",
"*  c #1B1B23",
"=  c #211E27",
"-  c #1F2129",
";  c #1D2027",
":  c #212126",
">  c #24242A",
",  c #28272C",
"<  c #2A292E",
"1  c #2E2825",
"2  c #342E25",
"3  c #3A322B",
"4  c #2D2C31",
"5  c #212631",
"6  c #312F32",
"7  c #392D36",
"8  c #2D3138",
"9  c #343135",
"0  c #3A3536",
"q  c #3D3937",
"w  c #3A3639",
"e  c #3D393B",
"r  c #35363C",
"t  c #443A2B",
"y  c #4A3A2A",
"u  c #423C3B",
"i  c #483E33",
"p  c #5E3F27",
"a  c #4F432F",
"s  c #58432C",
"d  c #46413D",
"f  c #4B433E",
"g  c #4E4130",
"h  c #534533",
"j  c #574A35",
"k  c #5B4D33",
"l  c #5B4D39",
"z  c #5F5034",
"x  c #6C4D25",
"c  c #63432A",
"v  c #634A2C",
"b  c #664828",
"n  c #724D2A",
"m  c #784D2C",
"M  c #6A512D",
"N  c #7A552A",
"B  c #735325",
"V  c #624C33",
"C  c #635233",
"Z  c #66553A",
"A  c #6D5937",
"S  c #755A36",
"D  c #7D6236",
"F  c #393C42",
"G  c #433D41",
"H  c #4B3C43",
"J  c #3C4248",
"K  c #454143",
"L  c #4A4543",
"P  c #4D4944",
"I  c #41454C",
"U  c #4C4A4A",
"Y  c #41484E",
"T  c #524C46",
"R  c #534B49",
"E  c #59534C",
"W  c #56514A",
"Q  c #454B53",
"!  c #4C5358",
"~  c #555455",
"^  c #5C5553",
"/  c #5C5954",
"(  c #50565D",
")  c #5A5B5C",
"_  c #544F50",
"`  c #695A4A",
"'  c #635C55",
"]  c #665858",
"[  c #6D5554",
"{  c #796444",
"}  c #6B635D",
"|  c #65625C",
" . c #7C6F5E",
".. c #565D64",
"X. c #785962",
"o. c #695F61",
"O. c #5D6669",
"+. c #686866",
"@. c #746A68",
"#. c #636C72",
"$. c #6C6F74",
"%. c #6A7277",
"&. c #6B747B",
"*. c #6F787D",
"=. c #667074",
"-. c #71797F",
";. c #767676",
":. c #7A6B70",
">. c #825C31",
",. c #836539",
"<. c #977738",
"1. c #8C6C36",
"2. c #88724D",
"3. c #997949",
"4. c #967859",
"5. c #896B50",
"6. c #837566",
"7. c #867974",
"8. c #997779",
"9. c #85686F",
"0. c #A97A7D",
"q. c #AA8F56",
"w. c #978574",
"e. c #B78970",
"r. c #A38F7E",
"t. c #918B53",
"y. c #C78F7D",
"u. c #CBA277",
"i. c #737C81",
"p. c #A57A83",
"a. c #788387",
"s. c #7B858A",
"d. c #7B868C",
"f. c #7F8A90",
"g. c #898783",
"h. c #9D8685",
"j. c #828D93",
"k. c #869196",
"l. c #8A959B",
"z. c #8E999F",
"x. c #899196",
"c. c #93999C",
"v. c #A38688",
"b. c #B4828A",
"n. c #B28D8E",
"m. c #B98E93",
"M. c #A99594",
"N. c #AAA499",
"B. c #8F9AA1",
"V. c #929DA3",
"C. c #949FA8",
"Z. c #96A1A7",
"A. c #97A2A9",
"S. c #99A5AB",
"D. c #9CA8AF",
"F. c #9DA7B1",
"G. c #A8ABAB",
"H. c #A3ADB4",
"J. c #A8AFB3",
"K. c #A6B2BA",
"L. c #ABB6BE",
"P. c #A7B1B6",
"I. c #B3BBBE",
"U. c #BBBDBA",
"Y. c #BCB1A5",
"T. c #C38D8E",
"R. c #C89B88",
"E. c #C18D96",
"W. c #C6979D",
"Q. c #D99C94",
"!. c #DCA297",
"~. c #D0A58D",
"^. c #E7A99D",
"/. c #D59EA5",
"(. c #D59AA3",
"). c #CE98A0",
"_. c #C1A7AC",
"`. c #DDA2AB",
"'. c #D6A6A5",
"]. c #C4ADB2",
"[. c #D6B0B7",
"{. c #E1A3AC",
"}. c #ECACA8",
"|. c #E6AAB2",
" X c #EBA9B4",
".X c #F2AFB9",
"XX c #F2ADB6",
"oX c #F4B1BB",
"OX c #FBB4BE",
"+X c #F7B2B4",
"@X c #EFB1AE",
"#X c #B3BDC3",
"$X c #ACB8C1",
"%X c #FFB6C1",
"&X c #FBB9C3",
"*X c #F6BDC6",
"=X c #EFB8C2",
"-X c #BBC4CA",
";X c #BDC4C5",
":X c #C5C9CA",
">X c #DBC6CA",
",X c #CDD4D5",
"<X c #D3DADB",
"1X c #D3D7D7",
"2X c #C8C7D0",
"3X c #EAC3CD",
"4X c #F5C5CD",
"5X c #F7CDD3",
"6X c #EBD5DB",
"7X c #F4D5DA",
"8X c #E3CED4",
"9X c #D6DEE1",
"0X c #FADEE2",
"qX c #DBE2E4",
"wX c #DBE3E8",
"eX c #E4EAED",
"rX c #E0E7EA",
"tX c #E8EFF2",
"yX c #ECF1F3",
"uX c #F1F6F9",
"iX c #F5F9FC",
"pX c #F9FEFE",
"aX c #F3E9EC",
/* pixels */
"%X%X%X%X%X%X%X%X%X%X%X%X%X%X%X%X%X%X%X%X%X%X%X%X%X%X%X%X%X%X%X%X%X%X%X%X%X%X%X%X%X%X%X%X%X%X%X%X%X%X%X%X%X%X%X%X%X%X%X%X%X%X%X%X%X%X%X%X%X%X",
"%X%X%X%X%X%X%X%X%X%X%X%X%X%X%X%X%X%X%X%X%X%X%X%X%X%X%X%X%X%X%X%X%X%X%X%X%X%XoX&X%X%X%X%X%X%X%X%X%X%X%X%X%X%X%X%X%X%X%X%X%X%X%X%X%X%X%X%X%X%X",
"%X%X%X%X%X%X%X%X%X%X%X%X%X%X%X%X%X%X%X%X%X%X%X%X%X%X%X%X%X%X%X%X%X%X%X%X%XXX:.8.%X%X%X%X%X%X%X%X%X%X%X%X%X%X%X%X%X%X%X%X%X%X%X%X%X%X%X%X%X%X",
"%X%X%X%X%X%X%X%X%X%X%X%X%X%X%X%X%X%X%X%X%X%X%X%X%X%X%X%X%X%X|.oX%X%X&X%X%X).4 ^ %X%X%X%X%X%X%X%X%X%X%X%X%X%X%X%X%X%X%X%X%X%X%X%X%X%X%X%X%X%X",
"%X%X%X%X%X%X%X%X%X%X%X%X%X%X%X%X%X%X%X%X%X%X%X%X%X%X%X%X%X|.o.9.%X*X6X7X7X]._ m.%X%X%X%X%X%X%X%X%X%X%X%X%X%X%X%X%X%X%X%X%X%X%X%X%X%X%X%X%X%X",
"%X%X%X%X%X%X%X%X%X%X%X%X%X%X%X%X%X%X%X%X%X%X%X%X%X%X%X%X%X/.9 6 _.aXtXyXtX9X2X8X*X%X%X%X%X%X%X%X%X%X%X%X%X%X%X%X%X%X%X%X%X%X%X%X%X%X%X%X%X%X",
"%X%X%X%X%X%X%X%X%X%X%X%X%X%X%X%X%X%X%X%X%X%X%X%X%X%X%X%X%X%Xp.*.9XuXuXuXtXtXrX9X6X&X%X%X%X%X%X%X%X%X%X%X%X%X%X%X%X%X%X%X%X%X%X%X%X%X%X%X%X%X",
"%X%X%X%X%X%X%X%X%X%X%X%X%X%X%X%X%X%X%X%X%X%X%X%X%X%X%X%X%X%X0XiXpXuXuXuXuXyX9X9X9X3X%X%X%X%X%X%X%X%X%X%X%X%X%X%X%X%X%X%X%X%X%X%X%X%X%X%X%X%X",
"%X%X%X%X%X%X%X%X%X%X%X%X%X%X%X%X%X%X%X%X%X%X%X%X%X%X%X%XOX5XpXpXiXiXyXuXuXwX-X$X-X2X*X%X%X%X%X%X%X%X%X%X%X%X%X%X%X%X%X%X%X%X%X%X%X%X%X%X%X%X",
"%X%X%X%X%X%X%X%X%X%X%X%X%X%X%X%X%X%X%X%X%X%X%X%X%X%X%X%X&XaXpXiXuXyXeXyXwXK.( &.K.#X=X%X%X%X%X%X%X%X%X%X%X%X%X%X%X%X%X%X%X%X%X%X%X%X%X%X%X%X",
"%X%X%X%X%X%X%X%X%X%X%X%X%X%X%X%X%X%X%X%X%X%X%X%X%X%X%X%X4XpXpXiXtXtX9X9X-XJ + - f.$X8X&X%X%X%X%X%X%X%X%X%X%X%X%X%X%X%X%X%X%X%X%X%X%X%X%X%X%X",
"%X%X%X%X%X%X%X%X%X%X%X%X%X%X%X%X%X%X%X%X%X%X%X%X%X%X%X%X5XpXiXyXwXwX,X2Xf.4 I * ..K.2X&X%X%X%X%X%X%X%X%X%X%X%X%X%X%X%X%X%X%X%X%X%X%X%X%X%X%X",
"%X%X%X%X%X%X%X%X%X%X%X%X%X%X%X%X%X%X%X%X%X%X%X%X%X%X%X%X7XiXeXc.i.C.P.L.i.! a.> Q K.#X=X%X%X%X%X%X%X%X%X%X%X%X%X%X%X%X%X%X%X%X%X%X%X%X%X%X%X",
"%X%X%X%X%X%X%X%X%X%X%X%X%X%X%X%X%X%X%X%X%X%X%X%X%X%X%X%X6XiX;Xe ~ O.Y Z.f.J r : $.K.$X[.%X%X%X%X%X%X%X%X%X%X%X%X%X%X%X%X%X%X%X%X%X%X%X%X%X%X",
"%X%X%X%X%X%X%X%X%X%X%X%X%X%X%X%X%X%X%X%X%X%X%X%X%X%X%XOX>XuX:X` ~ +.x.,X-X=.K O.F.K.$X_.%X%X%X%X%X%X%X%X%X%X%X%X%X%X%X%X%X%X%X%X%X%X%X%X%X%X",
"%X%X%X%X%X%X%X%X%X%X%X%X%X%X%X%X%X%X%X%X%X%X%X%X%X%X%XOX].eXeXG.@.G.yXeX<XL.c.Z.$XH.H.M.=X%X%X%X%X%X%X%X%X%X%X%X%X%X%X%X%X%X%X%X%X%X%X%X%X%X",
"%X%X%X%X%X%X%X%X%X%X%X%X%X%X%X%X%X%X%X%X%X%X%X%X%X%X%XOXM.,X<XI.x.U.N.,X-XS.A.B.K.H.c.$.v.oX%X%X%X%X%X%X%X%X%X%X%X%X%X%X%X%X%X%X%X%X%X%X%X%X",
"%X%X%X%X%X%X%X%X%X%X%X%X%X%X%X%X%X%X%X%X%X%X%X%X%X%X%X/.o.G.#XC.k.U.6.] +.i.F.A.H.D.*.G ~ h..X%X%X%X%X%X%X%X%X%X%X%X%X%X%X%X%X%X%X%X%X%X%X%X",
"%X%X%X%X%X%X%X%X%X%X%X%X%X%X%X%X%X%X%X%X%X%X%X%X%X%X'.] G $.G.V.P.wXN.0 U x.F.F.F.k.I = 8 ~ v.oX%X%X%X%X%X%X%X%X%X%X%X%X%X%X%X%X%X%X%X%X%X%X",
"%X%X%X%X%X%X%X%X%X%X%X%X%X%X%X%X%X%X%X%X%X%X%X%XOX|.:.u w F x.H.:XeXI.i.l.C.F.F.C...+ * * 0 ^ n.%X%X%X%X%X%X%X%X%X%X%X%X%X%X%X%X%X%X%X%X%X%X",
"%X%X%X%X%X%X%X%X%X%X%X%X%X%X%X%X%X%X%X%X%X%X%X%X+X8.P q 9 6 ~ V.#X,X-XA.C.C.C.C.i.% . + @ * e o.).%X%X%X%X%X%X%X%X%X%X%X%X%X%X%X%X%X%X%X%X%X",
"%X%X%X%X%X%X%X%X%X%X%X%X%X%X%X%X%X%X%X%X%X%X%X%Xm.E u 0 6 4 > ..l.G.C.C.B.B.B.i.5 . . X + @ > P 7..X%X%X%X%X%X%X%X%X%X%X%X%X%X%X%X%X%X%X%X%X",
"%X%X%X%X%X%X%X%X%X%X%X%X%X%X%X%X%X%X%X%X%X%X%X{.} f q 9 6 < > * ! i.-.s.d.d.#.5 X . . X X + @ 7 ) E.%X%X%X%X%X%X%X%X%X%X%X%X%X%X%X%X%X%X%X%X",
"%X%X%X%X%X%X%X%X%X%X%X%X%X%X%X%X%X%X%X%X%X&X&X8.R u 0 6 < , * * O 8 Q ..( F % . . . . . X X @ 4 R 7.=X%X%X%X%X%X%X%X%X%X%X%X%X%X%X%X%X%X%X%X",
"%X%X%X%X%X%X%X%X%X%X%X%X%X%X%X%X%X%X%X%X%X%X'.] T u 9 6 , : + * + . o + + X X . . . .   X > 6 0 P +.W.&X%X%X%X%X%X%X%X%X%X%X%X%X%X%X%X%X%X%X",
"%X%X%X%X%X%X%X%X%X%X%X%X%X%X%X%X%X%X%X%X%X&X8.E f u 9 < > # X * 9 * O + + . X . X .   . @ 0 q q P +.h.oX%X%X%X%X%X%X%X%X%X%X%X%X%X%X%X%X%X%X",
"%X%X%X%X%X%X%X%X%X%X%X%X%X%X%X%X%X%X%X%XOX{.@.T d q 9 < > +   @ r 9 9 ) 8 X X X X . . . + 0 q 0 L +.p.[.%X%X%X%X%X%X%X%X%X%X%X%X%X%X%X%X%X%X",
"%X%X%X%X%X%X%X%X%X%X%X%X%X%X%X%X%X%X%X%XOXn.' T d q 4 1 * X . @ 9 f ` ) u 5 & o . . . . * u 0 0 K ' ;.W.%X%X%X%X%X%X%X%X%X%X%X%X%X%X%X%X%X%X",
"%X%X%X%X%X%X%X%X%X%X%X%X%X%X%X%X%X%X%X%XOX7.` P i q q q 4 % . + } N.w.) +.a.O.F + . + 4 G K u w e ~ @.h.%X%X%X%X%X%X%X%X%X%X%X%X%X%X%X%X%X%X",
"%X%X%X%X%X%X%X%X%X%X%X%X%X%X%X%X%X%X%X%X|.} E f L K d d u e > 8 ;X,X$.U ( H.k.a.( 4 e G q e q 9 6 G ) 7..X%X%X%X%X%X%X%X%X%X%X%X%X%X%X%X%X%X",
"%X%X%X%X%X%X%X%X%X%X%X%X%X%X%X%X%X%X%X%X/.] T f T T f K u u 9 ~ :Xw.d e / $.;.%.+.G w w 7 9 < < , < G @.XX%X%X%X%X%X%X%X%X%X%X%X%X%X%X%X%X%X",
"%X%X%X%X%X%X%X%X%X%X%X%X%X%X%X%X%X%X%X%X).E P T T P i u u u e u =.U 9 ~ U L U K 9 0 9 6 6 < < > = > 7 ^ /.%X%X%X%X%X%X%X%X%X%X%X%X%X%X%X%X%X",
"%X%X%X%X%X%X%X%X%X%X%X%X%X%X%X%X%X%X%X%XW.T L R f d u u u e K e d u 8 / d 0 9 9 6 6 6 6 < < > = * : 4 R `.%X%X%X%X%X%X%X%X%X%X%X%X%X%X%X%X%X",
"%X%X%X%X%X%X%X%X%X%X%X%X%X%X%X%X%X%X%X%Xm.K d u d u q u q e F w u 9 4 P 8 q 4 4 6 6 4 < , , > = # * < K /.%X%X%X%X%X%X%X%X%X%X%X%X%X%X%X%X%X",
"%X%X%X%X%X%X%X%X%X%X%X%X%X%X%X%X%X%X%X%XE.u u u u q 0 9 9 e e r 9 6 , 4 > 9 4 , , 4 , , > = = * * * > G `.%X%X%X%X%X%X%X%X%X%X%X%X%X%X%X%X%X",
"%X%X%X%X%X%X%X%X%X%X%X%X%X%X%X%X%X%X%XOXW.u w w 0 9 9 6 4 r r 4 4 > ; > ; 8 < , , , , > = * # * * * = L  X%X%X%X%X%X%X%X%X%X%X%X%X%X%X%X%X%X",
"%X%X%X%X%X%X%X%X%X%X%X%X%X%X%X%X%X%X%X%X(.G 7 6 6 6 6 6 4 8 8 < > ; * 4 > ; ; > , = = = * * * & * * = ] %X%X%X%X%X%X%X%X%X%X%X%X%X%X%X%X%X%X",
"%X%X%X%X%X%X%X%X%X%X%X%X%X%X%X%X%X%X%X%X XR 4 4 < 4 < 4 < < , > ; @ 8 r ; 4 F ; = = * * * * & * * * = p.%X%X%X%X%X%X%X%X%X%X%X%X%X%X%X%X%X%X",
"%X%X%X%X%X%X%X%X%X%X%X%X%X%X%X%X%X%X%X%X%X8.4 4 < > > , 5 > - * # + J O.! O.=.J * * % # @ * & * & * G {.%X%X%X%X%X%X%X%X%X%X%X%X%X%X%X%X%X%X",
"%X%X%X%X%X%X%X%X%X%X%X%X%X%X%X%X%X%X%X%X%X{.G > > > > > - - * * + 5 O.=.-.i.a.=.8 @ @ % # * & % & * p.%X%X%X%X%X%X%X%X%X%X%X%X%X%X%X%X%X%X%X",
"%X%X%X%X%X%X%X%X%X%X%X%X%X%X%X%X%X%X%X%X%X%Xp.= ; ; ; & * * * @ & Q =.*.a.d.d.a.=.r + @ % & * % % ] %X%X%X%X%X%X%X%X%X%X%X%X%X%X%X%X%X%X%X%X",
"%X%X%X%X%X%X%X%X%X%X%X%X%X%X%X%X%X%X%X%X%X%XoXX.# @ @ # % & % % J #.*.s.f.f.k.f.d.-.J ; @ + % * [ {.%X%X%X%X%X%X%X%X%X%X%X%X%X%X%X%X%X%X%X%X",
"%X%X%X%X%X%X%X%X%X%X%X%X%X%X%X%X%X%X%X%X%X%X%X.X@.5 + + + & - J O.*.s.f.k.l.l.k.f.f.f.*...! ] b.=X%X%X%X%X%X%X%X%X%X%X%X%X%X%X%X%X%X%X%X%X%X",
"%X%X%X%X%X%X%X%X%X%X%X%X%X%X%X%X%X%X%X%X%X%X%X%X6Xc.J r F J O.#.*.a.f.l.l.z.l.z.l.k.k.k.B.G.R.OX%X%X%X%X%X%X%X%X%X%X%X%X%X%X%X%X%X%X%X%X%X%X",
"%X%X%X%X%X%X%X%X%X%X%X%X%X%X%X%X%X%X%X%X%X%X%X%X6X;X%.+.O.#.%.*.s.f.k.z.z.B.z.z.z.l.z.l.V.M.e.%X%X%X%X%X%X%X%X%X%X%X%X%X%X%X%X%X%X%X%X%X%X%X",
"%X%X%X%X%X%X%X%X%X%X%X%X%X%X%X%X%X%X%X%X%X%X%X%X5X1Xs.=.=.&.i.s.f.k.z.B.V.Z.Z.Z.V.V.z.z.z.2.y.%X%X%X%X%X%X%X%X%X%X%X%X%X%X%X%X%X%X%X%X%X%X%X",
"%X%X%X%X%X%X%X%X%X%X%X%X%X%X%X%X%X%X%X%X%X%X%X%X4XqXJ.*.*.i.a.f.k.l.z.V.Z.A.A.A.Z.C.V.z. .>.!.OX%X%X%X%X%X%X%X%X%X%X%X%X%X%X%X%X%X%X%X%X%X%X",
"%X%X%X%X%X%X%X%X%X%X%X%X%X%X%X%X%X%X%X%X%X%X%X%X4X9X,Xl.i.a.s.k.l.z.Z.Z.A.S.S.S.A.Z.B.;.S D Q.OX%X%X%X%X%X%X%X%X%X%X%X%X%X%X%X%X%X%X%X%X%X%X",
"%X%X%X%X%X%X%X%X%X%X%X%X%X%X%X%X%X%X%X%X%X%X%X%X=X1X1X:Xx.d.k.l.z.z.Z.A.A.G.S.S.S.c.7.S N ,.!.%X%X%X%X%X%X%X%X%X%X%X%X%X%X%X%X%X%X%X%X%X%X%X",
"%X%X%X%X%X%X%X%X%X%X%X%X%X%X%X%X%X%X%X%X%X%X%X%XOX>X,X,XU.z.k.l.z.V.Z.S.S.S.S.A.c.6.>.m A 1.^.%X%X%X%X%X%X%X%X%X%X%X%X%X%X%X%X%X%X%X%X%X%X%X",
"%X%X%X%X%X%X%X%X%X%X%X%X%X%X%X%X%X%X%X%X%X%X%X%XOX~.Y.:X:XI.S.V.z.Z.Z.S.S.A.c.7.,.m N v A 3.}.OX%X%X%X%X%X%X%X%X%X%X%X%X%X%X%X%X%X%X%X%X%X%X",
"%X%X%X%X%X%X%X%X%X%X%X%X%X%X%X%X%X%X%X%X%X%X%X%X&X^.3.r.U.;XI.P.A.V.V.z.g.6.{ N n n V V A 3.@X%X%X%X%X%X%X%X%X%X%X%X%X%X%X%X%X%X%X%X%X%X%X%X",
"%X%X%X%X%X%X%X%X%X%X%X%X%X%X%X%X%X%X%X%X%X%X%X%XOX+Xq.,.,.4.w.w.w.5.2.,.m N x x c b Z Z A q.XX%X%X%X%X%X%X%X%X%X%X%X%X%X%X%X%X%X%X%X%X%X%X%X",
"%X%X%X%X%X%X%X%X%X%X%X%X%X%X%X%X%X%X%X%X%X%X%X%XOXOXu.q.S k c c B b M b s c p x B B Z Z ` e.OX%X%X%X%X%X%X%X%X%X%X%X%X%X%X%X%X%X%X%X%X%X%X%X",
"%X%X%X%X%X%X%X%X%X%X%X%X%X%X%X%X%X%X%X%X%X%X%X%X&X&X~.q.3.A j k j y i j v c b B B M Z { 2.R.%X%X%X%X%X%X%X%X%X%X%X%X%X%X%X%X%X%X%X%X%X%X%X%X",
"%X%X%X%X%X%X%X%X%X%X%X%X%X%X%X%X%X%X%X%X%X%X%X%XOX&X'.t.2.S k z V k j j s b x n v Z { { 5.!.%X%X%X%X%X%X%X%X%X%X%X%X%X%X%X%X%X%X%X%X%X%X%X%X",
"%X%X%X%X%X%X%X%X%X%X%X%X%X%X%X%X%X%X%X%X%X%X%X%XOXOX}.q.<.S C j k k j j k c s y j ` S 5.2.}.%X%X%X%X%X%X%X%X%X%X%X%X%X%X%X%X%X%X%X%X%X%X%X%X",
"%X%X%X%X%X%X%X%X%X%X%X%X%X%X%X%X%X%X%X%X%X%X%X%XOXOX+Xt.D D M k k z j g s y y h V ` S Z ` XX%X%X%X%X%X%X%X%X%X%X%X%X%X%X%X%X%X%X%X%X%X%X%X%X",
"%X%X%X%X%X%X%X%X%X%X%X%X%X%X%X%X%X%X%X%X%X%X%X%XOXOXOXy.B D S C C C C h 3 y h l V y 1 O 9.%X%X%X%X%X%X%X%X%X%X%X%X%X%X%X%X%X%X%X%X%X%X%X%X%X",
"%X%X%X%X%X%X%X%X%X%X%X%X%X%X%X%X%X%X%X%X%X%X%X%X&X&XOXOX` a S M C C C t * 1 2 2 = % @ = (.%X%X%X%X%X%X%X%X%X%X%X%X%X%X%X%X%X%X%X%X%X%X%X%X%X",
"%X%X%X%X%X%X%X%X%X%X%X%X%X%X%X%X%X%X%X%X%X%X%X%XOX&XOX&Xm.* = 2 t t 2 @ o o o o @ % O X.%X%X%X%X%X%X%X%X%X%X%X%X%X%X%X%X%X%X%X%X%X%X%X%X%X%X",
"%X%X%X%X%X%X%X%X%X%X%X%X%X%X%X%X%X%X%X%X%X%X%X%X&XOXOX&X%X[ o + @ @ + + & + @ % % @ = (.%X%X%X%X%X%X%X%X%X%X%X%X%X%X%X%X%X%X%X%X%X%X%X%X%X%X",
"%X%X%X%X%X%X%X%X%X%X%X%X%X%X%X%X%X%X%X%X%X%X%X%X%X%X&XOX%X`.7 + @ @ * r 6 @ % % @ O X.%X%X%X%X%X%X%X%X%X%X%X%X%X%X%X%X%X%X%X%X%X%X%X%X%X%X%X",
"%X%X%X%X%X%X%X%X%X%X%X%X%X%X%X%X%X%X%X%X%X%X%X%X%X&XOX&X%X%XE.d 0 P | @.L = % * % H {.%X%X%X%X%X%X%X%X%X%X%X%X%X%X%X%X%X%X%X%X%X%X%X%X%X%X%X",
"%X%X%X%X%X%X%X%X%X%X%X%X%X%X%X%X%X%X%X%X%X%X%X%X%X%X%X%X%X%X%X8.P / @. ./ ~ W T T m.OX&X%X%X%X%X%X%X%X%X%X%X%X%X%X%X%X%X%X%X%X%X%X%X%X%X%X%X",
"%X%X%X%X%X%X%X%X%X%X%X%X%X%X%X%X%X%X%X%X%X%X%X%X%X%X%X%X%X%X+X5.j d / / d E E d f w.OXOX%X%X%X%X%X%X%X%X%X%X%X%X%X%X%X%X%X%X%X%X%X%X%X%X%X%X",
"%X%X%X%X%X%X%X%X%X%X%X%X%X%X%X%X%X%X%X%X%X%X%X%X%X%X%X%X%X%X!.<.S a j ' P P d 3 g ` }.&X%X%X%X%X%X%X%X%X%X%X%X%X%X%X%X%X%X%X%X%X%X%X%X%X%X%X",
"%X%X%X%X%X%X%X%X%X%X%X%X%X%X%X%X%X%X%X%X%X%X%X%X%X%X%X%X%X&XT.M h s t P K 9 3 t 0 g (.&X%X%X%X%X%X%X%X%X%X%X%X%X%X%X%X%X%X%X%X%X%X%X%X%X%X%X",
"%X%X%X%X%X%X%X%X%X%X%X%X%X%X%X%X%X%X%X%X%X%X%X%X%X%X%X%X%X%X.XT.0.p.b.).{.p.8.8.8.b.oX%X%X%X%X%X%X%X%X%X%X%X%X%X%X%X%X%X%X%X%X%X%X%X%X%X%X%X",
"%X%X%X%X%X%X%X%X%X%X%X%X%X%X%X%X%X%X%X%X%X%X%X%X%X%X%X%X%X%X%X%X%X%X%X%X%X%X%X%XOXOX%X%X%X%X%X%X%X%X%X%X%X%X%X%X%X%X%X%X%X%X%X%X%X%X%X%X%X%X"
};
