/* XPM */
static char *result[] = {
/* columns rows colors chars-per-pixel */
"70 70 237 2 ",
"   c #0F0C0A",
".  c #130D0C",
"X  c #16110E",
"o  c #1A130E",
"O  c #161210",
"+  c #1B1512",
"@  c #1E1916",
"#  c #1E1918",
"$  c #221A16",
"%  c #241D19",
"&  c #2A1D19",
"*  c #301C13",
"=  c #26201B",
"-  c #2A221D",
";  c #362719",
":  c #3D220D",
">  c #2C2521",
",  c #2F2822",
"<  c #282424",
"1  c #312525",
"2  c #322B25",
"3  c #342D2A",
"4  c #3B2D26",
"5  c #3B322B",
"6  c #39312A",
"7  c #3E3937",
"8  c #3D3636",
"9  c #432F19",
"0  c #582C12",
"q  c #5D3413",
"w  c #553619",
"e  c #4E3017",
"r  c #683915",
"t  c #793B17",
"y  c #493826",
"u  c #573E25",
"i  c #423332",
"p  c #463A35",
"a  c #4C3C39",
"s  c #473B3B",
"d  c #513C3D",
"f  c #5A411F",
"g  c #6D4118",
"h  c #764218",
"j  c #5C4128",
"k  c #564635",
"l  c #4A413B",
"z  c #6B4D2B",
"x  c #684825",
"c  c #744A24",
"v  c #7B542D",
"b  c #77542A",
"n  c #654D39",
"m  c #6C5238",
"M  c #745433",
"N  c #7C5B33",
"B  c #78583A",
"V  c #7F6038",
"C  c #543D40",
"Z  c #4A4543",
"A  c #4F4947",
"S  c #5B4345",
"D  c #574745",
"F  c #5B5552",
"G  c #565552",
"H  c #57514D",
"J  c #644C4C",
"K  c #645242",
"L  c #6A5546",
"P  c #7E5A4B",
"I  c #6A4D50",
"U  c #615A54",
"Y  c #665958",
"T  c #7D5C5E",
"R  c #745557",
"E  c #536554",
"W  c #7C6244",
"Q  c #6B625B",
"!  c #786B50",
"~  c #6C6663",
"^  c #726C65",
"/  c #7C756E",
"(  c #77716E",
")  c #7A7675",
"_  c #6B7366",
"`  c #8E4E18",
"'  c #A1581E",
"]  c #9B601C",
"[  c #854926",
"{  c #895639",
"}  c #91552C",
"|  c #866333",
" . c #8D6534",
".. c #89663C",
"X. c #966938",
"o. c #9B713B",
"O. c #87602C",
"+. c #A67A39",
"@. c #AA6F2B",
"#. c #805D44",
"$. c #876849",
"%. c #8E7049",
"&. c #9A7342",
"*. c #96744A",
"=. c #977547",
"-. c #86735B",
";. c #987A58",
":. c #8A6851",
">. c #A27C45",
",. c #A27445",
"<. c #A37E52",
"1. c #865F64",
"2. c #876666",
"3. c #966D65",
"4. c #897969",
"5. c #857B76",
"6. c #987174",
"7. c #947563",
"8. c #A4787C",
"9. c #B07E79",
"0. c #B4873D",
"q. c #9C835D",
"w. c #AD844C",
"e. c #A98549",
"r. c #B28549",
"t. c #B58A4B",
"y. c #A58153",
"u. c #AA8356",
"i. c #B58C5D",
"p. c #B48A50",
"a. c #B99552",
"s. c #97836A",
"d. c #86817F",
"f. c #978777",
"g. c #9F917F",
"h. c #8C8867",
"j. c #B5817C",
"k. c #B8807C",
"l. c #B58F68",
"z. c #CAA258",
"x. c #D19D6F",
"c. c #847F81",
"v. c #AB7E82",
"b. c #B07E85",
"n. c #8B8584",
"m. c #8A8986",
"M. c #928C87",
"N. c #928C8A",
"B. c #968983",
"V. c #98938E",
"C. c #9A9693",
"Z. c #9A9795",
"A. c #B8868A",
"S. c #A79A8C",
"D. c #A39C97",
"F. c #A19E9C",
"G. c #A19793",
"H. c #A38484",
"J. c #A5A29D",
"K. c #AAA49A",
"L. c #B1A596",
"P. c #AAA6A3",
"I. c #AEAAA4",
"U. c #AEACAB",
"Y. c #A5A3A3",
"T. c #B1ADAB",
"R. c #B2ADA6",
"E. c #B3B1AB",
"W. c #B9B3AC",
"Q. c #BCB0A5",
"!. c #B4B3B1",
"~. c #BAB6B2",
"^. c #BBB9B5",
"/. c #BDBCBA",
"(. c #B5AFB0",
"). c #C19B87",
"_. c #C38E95",
"`. c #CB939A",
"'. c #C59398",
"]. c #D4979C",
"[. c #C48A8C",
"{. c #CFA099",
"}. c #E6B08F",
"|. c #D49AA2",
" X c #DB9DA5",
".X c #DE9FA8",
"XX c #C2B8AA",
"oX c #C3BDB4",
"OX c #C2BEBB",
"+X c #D8B8B9",
"@X c #D4ABB0",
"#X c #E3A3AB",
"$X c #E7A5AB",
"%X c #EDAAB4",
"&X c #E8A6B0",
"*X c #F1ADB6",
"=X c #F4AFB9",
"-X c #F7B1BB",
";X c #FAB3BD",
":X c #F4B1B4",
">X c #E7B6BB",
",X c #CBC4B6",
"<X c #C4C1BC",
"1X c #C8C4BB",
"2X c #D8C2BF",
"3X c #FFB6C1",
"4X c #FBBBC4",
"5X c #C4C3C1",
"6X c #CAC6C3",
"7X c #CCC9C5",
"8X c #CDCCCA",
"9X c #D1CCC5",
"0X c #D1CECA",
"qX c #DBC4C3",
"wX c #D4D2CD",
"eX c #DAD5CD",
"rX c #DAD6CC",
"tX c #D6D5D2",
"yX c #D9D6D2",
"uX c #DCDAD5",
"iX c #DEDDDA",
"pX c #F8C8CD",
"aX c #E2DDD5",
"sX c #E1DEDA",
"dX c #E8D4D2",
"fX c #F8D5D6",
"gX c #E4E2DD",
"hX c #E9E4DD",
"jX c #E2E0D6",
"kX c #F1E0DC",
"lX c #E6E5E1",
"zX c #EAE7E2",
"xX c #EBE9E5",
"cX c #ECECE8",
"vX c #F1EDE5",
"bX c #F4EAE5",
"nX c #F7F2EB",
/* pixels */
"3X3X3X3X3X3X3X3X3X3X3X3X3X3X3X3X3X3X3X3X3X3X3X3X3X3X3X3X3X3X3X3X3X3X3X3X3X3X3X3X3X3X3X3X3X3X3X3X3X3X3X3X3X3X3X3X3X3X3X3X3X3X3X3X3X3X3X3X3X3X",
"3X3X3X3X3X3X3X3X3X3X3X3X3X3X3X3X3X3X3X3X3X3X3X3X3X3X3X3X3X3X3X3X3X3X3X3X3X3X3X3X3X3X3X3X3X3X3X3X3X3X3X3X3X3X3X3X3X3X3X3X3X3X3X3X3X3X3X3X3X3X",
"3X3X3X3X3X3X3X3X3X3X3X3X3X3X3X3X3X3X3X3X3X3X3X3X3X3X3X3X3X3X3X3X3X3X3X3X3X3X3X3X3X3X3X3X3X3X3X3X3X3X3X3X3X3X3X3X3X3X3X3X3X3X3X3X3X3X3X3X3X3X",
"3X3X3X3X3X3X3X3X3X3X3X3X3X3X3X3X3X3X3X3X3X3X3X3X3X3X3X3X3X3X3X3X3X3X3X:X-X3X3X3X3X3X3X3X3X3X3X3X3X3X3X3X3X3X3X3X3X3X3X3X3X3X3X3X3X3X3X3X3X3X",
"3X3X3X3X3X3X3X3X3X3X3X3X3X3X3X3X3X3X3X3X3X3X3X3X3X3X3X3X3X3X3X3X3X3X`.J ^ %X3X3X3X3X3X3X3X4X3X3X3X3X3X3X3X3X3X3X3X3X3X3X3X3X3X3X3X3X3X3X3X3X",
"3X3X3X3X3X3X3X3X3X3X3X3X3X3X3X3X3X3X3X3X3X3X3X3X3X3X3X3X3X3X3X3X3X3X2.- U >XfXpXpX4X3X3X-XA.6.#X3X3X3X3X3X3X3X3X3X3X3X3X3X3X3X3X3X3X3X3X3X3X",
"3X3X3X3X3X3X3X3X3X3X3X3X3X3X3X3X3X3X3X3X3X3X3X3X3X3X3X3X3X3X3X3X3X3X@XW.hXnXnXbXhXhXfXpX'., + 8.3X3X3X3X3X3X3X3X3X3X3X3X3X3X3X3X3X3X3X3X3X3X",
"3X3X3X3X3X3X3X3X3X3X3X3X3X3X3X3X3X3X3X3X3X3X3X3X3X3X3X3X3X3X3X3X4XkXbXvX7XD.M.~.hXcXcXzX0X_ Z ].3X3X3X3X3X3X3X3X3X3X3X3X3X3X3X3X3X3X3X3X3X3X",
"3X3X3X3X3X3X3X3X3X3X3X3X3X3X3X3X3X3X3X3X3X3X3X3X3X3X3X3X3X3X;XpXbXbXhXd.3 # + G iXhXrXrXuXeX+X4X3X3X3X3X3X3X3X3X3X3X3X3X3X3X3X3X3X3X3X3X3X3X",
"3X3X3X3X3X3X3X3X3X3X3X3X3X3X3X3X3X3X3X3X3X3X3X3X3X3X3X3X3X3X4XkXvXaX/ % < 3 # F gX<XZ Z ( T.7XqX4X3X3X3X3X3X3X3X3X3X3X3X3X3X3X3X3X3X3X3X3X3X",
"3X3X3X3X3X3X3X3X3X3X3X3X3X3X3X3X3X3X3X3X3X3X3X3X3X3X3X3X3X3XfXhXvXQ.2 < d.!.s M.hXV.2 8 @ 8 J.<X2X4X3X3X3X3X3X3X3X3X3X3X3X3X3X3X3X3X3X3X3X3X",
"3X3X3X3X3X3X3X3X3X3X3X3X3X3X3X3X3X3X3X3X3X3X3X3X3X3X3X3X;X4XdXhXvXL.2 # E J.) uXvXN.E /.H X ^ oX<X>X3X3X3X3X3X3X3X3X3X3X3X3X3X3X3X3X3X3X3X3X",
"3X3X3X3X3X3X3X3X3X3X3X3X3X3X3X3X3X3X3X3X3X3X3X3X3X3X3X3X3X>XrXhXxX,Xk < < ^ rXnXvX0X_ ) 7 # Q ,X<X+X;X;X3X3X3X3X3X3X3X3X3X3X3X3X3X3X3X3X3X3X",
"3X3X3X3X3X3X3X3X3X3X3X3X3X3X3X3X3X3X3X3X3X3X3X3X3X3X3X3X;XH.2XgXzXhXS.n ^ wXnXnXvXjXK.2 < 5 f.9X<X+X4X;X3X3X3X3X3X3X3X3X3X3X3X3X3X3X3X3X3X3X",
"3X3X3X3X3X3X3X3X3X3X3X3X3X3X3X3X3X3X3X3X3X3X3X3X3X3X3X3XA.D ,XjXhXhXjXrXuXoXS.~.W.M.4.^ K 4.oX1XW.+X;X4X3X3X3X3X3X3X3X3X3X3X3X3X3X3X3X3X3X3X",
"3X3X3X3X3X3X3X3X3X3X3X3X3X3X3X3X3X3X3X3X3X3X3X3X3X3X3X'.a 2 D.rXaXjXjXaXuXW.s - & - ~ I.W.<X1XoXI.@X3X;X3X3X3X3X3X3X3X3X3X3X3X3X3X3X3X3X3X3X",
"3X3X3X3X3X3X3X3X3X3X3X3X3X3X3X3X3X3X3X3X3X3X3X3X3X%Xv.p - = K <XrXjXrXrXrXrX<XM./ V.J.E.<X<X~.I.V.|.3X3X3X3X3X3X3X3X3X3X3X3X3X3X3X3X3X3X3X3X",
"3X3X3X3X3X3X3X3X3X3X3X3X3X3X3X3X3X3X3X3X3X3X3X3X).F , - = + o ^ ,X,X9X9XwX0XwX1XoXE.J.E.W.U.J.N.Y |.3X3X3X3X3X3X3X3X3X3X3X3X3X3X3X3X3X3X3X3X",
"3X3X3X3X3X3X3X3X3X3X3X3X3X3X3X3X3X3X3X3X3X;X-X8.y 2 ; = $ + o - ( E.oX<X2X<XZ.n.5./ m.K.J.C.m.G 8 &X3X3X3X3X3X3X3X3X3X3X3X3X3X3X3X3X3X3X3X3X",
"3X3X3X3X3X3X3X3X3X3X3X3X3X3X3X3X3X3X3X3X3X-X6.5 , = = $ $ + o o $ U L.^.^.<XOX/.U.J.V.M.M./ Z O 8 :X3X3X3X3X3X3X3X3X3X3X3X3X3X3X3X3X3X3X3X3X",
"3X3X3X3X3X3X3X3X3X3X3X3X3X3X3X3X3X3X3X3X;X6.6 2 - = = $ $ $ + o o o s n.R.E.P.V.m.) ) _ F , X   i %X3X3X3X3X3X3X3X3X3X3X3X3X3X3X3X3X3X3X3X3X",
"3X3X3X3X3X3X3X3X3X3X3X3X3X3X3X3X3X3X3X3XH.5 - - - = = $ = = $ $ $ $ + $ 7 G Q ~ E A 7 < X .   . % |.3X3X3X3X3X3X3X3X3X3X3X3X3X3X3X3X3X3X3X3X",
"3X3X3X3X3X3X3X3X3X3X3X3X3X3X3X3X3X3X3X`.l 2 1 - = = = = = = = $ % $ $ @ + O + + + + o X .     X . I -X3X3X3X3X3X3X3X3X3X3X3X3X3X3X3X3X3X3X3X",
"3X3X3X3X3X3X3X3X3X3X3X3X3X3X3X3X3X3X%XL 3 3 2 - ; = = = = = = = % $ $ $ + + o O O + O o X X X o . + 8.3X3X3X3X3X3X3X3X3X3X3X3X3X3X3X3X3X3X3X",
"3X3X3X3X3X3X3X3X3X3X3X3X3X3X3X3X3X3X8.6 6 2 - - = = & = # = # = % $ # # + o o o X + + X o X O + + . 3  X3X3X3X3X3X3X3X3X3X3X3X3X3X3X3X3X3X3X",
"3X3X3X3X3X3X3X3X3X3X3X3X3X3X3X3X3X&XD 3 3 - - = = % - ; f k k k k k f 4 - $ o X X + O X X O O + + O O T 3X3X3X3X3X3X3X3X3X3X3X3X3X3X3X3X3X3X",
"3X3X3X3X3X3X3X3X3X3X3X3X3X3X3X3X3X8.6 2 1 & + $ ; k -.S.XX,X,X1X,X,XXXL.V.! k - + O O O o + + + + + O > _.3X3X3X3X3X3X3X3X3X3X3X3X3X3X3X3X3X",
"3X3X3X3X3X3X3X3X3X3X3X3X3X3X3X3X:XJ 2 , - + + y 4.XXrXjXuXuXuXuXrXuXeXwXrX9XXXg.m - + O O + @ @ + + O . R 3X3X3X3X3X3X3X3X3X3X3X3X3X3X3X3X3X",
"3X3X3X3X3X3X3X3X3X3X3X3X3X3X3X3X_.5 , - - o y D.uXaXaXaXjXjXjXjXuXuXyXyXrXwX9X9X,Xh.4 O O + # # $ O O O 1 |.3X3X3X3X3X3X3X3X3X3X3X3X3X3X3X3X",
"3X3X3X3X3X3X3X3X3X3X3X3X3X3X3X3X2.3 - = % 6 I.sXhXjXhXhXhXhXhXgXgXgXsXiXuXrXeX9X7X1Xs.- O + $ % $ # + + O 2.3X3X3X3X3X3X3X3X3X3X3X3X3X3X3X3X",
"3X3X3X3X3X3X3X3X3X3X3X3X3X3X3X Xs 3 - $ , J.gXhXhXhXvXvXxXxXxXhXlXhXgXsXiXuXyXwX9X7X<XR + + % % % $ + O O C *X3X3X3X3X3X3X3X3X3X3X3X3X3X3X3X",
"3X3X3X3X3X3X3X3X3X3X3X3X3X3X3X6.6 - = $ Q sXhXzXzXcXcXhXcXxXxXxXlXlXgXgXsXiXuXyXwX7X<XK.5 + $ % < $ $ O O & `.3X3X3X3X3X3X3X3X3X3X3X3X3X3X3X",
"3X3X3X3X3X3X3X3X3X3X3X3X3X3X&XD 2 - $ 2 W.hXhXbXcXcXcXcXcXcXxXxXlXgXlXsXiXiXiXuXtX8X5X(.^ $ $ % < $ + + O o v.3X3X3X3X3X3X3X3X3X3X3X3X3X3X3X",
"3X3X3X3X3X3X3X3X3X3X3X3X3X;XA.6 - & $ ~ sXhXzXxXcXcXcXcXcXcXxXlXlXlXlXlXgXiXiXiXyX0X6XoXV.4 $ < > < $ + o o I 3X3X3X3X3X3X3X3X3X3X3X3X3X3X3X",
"3X3X3X3X3X3X3X3X3X3X3X3X3X;XR 6 - $ % I.hXhXbXzXcXcXcXxXcXxXxXlXlXlXlXlXlXgXlXiXiXtX6XOXP.Y $ & < & % + . . d -X3X3X3X3X3X3X3X3X3X3X3X3X3X3X",
"3X3X3X3X3X3X3X3X3X3X3X3X3X Xp , - + p 9XhXhXzXzXcXcXxXxXcXcXxXcXxXlXxXlXxXxXlXlXsXyX0X/.P.( < & % & % + . . 1 #X3X3X3X3X3X3X3X3X3X3X3X3X3X3X",
"3X3X3X3X3X3X3X3X3X3X3X3X;XH.6 - $ o U aXhXhXzXzXcXxXxXcXxXxXxXlXcXlXcXlXlXlXcXlXiXiX8XOXU.c.3 < % % # + o . # _.3X3X3X3X3X3X3X3X3X3X3X3X3X3X",
"3X3X3X3X3X3X3X3X3X3X3X3X;X2.; = $ o 5.jXsXgXzXzXxXcXcXlXxXxXxXxXcXcXlXcXcXcXlXlXiXiX8X5XU.m.8 # % % # + O o . 6.3X3X3X3X3X3X3X3X3X3X3X3X3X3X",
"3X3X3X3X3X3X3X3X3X3X3X3X%XD - & $ + V.gXsXhXlXxXxXxXxXlXxXxXxXxXlXcXcXcXcXcXcXlXlXyX8XOXU.N.C # % $ $ # o . O R 3X3X3X3X3X3X3X3X3X3X3X3X3X3X",
"3X3X3X3X3X3X3X3X3X3X3X3X#Xp - $ o $ J.uXsXgXlXlXlXlXxXlXlXxXlXlXcXlXlXcXlXlXlXlXiXyX8X/.U.n.A # % % # # O . . d %X3X3X3X3X3X3X3X3X3X3X3X3X3X",
"3X3X3X3X3X3X3X3X3X3X3X3X|.5 - $ + & P.uXaXsXsXzXlXlXlXlXlXlXlXlXlXlXlXlXlXlXlXlXiXtX8X/.Y.m.A # % % % @ O o . 1 .X3X3X3X3X3X3X3X3X3X3X3X3X3X",
"3X3X3X3X3X3X3X3X3X3X3X3X`.5 % $ + $ J.yXyXaXsXsXgXlXsXlXgXgXlXgXiXiXlXlXlXiXiXiXtX8X5X!.Y.m.A # # % $ @ + . o # _.3X3X3X3X3X3X3X3X3X3X3X3X3X",
"3X3X3X3X3X3X3X3X3X3X3X3X'.5 > % + $ Z.wXwXyXaXsXiXiXsXsXiXsXgXiXiXiXiXiXiXiXiXtXtX8X5X!.Z.c.C $ $ % $ @ + . O . 6.3X3X3X3X3X3X3X3X3X3X3X3X3X",
"3X3X3X3X3X3X3X3X3X3X3X3X|.i = % $ $ M.7X0XtXyXyXuXiXuXiXiXiXiXuXiXtXiXtXiXtXtXtX8X5X!.U.Z.c.s # % # $ @ + + O . 1.3X3X3X3X3X3X3X3X3X3X3X3X3X",
"3X3X3X3X3X3X3X3X3X3X3X3X#Xa & $ $ $ ) 5X6XqXwXtXtXtXtXtXuXtXtXtXtXtXtXtXtX8X8X8X5X!.U.Y.m.) 8 # $ # $ + O O o O J 3X3X3X3X3X3X3X3X3X3X3X3X3X",
"3X3X3X3X3X3X3X3X3X3X3X3X=XJ % @ + O F !.OX6X6X6X8X8XwXwXtXwXwX8XtX8X8X8X8X8X5X5X/.U.Y.Z.c._ 3 # # # # + o O . o C 3X3X3X3X3X3X3X3X3X3X3X3X3X",
"3X3X3X3X3X3X3X3X3X3X3X3X3X2.& @ O . 8 F.(.~.OX5X6X8X8X5X6X8X8X8X8X8X5X5X5X/././.U.Y.Z.c.) F & # # # # # o O . . S 3X3X3X3X3X3X3X3X3X3X3X3X3X",
"3X3X3X3X3X3X3X3X3X3X3X3X3XA.& $ o X + R P.(.(.OX/.OX5X5X5X/.OXOX/./././.!.U.U.Y.Y.Z.c.) ~ M * # $ + # O + O .   I 3X3X3X3X3X3X3X3X3X3X3X3X3X",
"3X3X3X3X3X3X3X3X3X3X3X3X3X%XR = + X . ; 7.D.I.T.(.~.~.~.!.!.(.(.!.U.U.P.Y.Z.C.n.4.<.{ @.' t $ # # # + + O O .   1.3X3X3X3X3X3X3X3X3X3X3X3X3X",
"3X3X3X3X3X3X3X3X3X3X3X3X3X3X=X^ $ X . y o.X.;.f.B.G.G.F.Z.F.Z.Z.C.M.B.f.2.$.o.[ ' @.` ] r : X # + $ + # + O . O b.3X3X3X3X3X3X3X3X3X3X3X3X3X",
"3X3X3X3X3X3X3X3X3X3X3X3X3X3X;X%Xb.R l A.x.0.+.} } } { X.{ X.{ } @.c [ ] t ` ] r t g q w w : + @ $ # # O O . . 1 .X3X3X3X3X3X3X3X3X3X3X3X3X3X",
"3X3X3X3X3X3X3X3X3X3X3X3X3X3X3X3X;X;X-X3Xx.z.a.>. .{ c c q r r r t 0 q q 0 0 q w u j j z z 9 + @ + $ + + + . . T 3X3X3X3X3X3X3X3X3X3X3X3X3X3X",
"3X3X3X3X3X3X3X3X3X3X3X3X3X3X3X3X3X3X3X3X}.z.a.e.>.&.&. .b x j j r r r r r t g B N N N N b 9 + @ + # + X X . 1 |.3X3X3X3X3X3X3X3X3X3X3X3X3X3X",
"3X3X3X3X3X3X3X3X3X3X3X3X3X3X3X3X3X3X3X3X>Xl.a.e.w.r.r.,.X.N z x r h h t c b ..%.*.....| b m d @ O + + X . . J 3X3X3X3X3X3X3X3X3X3X3X3X3X3X3X",
"3X3X3X3X3X3X3X3X3X3X3X3X3X3X3X3X4X3X4X;XpX).! e.r.r.r.>.&. .b x q r g z { %.=.;.y.y.<.%.B 3.A.$ O O X O . . C =X3X3X3X3X3X3X3X3X3X3X3X3X3X3X",
"3X3X3X3X3X3X3X3X3X3X3X3X3X3X3X3X;X4X;X4X;X:Xh.e.t.t.t.r.,.X.v z w e z N $.*.<.u.u.u.y.&.B 9.3X2.O O X . . . > #X3X3X3X3X3X3X3X3X3X3X3X3X3X3X",
"3X3X3X3X3X3X3X3X3X3X3X3X3X3X3X3X3X3X3X3X3X3X].y.&.t.t.a.e.o.O.b w 9 M ..*.<.u.i.i.i.w.&.P ].3X&Xi O . . . . C #X3X3X3X3X3X3X3X3X3X3X3X3X3X3X",
"3X3X3X3X3X3X3X3X3X3X3X3X3X3X3X3X3X3X3X3X3X3X3Xx.&.V e.e.e.0. .z ; ; 9 j n m B $.$.B m y 3.3X3X3Xb.C i < 1 2.#X3X3X3X3X3X3X3X3X3X3X3X3X3X3X3X",
"3X3X3X3X3X3X3X3X3X3X3X3X3X3X3X3X3X3X3X3X3X3X3X:Xl.u z | V z j ; 4 R S . X o o o X X . $ `.3X3X3X3X3X&X X.X3X3X3X3X3X3X3X3X3X3X3X3X3X3X3X3X3X",
"3X3X3X3X3X3X3X3X3X3X3X3X3X3X3X3X3X3X3X3X3X3X3X3X&X:.l k n K L k y A.A.4 - & + X . . . I ;X3X3X3X3X3X3X3X3X3X3X3X3X3X3X3X3X3X3X3X3X3X3X3X3X3X",
"3X3X3X3X3X3X3X3X3X3X3X3X3X3X3X3X3X3X3X3X3X3X3X3X3X*Xf.q.q.*.%.B x A.`.B W -.L n k k L ].3X3X3X3X3X3X3X3X3X3X3X3X3X3X3X3X3X3X3X3X3X3X3X3X3X3X",
"3X3X3X3X3X3X3X3X3X3X3X3X3X3X3X3X3X3X3X3X3X3X3X3X3X3X).y.e.0. .X.c m ,.=.=.=.q.s.-.:.A.;X3X3X3X3X3X3X3X3X3X3X3X3X3X3X3X3X3X3X3X3X3X3X3X3X3X3X",
"3X3X3X3X3X3X3X3X3X3X3X3X3X3X3X3X3X3X3X3X3X3X3X3X3X;Xj.b O.z e g 9 * c { O.0.o.%.;.:..X3X3X3X3X3X3X3X3X3X3X3X3X3X3X3X3X3X3X3X3X3X3X3X3X3X3X3X",
"3X3X3X3X3X3X3X3X3X3X3X3X3X3X3X3X3X3X3X3X3X3X3X3X3X;X;X X[.k.k.9.[.A.#.u u O.b z B 1.&X3X3X3X3X3X3X3X3X3X3X3X3X3X3X3X3X3X3X3X3X3X3X3X3X3X3X3X",
"3X3X3X3X3X3X3X3X3X3X3X3X3X3X3X3X3X3X3X3X3X3X3X3X3X3X3X3X3X3X3X3X3X3X-X$X].].]..X&X;X;X3X3X3X3X3X3X3X3X3X3X3X3X3X3X3X3X3X3X3X3X3X3X3X3X3X3X3X",
"3X3X3X3X3X3X3X3X3X3X3X3X3X3X3X3X3X3X3X3X3X3X3X3X3X3X3X3X3X3X3X3X3X3X3X3X3X;X3X3X;X3X3X3X3X3X3X3X3X3X3X3X3X3X3X3X3X3X3X3X3X3X3X3X3X3X3X3X3X3X",
"3X3X3X3X3X3X3X3X3X3X3X3X3X3X3X3X3X3X3X3X3X3X3X3X3X3X3X3X3X3X3X3X3X3X3X3X3X3X3X3X3X3X3X3X3X3X3X3X3X3X3X3X3X3X3X3X3X3X3X3X3X3X3X3X3X3X3X3X3X3X",
"3X3X3X3X3X3X3X3X3X3X3X3X3X3X3X3X3X3X3X3X3X3X3X3X3X3X3X3X3X3X3X3X3X3X3X3X3X3X3X3X3X3X3X3X3X3X3X3X3X3X3X3X3X3X3X3X3X3X3X3X3X3X3X3X3X3X3X3X3X3X",
"3X3X3X3X3X3X3X3X3X3X3X3X3X3X3X3X3X3X3X3X3X3X3X3X3X3X3X3X3X3X3X3X3X3X3X3X3X3X3X3X3X3X3X3X3X3X3X3X3X3X3X3X3X3X3X3X3X3X3X3X3X3X3X3X3X3X3X3X3X3X",
"3X3X3X3X3X3X3X3X3X3X3X3X3X3X3X3X3X3X3X3X3X3X3X3X3X3X3X3X3X3X3X3X3X3X3X3X3X3X3X3X3X3X3X3X3X3X3X3X3X3X3X3X3X3X3X3X3X3X3X3X3X3X3X3X3X3X3X3X3X3X"
};
