/* XPM */
static char *result[] = {
/* columns rows colors chars-per-pixel */
"70 70 247 2 ",
"   c #181515",
".  c #130E0D",
"X  c #292424",
"o  c #342C2A",
"O  c #393739",
"+  c #37312F",
"@  c #211919",
"#  c #4A362B",
"$  c #463B37",
"%  c #563F31",
"&  c #4C413D",
"*  c #57453B",
"=  c #644838",
"-  c #69472E",
";  c #3A3D42",
":  c #3D4245",
">  c #454A4B",
",  c #4A4C4C",
"<  c #454647",
"1  c #5C4C43",
"2  c #544D4A",
"3  c #584A46",
"4  c #5C534E",
"5  c #55524E",
"6  c #4A4F51",
"7  c #474F51",
"8  c #4B5257",
"9  c #525454",
"0  c #555A5A",
"q  c #5C5C5C",
"w  c #5B5755",
"e  c #505051",
"r  c #644E46",
"t  c #69564A",
"y  c #73594A",
"u  c #625A55",
"i  c #6C5A53",
"p  c #665A59",
"a  c #735B53",
"s  c #7B5F57",
"d  c #6D625C",
"f  c #686159",
"g  c #77655A",
"h  c #77634F",
"j  c #5A5E62",
"k  c #555D64",
"l  c #4D5864",
"z  c #5D6263",
"x  c #5B6368",
"c  c #636565",
"v  c #666B6C",
"b  c #6C6C6C",
"n  c #686766",
"m  c #7B6C64",
"M  c #736D6A",
"N  c #7B6C6A",
"B  c #756865",
"V  c #75716C",
"C  c #7B736C",
"Z  c #797163",
"A  c #656D75",
"S  c #6D7273",
"D  c #6C767A",
"F  c #747473",
"G  c #7A7572",
"H  c #7B7975",
"J  c #747A7B",
"K  c #7B7D7D",
"L  c #747679",
"P  c #706F70",
"I  c #5E605C",
"U  c #93633A",
"Y  c #855A2F",
"T  c #8A5E53",
"R  c #866148",
"E  c #836B5E",
"W  c #886758",
"Q  c #88725C",
"!  c #95765B",
"~  c #976C4F",
"^  c #AB7752",
"/  c #856B65",
"(  c #8B7265",
")  c #8B736B",
"_  c #867568",
"`  c #977968",
"'  c #837B75",
"]  c #837E7B",
"[  c #8B7A76",
"{  c #927D75",
"}  c #967D79",
"|  c #946F69",
" . c #A97D6A",
".. c #A67D76",
"X. c #B47F79",
"o. c #7D827A",
"O. c #9A846D",
"+. c #83807D",
"@. c #8C847C",
"#. c #8B8177",
"$. c #948473",
"%. c #93847B",
"&. c #9A877A",
"*. c #A48A7C",
"=. c #A9887A",
"-. c #B9947B",
";. c #AF8972",
":. c #B4916A",
">. c #CD8E79",
",. c #D0935E",
"<. c #4C6D92",
"1. c #6A7686",
"2. c #767E85",
"3. c #677491",
"4. c #837E81",
"5. c #7C8387",
"6. c #788998",
"7. c #718891",
"8. c #778CA9",
"9. c #769BC2",
"0. c #848584",
"q. c #8B8583",
"w. c #8D8A85",
"e. c #83898C",
"r. c #8B8C8C",
"t. c #858887",
"y. c #948B82",
"u. c #9B8C85",
"i. c #938E88",
"p. c #988787",
"a. c #94928C",
"s. c #9B948B",
"d. c #9C9489",
"f. c #858C95",
"g. c #998696",
"h. c #8B949B",
"j. c #899598",
"k. c #939493",
"l. c #9D9A94",
"z. c #93979A",
"x. c #93999B",
"c. c #9C9C9C",
"v. c #9A9592",
"b. c #8F908F",
"n. c #A78C85",
"m. c #BB8B8C",
"M. c #B68888",
"N. c #AB9484",
"B. c #A3958B",
"V. c #A49A8E",
"C. c #AB9C8D",
"Z. c #A79486",
"A. c #B79989",
"S. c #BC8C92",
"D. c #A39C94",
"F. c #AB9C94",
"G. c #A89898",
"H. c #B39C93",
"J. c #B89998",
"K. c #A98E97",
"L. c #B7A38B",
"P. c #ACA295",
"I. c #A5A29B",
"U. c #ABA49B",
"Y. c #AAA59B",
"T. c #B3A395",
"R. c #B3A49B",
"E. c #B3AA9D",
"W. c #BBAB9C",
"Q. c #BBA698",
"!. c #BDB09C",
"~. c #AFA18F",
"^. c #8C97A5",
"/. c #979EA5",
"(. c #8D9BB7",
"). c #9C9AB5",
"_. c #A49DA3",
"`. c #B69BA6",
"'. c #AA9EB6",
"]. c #9BA4A7",
"[. c #98A5B5",
"{. c #8AA4B1",
"}. c #A5A4A2",
"|. c #AAA5A2",
" X c #A5AAAD",
".X c #ABACAB",
"XX c #A8A7A7",
"oX c #B3ABA3",
"OX c #BBABA3",
"+X c #B9A7A4",
"@X c #B4B2AC",
"#X c #BBB4AC",
"$X c #B9B1A5",
"%X c #A4ABB6",
"&X c #ABB2B7",
"*X c #B4B5B3",
"=X c #BAB9B6",
"-X c #BAA4B6",
";X c #C48B8E",
":X c #C79988",
">X c #C89799",
",X c #D79C9B",
"<X c #D2988B",
"1X c #C6A789",
"2X c #C8A698",
"3X c #D4A699",
"4X c #D2B19D",
"5X c #C79BA3",
"6X c #D29DA3",
"7X c #C8A9A8",
"8X c #DBA3A4",
"9X c #DEAAAC",
"0X c #D8A4AB",
"qX c #C7B4A8",
"wX c #D4B5A9",
"eX c #DAAAB4",
"rX c #C3BCB3",
"tX c #CAB9B4",
"yX c #D7BCB1",
"uX c #C4ABB3",
"iX c #E3ABAD",
"pX c #E7AAAA",
"aX c #EBACB3",
"sX c #E8ACB5",
"dX c #F2AFB9",
"fX c #F1AFB7",
"gX c #E8B2B7",
"hX c #F5B1BB",
"jX c #FAB3BE",
"kX c #F1B1B7",
"lX c #E2B8AB",
"zX c #EBA49C",
"xX c #C7C2BA",
"cX c #DAC7B7",
"vX c #E2C4BA",
"bX c #B6BDC2",
"nX c #ADB3C3",
"mX c #8AA1C3",
"MX c #D1B7C4",
"NX c #FFB6C1",
"BX c #EABAC2",
"VX c #BBC3CB",
"CX c #B9C1C9",
"ZX c #C4C6C6",
"AX c #D7CBC5",
"SX c #CDD0D3",
"DX c #EFC2C1",
/* pixels */
"NXNXNXNXNXNXNXNXNXNXNXNXNXNXNXNXNXNXNXNXNXNXNXNXNXNXNXNXNXNXNXNXNXNXNXNXNXNXNXNXNXNXNXNXNXNXNXNXNXNXNXNXNXNXNXNXNXNXNXNXNXNXNXNXNXNXNXNXNXNX",
"NXNXNXNXNXNXNXNXNXNXNXNXNXNXNXNXNXNXNXNXNXNXNXNXNXNXNXNXNXNXNXNXNXNXNXNXNXNXNXNXNXNXNXNXNXNXNXNXNXNXNXNXNXNXNXNXNXNXNXNXNXNXNXNXNXNXNXNXNXNX",
"NXNXNXNXNXNXNXNXNXNXNXNXNXNXNXNXNXNXNXNXNXNXNXNXNXNXNXNXNXNXNXNXNXNXNXNXNXNXNXNXNXNXNXNXNXNXNXNXNXNXNXNXNXNXNXNXNXNXNXNXNXNXNXNXNXNXNXNXNXNX",
"NXNXNXNXNXNXNXNXNXNXNXNXNXNXNXNXNXNXNXNXNXNXNXNXNXNXNXNXNXNXNXNXNXNXNXNXNXNXNXNXNXNXNXNXNXNXNXNXNXNXNXNXNXNXNXNXNXNXNXNXNXNXNXNXNXNXNXNXNXNX",
"NXNXNXNXNXNXNXNXNXNXNXNXNXNXNXNXNXNXNXNXNXNXNXNXNXNXNXNXNXNXNXNXNXNXNXNXNXNXNXNXNXNXNXNXNXNXNXNXNXNXNXNXNXNXNXNXNXNXNXNXNXNXNXNXNXNXNXNXNXNX",
"NXNXNXNXNXNXNXNXNXNXNXNXNXNXNXNXNXNXNXNXNXNXNXNXNXNXNXNXNXNXNXNXNXNXNXNXNXNXjXjXNXNXNXNXNXNXNXNXNXNXNXNXNXNXNXNXNXNXNXNXNXNXNXNXNXNXNXNXNXNX",
"NXNXNXNXNXNXNXNXNXNXNXNXNXNXNXNXNXNXNXNXNXNXNXNXNXNXNXNXNXNXNXNXNXNXNXNXNXNXsXsXNXNXNXNXNXNXNXNXNXNXNXNXNXNXNXNXNXNXNXNXNXNXNXNXNXNXNXNXNXNX",
"NXNXNXNXNXNXNXNXNXNXNXNXNXNXNXNXNXNXNXNXNXNXNXNXNXNXNXNXNXNXNXNXNXNXNXNXNXNXpXpXNXNXNXNXNXNXNXNXNXNXNXNXNXNXNXNXNXNXNXNXNXNXNXNXNXNXNXNXNXNX",
"NXNXNXNXNXNXNXNXNXNXNXNXNXNXNXNXNXNXNXNXNXNXNXNXNXNXNXNXNXNXNXNXNXNXNXNXNXNXgXiXNXNXNXNXNXNXNXNXNXNXNXNXNXNXNXNXNXNXNXNXNXNXNXNXNXNXNXNXNXNX",
"NXNXNXNXNXNXNXNXNXNXNXNXNXNXNXNXNXNXNXNXNXNXNXNXNXNXNXNXNXNXNXNXNXNXNXNXNXNXgX7XNXNXNXNXNXNXNXNXNXNXNXNXNXNXNXNXNXNXNXNXNXNXNXNXNXNXNXNXNXNX",
"NXNXNXNXNXNXNXNXNXNXNXNXNXNXNXNXNXNXNXNXNXNXNXNXNXNXNXNXNXNXNXNXNXNXNXNXNXNXeX_.NXNXNXNXNXNXNXNXNXNXNXNXNXNXNXNXNXNXNXNXNXNXNXNXNXNXNXNXNXNX",
"NXNXNXNXNXNXNXNXNXNXNXNXNXNXNXNXNXNXNXNXNXNXNXNXNXNXNXNXNXNXNXNXNXNXNXNXNXNXuX/.6XNXNXNXNXNXNXNXNXNXNXNXNXNXNXNXNXNXNXNXNXNXNXNXNXNXNXNXNXNX",
"NXNXNXNXNXNXNXNXNXNXNXNXNXNXNXNXNXNXNXNXNXNXNXNXNXNXNXNXNXNXNXNXNXNXNXNXNXNXtXI.[ jXNXNXNXNXNXNXNXNXNXNXNXNXNXNXNXNXNXNXNXNXNXNXNXNXNXNXNXNX",
"NXNXNXNXNXNXNXNXNXNXNXNXNXNXNXNXNXNXNXNXNXNXNXNXNXNXNXNXNXNXNXNXNXNXNXNXNXjXE.w.z.sXNXNXNXNXNXNXNXNXNXNXNXNXNXNXNXNXNXNXNXNXNXNXNXNXNXNXNXNX",
"NXNXNXNXNXNXNXNXNXNXNXNXNXNXNXNXNXNXNXNXNXNXNXNXNXNXNXNXNXNXNXNXNXNXNXNXNXNX*X^.j.7XNXNXNXNXNXNXNXNXNXNXNXNXNXNXNXNXNXNXNXNXNXNXNXNXNXNXNXNX",
"NXNXNXNXNXNXNXNXNXNXNXNXNXNXNXNXNXNXNXNXNXNXNXNXNXNXNXNXNXNXNXNXNXNXNXNXNXeX].j.^.`.NXNXNXNXNXNXNXNXNXNXNXNXNXNXNXNXNXNXNXNXNXNXNXNXNXNXNXNX",
"NXNXNXNXNXNXNXNXNXNXNXNXNXNXNXNXNXNXNXNXNXNXNXNXNXNXNXNXNXNXNXNXjXjXkXfXNXuXE.+XuXK.NXNXNXNXNXNXNXNXNXNXNXNXNXNXNXNXNXNXNXNXNXNXNXNXNXNXNXNX",
"NXNXNXNXNXNXNXNXNXNXNXNXNXNXNXNXNXNXNXNXNXNXNXNXNXNXNXNXNXNXNXNXjXjXfXwXdXwXqXqXR.J.NXNXNXNXNXNXNXNXNXNXNXNXNXNXNXNXNXNXNXNXNXNXNXNXNXNXNXNX",
"NXNXNXNXNXNXNXNXNXNXNXNXNXNXNXNXNXNXNXNXNXNXNXNXNXNXNXNXNXNXNXNXjXNXkX9XsXqXR.W.F.u.6XhXNXNXNXNXNXNXNXNXNXNXNXNXNXNXNXNXNXNXNXNXNXNXNXNXNXNX",
"NXNXNXNXNXNXNXNXNXNXNXNXNXNXNXNXNXNXNXNXNXNXNXNXNXNXNXNXNXNXNXNXNXNXpX>X7XqXZ.d.B.' S.>XsXNXNXNXNXNXNXNXNXNXNXNXNXNXNXNXNXNXNXNXNXNXNXNXNXNX",
"NXNXNXNXNXNXNXNXNXNXNXNXNXNXNXNXNXNXNXNXNXNXNXNXNXNXNXNXNXNXNXNXNXNXlX3X6XW.qXOXB./ 5X3X0XNXNXNXNXNXNXNXNXNXNXNXNXNXNXNXNXNXNXNXNXNXNXNXNXNX",
"NXNXNXNXNXNXNXNXNXNXNXNXNXNXNXNXNXNXNXNXNXNXNXNXNXNXNXNXNXNXNXNXNXNXfXpXdXyXcXtXB.K.NXiXNXNXNXNXNXNXNXNXNXNXNXNXNXNXNXNXNXNXNXNXNXNXNXNXNXNX",
"NXNXNXNXNXNXNXNXNXNXNXNXNXNXNXNXNXNXNXNXNXNXNXNXNXNXNXNXNXNXNXNXNXNX9XF.NXDXAXcXU.6XNXuX0XNXNXNXNXNXNXNXNXNXNXNXNXNXNXNXNXNXNXNXNXNXNXNXNXNX",
"NXNXNXNXNXNXNXNXNXNXNXNXNXNXNXNXNXNXNXNXNXNXNXNXNXNXNXNXNXNXNXNXNXNX|.J sXDXcXcXoX7XNX'.'.NXNXNXNXNXNXNXNXNXNXNXNXNXNXNXNXNXNXNXNXNXNXNXNXNX",
"NXNXNXNXNXNXNXNXNXNXNXNXNXNXNXNXNXNXNXNXNXNXNXNXNXNXNXNXNXNXNXNXNXdXs.V >XDXAXvXE.7XNX).4.NXNXNXNXNXNXNXNXNXNXNXNXNXNXNXNXNXNXNXNXNXNXNXNXNX",
"NXNXNXNXNXNXNXNXNXNXNXNXNXNXNXNXNXNXNXNXNXNXNXNXNXNXNXNXNXNXNXdXNX0Xn.%.5XBXcXcXF.S.NX(.3.BXNXNXNXNXNXNXNXNXNXNXNXNXNXNXNXNXNXNXNXNXNXNXNXNX",
"NXNXNXNXNXNXNXNXNXNXNXNXNXNXNXNXNXNXNXNXNXNXNXNXNXNXNXNXNXNXNXiXeX7XoXi.0XlXwXqXB.K.BX(.3.eXNXNXNXNXNXNXNXNXNXNXNXNXNXNXNXNXNXNXNXNXNXNXNXNX",
"NXNXNXNXNXNXNXNXNXNXNXNXNXNXNXNXNXNXNXNXNXNXNXNXNXNXNXhX0XjXjXJ.D.D.@Xk.K.wXqXqXK.[ 5XmX<.5XNXNXNXNXNXNXNXNXNXNXNXNXNXNXNXNXNXNXNXNXNXNXNXNX",
"NXNXNXNXNXNXNXNXNXNXNXNXNXNXNXNXNXNXNXNXNXNXNXNXNXNXNXhX9XNXsX).^.{.x.7.L vXvXlX+Xn.5X[.6.K.jXNXNXNXNXNXNXNXNXjXNXNXNXNXNXNXNXNXNXNXNXNXNXNX",
"NXNXNXNXNXNXNXNXNXNXNXNXNXNXNXNXNXNXNXNXNXhXjXNXNXNXNXkXiXNX7XmX[.mX/.H b yXtXF.|.p.+XtXG.[ sXNXNXNXNXNXNXNXfXjXNXNXNXNXNXNXNXNXNXNXNXNXNXNX",
"NXNXNXNXNXNXNXNXNXNXNXNXNXNXNXNXNXNXNXNXjXpXjXjXNXNXNXeX`.dX_.}.c.%X^.q.s.rX#X*X@X5.0.H.n.L 5XNXNXNXNXNXNXNXiXkXNXNXNXNXNXNXNXNXNXNXNXNXNXNX",
"NXNXNXNXNXNXNXNXNXNXNXNXNXNXNXNXNXNXNXNXhX:XhXjXNXNXNX-Xg.`. XY.XXW.8._.xXrX}.Y.c.5.2.] n.2.g.hXNXNXNXNXNXNXaXaXNXNXNXNXNXNXNXNXNXNXNXNXNXNX",
"NXNXNXNXNXNXNXNXNXNXNXNXNXNXNXNXNXNXNXNXdX).NXNXNXNXNX'.1.j.E.#XVXW.H a.I.a.o.K F z c x ) N.4.dXNXNXNXNXNXNX9X>XNXNXNXNXNXNXNXNXNXNXNXNXNXNX",
"NXNXNXNXNXNXNXNXNXNXNXNXNXNXNXNXNXNXNXNXMX3.sXNXNXNXNXXX7.@.!.-.1X-.V o.V C.V.P.a.0 > 1.1.[ n.aXNXNXNXNXNXjX7XD.0XNXNXNXNXNXNXNXNXNXNXNXNXNX",
"NXNXNXNXNXNXNXNXNXNXNXNXNXNXNXNXNXNXNXNX'.<.0XNXNXNXjXG.v i.d.V.d.+.S v u L.C.~.v.x : 8 6.b } eXNXsX0XNXNXjX2XV.7XNXNXNXNXNXNXNXNXNXNXNXNXNX",
"NXNXNXNXNXNXNXNXNXNXNXNXNXNXNXNXNXNXNXNX(.<.5XNXNXdXhXE.H S j. X X6.F o.#.Z.~.P.v.j 7 O k j s dX0XK.g.>XhXjX#X XG.jXjXNXNXNXNXNXNXNXNXNXNXNX",
"NXNXNXNXNXNXNXNXNXNXNXNXNXNXNXNXNXdXaXMX8.<.4.hXgX9XwX7X@.+.].xX=X/.t.Y.d.V.P.oX$Xb 8 < k b 5XNX5X2.c p NXMX].{.6.J.lXkXNXNXNXNXNXNXNXNXNXNX",
"NXNXNXNXNXNXNXNXNXNXNXNXNXNXNXNXNX0XsX-X9.<.3.5XeXrXV.l.o.k..X#X.X2.b.rXxXP.l.Y.XXF 0 F g.z.7XsXS.w e B 9X6XE.D.Z.%.A.pXNXNXNXNXNXNXNXNXNXNX",
"NXNXNXNXNXNXNXNXjXjXiXNXNXNXNXNXNX5X5X'.[.6.1.g.W.oXB _ &..X=X_ Y.2.5.T.tXF.E.T.R.' 0 +.D.D.J.0XbX4., L 5XA.wXH.+XN.oX-XdXNXNXNXNXNXNXNXNXNX",
"NXNXNXNXNXNXNXNXNXhX2XdXjXNXdX6X5X4.' J.A.{ g p.OX2XE :.*.#X=Xh oX=Xo.Z $.{ q.T.:Xy.z w.c.l.J.tXMXB.P v.J.2X7XF.H.L.CXnXsXNXNXNXNXNXNXNXNXNX",
"NXNXNXNXNXNXNXNXNXyXG.fXeX0X0X+XR.[ { wX4X*./ n.2XwXq.y.i.@X@XE.#X=X5.o.2.5.0 { :Xp.P G G %.@XXX X^.A A k.oX].k.v.l.VXVX&XNXNXNXNXNXNXNXNXNX",
"NXNXNXNXNXNXNXNXNXMX[.6XtX#X@X@Xz.A v ' &.%.s p J.qX X Xx.I.a.D.I.oXe.].8.[.k d Q./ , 4 5 L %X&XVX%X3.D ]. Xf.x.c.@XSXVX%XeXNXNXNXNXNXNXNXNX",
"NXNXNXNXNXNXNXNXBXCX].|.AX@Xz.bX^.6.6.2.2.4.d B 2X@X&Xk.k..X+.4 ' xXr.K A {.A 6 G.B ; 8 0 5.bXZXVXSX[.6. X}.J e./. XZXVXnX-XsXNXNXNXNXNXNXNX",
"NXNXNXNXNXNXNXjXAXCX[.ZXZXXX5.ZX^.^._.h.^.h./.+XI.XX&Xq H XX& # * @X0.q 8 3.j.A s.n 1.h.6.[.ZXrX*XZX Xj.@X}.c v K  XnXVXCXnX_.sXNXNXNXNXNXNX",
"NXNXNXNXNXNXaX#XZXCX&XY.P.c.l.=Xx.x.v.b.h.%XrXuXb.&X&Xc q.}.i y h *Xw.V l 7.[.f.s.q S q.h.%X=Xu.XXoXb.6.*X=XA v e.f.h.&X X].j.0XNXNXNXNXNXNX",
"NXNXNXNXNXNX6Xq..Xc.c.d.#X}.k.v.q.k.F.r.f.%XrXXX/.CXCXi.i.*X$XtXrXxXw.w.k 7.nX&Xz.p 0 p f.&XbX%..Xb 0 5.].ZXx F /.z v y.0.K e.G.NXNXNXNXNXNX",
"NXNXNXNXNXNXM.M i.o.o.$XP.oXH w K 2.F.r.f.].rXr.].&X*XD.I..XZXSXSXAXw.H D z.XXY.H q j p /.*X=XB.Y.c , A 5.].D o./.A I l.l.v.c.`.NXNXNXNXNXNX",
"NXNXNXNXNXNXm.y.I.t.i.rXE..XG , ' G ' +.2.c.Z.4 l.}.Y.I.E.@XxXSXAXxXi.+.r.y.s.oXC 2 j q 2.H D.E.oXv e A z 5.A 0 J 7.z i.I.i.k.p.dXNXNXNXNXNX",
"NXNXNXNXNXNXQ.P.l.i.I.Y.@X@Xb 5 F b G V b d.C.y.U.U.oXD.OX=XrXtXxXxX+.C.F.n.G.G.s.4 6 0 c I y.~.Y.H q S v 5.J 8 o.7.0 o.Y.k.t.H dXNXNXNXNXNX",
"NXNXNXNXNXjXuXoXl.i.Y.Y.$XE.f I Z Z g h g 2X7X:Xn.{ { u.Y.k.' @.%.U.' 2X3XJ.A.[ N 4 , 9 9 5 c d.d.b , x 7 D 5.j J 0.c w.I.a.t.K sXNXNXNXNXNX",
"NXNXNXNXNXjXqXOXI.@.~.A.Q.l.I I u w f u f L.C.=.[ / B N D.w.a ) | 7Xw.T.T.n.} ' B 4 6 w , , 9 D.E.s.a.S 7 5.5.I J 5.: H D.a.a.] dXNXNXNXNXNX",
"NXNXNXNXjXjXuXwX1X*.D.A.qXE.Y.y.f Z #.f f T.L.C.{ ' C w i.s.u.G _ $Xd.W.7X:Xn.} M 4 I z 9 , 6 Y.U.D.a.0 : J j.f t.j.: H V.s.D.k.dXNXNXNXNXNX",
"NXNXNXNXNXaX} 3X<XO.V.xXxXE.E.g * f B w 4 &.3XA.} N ' ] H.R.tX+XOX+XT.qX3X<X;.) p 4 ; ; 6 > 0 C B.C.+.7 8 S j.c 5.x.7 b V.s.l.c.sXNXNXNXNXNX",
"NXNXNXNXeX`./ ;.;.Q _ &.E.E.E.f u f n @.g n.2Xn.{ m { K.R.F.+XF.R.B.H.:X1X:X=.| d c k k v S z.F d.F.w.q j S j.z F j.z b D.D.l.c.eXNXNXNXNXNX",
"NXNXNXNX0XG.O.h  .Z.P.$.Q O.Z.B f w +.E.&.2X:Xm.| a / =...( { ) ( W ..>.<X3XM.T r z A F J J z.b +.P.s.c z J j.k z j.q c +.l.D.+.J.sXjXNXNXNX",
"NXNXNXjX5XH.7X2X:Xn.$X#XP.O.Z y t u ' &._ H.2XOX| y / m.7XQ.F.B.7X3X:X>.>.3XJ.| r , < e 0 , F 9 9 C i.z 7 c x.o.S r.F Z _ $.$.( ) } >XeXNXNX",
"NXNXfXF.v r.wX7XA.C.Y.$Xd.o.&.1 * * Z ` f >.2X+X) a } E.C < & O 4 %.7X>.<X4XH.` r < ; 0 j , S 6 ; 2 i.c O 6 h.S z t./ R m d f a a T B ..NXNX",
"NXNX5X4.V @.wX4X-.n.E.rXY.@.i.o.F g f m @.C.H.n./ p B.d     X X X o G 2X<X:X-.| 3 , q j v v K 8 9 w.G.v j x /.x n @.m R { D.|.D.( = r X.NXNX",
"NXNXm.y i O.A.1X:XC.!.xXY.a.t.+.x.l.b.}.x.P &.p./ p y.$   X o + + @ r 3X3X:XM.| u 9 x w c B q.g g d.F.G V V v./ ( O.` W *.N.=.A.O.O.&.>XNXNX",
"NXNX>X^ :.;.-.-.=.-.>.-.$.C r.H 5.b.I.D.H q o.V / p C + + = * = g i y ;.M.:X..W t 0 n i _ [ E Q &.C.P.V.[ ' @.} B.C.C.&.d.d.Z.!.Q.F.C.,XNXNX",
"NXNX;X:.^ ^ ^ :.` ` ` ! y y p 0 F S F C B M d B q.p M + + = o X a y.Q U ~ O.~ ~ a 0 ] ( =.=.Q ! O.O.O.` E N N m _ %.$.! Q E Q Q h h R ;.NXNX",
"NXNX>.U ^ ^ ^ U - & 2 2 , < < 0 v > 9 g d f w b f.2 p & & * @   = d.( Y ~ ! U U a d i.#.B.&.r = r 3 2 1 1 $ $ $ * 3 1 t & & * * 5 5 & &.NXNX",
"NXNX .# * # - - t < : < , ; : 7 z G #.%.$.&.%.i.o.N ' @._ _ m Z &.s.' O.&.` Q Q _ Q V.%._ E t t g w t 1 * 3 3 & t r # * & * y Z o.Z t =.NXNX",
"NXjXM.y o .   o n , > : 8 7 > : c C.!.!.1X1X1X=Xe.$.L.$XQ.Q.!.Q.C.@Xx.d.T.R.R.A.C.~.V.&.*.;. .! *.$.t & $ $ w 3 T W * - * h O.o.O.! y X.NXNX",
"NXNX>X$.o .   w y.w w < 9 0 , ; p %.W.C.N.-.-.=Xe.g ~.W.L.L.T.~.*.=Xz.V B.P.T.N.$.%.&.&.=. .Q ! ~ ! E i y t g r R R R R y W O.! ,.^ R X.NXNX",
"NXNXpX,X;X;XS.,X6X>X>X>X>X5X;XS.S.6XiX9X8X8X9XgX0X2X9XsXiX9XlXiX9XgXeX>X0X9X9X9X,X0XpX3X6X,X,X,X,X>XS.M.M.m.;XM.;X;X;X;XM.;X,XzXzXzX>XpXNXNX",
"NXNXNXNXNXNXNXNXNXNXNXNXNXNXNXNXNXNXNXNXNXNXNXNXNXNXNXNXNXNXNXNXNXNXNXNXjXNXNXNXNXNXNXNXNXNXNXNXjXNXNXNXNXNXNXNXNXNXNXNXjXNXNXNXNXNXNXNXNXNX",
"NXNXNXNXNXNXNXNXNXNXNXNXNXNXNXNXNXNXNXNXNXNXNXNXNXNXNXNXNXNXNXNXNXNXNXNXjXNXNXNXNXNXNXNXNXNXNXNXjXNXNXNXNXNXNXNXNXNXNXNXNXNXNXNXNXNXNXNXNXNX",
"NXNXNXNXNXNXNXNXNXNXNXNXNXNXNXNXNXNXNXNXNXNXNXNXNXNXNXNXNXNXNXNXNXNXNXNXNXNXNXNXNXNXNXNXNXNXNXNXNXNXNXNXNXNXNXNXNXNXNXNXNXNXNXNXNXNXNXNXNXNX",
"NXNXNXNXNXNXNXNXNXNXNXNXNXNXNXNXNXNXNXNXNXNXNXNXNXNXNXNXNXNXNXNXNXNXNXNXNXNXNXNXNXNXNXNXNXNXNXNXNXNXNXNXNXNXNXNXNXNXNXNXNXNXNXNXNXNXNXNXNXNX"
};
