/* XPM */
static char *result[] = {
/* columns rows colors chars-per-pixel */
"70 70 248 2 ",
"   c #060307",
".  c #110E18",
"X  c #171B3D",
"o  c #191B3C",
"O  c #12122B",
"+  c #281A28",
"@  c #2A1B37",
"#  c #32193A",
"$  c #3A2838",
"%  c #332931",
"&  c #24181C",
"*  c #563038",
"=  c #613B3F",
"-  c #161E42",
";  c #191D42",
":  c #0F1F47",
">  c #152046",
",  c #14234C",
"<  c #1A2349",
"1  c #0E2B5A",
"2  c #132651",
"3  c #142955",
"4  c #122C5B",
"5  c #1B2A55",
"6  c #1B315E",
"7  c #0C274F",
"8  c #232C55",
"9  c #24335D",
"0  c #33284B",
"q  c #112F60",
"w  c #192D60",
"e  c #0E3264",
"r  c #0E356B",
"t  c #0E386E",
"y  c #123263",
"u  c #183669",
"i  c #0C3A74",
"p  c #0B3D7A",
"a  c #0D3770",
"s  c #1C3E74",
"d  c #143C74",
"f  c #0E2F61",
"g  c #273967",
"h  c #2D3E6D",
"j  c #341D43",
"k  c #4D344E",
"l  c #5D2A58",
"z  c #0B407E",
"x  c #1B427B",
"c  c #2B406C",
"v  c #27467A",
"b  c #34497A",
"n  c #374A70",
"m  c #5A4A57",
"M  c #714B4D",
"N  c #544B72",
"B  c #6D526D",
"V  c #736573",
"C  c #A7111D",
"Z  c #B4111E",
"A  c #B40E1D",
"S  c #B91528",
"D  c #B50F23",
"F  c #9F1D2B",
"G  c #C70C1C",
"H  c #D6111F",
"J  c #CC101F",
"K  c #C81526",
"L  c #D51524",
"P  c #D71738",
"I  c #CB0E26",
"U  c #E11929",
"Y  c #D22734",
"T  c #E32832",
"R  c #844A3B",
"E  c #B32E4D",
"W  c #942D53",
"Q  c #D01C49",
"!  c #D7285A",
"~  c #D13050",
"^  c #E42956",
"/  c #DB2563",
"(  c #D72967",
")  c #C93C66",
"_  c #DB376A",
"`  c #D5336F",
"'  c #E3396A",
"]  c #E32B66",
"[  c #E21B40",
"{  c #925254",
"}  c #B16B56",
"|  c #B75171",
" . c #91676F",
".. c #AD7570",
"X. c #995D5C",
"o. c #D84B59",
"O. c #D84F56",
"+. c #E44B58",
"@. c #C8765C",
"#. c #D84668",
"$. c #D85764",
"%. c #D74C78",
"&. c #CB4D6F",
"*. c #E35A69",
"=. c #E34873",
"-. c #E34870",
";. c #DC636A",
":. c #D76778",
">. c #DD727B",
",. c #C97171",
"<. c #E56B72",
"1. c #BD8775",
"2. c #D99577",
"3. c #D08970",
"4. c #E3967F",
"5. c #0A4383",
"6. c #0A488B",
"7. c #184987",
"8. c #094E94",
"9. c #0C519A",
"0. c #195497",
"q. c #1A4F91",
"w. c #244B86",
"e. c #2A538B",
"r. c #365689",
"t. c #285898",
"y. c #375B96",
"u. c #2E4D86",
"i. c #3E639B",
"p. c #185AA2",
"a. c #255EA4",
"s. c #335CA2",
"d. c #2A63A7",
"f. c #3464A5",
"g. c #3967A9",
"h. c #3871B1",
"j. c #445887",
"k. c #435E96",
"l. c #55578D",
"z. c #71598C",
"x. c #556996",
"c. c #506896",
"v. c #767397",
"b. c #6D6D92",
"n. c #456AA8",
"m. c #5776A8",
"M. c #5077B3",
"N. c #6F78A5",
"B. c #B85D90",
"V. c #91718E",
"C. c #B66C8D",
"Z. c #9070A2",
"A. c #B17CA9",
"S. c #C85586",
"D. c #D75586",
"F. c #CA538A",
"G. c #E35B85",
"H. c #D86887",
"J. c #DB788A",
"K. c #DA689B",
"L. c #C87598",
"P. c #DB729B",
"I. c #C96C90",
"U. c #E4669A",
"Y. c #E57698",
"T. c #E57488",
"R. c #DC6BA1",
"E. c #C57DA8",
"W. c #D979A5",
"Q. c #E46CA1",
"!. c #E479A6",
"~. c #7E859B",
"^. c #7A85AF",
"/. c #5782BA",
"(. c #568FC6",
"). c #6F8DC3",
"_. c #978A92",
"`. c #B68F90",
"'. c #8A86A8",
"]. c #9787A7",
"[. c #968CB2",
"{. c #918FAD",
"}. c #A88AAA",
"|. c #A895B6",
" X c #B89AB7",
".X c #B18DAC",
"XX c #B3ADB5",
"oX c #BFA69D",
"OX c #D99987",
"+X c #D28D91",
"@X c #E49688",
"#X c #E58B98",
"$X c #E78D8E",
"%X c #DCA898",
"&X c #D2A28F",
"*X c #E6A487",
"=X c #E7AA98",
"-X c #EDB494",
";X c #ECB699",
":X c #F3BE9E",
">X c #C889AA",
",X c #D887AA",
"<X c #D696A9",
"1X c #DC8CB3",
"2X c #D989B5",
"3X c #C79BB7",
"4X c #DA96B9",
"5X c #CB8EAF",
"6X c #E996A6",
"7X c #E495B7",
"8X c #EC8FAD",
"9X c #D9A5A4",
"0X c #D7B5AA",
"qX c #C9A2B9",
"wX c #D3A6BC",
"eX c #D7A8BA",
"rX c #D8B6B5",
"tX c #C7ABA5",
"yX c #ECA5A5",
"uX c #F2A2AB",
"iX c #E8B8A8",
"pX c #F3BFA1",
"aX c #E8ABBD",
"sX c #F7ABB8",
"dX c #E4B9B9",
"fX c #F9B5BD",
"gX c #EDC2AD",
"hX c #F4C1A2",
"jX c #F3C5AB",
"kX c #EAC5B9",
"lX c #F5CAB5",
"zX c #F5CDBD",
"xX c #F5C8B8",
"cX c #F9D1BE",
"vX c #A8ACC5",
"bX c #DC9DC3",
"nX c #D4ADC2",
"mX c #F3B2C1",
"MX c #FFB6C1",
"NX c #E9B0C1",
"BX c #F4CDC2",
"VX c #FAD4C4",
"CX c #FAD4CA",
"ZX c #FAD6C6",
"AX c #F2CDD1",
"SX c #FAF9FA",
"DX c #EDE9EE",
"FX c #D4CCD7",
/* pixels */
"MXMXMXMXMXMXMXMXMXMXMXMXMXMXMXMXMXMXMXMXMXMXMXMXMXMXMXMXMXMXMXMXmXnXqXaXMXfX3X'.x.i.b c.{.eXfXfXfXMXMXMXMXMXMXMXMXMXMXMXMXMXMXMXMXMXMXMXMXMX",
"MXMXMXMXMXMXMXMXMXMXMXMXMXMXMXMXMXMXMXMXMXMXMXMXMXMXMXMXMXmX XN.k.v x r.m.x.h 3 > > > , 3 c x.}.dXMXMXMXMXMXMXMXMXMXMXMXMXMXMXMXMXMXMXMXMXMX",
"MXMXMXMXMXMXMXMXMXMXMXMXMXMXMXMXMXMXMXMXMXMXMXMXMXMXMXnX'.j.u 2 - X X , 6.2 X o X X X X X X - , n v.qXMXfXMXMXMXMXMXMXMXMXMXMXMXMXMXMXMXMXMX",
"MXMXMXMXMXMXMXMXMXMXMXMXMXMXMXMXMXMXMXMXMXMXMXMXMXeXN.v 2 - o o o o X 4 0.w.4 : > > > : X X X X X - 6 b. XmXMXMXMXMXMXMXMXMXMXMXMXMXMXMXMXMX",
"MXMXMXMXMXMXMXMXMXMXMXMXMXMXMXMXMXMXMXMXMXMXMXNX'.v 2 - o o - - - - o 1 6.s.e.u 6 6 1 1 7 3 3 > ; X - - 6 l. XfXMXMXMXMXMXMXMXMXMXMXMXMXMXMX",
"MXMXMXMXMXMXMXMXMXMXMXMXMXMXMXMXMXMXMXMXMXMX|.j.3 - X - , 3 1 1 q 4 f p a 5 u s v v b n c 5 > 7 3 2 - X X o 6 b.wXMXMXMXMXMXMXMXMXMXMXMXMXMX",
"MXMXMXMXMXMXMXMXMXMXMXMXMXMXMXMXMXMXMXMXaXN.u , o , 3 y 1 2 > X - o - e 6.- ; X - , 4 c r.i.r.c < , 3 3 > o o > c ].mXMXMXMXMXMXMXMXMXMXMXMX",
"MXMXMXMXMXMXMXMXMXMXMXMXMXMXMXMXMXMXMX Xr.1 X > e r 3 - < 5 g g g 5 5 q 8.i - o X X X X X > c r.y.c < - 4 2 X o o 5 v.NXMXMXMXMXMXMXMXMXMXMX",
"MXMXMXMXMXMXMXMXMXMXMXMXMXMXMXMXfXMX|.v , X 3 r 3 < 6 v x x u 6 4 t s 6.z z x 5 X o o X X X X - 4 e.i.6 X 3 4 - o o 2 b.aXMXMXMXMXMXMXMXMXMX",
"MXMXMXMXMXMXMXMXMXMXMXMXMXMXMXMXfX[.s X > e 4 < g v u 3 - X X X o o , 5.8.7 e 6.v 8 X X X X X X X X x f.b > > 4 > o X , N.fXMXMXMXMXMXMXMXMX",
"MXMXMXMXMXMXMXMXMXMXMXMXMXMXMXMX[.x - , y 2 9 7.u > X o X X X X - , t 4 8.z > 1 v y.b < o X X X X X X 3 e.r.< X 4 , X X 4 ].MXMXMXMXMXMXMXMX",
"MXMXMXMXMXMXMXMXMXMXMXMXMXMXMX|.7.- , t 3 s x 2 X X X X X X X X 3 r - u '.x.z 7 - 5 u x u 5 - - X X X X , w.i.6 - 1 , o o u  XMXMXMXMXMXMXMX",
"MXMXMXMXMXMXMXMXMXMXMXMXMXMXwXt., - t 6 x d - X X X - X X X 2 y 3 - , b.;X0X_.r.y > X - 7 4 4 4 , > o o o - v i.9 - f > o > j.aXMXMXMXMXMXMX",
"MXMXMXMXMXMXMXMXMXMXMXMXMXMX'.i X 4 y x u - X X X X X - 3 e 4 > - 3 x.0XjXlXcXrX{.x.v x 4 , , 7 4 f 4 2 X o > v m.g 7 1 X o , '.MXMXMXMXMXMX",
"MXMXMXMXMXMXMXMXMXMXMXMXMXMX^.r ; r d i X X X X X , 1 e 4 < > 9 b ~.0XBXZXZXZXZXVXcX0X_.m.e.x 6 3 3 f e z 1 2 > e./.g f , o o b nXMXMXMXMXMX",
"MXMXMXMXMXMXMXMXMXMXMXMXMXMX^.e 2 p 5.- o X - 4 r f 3 5 9 n x.{.rXtXtXoXkXZXZXcXcXZXVXcXhXtX{.x.v 9 > > , 1 e z z d.M.c e X X 3 }.MXMXMXMXMX",
"MXMXMXMXMXMXMXMXMXMXMXMXMXMX'.r 8 m = + . O : 7 : 3 s u.b._.9XBXCXCXZXkX0XBXVXcXcXVXVXVXVXcXlXiX_.x.b 8 X X - > 4 6.d.f.7.> X , N.fXMXMXMXMX",
"MXMXMXMXMXMXMXMXMXMXMXMXMXMX|.c } 4.2.} +         . . . . & & m  XAXCXZXVXVXVXVXVXVXVXVXVXVXcXxXlX0X'.i.c > X X o 7 6.p.d.y X , N.MXMXMXMXMX",
"MXMXMXMXMXMXMXMXMXMXMXMXMXMX Xm 3.-X4.2.1. .%                   + .XAXCXVXVXVXVXVXVXVXVXVXVXVXVXcXlXhX_.i.b ; X o X 4 9.0.x X 3 '.MXMXMXMXMX",
"MXMXMXMXMXMXMXMXMXMXMXMXMXMXnXN 2.-X2.4.-XjX2.& + m B # % 0 + .   + qXAXVXVXVXVXVXVXVXVXVXVXVXVXVXVXcXlX}.i.b o o X - z 8.z X 6 |.MXMXMXMXMX",
"MXMXMXMXMXMXMXMXMXMXMXMXMXMXnXb } -X2.-X-X:X2.& # m B B k k k # $ . m BXCXVXVXVXVXVXVXVXVXVXVXcXVXVXZXcXgXv.d.c X X X i z t X c nXMXMXMXMXMX",
"MXMXMXMXMXMXMXMXMXMXMXMXMXMXNXe.$ 1.2.-X:X:X&X& # # # k j {.nXV.z.N . `.CXVXVXVXVXVXVXVXVXVXVXVXVXVXZXZXcX0Xm.i.9 X - r z z X c.MXMXMXMXMXMX",
"MXMXMXMXMXMXMXMXMXMXMXMXMXMXaXe.z 9 m 2.:X:X1.* # # # # # _.SXSXFX[.@ m ZXVXVXVXVXBXcXVXVXVXVXVXVXVXVXCXZXVXXXh.k.; X r r i 2 '.MXMXMXMXMXMX",
"MXMXMXMXMXMXMXMXMXMXMXMXMXMXwX7.z e n 3.:X:X4.} * j # # 0 j [.DXSXDXV % kXVXVXVXVXVXVXVXVXVXVXVXVXZXZXCXAXwXV.e.(.n X z e z 6  XMXMXMXMXMXMX",
"MXMXMXMXMXMXMXMXMXMXMXMXMXMXwXq.z f v } -X:X:X-X3.M k z.FX{.z.[.DXSX{.% 0XZXZXZXVXVXVXVXVXVXVXCXCXAXrX_.m + % b (.c.X z 1 z v 0XMXMXMXMXMXMX",
"MXMXMXMXMXMXMXMXMXMXMXMXMXMXwXq.z f z m 3.:X:X:X-X4.,...AXDX|.Z.Z.Z.rXV tXZXZXZXVXVXVXVXVXVXCXAXqXV * m V V DX~.h./.o z 7 z q.wXMXMXMXMXMXMX",
"MXMXMXMXMXMXMXMXMXMXMXMXMXMX3X7.e z : v n } :XhX:X:XlXgX&X=X`.V.].FXSX_.tXZXZXZXVXVXVXCXVXVXrXV $ + ~.DXDXXXXX9 h.c.X y r y 9.qXMXMXMXMXMXMX",
"MXMXMXMXMXMXMXMXMXMXMXMXMXmXm.5.z z , t.f % M 2.pX:XjXVXVXxXiX%X;XdXBX_.0XZXZXZXVXVXVXCXkX_.$ + N m N {.vXXX0 7 a.i.X - r r 6.^.MXMXMXMXMXMX",
"MXMXMXMXMXMXaX[.N.x.m.N.v.l.5.d 7 > v x > - X * ..*X:XlXcXcXZXZXVXcXxXiXlXVXZXVXVXZXVXtXB # # l XX[.z.V.&XR + 7 0.k.< X - 4 p a.3XMXMXMXMXMX",
"MXMXMXMXMXwXj.3 , 4 t 3 3 2 3 3 6 x x > X X X X o m ..-XcXZXcXVXVXZXCXCXVXVXVXcXVXZXzX1.B B V V.`.+X..2.2.3.* X 6.f.h X X o - 1 b '.nXMXMXMX",
"MXMXMXMXMX^.2 o o r , 5 7.d s d z z e 7 X X X X o X + m 3.lXZXZXBXfXMXmXBXxX;X2.zXZXZXZXfXiXiXiXgXjXcXcXkX`.k : q 9.0.x 3 2 , , > , c N.qXMX",
"MXMXMXMXMX[.4 o o 3 4 , t 7.0.5.z z v 0.> X X - X o - X % B OXkXVXuX8X8X8X7X<XgXZXZXZXZXZXZXVXzXgX%X`.V.v.k.6.i 7.q.d r t t t d x x 9 , w. X",
"MXMXMXMXMXmXb.5 X - 4 1 , > 3 4 4 y y.7.; o - ; o o X @ N Z.C.+X&XiXfXsXaXuXkXkXgXiX%X&X`.1.V.v.V n e.g.n.a.p 9.g.8 e p p p r 7.0.q.h > x  X",
"MXMXMXfXMXfXfX}.c - X - 3 1 3 4 4 x x < @ k M V. .X.....+X XA..X`.<X+XOX+X`...X.M M * $ 0 > 2 t 7.0.0.7.6.z - d y.g q r e p i d c 9 5 N |.fX",
"MXMXfXqX'.v.b.z.j.d y 4 > - > > < > o * } -X:XiXtXiXxXcXzXzXdXwX.X XA. X.X3X0XiX0X0X%X&X}. .0 2 , 2 z z i 6.y < w v s u 4 4 4 3 g l.}.NXfXMX",
"MXMX|.u > o 2 7.r.f.g.f.f.y.u.c < X M OX:XjXlXcXdXwXkXVXZXZXVXCXAXdXNXrXeXBXVXVXVXCXCXwXwXlX%XM o X e i 1 6.z i p i p p 6.5.a 8.g.^.qXMXMXMX",
"MXMX|.f o X 3 q.f.t.7.w.y.M.).M.u = 2.hXhXcXZXVXZXeXqXBXBXBXBXVXCXCXCXCXZXZXZXZXZXCXdX5XkXZXZX&X$ X X 3 z z r t i i u r z 5.- q d.M.f.qXMXMX",
"MXMXNXv.5 X o - 3 q q q r s r.v m 2.pXjXcXZXZXZXVXyXS.B.) D.G.Y.Y.#XyXiXiXfXiX#XH.F.` B.iXZXZXlX= 7 r z 1 X 3 z 0.d.q.i a 3 X d M./.f.qXMXMX",
"MXMXMXmX}.N 5 ; o o o - X X X * 3.:XhXlXxXVXVX;X| ( ( ( ( ' ' ( ( D.$X$X@XOXI.( ( / ( ( H.cXVXcXX.6 6.9.y : > 2 6 6 4 , > f w.(.(.h.[.MXMXMX",
"MXMXMXmXeX|.k.r e q 3 , 3 7 $ 3.hX:XjXlXiXiX2.k * ( ` ( _ ` _ ] / :.=X4.@X@X+X_ ( ( ( _ %.yXVXVX&XM u 9.d.t.7.x x x v 7.0.h.(.(.M. XMXMXMXMX",
"MXeX^.i.7.u 3 4 0.g.f.0.6.4 % 3.pXpX:XiXdXeXJ.X.W ` %.` ` G.G.U.U.7XaX#X%X<X7XH.` ` ( ( ' Y.lXzXBX<XX.h q.0.d.d.f.d.d.d.h.M.[.|.aXMXMXMXMXMX",
"aXn.p > o X - q.n.f.9.6.5.6 7 k 3.:X=X>X.X>XR.!.R.| D.R.!.NX!.2X7XW.,X5X4X4X7X7XbXQ.!.U.D.Y.yX<X5X5XQ.K.B.l.9.p.d.a.p.9.y.N.nXMXMXMXMXMXMXMX",
"mXn.6 o X X X y q.8.5.e 2 3 a z c X.L.E.5X>X>X>X5XL.R.2XW.R.R.R.R.R.,X,X7X4X,X1XbXW.bX2XbX1XR.R.P.3X,X,X4XV.s 9.f.g.g.a.r , 7. XMXMXMXMXMXMX",
"MXwXx.6 > X X X > , , > o X , p : k P.Y.W..XC.<XxXiX&.U.Q.U.U.Q.!.Q.R.!.7X1X1X1X2XbX2XbXbXB.B.R.E.C.%XfXCXpX .w.s.s.s.w.2 o 4 '.MXMXMXMXMXMX",
"MXMXfX Xv.N g 4 4 2 2 3 1 d 7.9.s w N V.A.A.| ;XjXiX%.Q.Q.Q.U.Q.Q.R.R.R.1X1X2X1XbXbX4XbXbXV.v m.l.N 3.-XiXVXOXN w.s 6 > ; 5 k.aXMXMXMXMXMXMX",
"MXMXMXMXMX Xc.z p.h.n.f.p.a.0.t.h.n.a.0.7.y.z.OX=X@XH.Y.Q.Q.U.Y.!.W.K.Q.R.2X2X1X1X2X4XbXbXB.x a.n.n. .}  .OX@.# - o , 6 j.Z.aXfXMXMXMXMXMXMX",
"MXMXMXMXfXm.y 2 M.{.).M.g.t.e.t.h.M.f.q.u.Z.C.$.$.$.*.;.#XY.U.!.,XY.P.P.W.1X,X1X7X#X4XP.,XH.{ q.p.p.t.j.i.N M g p j.]. XmXMXMXMXMXMXMXMXMXMX",
"MXMXMXMXMX Xj.3 u k./.M.M.n.n.f.s.7.0 W &.;.>.$.$.,.~ #.$.o.$.$.;.<.O.>.$.<.>.;.H.$.$.$.~ $.&.B d a a f 3 4 s t.g. XMXMXMXMXMXMXMXMXMXMXMXMX",
"MXMXMXMXMXMXaX}.b.j.u.x x x x u 0 W P ^ K.>.$.o.<.J.;.:.o.>.:.o.>.$.+.:.o.$.J.o.$.>.*.:.$.<.;.C.h u d s 7.t.g.'.qXMXMXMXMXMXMXMXMXMXMXMXMXMX",
"MXMXMXMXMXMXMXMXMXMX|.q.a.n.N F K T [ ( B.Q D P ~ H.*.O.+.#.O.#X<.;.<.<.<.T.$X>.<.+.<XH.*.<.~ L.W h d 6.d.g.f.wXMXMXMXMXMXMXMXMXMXMXMXMXMXMX",
"MXMXMXMXMXMXMXMXMXMX[.e j E L L L T T U A C I P ) &.P P P I | :.P S Y ' ~ B.~ ' ^ [ | ) ' ^ P ~ I D l k.n.g.m.eXMXMXMXMXMXMXMXMXMXMXMXMXMXMX",
"MXMXMXMXMXMXMXMXMXMXNXN.g * W ~ T T T L A G G A S K K I D D ~ ^ P D ! ] [ Q P ] ^ [ K K ^ P L A D A A W Z.qXmXMXMXMXMXMXMXMXMXMXMXMXMXMXMXMX",
"MXMXMXMXMXMXMXMXMXMXMXMXqX].v.V.C.| Y L J K L J G I H H C C H H C C K P K I I P P I A C L H H J D A D S Y uXMXMXMXMXMXMXMXMXMXMXMXMXMXMXMXMX",
"MXMXMXMXMXMXMXMXMXMXMXMXfXfXMXMXfXwX>X@.O.Y Y K H U U L Z K H G C C G K L H L G L H I A L H Y T K D S Y o.$XMXMXMXMXMXMXMXMXMXMXMXMXMXMXMXMX",
"MXMXMXMXMXMXMXMXMXMXMXMXMXMXMXMXfXfXsX@X-X=X@X>.*.*.*.T ~ +.+.Y S Y L K L Y T U K Y Y S T ~ o.=.T.T.6XuXsXfXMXMXMXMXMXMXMXMXMXMXMXMXMXMXMXMX",
"MXMXMXMXMXMXMXMXMXMXMXMXMXMXMXMXfXyX@X-XhXlXVXVXVXVX-X$XfXfX@X3.-X*X-X@X4.@X@X>.>.J.J.T.Y.uXMXMXfXMXfXfXfXfXMXMXMXMXMXMXMXMXMXMXMXMXMXMXMXMX",
"MXMXMXMXMXMXMXMXMXMXMXMXMXMXMXMX@X@X;XhXlXVXVXVXZXCX@XuXfXsX@.-XhXhXpXpXlXZXZXOXL.1XE.E.NXMXMXMXMXMXMXMXMXMXMXMXMXMXMXMXMXMXMXMXMXMXMXMXMXMX",
"MXMXMXMXMXMXMXMXMXMXMXMXMXMXMX$X2.:X:XjXVXVXVXVXZXiX2.fXfXsX@.-XpXpXpXhXVXZXZX=X,.H.I.5XmXMXMXMXMXMXMXMXMXMXMXMXMXMXMXMXMXMXMXMXMXMXMXMXMXMX",
"MXMXMXMXMXMXMXMXMXMXMX7X4X4X<X,.-X:XpXzXVXVXVXVXxX3.uXMXfXfX,.2.pXpX:XhXzXVXBXiXC.A.E.K.sXMXMXMXMXMXMXMXMXMXMXMXMXMXMXMXMXMXMXMXMXMXMXMXMXMX",
"MXMXMXMXMXMXMXMXMXfXuX,XwX4X.X,.:X:XhXzXZXVXVXzXOXuXMXMXfX>XA.+X9X<X<X9X<X4X3X,XW.5XW.U.sXMXMXMXMXMXMXMXMXMXMXMXMXMXMXMXMXMXMXMXMXMXMXMXMXMX",
"MXMXMXMXMXMXMXMXMXuXY.D.W.8X<X5X5X9XiXzXVXCXVXOXuXMXMXMXMX,XB.%.D.I.F.F.F.D.W.I.%.I.sXMXMXMXMXMXMXMXMXMXMXMXMXMXMXMXMXMXMXMXMXMXMXMXMXMXMXMX",
"MXMXMXMXMXMXMXMXMXsX,XW.P.Y.D.2XbX,X>X4X4XBX+XI.uXMXMXMXMXsX) ! / ( ( ( ` %.-.` ) #XMXMXMXMXMXMXMXMXMXMXMXMXMXMXMXMXMXMXMXMXMXMXMXMXMXMXMXMX",
"MXMXMXMXMXMXMXMXMXMX2XbX2XK.F.F.D.` F.F.%.B.C.bXsXMXMXMXMXMXI.Q / / / ' =.=.' _ H.mXMXMXMXMXMXMXMXMXMXMXMXMXMXMXMXMXMXMXMXMXMXMXMXMXMXMXMXMX",
"MXMXMXMXMXMXMXMXMXMX7X>X| ` ( / / / / _ ! :.sXMXMXMXMXMXMXMX8X! / / / ' =.=.=.&.uXMXMXMXMXMXMXMXMXMXMXMXMXMXMXMXMXMXMXMXMXMXMXMXMXMXMXMXMXMX",
"MXMXMXMXMXMXMXMXMXMXMXuXE / / ] -.=.=.=.) uXMXMXMXMXMXMXMXMX#XE / ( ( / ` =.#.J.fXMXMXMXMXMXMXMXMXMXMXMXMXMXMXMXMXMXMXMXMXMXMXMXMXMXMXMXMXMX",
"MXMXMXMXMXMXMXMXMXMXMXMX&./ _ =.=.=.=.#.:.fXMXMXMXMXMXMXMXMXY.E ! ( / ( ' =.) yXMXMXMXMXMXMXMXMXMXMXMXMXMXMXMXMXMXMXMXMXMXMXMXMXMXMXMXMXMXMX",
"MXMXMXMXMXMXMXMXMXMXMXMX:.! / _ =.-.=.#.J.MXMXMXMXMXMXMXMXMXsX&.E ~ ! / ] #.) H.sXfXMXMXMXMXMXMXMXMXMXMXMXMXMXMXMXMXMXMXMXMXMXMXMXMXMXMXMXMX",
"MXMXMXMXMXMXMXMXMXMXMXMXJ.E ( ' =.-.#.#.:.fXMXMXMXMXMXMXMXMXmX#X&.#XJ.) ` _ #.&.:.sXMXMXMXMXMXMXMXMXMXMXMXMXMXMXMXMXMXMXMXMXMXMXMXMXMXMXMXMX",
"MXMXMXMXMXMXMXMXMXMXMXfX:.! / ! _ :.) | uXfXMXMXMXMXMXMXMXMXMXsXsXfXMXsX6X8XuXuXsXMXMXMXMXMXMXMXMXMXMXMXMXMXMXMXMXMXMXMXMXMXMXMXMXMXMXMXMXMX",
"MXMXMXMXMXMXMXMXMXmXMXJ.) _ _ %.T.sXJ.6XMXMXMXMXMXMXMXMXMXMXMXMXMXMXMXMXMXMXMXMXMXMXMXMXMXMXMXMXMXMXMXMXMXMXMXMXMXMXMXMXMXMXMXMXMXMXMXMXMXMX"
};
