/* XPM */
static char *result[] = {
/* columns rows colors chars-per-pixel */
"70 70 204 2 ",
"   c #773E4C",
".  c #78404E",
"X  c #7D4554",
"o  c #7F4B59",
"O  c #7E4956",
"+  c #814451",
"@  c #8B4759",
"#  c #854C59",
"$  c #8C4C5B",
"%  c #894555",
"&  c #934D5D",
"*  c #85525D",
"=  c #8B515F",
"-  c #93505F",
";  c #944F60",
":  c #8B5461",
">  c #8D5A64",
",  c #8A5867",
"<  c #935363",
"1  c #9A5465",
"2  c #945867",
"3  c #9B5867",
"4  c #9B5768",
"5  c #945B6A",
"6  c #9C5B6C",
"7  c #965368",
"8  c #A64F64",
"9  c #A55366",
"0  c #A75569",
"q  c #AA566B",
"w  c #A35C6D",
"e  c #AC596D",
"r  c #B05C6E",
"t  c #A35E71",
"y  c #AE5D71",
"u  c #B15D72",
"i  c #8C6369",
"p  c #94616E",
"a  c #9A616E",
"s  c #966371",
"d  c #9D6372",
"f  c #996875",
"g  c #9D6B7A",
"h  c #946A77",
"j  c #9E717C",
"k  c #A2616F",
"l  c #A46373",
"z  c #AA6475",
"x  c #A46976",
"c  c #AA6A77",
"v  c #A46779",
"b  c #AB667A",
"n  c #A46C7B",
"m  c #AB6C7D",
"M  c #B56276",
"N  c #B66579",
"B  c #BA667B",
"V  c #B36B7D",
"C  c #BD697E",
"Z  c #BB6277",
"A  c #A4717E",
"S  c #AB717E",
"D  c #B2717F",
"F  c #C0697F",
"G  c #9D7581",
"H  c #A76F81",
"J  c #AC6E81",
"K  c #B36E81",
"L  c #BD6C81",
"P  c #A57382",
"I  c #AC7383",
"U  c #AB7A85",
"Y  c #AE7688",
"T  c #AC7B8B",
"R  c #A47987",
"E  c #B37384",
"W  c #BB7385",
"Q  c #B27986",
"!  c #B47688",
"~  c #BC758A",
"^  c #B57B8B",
"/  c #BC7B8C",
"(  c #B67F91",
")  c #BB7D91",
"_  c #C16D82",
"`  c #C37186",
"'  c #C3758A",
"]  c #CB758B",
"[  c #C37A8D",
"{  c #CC798E",
"}  c #C97287",
"|  c #D0768E",
" . c #D1798F",
".. c #C47D91",
"X. c #CB7E92",
"o. c #D27D93",
"O. c #AD808B",
"+. c #B4818F",
"@. c #BA828E",
"#. c #AD8293",
"$. c #B48393",
"%. c #BC8393",
"&. c #BC8699",
"*. c #B58899",
"=. c #BD8B9A",
"-. c #BA8994",
";. c #BE8EA1",
":. c #BF92A2",
">. c #C48394",
",. c #CB8295",
"<. c #C38997",
"1. c #C48699",
"2. c #CC869A",
"3. c #C48B9C",
"4. c #CC8A9D",
"5. c #D48296",
"6. c #D4859A",
"7. c #D9859B",
"8. c #D48A9E",
"9. c #DA899E",
"0. c #D88397",
"q. c #C3929E",
"w. c #CE909F",
"e. c #D1909F",
"r. c #C48DA0",
"t. c #CC8DA1",
"y. c #D58DA1",
"u. c #DB8DA2",
"i. c #DE86A0",
"p. c #C593A4",
"a. c #CC93A4",
"s. c #CD96AA",
"d. c #C59BAB",
"f. c #CD9AAB",
"g. c #C698A9",
"h. c #D492A5",
"j. c #DA92A6",
"k. c #D496A9",
"l. c #DA96A9",
"z. c #D49AAC",
"x. c #DA9AAC",
"c. c #D598A7",
"v. c #D59DB1",
"b. c #DC9EB2",
"n. c #E091A5",
"m. c #E195AA",
"M. c #E29AAE",
"N. c #E29DB2",
"B. c #E097B0",
"V. c #CFA0AF",
"C. c #D3A0AE",
"Z. c #DDA0AF",
"A. c #CCA2B2",
"S. c #C9A4B5",
"D. c #D4A3B3",
"F. c #DCA3B4",
"G. c #D5A9B5",
"H. c #DAAAB7",
"J. c #D5A6B9",
"K. c #DCA5B9",
"L. c #D6AABB",
"P. c #DDACBB",
"I. c #DFB1BE",
"U. c #E2A2B5",
"Y. c #E4A5B9",
"T. c #EBA7BB",
"R. c #E2ABBC",
"E. c #E9AABC",
"W. c #E8A3B7",
"Q. c #E0B1BE",
"!. c #D5AEC0",
"~. c #DDAEC1",
"^. c #DDB3C4",
"/. c #DCB7C9",
"(. c #DDB9C7",
"). c #E3ADC1",
"_. c #EBAFC1",
"`. c #E2B3C2",
"'. c #E9B3C5",
"]. c #E4B9C6",
"[. c #E4B5C9",
"{. c #EAB5CA",
"}. c #E4BCCB",
"|. c #EABCCD",
" X c #EABFD1",
".X c #E5BED0",
"XX c #F0BFD3",
"oX c #E0C1CF",
"OX c #E6C2D3",
"+X c #EBC3D4",
"@X c #E6CBD7",
"#X c #EDCBDB",
"$X c #EDC8D9",
"%X c #F2CADC",
"&X c #F0CFE3",
"*X c #EDD3E1",
"=X c #EFD6E8",
"-X c #F4DBEA",
";X c #F3D6E5",
":X c #F9E0EF",
">X c #F6E4F0",
",X c #FCEEFA",
"<X c #F7EBF5",
"1X c #FAF0FA",
/* pixels */
"..~ ..' _ _ o.t.7 v.h.y.o.o.o.y.6.6.2.o.5.6.8.u.u.u.u.8.7 6.i.i.y.i.u.u.u.y.j.l.g L.`.I.Q.Q.P.R.H.R.R.H.R.H.R.R.I.H.Q.p./ N.R.F.r...~ ..o.B.",
"' ' K L W X.~.{.H ! l.o.y.t.o.y.y.6.6.6.2.i.7.u.u.u.l.l ! i.| o.o.o.i.o.o.i.i.N.~ ^ ].I.Q.I.P.R.Q.Q.Q.Q.R.H.R.H.Q.H.P.Q x.F.>.M L ..j.l.B.j.",
"..>.t.[ u u K J.~.7 r.o.i.y.y.y.7.i.6.8.8.y.6.y.u.u...7 m.o.o.7.t.6.o.i.o.7.i.t.U.x A.`.Q.I.P.I.Q.Q.P.Q.I.I.I.I.H.Q.-.3.l.W ..k.l.v.1...) ..",
"B X.i.2.t.o.} ` y.J 6 j.o.o.y.o.6.t.y.i.i.i.y.u.9.u.6 ~ i.o.o.o.o.i.o.o.7.7.6.i.M.t.I `.Q.Q.Q.I.P.Q.H.Q.I.I.I.I.Q.C.+.x.t.l.v.l.b.t.k.t.X...",
"W W ) 4.) ..o.] ] B.5 ) y.o.y.y.8.y.8.7.9.8.u.u.u.W w j.| o.o.7.o.7.7.o.7.7.7.u.9.U.~ p.].Q.I.Q.Q.Q.Q.Q.Q.Q.Q.I.`.$.z.).B.x.,.z.......k.s.x.",
"W K N K X.) / i.o.y.) 7 k.o.y.o.6.6.8.u.u.h.j.u.8.< 4.o.o.o.i.o.7.o.7.7.o.i.8.i.9.n.x.I I.^.`.Q.Q.Q.Q.Q.Q.Q.I.Q.f.) b.k.).k.r.t.) ) ..k.t.>.",
"2.t.2.L ..t.N ..X...Y.J Y u.o.o.6.8.u.j.j.j.9.j.b l n.| o.o.o.7.o.i.8.7.7.7.7.i.n.9.N.,.=.oXQ.`.Q.Q.oXQ.Q.Q.].I.+.x.b.x.K.1.t.t.F.b.y.k.k.h.",
"~ [ u.X...2.t.L X.| v.[.6 t.o.o.5.6.8.8.u.8.8.,.- y.o.o.o.7.o.i.7.7.7.7.7.9.7.9.9.9.j.Z.Q H.^.P.H.H.H.G.G.G.G.q.r.Y.x.l.R.2.k.l.^.F.z.N.4.3.",
"r...[ ..2.1.~ y.o...v.&Xs.7 J J m I +.@.^ @.%.A ~ i.o.o.o.o.0.7.o.7.7.7.9.0.i.9.9.9.n.M...H &.) @.@.@.@.@.-.q.P z.{.l.k.F.r.x.y..X}.t.h.h...",
"k.,.X.X.t.t.W 2.s.X.o.XX) ) X.X.t.s.z.z.k.h.8.<.2 o.o.o.0.0.0.7.i.9.7.0.0.9.9.i.n.n.n.j.J /.b.h.w.w.c.z.Z.Y.U.k.l c.b.y.b.F.>.k.[.y.x.v.h.4.",
"..` { { t...X.' o.X.o.) t B.K.v.k.b.N.k.4.z.b.U.6 V i.6.0.0.7.7.7.7.0.9.9.9.i.n.n.9.M.W ( +X].x.Y.k...W D >.c.'.=.l j.y.b.+Xx.t.b.h.h.b.4.k.",
"..' [ t.X.[ ~ t.B...o.J X.K.r.X.j.N.b.N.x.' >.P.4.= o.7.0.0.7.7.0.0.0.9.9.j.9.j.j.n.j.l b.`.%X).k.h.'.t.c.} E t.R.v ,.c.K.}.c.y.z.8.4...y.4.",
"2.' [ ' ' >.' y.6.8.W z v.) o.v.c.z.z.k.v.F.,.~ ).m w i.0.7.7.7.i.9.9.9.n.n.n.n.n.M.c ~ U.OX}...,.x.z.r.) x.N.y.b.d.v y.b.t.' 2.b.y.>.4.h.4.",
"X...L [ ..' o.y.X.y.t 4...t.k.) ^ ,.4.8.y.$X#X4...K.1 ..7.7.7.9.9.9.9.9.9.n.n.n.m.2.6 l.x.%Xa.X.x.t.t.F.t.K z.U.b.R.Y ..j.).Y.j.l.b.b.y...z.",
">.o...` ' ] 8.o.y./ J t.t.l.y.v.l.z.k.1.3.v.K.K.y.4.p.1 9.7.9.u.9.9.9.i.n.n.n.n.M.k >.c.K.^.2.F.z.a.h.c.x.z.) l.u.x.~.H j.6.l.t.4.2.y.h.j.o.",
"L [ W ..2.' X.{ y.J r.k.K.b.k.k.F.f.v.f.t.y.z.t._.y.c.P N n.9.9.i.i.n.i.n.n.u.M.>.9 M.e.P.a.F.h.F.b.v.4.z.x.k.h.b.x. X( ) i...L } X.u.m.j.x.",
"6.o.,.5._ Z L 6.^ ^ x.F.l.>.4.4.3.a.z.}.f.3.a.t.D.Y.x.h.6 6.u.9.9.9.u.u.u.j.l.j.3 <.H.h.x.U.<.,.t.[.[.F.D.t.z.b.F.h.`.b.I 4.' 4.c.w.<.@.D D ",
"z K W ~ >.[ ~ ..^ b.x.b.y.,.t.s.D.R.k.+X/.k.s.v...`.{. XS.d >./ @./ >.>.[ [ ,.I S j.h.2.F.F.4.a.`.P.h.F.P.F.2.F.R.y.P.E.I d ^ ^ I D I V D S ",
"E ^ $.$.%.^ <.-.O.h.t.v.a.X.f.L.v.h.s.P.OXv.v.K.W z.a.x.=.>.l.u.l.h.[.x.j.m.i.y.Q ,.8.F.OX[ a.z.`.l.F.F.x.C.h.8.l.h.R.4.t U.M.b.U.U.W.R.Y.U.",
"6.t.b.8.2.j.i.9.! ! X.[ z.r.k.y.h.z.v.,.k.b.a.F.,.2.X.c.H M.M.l.6.b.=X$X,.4.W.T.~ W x.[.,XF.c.z.F.z.h.x.F.w.z.k.F.h.z.l t.M.8.j.h.8.u.y.8.u.",
"~ y.9.7.6.~ 1.b.y.v s.X.4.v.r.1.4.v.z.z.v.a.a.4.z.y.F.^ [ U...o.l.;X:X-X&X[ L v.M.x 8.*X1XOXx.F.c.x.R.x.k.h.8.H.F.Z.@.m E.8.j.j.u.y.8.u.8.j.",
"y.j.y.y.y.y.V V b.L n b.` k.k.h.y.k.k.z.a.4.w.2.h.R.3.x x.W 8.l.h.D.D.F.F.).X.y c.>.I %XP.4.C.Z.c.c.h.x.H.x.x.F.x.F.x x.x.u.u.8.j.8.8.u.8.8.",
"I K ~ >.2.k.[.' K b.6 %.x...2.t.3.2.y.j.h.z.x.c.b.F.6 t.[ 6.h.) W [ ,.8.h.{.b.v.L x.I q.j.6.,.c.H.k.c.C.8.7.F.h.Y.<.E T.8.y.u.y.y.u.u.y.9.8.",
"..>.>.....v.).v.X.W h.< k.l.X.2.t.h.k.c.k.8.y.l.F.z ^ 2.k.U.y.U.U.x.h.....y.h.F.[.,.4.x E.Q.x.6.h.F.4.4.h.F.x.h.P.S F.x.u.u.u.y.u.8.y.9.e.8.",
"l.6.a.1./ [ y.1.Y.y.,.( k F.F.y.2.2.8.2.,.8.Z.H.[ l 4.x.b.h.t.4.x.t.k.v.t.y.x.X.OX|.j.I E x.Q.E.M.F.F.x.a.' a.l.=.%.T.8.j.y.y.u.8.9.e.u.8.y.",
"/ ) 1.v.f.) 4.,.r._.j.t.g ~ k.H.F.2.2.2.x.H.h.2.x %.U.Y.y.` ..,.r.x.c.[.v.3.y.t.c.%X|.b.g ,.8.a.z.F.U.K.x.8.2.c.I R.j.y.8.9.8.8.8.8.9.8.9.8.",
") z.k.t.OX4./ t.) b.Y.N.r.n ' / 3.p.<.c.w.@.@.D T `._.`.y.X.3.l.U.R.6..X[.k.b.v.` ].+X+X:.s E 6 a l c I +.%.>.U -.U.7.u.8.u.9.8.9.8.8.9.8.8.",
"b.....X.*Xf.1.v.~ ..b.b.F.n ..2.,.,.h.e.5.e.e.e.-.y.2.t.h.X.v.F.h.,.h.c.F.l.v.b.} ,.,.2.^ f.F.U.U.F.F.F.F.F.H.c.2 8.u.y.u.y.9.8.8.9.6.8.8.8.",
"......>...z.>.k.6.W L ' ! J N.u.9.j.j.n.M.M.Z.E.a.^ l.L 4.8.t.h.y.x.x.8.h.b.4.b.6.<.0.3.-.'.l.l.x.x.l.x.x.l.j.U.m c j.8.y.y.8.9.8.9.6.8.6.0.",
"' 4.s.y.y.t.~ 2.y.~ X.k.s i.o.X.5.5.5.5.0.6.6.6.Y.n g.U.' h.y.,.2.F.x.h.b.2.4.,.h.8.Z.I P.Z.l.c.h.j.c.l.c.j.c.j.x.2 2.8.y.u.8.8.6.8.6.6.2.2.",
"[ ,.t.2.2.>./ W ~ t.b.H K u.o.6.5.5.5.5.5.5.0.5.u.F.4 Y.x.8.h.h.k.u.x.x.6.2.h.2.e.T.Q =.'.h.x.c.j.j.j.l.l.l.j.h.Z./ k j.8.y.8.6.6.8.8.6.6.6.",
">.[ ,.4.2...h.4.t.l...; l.X.o.o.,. . .5.5.5.5.5.0.N.&.w Y.l.y.,.[ X.8.j.x.l.j.j.Y.4.n |.x.x.x.x.j.c.j.c.l.l.j.j.c.U.6 >.j.9.9.6.6.6.8.7.2.6.",
"~ [ ,.2.y.4...,.h.h.& ,.9.{ ,.{ 5. . .5.,.5.5.5.8.o.Y.l W R.B.k.h.j.j.c.6.,.u.U.l.a C.Q.l.x.Z.c.l.m.j.j.j.h.j.j.h.Z.<.6 j.6.8.8.8.6.6.6.6.6.",
"..[ >.2.L L 4.l.k.l t x.] {  .{ { { 5.5.5.5.5.5.0.o.u.b.9 4.b.R.x.' ,.,.{ x.Y.x.D U +Xx.M.x.l.l.l.e.e.j.u.h.j.h.j.h.U.m ~ j.8.8.8.8.6.6.8.8.",
"j.' N W L h.x.2.~ @ 4.o.} ] ] { { ]  .,. . .5.5.o.o. .U.~ c [ 8.Q.x.2.e.U.x.,.[ c I.Q.x.Z.l.x.l.l.l.j.e.y.j.j.h.h.h.j.c.z >.,.>.[ [ [ ~ ~ ~ ",
"E 4./ ~ 1.1.V z 6 b h.F ] } } ] ] ]  . .] {  . .{ o.o.6.l.6 Q I D &.%.>.@.E E S O.'.x.x.x.x.l.l.l.j.j.j.j.8.y.c.h.j.8.x.^ a x c S A I m A j ",
"6 6 v m x w t b 5 z ] } } } } ] ] F  . .] { ] {  .o.0.0.L R oXD.f.g.C.G.R.Q.`.+X$.<.F.x.x.c.c.l.j.j.u.y.8.8.h.h.h.y.h.>.+.R.U.N.W.F.l.r.t.y.",
"8.6.6.8.8.8.y.y.N.7 V ' ] ] ] ] ] ] F ] ]  . .5.o.5.X.5.5 A.$X+XOX^.f.p.q.f.}.|.F.I x.x.x.x.x.j.j.c.j.j.h.8.8.h.j.u.h.U I.|.`.@.J K ~ t.x.m.",
"C ` ` ` _ ` _ _ 4.v.; { { { { ]  .] 0.5.,.5.5.6.5.5.0.z R `.G.$X$XP.#X^.D.r.Q <.Q.-.+.Z.l.l.l.l.j.c.9.e.8.8.8.8.8.j./ :.+X3.4 t ~ r.k.x.x.F.",
"C _ _ W _ ` ` _ C U.I w o.{ { { ] ]  .5.5.5.0.0.0.5.,.< D.G.Z.G.$.F.;X#XH.$X%XG.a.c.A e.x.l.l.c.j.c.c.h.h.8.8.8.6.4.^ t.K B 4.|.,X!.~ ( I v ",
"C ` _ L _ _ _ _ _ } K.7 L X.{  .5.5.5.5.5.5.5.5.5.8.k U Q.x.G.^ L.D.=.k.L.p.}.%X+X$Xd.A Z.h.l.l.j.h.h.y.h.y.y.6.8.+.p.u.j.E.h.F.(.a.b...z.b.",
"C C C L _ C F _ _ _ y.s.1 X.{ o.,.5.5.5.5.5.5.5.0.{ 2 I.s.F.q.f.G.p.r.<.r.v.=.^.OXc.b.R >.x.h.l.j.j.h.h.h.h.y.5.,.&.v.b.N.F.>.<.J ) ! t.J %.",
"N B B L F _ L B _ _ _ Y.J t o.{ F 5.5.5.X.o.5.5.9.k -.^.3.D.L.I.D.L.*X!.f.F.J.( 3.,.K.D.v x.j.k.x.j.j.j.h.u.y.y.^ ^.k.>.E.4.[ ^ 3.a.f.f.>.c ",
"B B B C B C B F B _ C ] ~.; W o.5.5.,.{ o.o.X.5.W v Q.f.4.<X*X<.<.J.>X=X!.p.D.P.p.k.H.|.$.U 4.>.>./ / / / E E I p.#Xv.C k.L ) a.s.s.}.`.~ / ",
"_ u L B B B B B C C _ u y.r.= v k k l k k c D C 5 q.C.>.f.@X@X4.g.(.g.g.H.L.t.L.~.v.I.}.z.5 E m S n m J K I J x D.-Xv.C / E |.3.>.x.W W >.E ",
"_ _ B F _ F B F F C _ _ _ c p.h.>.>.2.8.e.0.5.Z.d.n 4.=.C.C.=.a.D.L.C.C.D.K.a.%.r.z.Z.H.f g.T.x.U.M.N.x.m.x.N.y.7 H.c.C / s.H.1.>.~ ,.%./ / ",
"B _ _ B F C B F F _ _ C B 6 v.U.y.4.@.~ @.>.c.].W.P ^ g.c.].p.3.z.f.k.s.H.a.t.3.P.k.C.A H Y.,.2.6.2.,.,.X.,...6.b & ,.W >.).L E r.t.1.a./ a.",
"_ u B L C F B B C _ C _ 7 ( ,.z.N.c.c.H.@.D k c 4.y.s 4.C.c.`.a.f.z.G.F.k.f.%.^.L.h.a.5 D.y.2.8.2.6.,.2.,.,.,.X.8.$ E ..3.3./ [ ,.>.2.>.w.' ",
"F F u _ C C C C _ F C y 6 a.` 2.) b b.>X/.k.N.>.K ' v T F.a.H.`.x.a.%.4.C.g.H.^.4.Z.A +.U.,.6.2.2.,.,.,.,.5.,.{ 2.D - >.2.&.b K 1.~ I / %.W ",
"u L B _ C C C C _ C L @ %...X.E b t.%.=.f.%.>.T.j.y.k.G p.q.Q @.C.P.z.z.>.z.].s.a.q.f P.2.2.,.,.6.,.,.,.>.5.,.{ { e.5 S ' c.N.l.h.t.t.E x / ",
"B Z u _ B B C C C _ w 4 y.W / n 1.^ J m ! ..J ) l.r...%.g H.H.4./ g.a.^ D.^.V.>.c.P p.x.,.2.,.{ 5.,.X.X.[ ,.,.[ ,.,.>.2 [ B >.@./ / ) 1.X.5.",
"B B B u Z N B B B C % [ / V ) s.t.r.s.L.! ) r.T K B L x.J U C.`.'.R.H.F.f.E E t.%.T U.,.2.5.,.,.{ ,.,.,.,.,.{ >.,.' 8.d v X.M & y W 6.l.M.x.",
"V B B M M B N C _ 3 w 4.m / =Xp.m m >.+X/.=.K J.1.! L c.4.x ^ U U +.=.d.f.g.) ^ I A.8.,.2.,.,.{ ,.X.>.,.,.,.,.,.X.X.X.2.5 b 6 E ) ^ v 5 : $ ",
": @ # @ # $ $ $ # # ' / z >.}.s.z %.3.K &.p.%.^ ).r.~ z.N.v 5 t 2 6 6 6 v K ~ ! 5 ,.,.,.2.,.,.,.X.>.{ ,.,.,.{ >.X.....E d ~ ~ ! b b m K E W ",
"a.h.%.&.p.^ a.t.a.I 3 E b t.n / W a.r.r.....>.K b ) W h.~ < u.8.7.9.9.6.o.o.] 7.l $ 2.X.,.,.,.,.,.{ [ [ [ { [ [ ..' ~ 7 ..X.L ' ' } ' ' } ` ",
"b.) E k.K.1./ v.).z.- V K ,.s.l ~ ) ) ~ ~ 1.m ~ K t.` / X K { B C C _ F C C B B { # D X.,.,.[ { { >.>.] ' ' ' [ ' ..d t ' 8 q q q e r r e e ",
"5 b h.b.K.b.r.d %.z.c 6 ~ [ 4.4.I / 2.4.>.E ! b v.' ' d < o.L B L C F _ _ _ _ B ` V # X.[ X.,.[ ' ,.,.' ' [ ' [ ' L : ..u e u r e u u u u u ",
"~ x.3.&.( ^ 4.a.6 v 2.5 K ' ' z.y.' D m / 1.E r.a.B @.# ' } u L C C F _ C B B _ C { < x ,.[ [ [ F >.F [ [ [ ' W ' > ! } q y e q q e e r u u ",
"3.^ Y T ) 1.c.>.1.^ m / p / l a ^ 4.%.,./ t ' h.V W g 6 X.M B B B B C F Z B u _ C ` ' # ' ,.[ { >.>.[ [ ' ' ' } c p t.e u u e q q e r r u u ",
"J.%.) 3.&.T I V E ~.:.I d d a.[ z c ) c t >.3./ V W 7 ` L L B B C C B u M Z u C C B [ l 6 ,.,.>.,.F ' [ ' [ ' W > 3.L e u r r e e e e r u r ",
"%.2 a ^ g.-.I ) E Q %XA.^ * k 4.b.u.6.2.[ E & l W l V ' Z B B L L B B Z u u L C C ` L { - D [ [ >.[ } W W K L a Y i.q u r q u q 0 e e e e e ",
"< v p.^.3./ Y ( I t J.&XOX-.* 3 6 v A Q %./ I 6 6 l [ Z B u M N L B M M Z L C L C W C ' C O - * $ * > > : * , i ) u q u q u u q 0 0 8 r e e ",
"t 1.~ ^ b 2.K Y %.t E G.A.f.f g : , 5 5 6 d v m A : B M M B M N M M u u M B Z B C C C C 3 *.h.s.q.q.q.Q p.k.b.$.  u q q e e q q q 9 9 q q q ",
"E Q z x m m ^ E K N w 6 4 x A z...) ^ %.3.y.l.b.y.5 & B M u B Z u u u M B V B B C N W z 2 `.Q.z.-.Z.e.<.! t.).K.  4 u q q q e q q 9 9 9 0 q ",
"E I E Q ^ m ) x m E l w &.h m >.t.y.%.T g d d I [ [ # y u u u u u u M M M M N N N C D = %.P.U I F.D.y.k.3.d I z.m   y q e q q q q 0 1 9 9 9 ",
"m Q ~ ..E v 3 6 6 v m t.f d E V a.I l `.&.^ ) t v E a X M y y u r u M M M M M N N F 5 d z.d ^ F.g./ ~ ^ %.z.d p 1.= $ M q e q q 0 0 9 9 9 0 ",
"w E E I E ^ E 4.&.E 4.Y O %.b W s 4 ..=.( T I x.a.3.r., ; u y y z r M M M N N N N M * a.d H r.H s P ^ 1.f.3./ ^ s / . y e q e q e q q w 9 9 ",
"b d P ( %.,.t.E l [ >.  I E V n 5 $.#.;.D.1.5 g / K E Y + e e y z M M M V M M M C * U A I z.=.d.+XJ.*.G Y E Y a./ n d + y 0 e w e q e q q q ",
"r.) y x x m 2 < [ >.# : >.v J g r.$.;.*.T J ( H t t b ) a $ y y y M M M M M M N a i U S.=.>.$.^ d.$.=.$.$.3.^ I k...I o 1 e q q q q e e e 0 ",
"I r.r.6 w < 5 ,.x 2 X ! ^ t J ;.m v n a.S.*.Y *.J b b ..~ # 4 t q w w e e w w w * S L.-X^ l d n G p.&.=.$.R n m &.y.4.H + 7 & $ $ $ $ $ $ $ "
};
