/* XPM */
static char *result[] = {
/* columns rows colors chars-per-pixel */
"70 70 18 1 ",
"  c #FCB6C4",
". c #FCBECB",
"X c #FCC3CE",
"o c #FCC6D1",
"O c #FCCCD5",
"+ c #FDCED9",
"@ c #FDD4DD",
"# c #FDD8DF",
"$ c #FDD7E0",
"% c #FDDCE4",
"& c #FEDFE8",
"* c #FDE0E7",
"= c #FEE4EB",
"- c #FEE9EE",
"; c #FEEDF1",
": c #FEF2F5",
"> c #FEF6F9",
", c #FEF9FB",
/* pixels */
",,,,,,,,,,,>>;--;:>>;>,>,,,,,,,>>,;;>>>;:;;&=;>,,,;=-:;-=*::,:>>,,>>,>",
",,,,,,,,,,>>:;---;:;;:>>,,,,,,,>,,:;;>>:--=&&;:,,;&&----%-::,::,,>>>>>",
",,,,,,,,>>>>:-;---;;;::>,,,,,,>,,,:-::>>:-:-;;>>:-====-*%-::>>::,>,>>>",
",,,,,,,,>>>:-;-*--;;;>>,,,,,,,,>,,>;:>>>>>>>;;;;;-;=**=&#=::>>:>>>,>>>",
",,,,,,,>>:::;;;==--;;:>>,,,,,,,,>,>:;>>>>>>::;;---;*&&=*==;;:>;:,>>>:>",
",,,,,,,,>>:::;;-=---::>>,,,,,,,,>,>:;>>>>>>::;---;*&*=-;:;;::>:>>,>>>:",
",,,,,,,>>>:::;-;;;--;:>>,,,,,,,>>,>>>::>>>::;--=;;*&-;::;;:::::::>>;;;",
",,,,,,,,::::;;;;;;;;;;>,,,,,,,,>>>>>:>;;:>:;;---;;=%*:::;>>,:;;;::;;;=",
",,,,,,>>>:::::::;;::;:>,,,,,,,>>>>>>:;;;;>;;:::-;-*@$;;::,,>;;;;;;;*&&",
",,>,,,>>:>:::::----;:>>,,,,,,,:>>>>>>;=*->>>:>>;:=*@%=;=;>,>====;;=&=*",
":,,,,::>,,,>,>:-;-;::>,,,,,,,>=-;>>>:=*&;>>;>,::;=*%%***=>>:-*&=====;;",
",>,,,,>>,,,,,::;;;;;:>>,,,,,>:=*-;;---==;:>,,,>::--&&$$&;:>:=&&*=;;::;",
",>,,,,:>,,,,,:::;;::>>>,,,,,>>;;;;;-;;-;>>>,>,>,>::*&$*-::::-*&-::::::",
",,:,,,,,,,,,>::;;->>>:::>,,>,,,>>>>:::::>>>,,,,,,>-*==;;:>:;=;=;:>:::;",
",,,:,::,,,,,:;--=;>>:;-;::>,,,,,,,>>>>>>>>,>,,,,,,--==;;>::;=;;;>::>:;",
",,,,::;>,,,,:;**->,,:=*-::>,,,,,,,,>:::;;>,,,,,,,,-=---;::-*;:;:>:::;-",
",,,:;;::>,>:;;&*;,,>;&&*-;>,,,,,,,>>;---;,,,,,,,,,;*-;;;:-*=::;:>:>:;;",
",,::;::::>::=&=;:>>,;&&&=;>,,,,,,,>>;=-=-,,,,,,,,,:-*;:;;=*;::;::::;;;",
",>:;;;:,::;-*=;;::::>::-;:>,,,,,,>>:;=;;=;,,,,,,,,,;-::;-*=;;;;:::--;:",
",:::;:::>:;=*=;;;:,,,>>:::>>,,,,,;::;=;:-;,,,,,,,,,:::;=;&=;;:;::::-;;",
">:::;;:,>;====;-;;>>,,>>:>,,>,,>;;;;-=;;;;,,,,,,,,>>:;;*;=-:::>:::----",
":;::;::>::--=-;==:>,,,,>,>>>>>>:;;;;*=;;;:,,,,,,,,>:;**===::::>::-----",
";::::;::::;;--=#=;,,,,,>,>>>>::;%****=-;-:,,,,,,,,::*&&==;:>>>>>:-=&=*",
";::::;::::;---&@=>>,,,>,>>>:>:;*@@%%*=;;->,,,,,>>;;===*--;>>,>>>::-&%%",
":>:>:;;::::---*&;>>,>,,,,,>>::-%#@*=----->>>,,>>=&=*---;:::>,,>>::-*&*",
">>>:::;;:>:-;-**;>>>,,,>>>>;:;&+%%*------>>:,>:;&&%*;:;;:>>>,>>>::;*&-",
",:>>::::::;;;;--;;>,,,>>,>>;;=@&*%*---***;:;>-=**&==;>:>>:,>>>>:::;**-",
",>:::::::>;:-::-;>>,,,,,,>;;=%%*%##*-*##%*&*;**%**=;;>>>>,>,>>:::;=*-;",
",::>:::::>::;:;-;:,,,,>,>>=-*$%&$$$%*$%%%*%*=%%%*=-:>>>>>>>>>:;;:-&*--",
":::>>>:>:::;;;--;;>>,,,,>>-;=%$%++$$%#***==;-=%*=;;:>>>,>>>>:;;:;**--=",
",,:>:>>:>:;;:;;==>,,,,,>;;-;==&%$$%*****=;-:>;-==;:>,,,,>>>>;;-;*&=;=*",
",:::>:::::;:;;;-;;,,,,>;&=-;;;-&%=--=****-:>>:==-;>,,>>,,>,>:=-=@&====",
">>,:,:;:::::;;;;;;>>>,:;;=;:;--=$->>--;;;;>,>;*=;>>,>>>>,,,>:;*%@*;==*",
">::;;:;;;:;;;;;;;>>>>>>;*=;;;-**@=;-;>;;;;>>:;;:>>,,>>>,,,,>:-*@*-;=**",
">:;::;;-:;;;;:;:>,,>>:>%*;;;;*#=*---::;;:;:;;;>,,>,>>>>,>>>>:*%%=--=&%",
">>:,:,::;:,>;:::;,>>>:;#%=-;-%#-;>>>::;;::;;;;>>,,>>>>>>,>>:;-@@**=*%@",
">>,>>,,;;;;:>>>>>>,>>;;#+@=;=*#-:>>::;;;;=**%-,,,,>>;>>,>>;;;*@@##&%@O",
",,>>:,,::;::,,,>;>>:::-Oo@*;;*-;:::;=;:*%%**=>,>>>,>>>>>>;;;-@%*=##@o+",
",,,>:,,,:;::,,,,>::>>;#O@%%;;;;:::::%-=%%*=*->>>>>>>;>>>>;=*@$*;--#Ooo",
",,>>,:,,:::;>>,,,>:>:;%*-=*;;::>::>:%****--=;>>::>>;>>>;;-%++*---;*ooX",
",,>>::,,,:;;::,,>>>>;;-;;;=;:>,>>>>;%%*--;;-:>>>>>>:>:>;-%@+%--;;-*+Oo",
",,,,::::,::;;;,>>,:;==;;;:::>,,,>>:;**=;;;;;>>>:>>>>:>--*@O@****==*+OX",
",>,:::>>>>:;;:,,,>:-==-;:;:,,,,,>>:-;;::::>>>>>>>>>:::;*%+O@@$+O+#@oOo",
",,,::,:>>,:;;:>,,:;-*=;::>,,,,,,>>:::;:>>>>>>>>>>>>>:;-=%@+@*-%$%++XoO",
",>,>>,:,,>:;;:,>>;-**-;>>,,,,,,,,>,,::>>>:,>>>,:>>>>>;;*%@%=>:*$#@++@%",
">,,>>,>>::::;:>>>;*%*-;>,,,,,,,,,,,,>;,,>::,>>>>>>::;;;*$$->>:=@@O+##=",
">,,,>>:,;;;:;->>;;#@=;>>,,,,,,,,,,,,>>,,>;>>>::>>>:;;--%+->>>>;*@++@$-",
",,,>>>:>;--;;;>;;*#-;:>,,,,,,,,,,,,,,>>,>;>>:::>::;--=$@%>,>>>;=@%@#*-",
",,,,>>:;;;%=;;:;;-=:>>,,,,,,,,,,,,,>>,,>:>>:>::::-%%%OO=:>,,>>;*@##**=",
",,,>>:;;-=$*;;:>;=->>>,,,,,,,,,,,,,>,,,>::::::;:-%@%++=>>>,,,>;=*=**&*",
",,,>>:;*%@@*=;::-&:>,,,,,,,,,,,,,,>,,,>>::;:::;;%%**%-;>>>,>>>:;:--*%@",
",>>>:>*#%#@%*-;:=%:>>,,,,,,,,,,,,,>>,,:>;;;:;;----;-->>>>>,,>>::::-=%#",
",>>:;;##=****-;;&;>,,,,,,>,,,,,,,,>>>>:;-=*---=-:::::>>>,,,,,>::::-*%*",
">>:;;%O-;-=@*-;*%;>,,,,,>,,,,,,,,,>:-==*%@@$$%->>:::>>>>>>,,,,::--&#*-",
";;-**O*;;;-%%=**=;;>>,,;:>,,,,,>>::*@@@@$@%+@*->::>>>>:>>,,,>>;;=*%%-;",
";-#XO#-;>>-***==;;;-->;;:>,,,,:;;-*OO+%==*%@$=::>:::>>>>>>>>>>;-&%%*::",
";=o.@*;:;>;=**-;;;::;;;;,>>,,:-=%$$@@$=;-*%*&=;>>:::>>>>>>>>::-==*#-::",
"-*.O===;;>;-*-;>>:>>>:;>,,>>::-%++$$$*;;-**===-::>:::>:>>::::---=*%-:,",
"-@O%-==;>>;-->>>>>:,>,>>,>>::;*%@@$$&->;-=--==-;;;;;::::::;;---**#=::>",
"=@*-;-;>>>>;>,,,,,,,>,>,>,,:;=%%@@@%->>;=-====--;;-;:;>;;---===*+@-:>,",
"$*;;;;,>,,>,,,,,,,,,,,,>,,>:-%+$$%&=>>>--;;=-===;;;;:;;***==*%%@XO-::>",
"X*>;;;>,,,,,,,,,,>>,>>>>,>:;%@#%*=->>>>>;:-*-=-;;;;::;:***==*%oX X&-:>",
"O;>;>>>,,,,,,,,,>>:>>>,>,>:;%X@=;;:>>>>>::--;-=;;:::;;::;;;;;-$@O.O*;:",
";;>>>,,,,,,,,>>>::;;:,,>>>:*++%-:;;;>;>>>:;=--;==;;;;;::,:>>:>;;*.X%;:",
">>>>,,,,,,,,,,>:;---;>,>>;-$@**-;;;:>>>>>>===;;;==*=%=;>>>>,>>::-%$&->",
">>>,,,,,,,,,,,>:-*==->>>>;*@*=-;;;;>>>>>>;*%;;;;=*#%$=;>>>>>>>>::=&=-;",
",,,,,,,,,,,,>>>>=*==-;;;;*$*;;;;;;>:>>>>>;**=;;;**#%*;:>>>>>>>:>:;%&=;",
">>>>,,,,,,,,,>>;;***==-==%@*;;:>>;:>>>>>>=**==--*=*$-:;;>>>>>>::>;=%&;",
">>,,,,,,,,>,>>>;=*%%##@%%@%=::>>>>:>>>>>;=*%**#%*-#+-;--;>>>>;;>:;;*=;",
">>>,,,,,>>,>>>:=##%*#@O@#%;;:>>>>>>>>>:>;-*%%*$%*$O#*=;>>,>-;>>;;;=&=:"
};
