/* XPM */
static char *result[] = {
/* columns rows colors chars-per-pixel */
"70 70 208 2 ",
"   c #972B47",
".  c #8D2357",
"X  c #92275C",
"o  c #AA375C",
"O  c #A6366B",
"+  c #AC3969",
"@  c #BF3667",
"#  c #B63C72",
"$  c #C3306F",
"%  c #C83876",
"&  c #92515F",
"*  c #B44866",
"=  c #BA4A7B",
"-  c #AC5A75",
";  c #AE616E",
":  c #BA657A",
">  c #C54A69",
",  c #C94575",
"<  c #CB5778",
"1  c #CE6077",
"2  c #D87578",
"3  c #BC668A",
"4  c #BD7C8E",
"5  c #B66D96",
"6  c #9A5CB3",
"7  c #9E64B7",
"8  c #AC65AE",
"9  c #B468AF",
"0  c #A66CBB",
"q  c #AB6CBC",
"w  c #B874BF",
"e  c #C64E84",
"r  c #D34A82",
"t  c #C45386",
"y  c #CC5487",
"u  c #C25C8C",
"i  c #C95D8A",
"p  c #DD558D",
"a  c #D55B8F",
"s  c #C75B99",
"d  c #D75E93",
"f  c #C46584",
"g  c #C96587",
"h  c #CD638D",
"j  c #D66884",
"k  c #C17986",
"l  c #C1768A",
"z  c #DA7986",
"x  c #CA6A9D",
"c  c #D46395",
"v  c #CA729B",
"b  c #D77497",
"n  c #CB68A8",
"m  c #C776A3",
"M  c #CD7CA3",
"N  c #DB74A5",
"B  c #D37CA4",
"V  c #D779AA",
"C  c #DD7DA9",
"Z  c #C775B2",
"A  c #D57DB1",
"S  c #E677AA",
"D  c #E27DAB",
"F  c #AF77C2",
"G  c #B876C1",
"H  c #C28093",
"J  c #C88E9E",
"K  c #D48196",
"L  c #C7929E",
"P  c #C883A4",
"I  c #DB85A7",
"U  c #D786AC",
"Y  c #DC83AA",
"T  c #D58AAD",
"R  c #C899A9",
"E  c #D484B4",
"W  c #D68BB7",
"Q  c #DD8CB2",
"!  c #CE9ABC",
"~  c #DF98B5",
"^  c #D494BA",
"/  c #DC95BB",
"(  c #DD9ABB",
")  c #E583AA",
"_  c #E383AD",
"`  c #E584B1",
"'  c #EA85B3",
"]  c #E48BB4",
"[  c #E98AB3",
"{  c #EB8FB9",
"}  c #E894B7",
"|  c #E49DB4",
" . c #E494BA",
".. c #EB94BB",
"X. c #E59BBD",
"o. c #D8A6B6",
"O. c #D6B4BE",
"+. c #E6A3B7",
"@. c #E8A6BD",
"#. c #E0B6BD",
"$. c #F0CE9E",
"%. c #F0D3B6",
"&. c #B383C5",
"*. c #C781C7",
"=. c #C984C8",
"-. c #D48BCD",
";. c #D98FCE",
":. c #C79DC1",
">. c #CC9BCA",
",. c #DF9CC4",
"<. c #DA9CD2",
"1. c #E59CC3",
"2. c #EB9DC2",
"3. c #E396D1",
"4. c #E69AD4",
"5. c #ED9ED6",
"6. c #F09ED7",
"7. c #C5A6C2",
"8. c #CAA5C2",
"9. c #DBAFCE",
"0. c #DAB8CA",
"q. c #CDA7D6",
"w. c #CEA9D7",
"e. c #D5A6D6",
"r. c #D4ADD9",
"t. c #DBB4DB",
"y. c #EDA3C5",
"u. c #E5A4CB",
"i. c #E6A8C8",
"p. c #EAADCA",
"a. c #F1A3C6",
"s. c #F2ABCB",
"d. c #E2B7CC",
"f. c #E9B9C8",
"g. c #F3B4CD",
"h. c #F5B8CF",
"j. c #E4AED2",
"k. c #E9A8D5",
"l. c #EEA4D9",
"z. c #F3ADD3",
"x. c #F4A6DA",
"c. c #F9A6D9",
"v. c #F5ACDB",
"b. c #FCADDD",
"n. c #E6B9DA",
"m. c #E3BADD",
"M. c #EABEDE",
"N. c #F2B4D2",
"B. c #FAB7D6",
"V. c #F4BCD3",
"C. c #F5B6DF",
"Z. c #FDB5DF",
"A. c #F6BEDC",
"S. c #E5B7E0",
"D. c #FBB9E1",
"F. c #FEBCE1",
"G. c #EBC2CB",
"H. c #F3CBC6",
"J. c #F4DCCC",
"K. c #E6C6DA",
"L. c #FCCCD6",
"P. c #F6C6DA",
"I. c #F9C3DD",
"U. c #FDCED9",
"Y. c #EBD0DE",
"T. c #F7DCD7",
"R. c #F3D3DC",
"E. c #FDD3DD",
"W. c #F5E2C6",
"Q. c #F8E9C7",
"!. c #F6E8D9",
"~. c #DEC7E5",
"^. c #EDC5E4",
"/. c #EACAE7",
"(. c #EECBE9",
"). c #F5C7E2",
"_. c #FDC4E4",
"`. c #F5CAE3",
"'. c #FECDE6",
"]. c #F2CEE9",
"[. c #FDCFE8",
"{. c #ECD6E8",
"}. c #FDD4E3",
"|. c #F4DAE5",
" X c #FDDCE4",
".X c #F5D3EB",
"XX c #F6D6E9",
"oX c #FCD6EA",
"OX c #FDDCEC",
"+X c #EFDEF0",
"@X c #F3DEF1",
"#X c #FEDDF1",
"$X c #F4E7E3",
"%X c #FDE1E7",
"&X c #FDE4EB",
"*X c #F6EAEB",
"=X c #FEE9EE",
"-X c #F8F0E9",
";X c #FAF1EE",
":X c #F6E3F3",
">X c #FDE4F2",
",X c #F7EAF4",
"<X c #FDEDF2",
"1X c #FAEFF9",
"2X c #FEF2F5",
"3X c #F7F2F9",
"4X c #FEF6F9",
"5X c #FEF9FB",
/* pixels */
"4X2X2X<X=X<X<X<X<X=X&X=X2X2X2X=X=X;X2X2X2X4X4X4X5X5X5X5X5X5X5X5X5X5X5X5X5X5X5X5X5X5X5X2X&X<X<X2X4X4X2X2X4X4X2X2X<X=X2X2X=X<X<X<X2X2X2X2X2X2X",
"2X2X=X=X=X=X=X&X%X&X&X=X<X<X<X2X2X2X2X2X4X4X4X4X5X5X5X5X5X5X5X5X5X5X5X5X5X5X5X5X5X5X5X5X<X<X2X2X2X2X4X4X4X5X4X4X4X4X4X4X2X<X<X=X<X<X<X2X2X2X",
"2X2X<X<X<X=X=X&X&X=X&X&X=X=X=X2X2X=X2X2X4X5X4X5X5X5X5X5X5X5X5X5X5X5X5X5X4X5X5X5X5X5X5X4X2X2X2X2X2X4X4X5X5X5X5X4X4X4X4X4X2X2X2X,X=X<X<X<X2X=X",
"2X2X<X<X<X<X=X<X&X&X&X=X=X=X=X=X=X2X2X2X2X2X2X2X5X5X5X5X5X5X5X5X5X5X5X5X5X4X5X5X5X5X5X5X4X2X<X<X2X4X4X4X4X4X4X4X4X4X4X2X2X2X2X2X<X2X=X<X=X=X",
"2X;X2X2X<X<X<X=X=X&X&X&X=X=X=X=X<X2X2X2X4X4X2X5X5X5X5X5X5X5X5X5X5X5X5X5X4X5X4X4X4X5X5X4X4X4X<X2X2X2X4X4X2X4X4X4X4X4X4X5X4X2X2X2X2X=X&X&X&X=X",
"2X2X2X;X2X=X=X=X<X<X<X<X=X=X=X&X=X2X2X2X2X5X2X2X5X5X5X5X5X5X5X5X5X5X5X5X4X4X4X4X4X4X5X5X4X2X2X2X2X2X2X2X2X2X4X4X4X4X2X2X2X2X<X=X&X&X&X&X=X2X",
"2X2X2X2X2X=X=X<X2X2X<X<X<X;X=X=X=X<X<X2X2X4X5X5X5X5X5X5X5X5X5X5X5X5X5X4X4X4X4X4X4X4X4X4X4X2X4X2X2X2X<X<X<X2X2X2X4X2X2X2X2X<X<X&X&X=X=X&X=X<X",
"2X=X=X2X2X2X2X;X<X<X<X<X<X2X2X2X<X<X<X2X2X4X5X5X5X5X5X5X5X5X5X5X5X5X5X4X4X2X4X4X4X4X5X5X4X4X4X2X2X2X2X<X2X<X2X2X2X4X2X=X2X2X2X<X2X2X2X=X&X=X",
"2X2X2X4X2X2X<X<X<X=X=X;X<X<X<X2X2X2X2X2X4X4X5X5X5X5X5X5X5X5X5X5X5X5X5X5X4X4X4X4X4X4X4X5X4X4X4X4X2X=X<X=X=X=X<X<X2X2X2X<X2X2X2X4X2X4X2X=X<X=X",
"2X2X2X4X4X2X2X<X=X2X=X=X=X=X=X<X2X2X2X2X4X4X4X5X5X5X5X5X5X5X5X5X5X5X5X4X<X<X4X2X2X4X4X4X4X4X2X2X;X=X&X&X&X XOX2X2X4X4X2X2X2X4X4X5X5X2X<X<X2X",
"5X4X5X5X4X2X<X<X<X=X=X=X=X=X<X2X2X2X2X5X5X5X5X5X5X5X5X5X5X5X5X5X5X5X4X<X X&X=X<X2X2X2X4X2X2X2X2X<X&X%X%X X}.=X2X2X4X4X2X4X4X4X5X5X2X2X2X2X2X",
"5X5X5X5X4X2X2X<X<X<X2X=X2X=X2X<X2X2X4X4X5X5X5X5X5X5X5X5X5X5X5X5X4X2X2X=X&X&X&X&X=X<X2X2X2X2X<X=X=X&X&X&X&X=X2X2X2X2X4X2X4X4X5X4X4X4X2X2X2X2X",
"5X5X5X4X2X2X2X=X<X<X2X<X2X2X2X2X2X4X4X4X5X5X5X5X5X5X5X5X5X5X5X4X2X2X2X<X&X=X=X=X=X=X<X<X<X=X&X=X<X=X=X=X>X<X2X4X2X4X4X4X4X4X5X4X5X3X4X5X5X5X",
"5X5X5X4X2X2X2X2X2X2X<X<X=X2X2X2X4X4X4X4X2X2X2X5X5X5X5X5X5X4X5X4X4X2X4X4X2X2X2X2X4X2X4X2X2X<X<X2X2X<X<X<X<X2X4X4X4X4X4X4X5X5X5X5X5X5X5X5X5X5X",
"5X5X4X4X2X2X2X2X=X=X&X&X2X4X4X4X4X4X2X2X2X<X<X2X2X4X2X5X4X5X5X4X4X4X5X5X4X5X4X5X5X5X4X2X2X4X2X2X4X2X2X2X2X4X4X4X5X4X4X5X5X5X5X5X5X5X5X5X5X5X",
"5X5X4X2X;X=X=X=X=X&X*X=X2X4X4X4X2X2X2X2X=X&X=X2X2X2X4X4X4X5X5X4X5X5X5X5X5X5X5X5X5X5X5X4X4X2X4X4X4X4X4X2X2X4X4X4X4X5X4X4X4X4X5X5X5X5X5X5X5X5X",
"4X5X2X<X=X=X%X X&X&X<X2X4X4X5X5X2X2X<X&X X%X=X<X<X2X2X2X5X5X5X5X5X5X5X5X;X4X5X5X5X5X5X4X4X2X2X2X2X4X2X2X2X2X=X2X5X4X5X5X5X5X5X5X5X5X5X5X5X5X",
"4X2X2X<X=X&X}.%X&X&X2X4X5X4X5X4X4X<X=X X X X&X&X=X<X<X2X4X4X5X5X5X5X5X;XQ.-X5X5X5X5X4X4X4X5X2X2X=X<X2X<X=X*X=X=X4X5X5X5X5X5X5X5X5X5X5X5X5X5X",
"4X2X<X=X&X%X&X&X<X<X2X4X4X4X5X5X4X<X&XE. X X X%X&X&X=X2X4X4X5X5X5X5X5X;X2X5X5X5X5X5X5X4X2X4X2X2X<X&X&X&X%X%X&X2X5X5X5X5X5X5X5X5X5X5X5X5X5X5X",
"2X<X&X X X&X=X=X<X2X4X4X4X4X4X4X4X4X<X&X&X&X%X&X&X=X2X2X4X5X5X5X5XQ.Q.$.!.5X5X5X5X5X5X4X4X2X2X2X&X&X&X<X=X&X&X=X<X5X5X5X5X5X5X5X5X5X5X5X5X5X",
"=X&X X X%X=X=X<X2X2X2X2X2X4X4X2X4X4X4X2X2X2X2X=X<X<X2X4X2X2X5X5X5X!.W.2 f.5X5X5X5X5X4X2X2X2X2X=X&X&X=X2X2X=X=X&X=X2X5X5X5X5X5X5X5X5X5X5X5X5X",
"&X&X%X X&X=X=X2X<X<X<X<X2X4X4X5X5X4X5X4X4X2X2X2X2X2X2X2X5X5X5X5X4X-XY.= c <X5X5X4X2X2X2X2X2X2X=X&X&X=X2X2X2X=X=X=X5X5X5X5X5X5X5X5X5X5X5X5X5X",
"&X&X&X&X*X=X2X=X<X&X<X<X4X2X4X4X5X5X5X5X4X4X4X4X2X2X4X4X4X5X5X5X;X%.4 + < O.5X2X;X=X2X2X2X2X;X=X&X&X<X2X;X<X=X=X2X2X5X5X5X5X5X5X5X5X5X5X5X5X",
"&X&X&X&X=X=X2X=X&X&X<X<X2X4X4X5X5X5X5X5X4X5X4X4X4X4X4X2X4X;X!.4XR.g - H J L ,XW.W.2X<X=X<X2X=X&X&X&X<X<X<X<X<X2X2X5X5X5X5X5X5X5X5X5X5X5X5X5X",
"=X&X&X=X=X=X=X=X%X%X&X2X2X4X4X5X5X5X5X5X5X4X4X4X5X5X4X4X4X*X;X4XT % u ^ ! K.*X$X=X=X=X;X=X=X&X X X&X=X=X2X<X=X=X2X2X5X5X5X5X5X5X5X5X5X5X5X5X",
"<X=X=X=X=X=X=X XE. X=X<X2X4X5X5X5X5X5X5X4X5X4X5X5X4X4X4X4XG.%X|.* % $ D 2. XT.H.E.%X&X%X%X&X%X%X&X&X=X=X=X2X=X&X2X5X5X5X5X5X5X5X5X5X5X5X5X5X",
"=X=X=X<X=X&X XE.U.%X2X2X2X4X5X5X5X4X5X5X5X4X4X5X5X4X4X5X*Xi u.R   1 > g X.%X+.) U.E. XE.E.E.%X%X&X&X=X2X<X2X=X=X2X4X5X5X5X5X5X5X5X5X5X5X5X5X",
"&X<X&X&X=X&X X}. X&X2X2X4X4X5X5X4X4X5X4X5X5X5X5X4X5X5X5X0.* : & ; R k ; ~ }.i , h.E.E.%X=X%X&X=X&X=X=X=X=X=X=X&X<X5X5X5X5X5X5X5X5X5X5X5X5X2X",
"<X=X=X=X=X&X X X%X=X2X2X4X4X5X5X4X5X5X5X5X5X5X4X5X5X4X5X0.P R R ~ 7.( ^ s.o.o > K E.}.E.&X=X=X=X=X=X<X=X=X&X*X2X2X4X4X4X5X5X5X5X5X5X2X2X=X%X",
"<X<X<X=X=X<X%X X&X=X;X2X2X2X4X5X4X5X5X5X5X5X4X2X&XXXOX&XY. .p.0.U i.u. .s.4 : R 4 G.%X%X=X2X=X=X=X=X<X=X&X%X&X=X2X4X2X<X2X5X5X2X2X=X2X=X&X%X",
"<X=X<X<X<X<X=X=X<X<X<X2X2X4X4X4X5X5X5X5X4X4X5X,XQ ' a.A.a.S g.G.b 2._ ' g.d.W ! o.R.}. X%X&X=X=X=X&X%X X X X X%X=X2X<X=X<X2X2X2X&X%X=X&X X%X",
"<X<X<X2X2X<X<X<X=X=X=X2X4X5X5X5X5X5X5X5X4X5X5X4XU d ' 2.S a f.J.z ] _ [ h.R.] 2.| } a.P.V.h.%X=X&X X}. X X X%X%X&X&X&X X&X<X2X=X%X}.%X X X%X",
"2X2X=X2X2X;X2X=X&X<X<X2X2X5X5X5X5X5X5X5X5X4X4X5XK.c _ y.S b H.( r  . .{ h.G.T y.+.j S y.[ D  X&X}.E. X X X X X X%X}.E. X X=X=XE.%XE.E.E.%X&X",
"2X;X2X<X<X2X=X=X=X&X<X<X4X4X4X4X5X5X5X5X>X_.[..X_.N I s.[ | G.t $ ] 2. .v t b X.#.Y S @.D y. X X}.E.}.%X%X X X X&X%X&X&X&X2X&X%X%X}. X X%X&X",
"=X2X<X2X2X2X=X=X&X=X<X<X2X4X5X5X5X5X5X4X_.D.F.F.C.C B ( ' b M @ , h ..u . # y Q b E C y...E.&X X}.oX%X&X%X X&X<X=X=X=X=X2X2X*X=X*X&X%X%X&X%X",
"=X2X2X<X;X=X=X=X&X&X<X2X2X5X5X5X5X5X5X<XF.b.v.v.k.A { i.u , o * j 1 y X . u u 3 = u _ 1.y.`. X}.}.}.}.}. XOX X&X=X=X=X=X2X2X2X2X2X=X=X&X&X&X",
"2X2X=X2X=X=X2X=X<X<X<X<X2X5X5X5X5X5X3X2X.Xl.4.3.&.Z ` p.- 4 - = d d e O 5 7.! 3 l f ..( ^ r.`.}.'.'.}.'.}.OX X&X=X<X2X4X5X2X5X2X2X=X&X&X&X&X",
"2X;X2X<X2X=X=X;X<X<X<X2X4X4X5X4X2XOX_.F.D.4.<.=.F 9 v N.Q ^ ^ ! 7.8.:.A ] M.j.( / m U y.-.q.^.[.'.}.[.'.'.oX&X=X=X2X2X5X5X5X5X2X&X%X X%X&X<X",
"=X2X=X2X=X=X=X2X2X2X2X2X4X4X4X2X_.b.b.b.3.-.*.F F 8 ] B.A ]  .9.9.9.u.V { _.N. . .A 2.s.>.w.r.t.m.M.).[.'.OX=X<X=X2X4X5X5X4X2X2X&X&XOX<X<X4X",
"2X2X<X;X2X<X<X<X<X<X<X4X5X4X<X#Xb.c.x.5.;.=.G q 7 9 S ..N B # # e d d p a y O O Y p.A.k.e.w.w.r.t.m.S.}.oX&X<X<X2X2X2X4X4X2X2X2X<X<X2X4X4X4X",
"2X;X2X=X2X2X2X<X<X2X2X4X5X5X2XOXb.x.6.3.;.*.G q 7 n S D ' 1.P M W  .X...] U x x  .I.'.Z.x.e.m.S.n.M.). X&X2X2X2X2X<X2X2X<X<X2X2X2X2X4X5X5X5X",
"2X<X2X2X;X2X2X2X2X<X2X5X5X5X4X1Xb.6.6.3.;.=.w 0 6 Z s.N.N.'.{.d.d.n.,.A j.,.u.1.z..X>X_.v.n.}.'.'.'.'.OX=X2X2X2X2X2X2X=X=X<X2X&X<X4X4X4X4X5X",
"2X2X5X2X2X2X5X5X4X2X2X4X5X4X4X4X#XD.6.l.S.S.<.>.&.>.C.P.P.|.2X2X>X[.A s D._._._.XX>X>XOXD.'.'.'.'.}.'.OX2X<X;X2X=X&X&X&X&X&X X X2X4X4X5X5X5X",
"2X2X5X5X5X5X5X2X4X2X2X2X4X4X4X2X2X2X@X]..X(.S./.~.~.{.:X,X,X4X3X1X,X9.k.#X>X>X1X<X<X>X>X>XOXOXoX'.'.}.XX=X%X=X=X%X%X X%X X X X=X4X4X5X5X5X4X",
"2X2X5X5X5X4X5X5X4X2X2X2X2X2X4X2X4X2X2X3X@X(.(.@X@X+X+X3X3X3X3X3X4X4X2X>X>X4X4X1X2X4X1X<X>X>X<XOX'.'. X&X%X X XE. X%X%X X%X&X=X2X4X5X5X5X4X4X",
"2X2X4X5X5X5X5X5X5X4X2X4X4X4X2X4X2X2X4X1X@X].].@X:X:X:X3X3X3X1X,X2X3X>XOX>X1X1X1X2X1X1X<X>X<X&XoX}.oX&X&X X XE.%X X&X&X%X%X&X1X2X4X5X4X4X4X2X",
"2X2X5X5X2X5X5X5X5X5X4X4X4X4X2X4X2X4X2X<X#X.X#XOX@X:X:X>X2X,X,X>X#X#X#X#X#X>X>X>X>X>X#XOX#XOX&X}.E.&X&X X X&X%X X&X2X<XOX&X<X<X2X4X4X4X2X4X2X",
"<X<X2X2X<X5X5X5X5X4X5X4X4X1X4X4X2X2X<X<X#X#X#X#XOX.X#X#X#X>X>X#X#X#X#X#X#X#X#X>X#XoXoX'.}.&X>X XE.}.&X X&X=X=X&X2X2X<X&X&X<X2X2X4X4X4X4X4X4X",
"<X2X2X=X=X5X5X5X5X5X5X5X4X4X2X2X2X=X&X&X=X>X#XOX#X'.[._.F.'.#X#X#X#XOXoX'._.:X,XOXoXoXOX&X=X&X XE.}.&X&X=X=X=X=X2X<X<X=X<X2X4X5X4X5X2X2X2X4X",
"2X=X2X=X<X5X5X5X2X4X5X5X2X2X2X<X&X%X}.&X=X<X=X=X&X.XD.D.F.F.F.'._._._.F._.[.2X5X4X4X2X3X2X=X%X%X&X=X<X;X2X2X2X2X=X2X2X2X2X4X4X4X4X2X2X2X2X4X",
"=X2X=X=X2X4X4X5X5X5X5X5X2X2X2X<X&X&X&X&X=X=X=X2X2X>XD.D.F.F.F._._._._.'.oX4X5X5X5X5X5X2X<X<X=X=X=X=X=X2X2X2X2X2X2X2X2X2X4X4X4X4X4X4X4X4X4X5X",
"=X2X=X=X2X4X5X5X5X5X5X2X<X2X<X=X&X X X%X&X2X2X2X2X<X_.D.F.F.F._.oX>X#XOX1X5X5X5X5X5X4X2X<X<X2X2X2X2X2X5X5X2X5X2X2X5X5X4X4X4X4X4X4X2X4X4X4X4X",
"=X2X;X<X4X5X5X5X4X4X2X2X<X<X=X&X X%X%X2X=X2X2X5X2X4X<XoX'._.'.oX2X5X5X5X5X5X5X5X5X5X5X2X5X4X2X3X2X2X4X4X4X4X4X2X2X4X5X4X4X4X4X5X4X4X4X4X4X5X",
"2X2X=X=X<X5X5X5X5X2X2X<X<X&X X%X%X%X&X=X2X2X2X2X4X4X5X5X4X4X5X5X4X5X5X5X5X5X5X5X5X5X5X4X5X5X4X5X=X2X4X4X5X5X4X2X4X;X5X4X4X4X3X5X4X4X4X4X4X2X",
"2X2X;X=X&X4X4X5X5X2X2X2X<X%XE.}. X X*X=X2X2X2X4X5X5X4X5X4X5X5X5X5X5X5X5X5X5X5X5X5X5X5X5X5X5X5X4X&X2X5X5X5X5X4X4X2X2X2X4X4X4X4X4X4X4X4X4X4X4X",
"2X;X2X&X<X2X4X2X2X2X2X2X&XE.E.E.}.&X=X=X2X4X5X5X5X5X5X5X5X5X5X5X5X5X5X5X5X5X5X5X5X5X5X5X5X5X5X4X2X4X5X5X5X5X4X2X<X2X2X4X4X4X4X2X2X2X2X2X5X2X",
"=X2X2X<X2X2X2X2X;X<X2X=XE.E. X&X<X2X2X2X2X5X5X4X5X5X5X5X5X5X5X5X5X5X5X5X5X5X5X5X5X5X5X5X5X5X5X5X5X5X5X5X5X5X5X2X2X2X4X4X4X4X2X2X2X2X2X4X2X4X",
"=X2X2X;X=X;X2X;X<X<X2X=X%X X=X2X2X4X2X2X4X5X5X5X5X5X5X5X5X5X5X5X5X5X5X5X5X5X5X5X5X5X5X5X5X5X4X5X5X5X5X5X4X5X2X2X4X2X2X4X4X4X2X2X2X2X;X2X2X2X",
"%X=X=X2X2X2X2X2X2X2X=X=X%X&X2X2X4X2X4X5X4X5X5X5X5X5X5X5X5X5X5X5X5X5X5X5X5X5X5X5X5X5X5X5X5X4X4X5X5X5X5X5X5X4X2X2X2X2X2X2X2X2X2X4X2X2X2X2X2X2X",
"%X&X=X=X=X2X2X2X2X2X=X*X%X<X4X2X4X4X5X5X5X5X5X5X5X5X5X5X5X5X5X5X5X5X5X5X5X5X5X5X5X5X5X4X5X5X4X5X5X5X4X5X4X2X2X2X2X4X2X2X2X2X4X2X2X2X=X2X<X&X",
" X X&X=X2X=X2X2X2X2X=X}.%X<X4X4X4X5X5X5X5X5X5X5X5X5X5X5X5X5X5X5X5X5X5X5X5X5X5X5X5X5X5X4X4X5X5X5X5X4X4X4X4X4X2X2X2X2X2X2X2X2X2X2X2X<X<X<X&X&X",
"%X X%X=X=X=X2X2X2X2X X}.&X<X4X5X5X5X5X5X5X5X5X5X5X5X5X5X5X5X5X5X5X5X5X5X5X5X5X5X5X5X5X4X4X5X4X5X5X5X2X2X2X2X<X<X;X=X=X=X<X<X<X2X<X<X=X&X=X=X",
" X%X X&X=X=X2X2X=X=X X%X2X4X4X4X5X5X5X5X5X5X5X5X4X4X3X4X5X5X5X5X5X5X5X5X5X5X5X5X5X5X4X4X4X4X5X4X4X4X2X2X2X<X=X=X=X&X=X=X=X=X=X2X<X&X&X=X2X2X",
"E.E. X&X=X2X;X=X&X X%X<X4X4X4X4X5X4X5X5X5X5X4X4X4X4X4X4X5X5X5X5X5X5X5X5X5X5X5X5X5X4X5X5X4X2X2X<X2X<X<X=X=X&X%X X%X}.E.E.%X&X%X%X X&X&X2X2X2X",
"U.E.}.&X=X=X=X%X%X X&X=X2X4X4X5X4X5X5X5X5X5X5X2X2X2X4X4X5X5X5X5X5X5X5X5X5X5X5X5X2X5X5X4X2X<X=X&X%X%X&X%XE.E.E.E.E.U.E.E.U.U.U.E. X&X<X2X2X4X",
"%X XE.%X=X&X%X%XOX&X&X=X<X2X2X2X2X2X5X5X5X5X<X<X2X4X4X5X5X5X5X5X5X5X5X4X2X2X4X2X2X2X<X<X-XE.U.L.L.E.E.E.E.E.E. XE.E. X%XE.L.E.%X=X=X2X2X2X4X",
"%X%X%X X X&X%X&X&X<X<X<X=X=X<X=X&X&X<X4X4X<X=X<X2X4X4X4X4X5X5X5X5X5X5X2X2X2X2X<X=X&X&X&XE.L.L.U.L.U.E.E.&X=X=X&X%X%X%X}.E.U.E.&X=X;X2X2X4X2X",
"&X X&X%X X&X=X=X<X<X<X<X<X2X<X2X2X<X&X=X<X<X=X<X4X4X4X4X5X5X5X5X5X5X2X2X=X=X*X&X X X X XE.E.U.E.U.E.&X=X=X=X=X&X%X%X%X X%X%X X&X=X=X2X2X2X2X",
"=X%X X%X%X=X<X2X2X2X2X2X2X2X4X2X5X2X<X<X2X<X<X4X5X4X5X4X4X4X4X4X2X2X2X2X=X&X}.E.L.L.U.E.}.}.E.E.}.%X=X=X;X<X=X&X X&X X&X%X=X X%X&X<X2X<X2X2X",
"=X&X&X=X=X2X4X2X5X5X4X4X2X2X5X5X4X5X4X4X4X<X2X5X5X5X5X4X4X4X2X2X2X2X2X;X&X}.E.E.L.E.E.E.E.E.}. X&X=X=X2X2X2X<X=X&X&X&X&X=X&X&X&X&X=X=X<X<X2X"
};
