/* XPM */
static char *result[] = {
/* columns rows colors chars-per-pixel */
"70 70 216 2 ",
"   c #0C080E",
".  c #1C0E22",
"X  c #0D1738",
"o  c #161A3D",
"O  c #1A1B3C",
"+  c #3C1A37",
"@  c #38292C",
"#  c #151E43",
"$  c #181D42",
"%  c #142046",
"&  c #14234B",
"*  c #19254B",
"=  c #0E2E5F",
"-  c #122551",
";  c #1A2750",
":  c #132955",
">  c #1C2A54",
",  c #122C5B",
"<  c #1A2F5C",
"1  c #1C325E",
"2  c #272746",
"3  c #3B2B44",
"4  c #212D52",
"5  c #24355E",
"6  c #26385F",
"7  c #3A3C5A",
"8  c #142F60",
"9  c #0D356C",
"0  c #153263",
"q  c #1B3463",
"w  c #13376B",
"e  c #19386A",
"r  c #1A396C",
"t  c #0D3B75",
"y  c #0C3E7B",
"u  c #173D73",
"i  c #243966",
"p  c #223D71",
"a  c #443346",
"s  c #493C5C",
"d  c #6F2D54",
"f  c #19447C",
"g  c #39466B",
"h  c #254272",
"j  c #274477",
"k  c #334472",
"l  c #324B76",
"z  c #534352",
"x  c #644D5A",
"c  c #77585B",
"v  c #444968",
"b  c #4C5673",
"n  c #49587C",
"m  c #6C5A6B",
"M  c #6C5472",
"N  c #58607E",
"B  c #6D6677",
"V  c #7C6B77",
"C  c #B90E1D",
"Z  c #BF131F",
"A  c #C40F1E",
"S  c #C81325",
"D  c #D41928",
"F  c #C61836",
"G  c #D81C3F",
"H  c #D02B39",
"J  c #8C274D",
"K  c #D41C40",
"L  c #D7314F",
"P  c #CF355A",
"I  c #D72A66",
"U  c #D93B6B",
"Y  c #D73B71",
"T  c #E23E6C",
"R  c #8D5976",
"E  c #986E6D",
"W  c #8D747A",
"Q  c #AC7A6E",
"!  c #CC4A5C",
"~  c #D74667",
"^  c #D95A65",
"/  c #D94776",
"(  c #D35B76",
")  c #E1446F",
"_  c #DF6A63",
"`  c #DD616D",
"'  c #DB6677",
"]  c #D37178",
"[  c #E16160",
"{  c #B5857A",
"}  c #C08570",
"|  c #174683",
" . c #1E5392",
".. c #254A83",
"X. c #2C5386",
"o. c #345483",
"O. c #2B5999",
"+. c #345C99",
"@. c #3B6199",
"#. c #275EA3",
"$. c #485B89",
"%. c #615E95",
"&. c #53638C",
"*. c #576889",
"=. c #466193",
"-. c #6C7A9E",
";. c #727492",
":. c #5275A7",
">. c #857588",
",. c #8E728E",
"<. c #B5768F",
"1. c #A76898",
"2. c #CE4E83",
"3. c #DA5B86",
"4. c #E04F81",
"5. c #D86986",
"6. c #DC7888",
"7. c #DB6F91",
"8. c #C77895",
"9. c #D6789A",
"0. c #E07184",
"q. c #E26999",
"w. c #E27D98",
"e. c #DA78A4",
"r. c #E46CA1",
"t. c #6E84A4",
"y. c #6390C2",
"u. c #8F8597",
"i. c #BE9285",
"p. c #B48F90",
"a. c #8C91AC",
"s. c #8898B4",
"d. c #949CB7",
"f. c #B48BA6",
"g. c #A89DA4",
"h. c #97A2B8",
"j. c #BFABAB",
"k. c #AEA6B4",
"l. c #D6918D",
"z. c #C88B9C",
"x. c #C79B93",
"c. c #E48489",
"v. c #E89C9B",
"b. c #D3A492",
"n. c #D8A29E",
"m. c #E7AD93",
"M. c #ECB598",
"N. c #C78EA5",
"B. c #D783AA",
"V. c #DD92A7",
"C. c #DD8BB3",
"Z. c #DA93B9",
"A. c #E299A8",
"S. c #E89EB2",
"D. c #D5A7AC",
"F. c #DBB6AB",
"G. c #C9A4B0",
"H. c #DCB9B5",
"J. c #EBA6A9",
"K. c #E7B6AA",
"L. c #F1BBA9",
"P. c #EAA9BA",
"I. c #F8AFBD",
"U. c #E6BCB4",
"Y. c #DEC0B4",
"T. c #EDC0AC",
"R. c #F2C1A5",
"E. c #E8C3B5",
"W. c #F6CAB5",
"Q. c #F3CBBB",
"!. c #839FC7",
"~. c #A8ADC5",
"^. c #AAB4CA",
"/. c #B8BBCF",
"(. c #A5B8D7",
"). c #B0BDD3",
"_. c #C4B8CC",
"`. c #D3B5CC",
"'. c #E9A6C0",
"]. c #FCBCC9",
"[. c #E8BDD2",
"{. c #B5C4DB",
"}. c #C6C5D6",
"|. c #CCCEDE",
" X c #D7CBDA",
".X c #DDCCDA",
"XX c #ECC5C5",
"oX c #F2C9C6",
"OX c #FCC3CE",
"+X c #F9D3C6",
"@X c #FAD4C4",
"#X c #FCC6D1",
"$X c #F4CCD5",
"%X c #FCCBD6",
"&X c #FCCFD9",
"*X c #F3D7D7",
"=X c #FDD4DD",
"-X c #FBD8DE",
";X c #C7D1E5",
":X c #D5D8E6",
">X c #E5D6E4",
",X c #FDD7E0",
"<X c #F4DEE4",
"1X c #FDDCE3",
"2X c #DEE0EB",
"3X c #E8E4EC",
"4X c #FDE0E7",
"5X c #FEE4EB",
"6X c #FDE9EE",
"7X c #EAEAF4",
"8X c #F4EBF3",
"9X c #FEEDF1",
"0X c #F5F2F7",
"qX c #FEF2F5",
"wX c #FEF5F9",
"eX c #FEF9FB",
/* pixels */
"wXwXqXeXeXeXeXeXeXeXeXeXeX0XwXeXeXeXwX5X9XqXwXwX9X9XwX9X8X9XqX9X4X4X5X5X9XwXeXeXeXeXwX6X6X6X6XqXqX9X9X6X4X,X5X9XwXwXwXwXqXqXqXwXeXwXeXwXwXwX",
"wXwXwXeXeXeXeXeXeXeXeXeXeXeXqXeXeXeXeX9X9XqX9XqXeXwXqXqX5X6X5X5X5X1X5X6XqXwXwXeXeXwX9X5X,X5X6X6X6X6X6X6X1X4X6XwXqXwXwXwXwXqXwXeXeXwXwXwXwXeX",
"qXwXwXeXeXeXeXeXeXeXeXeXeXeXeXeXeXeXwX9X6X9XwXwXqXwXwXwX9X9X6X9X9X9X9X9X9XwXqXwXwX6X5X4X5X5X5X5X6X6X6X4X1X5X9XqXqXwXwXwXwXqXqXwXwXwXeXwXeXwX",
"wXwXeXeXeXeXeXeXeXeXeXeXeXwXeXeXeXeXeXqX9X9XwXqXwXwXeXeXwXwXwXwXwX9X9X9X9X9X9X9X9X6X6X6X6X5X4X1X4X5X5X-X-X4X6X9XqXqXwXwXqXqXqXwXeXwXeXeXeXwX",
"wXwXwXeXeXeXeXeXeXeXeXeXeXeXeXeXeXeXeXwXwXqXqXqXwXeXeXwXwXwXwXwXqXqXqX9X9X9X9X9X6X6X9X6X6X4X1X1X1X4X5X4X4X4X6X6X9XqX9XwXqXqXqXwXwXeXeXwXwXwX",
"wXqXqXeXeXeXeXeXeXeXeXeXeXwXeXwXwXeXeXwXqX9X6XqXwXwXwXwXwXwXwXwXwXwXqXqX9X9X5X5X6X6X6X6X4X4X4X4X6X6X9X9X6XqX9X6X9X9XwXwXwXqXwXqXwXwXwXwX0XwX",
"wXwXwXeXeXeXeXeXeXeXeXeXwXwXwXwXwXeXeXeXwXqXqXqXqXwXwXwXwXwXwXwXqXqX9X6X5X5X5X5X9XqX6X4X1X4X6X6XqXqX9XqX6XqXqXqXwXwXwX9X9XwXqX9XqXwXeXwXwXqX",
"wXwXeXeXeXeXeXeXeXeXeXeXwXwXwXwXwXwXwXwXqXwXqXqX9X9X9XqXwXwXwX9X9X9X9X5X9X6X6X9X9XqX6X5X1X1X5X6XqXqXqXqXqXqXwXwXwXwXwX9X9X9XqX9XqXqXqX9X9X6X",
"wXwXeXeXeXeXeXeXeXeXeXeXwXwXwXwXwXwXwXwXwXwXqXqXqX6X9X9XqXqXqXqXqXqXqX9XqXqX6X6XqXqX6X5X-X=X,X6XqX9XqXqXqXwXeXwXeXeXqX6X6X9X9X9X6XqXqX6X5X5X",
"eXeXeXeXeXeXeXeXeXeXeXeXwXwXwXqXwXwXeXwXwXwXqX6X6X6X5X4X6XqXqXqXqXqXwXwXwXwX6X6X6X6X5X4X=X=X1X5X9X9X6X6X5XwXwXwXwXwX5X5X5X5X5X5X6XqX9X6X1X1X",
"eXeXeXeXeXeXeXeXeXeXeXeX9X5X6X6XwXqXqXwXwXqXqX6X4X4X4X1XqXqXwXqXqXwXwXeXwXwX9XqXqX6X4X4X1X-X1X4X1X5X1X1X5XqXwXwXwXqX5X6X5X1X5X6X5X5X6X5X5X5X",
"wXeXeXeXeXeXeXeXeXeXeXqX9X1X5X6X6X6XqXqX9X9X6X6X5X5X5X6XqXwXwXwXwXwXeXwXwXqXwXwXqX6X6X6X4X-X4X1X,X1X1X1X9XqXwXwXwX9X9X1X1X1X5X1X5X6X6X6X6X9X",
"wXwXeXeXeXeXeXeXeXwXqXwX9X9X6X9X6X9XqX9X6X5X6X6X6X6X6XqXwXqXwXwXwXeXeXeXeXeXeXeXwXqXqX9X5X1X1X-X,X1X5X9XqXqXwXqXwXqX6X1X1X1X5X6X9XqXqX6XqXwX",
"qXqXwXwXeXwXeXwXwXwXwXeXwXwXqXqXwXwXwXqXqXqXwXqXqXqX9XwXwXwXwXwXeX7X;X:Xs.s.2XeXeXwXwX6X5X1X5X4X5X6X5XqXqXwXwXwXqXqX5X6X9X5X5X9XqXwXqXwXqXqX",
"6X6X9XqXwXwXwXeXeXeXeXeXeXeXeXeXeXeXwXwXwXwXwXwXwXqXwXwXwXwXeXeX{.$.i h # # k ^.eXeXwXqX5X5X6X5X5X5X9XqXqXwXwXwX9X6X5X9X9X6X9XqXwXwXwXqXqXqX",
"4X5X6XqX9XqXwXeXeXeXeXeXeXeXeXeXeXeXwXwXwXqXwXwXqXwXqX9XqXeXeXh.i o % u - % o > s.qXwX6X5X5X6X6X9X9X5XqXqXqXqX6X6X1X9X9XwX9X9XqXqXwXqXwXqXwX",
"1X4X5X6X6X9XwXeXeXeXeXeXeXeXeXeXeXeXeXwXwXwX9X6X9X6X6X6X6XwX{.1 % - , u e h > % * s.qX6X5X4X6X9X9X9X9X8X8XqX9X1X4X6X9XwX9X9XqXqXqXwXqXwXqXqX",
"4X1X1X5X6X9XwXwXeXeXeXeXeXeXeXeXeXeXwXwXqXqX9X5X5X5X4X4X9X|.k - : ; , = $ 1 l 5 % ; ~.qX6X5X4X6XqXqXqX9X9X9X4X5X6X9XqX9XqXqXqX9XqXwXqXwXqX9X",
"qX9X6X5XqXqXwXqXeXeXeXeXeXeXeXeXeXeXeXwXwXqX9X5X6X9X6X6X3X*.- , q 1 e t * o % h 1 # g 3XqX6X5X6XqXqX9X9X9X5X5X5X5X9X9X9XqX9X9XqXqXqXqX9X6X6X",
"qXqXqXqXqXqXwXeXeXeXeXeXeXeXeXeXeXqXqXqX9X9X9X4X6XqXqX9Xk.1 1 1 % O = 9 h > o & h ; % h.eXqX9XqXqX9X9X5X9X5X1X1X9X9X6X9XqXqX9X9XwXqXqX9X6X6X",
"wXqXeXqXqXwXwXeXeXwXeXeXwXeXeXwXqX9XqX9XqX9X6X4X9X9XqX3Xn , 1 O o & i *.: 1 * o > i % n 8XwXqXqX9X9X1X6X9X6X5X9X9X9X9X9XqXqXqXqXwX9X9X9X9X9X",
"eXeXwXeXqXwXwXwXwXwXwXwXwXwXwXqX9X6X9X9X9X6X4X4X6X9XqX|.h w % O & & B T.u.h : : % h 1 4 }.wX9X6X4X5X5X5X6X5X5X9XqXwXwXwXwXqXwXwXwX9X9X6X5X9X",
"eXwXqXeXeX0XwXqXqXwXwXwXwXwXqX5X4X5X6X5X5X5X1X5X6X6XwX{.h - O - 1 N j.+X@Xj.*.< - f X.* d.wX5X1X1X1X5X5X5X6X9X9XwXwXwXwXwXwXwXqXqX9X9X5X4X4X",
"eXeXwXeXeXeXeXqXwXqXwXqXqX9X5X,X&X-X1X1X1X1X5X5X6X9XqX}.g @ X % b G.XXQ.@XQ.Y.;.; -  .1 -.9X5X1X1X5X5X6X6X6XqXwXqXwXwXwXwXwXwXwXwXqX9X9X5X1X",
"eXeXeXeXeXeXwXwXqXwXqXqX9X6X,X=X=X,X,X5X5X1X6X5X9X6X9X.X{ { @     @ Y.@X@X@X@XE.*.O w u ;.9X9X9X6X5X6X9X9XqXqXwXwXwXeXeXeXwXwXwXqXqX9X9X4X4X",
"eXwXeXwXwXwXwXqXqX9XqX9X9X4X=X,X1X,X1X1X5X9X9X6X6X9X6X.X{ m.E a 3 . W @X@X@X+X@Xg.i : 9 a.5X9X9X9X9X9XqXqXqXwXwXwXwXwXeXwXwXwXwXwXqXqX9X6X4X",
"eXeXwXeXeXwXwXwXqX9X9X9X4X&X=X4X4X1X1X5X9X9X9X9X6X5X5X.XV m.Q + m >.m Q.@X@X+X@XY.$.- w k.6X9X9XqXqXqXqXwXwXwXwXwXeXwXwXwXwXwXwXwXqXqX9X5X5X",
"eXwXwXeXeXwXqX8X9X9X5X1X1X1X5X4X4X,X,X4X1X5X5X4X1X1X1X.XX.{ } + s  Xu.F.@X@X@X@XoX-.1 r _.wX9XwXqXwXwXqXwXwXwXwXwXwXeXwXwXwXqXwXqXqX9X9X4X1X",
"eXeXeXeXwXwX9X5X6X6X1X,X,X4X5X1X,X=X,X,X1X4X5X,X,X1X1X.X..W M.E ,.k.g.F.@X@X@XH.V &.h f  XqX9XwXwXwXwXwXwXwXwXeXwXwXwXwX9X9X9XwXwX9X9X5X1X1X",
"eXeXeXeXeXqX9X6X6X6X4X,X=X4X1X,X=X=X=X,X,X1X1X1X1X1X1X X..v b.M.H.f.k.Y.@X@XD.m k.t.h f :XwXwXwXwXwXwXeXwXwXwX0XwXwXwXqX9X9X9X9X9X9X4X4X4X9X",
"eXeXeXqXwX9X6X6X9X5X5X4X,X4X1X-X=X=X-X1X1X4X1X1X1X.X}.d.t q x M.Q.U.H.Q.+XU.x *.u.g i t {.eXwXeXwXeXeXeXeXwXwXwXwXwXwX9X9X9X9X9X9X1X1X4X5X9X",
"qXeXqX4X6X6X5X6X9X6X6X9X5X5X4X,X1X1X4X4X5X5X1X4X>X$.r i 0 > O c T.@X@X@X@Xp.R p.} 7 r & &.:XeXeXeXeXwXeXeXwXwXwXwXwXqX5X5X6X9X5X1X,X4X5X5X5X",
"wX0X6X6X5X5X6X9XqXqX9X9X6X6X5X1X1X5X9XqXqXqX5X5X}.> - f f 0 o O m T.P.J.W.oXW.K.f.p y 0 8 $.3XeXwXwXwXeXeXeXeXeXeXeXqX6X5X6X5X1X&X=X5X6X6X5X",
"wXqXqX6X5X5X6X9XqX9X9X6X5X5X5X-X=X5XqXqXqXqX9XqX3Xn & , w q 2 2 M z.J.J.b.p.V $.+.| r t f l :XwXwXwXwXeXeXeXeXwXeXwXqX9X5X6X1X=X,X4X6X9X9X5X",
"qX9X5X1X6X6X6X9X6XqX9X5X1X1X4X1X,X5X6X6X5X6XqX8X/.-.1 & & z i.n.K.G.f.N.i.W v 9 y w r 0 j ~.wXwXeX0XwXeXeXwXeXeXeXwXqX6X5X4X=X1X5X5X5X9X9X5X",
"9X9X=X-X5X6X6X6X0X6X6X1X-X1X6X6X6X9X9XqXqXqXeX|.6 j O.@.7 x.Q.XX+X+XXXoX@XXXx.2 t t t t @.;XwXwXwXwXwXwXeXeXeXwXwXqXqX9X5X,X=X1X5X5X5X9X6X4X",
"9X6X-X-X1X1X5X6X6X6X6X4X=X-X6X6X0XwXqXwXqXqXwX>Xv > 0 j V M.@XV.5.w.J.K.w.9.U.v = w f , +.(.qXwXwXwXwXwXwXwXwXqXqXqXqX9X5X=X%X,X1X=X1X5X5X4X",
"9X5X=X%X%X&X4X6X6X6X5X1X4X4X9XqXwXwXqXwXqXqXqX9X^.i & 2 x.R.x.P I U 0.c.I / L.B | r r  .y.>XqXwXwXeXwXwXwXwXqX9X6X9X9X5X1X=X=X,X1X,X=X,X1X-X",
"6X-X#XOX&X-X-X6X9X9X6X5X4X9X0XqXqXqXqXqX9X6X1X^.o.f  .i l.F.<.~ 4.q.A.A.3.Y A.z.$.#.#.y.:XeXwXqXwXwXwXwXwXqXqX9X6X5X1X,X=X1X5X5X6X5X4X,X-X&X",
"=X&X-X-X5X5X-X5XqXqX9XqXqXqXqXqXqXqXwXwXqX6X,X-.X e | 0 M N.N.9.e.r.B.Z.C.V.B.B.<.O.#.=.:XeXqXwXqXwXwXwXqXqX6X1X1X=X#X,X4X5X9X9X6X6X6X4X=XOX",
"5X5X6X9X9X6X4X5XqXqX9XwXwXqXqXqXqXwXqXwX9X6X,X_.v : & = i 1.z.v.r.r.e.C.Z.Z.1.<.K.;.f q |.eXwXwXwXqXqXqX9X5X1X-X=X%X=X5X5X6X6X9X6X6X6X5X=XOX",
"9X9X9X9X9X9X9X6X0X0XeXeXeXwXqXeXwXwXwXqX6X5X,X,X_.o.+.O.+.+.,.6.q.r.r.e.Z.Z.%.&.<.z 6 s.8XwXqXqXqXqX9X6X6X4X=X&X%X=X1X5X5X6X6X6X6X6X6X5X-X=X",
"9X9X9X9X9X9XqXqXeXeXeXeXeXeXeXeXwXwXwXqX9X1X5X5X}.o.:.=.+.%.( ^ ^ 0.0.7.6.5.R | j l ).wXqXwXqXqXqX9X6X5X1X1X&X%X%X-X-X-X1X1X,X-X1X1X4X4X=X&X",
"6X6XqXqXqXqXqXwXeXeXeX0XeXeXeXeXeXwXwXqX6XqX6XqX8X/.:...d P ! ^ ^ ` ` ' ` ` ` k | !.qXwXwXqXqXqXqX6X5X1X1X=X&X&X&X-X=X1X1X=X%X&X&X-X&X=X#XOX",
"6XqXqXwXwXwXwXeXeXeXeXeXeXeXeXeXeXeXwX0XwXqXqX9XwXeXh.d D H F L L ~ L ^ ) ~ P J =.{.wXwXwXqXqXqXqX9X5X4X1X-X=X=X=X,X5X9X9X5X=X4X4X-X=X&X&XOX",
"9XqXwXwXwXeXeXwXeXeXeXeXeXeXeXeXeXeXeXeXwXwXqX9XwXeX:X;.! D Z D Z F F G K S S C <.0XwXwXwXqXqX9X9X6X6X4X1X=X=X4X5X9XwXwXqX5X,X=X-X&X&X&X=X=X",
"qXqXwXeXeXeXeXeXeXeXeXeXeXeXeXeXeXeXeXeXeXeXqX6XeXeXeX0X X] H D S S Z S D A D H 6.9XwXwXqXqXqX9X9X9X6X4X=X=X4XqXwXwXwXwXqX6X1X,X=X&X%X&X&X=X",
"wXeXeXeXeXeXeXeXeXeXeXeXeXeXeXeXeXeXeXeXeXeXeXwXwXeXeXeX6XT.L.v.v.] _ [ ^ ' J.-X9XqXqX9X9X9X9X9X6X5X1X,X%X4XqXwXeXeXwXwXqX9X9X5X=X=X=X&X=X=X",
"wXeXeXeXeXeXeXeXeXeXeXeXeXeXeXeXeXeXeXeXeXeXeXeXeXeXeXwXE.R.@XQ.*XM.R.Q.V.`.wXwXwXwXqX6X6X5X4X4X,X=X&X,X1XqXwXeXeXeXwXwXwXqX9X1X=X=X1X-X=X,X",
"wXeXeXeXeXeXeXeXeXeXeXeXeXeXeXeXeXeXeXeXwXeXeXeXeXeX8X`.m.W.+XE.4Xb.R.Q.z.Z.9XwX6X6X4X-X-X1X-X%X#X=X4X9XwXwXeXeXeXeXeXwXqX9X9X1X-X=X,X,X1X5X",
"eXeXeXeXeXeXeXeXeXeXeXeXeXeXeXeXeXeXwXeXwXwXeXeXwXwX'.B.D.W.Q.*X>X8.9.e.9.[.8X9X4X1X-X-X1X-X=X&X1X6XqXwXwXeXeXeXeXeXwXwXwX9X9X6X6X5X5X5X5X4X",
"eXeXeXeXeXeXeXeXeXeXeXeXeXeXeXeXeXeXeXwXeXeXeXeXwXwX'.9.B.V.V.<X4X/ I Y 7.5X9X5X4X1X5X5X5X4X4X6XqXwXwXwXwXeXeXeXeXeXeXwXwXwX9X9X9XqX9X6X6X5X",
"eXeXeXeXwXwXeXeXeXeXeXeXeXeXeXeXeXeXeXwXeXeXeXeXwXqX[.2.Y Y P.6X6X3.I ) J.9X5X6X9X9X6X9X9X9X9XwXwXwXwXwXeXeXeXwXeXeXeXwXwX9XqX9XqXqXqXqX6X5X",
"eXeXwXwXwXwXeXeXeXeXeXwXeXeXeXeXeXwXeXwXwXwXqXwX9X9X$X~ U 3.$X1X4X( I / #X5X9XqXwXqXqXqX9XwXwXwXwXqXwXwXeXeXeXeXeXeXeXeXwXwXqXqX9XqX6X6X5X1X",
"eXeXwXqXwXwXeXeXeXeXeXeXeXeXeXeXeXwXeXwX9X6X5X5X5X1X=X/ T 5.#X=X*X5.I U P.qXqXwXwXwXwXqXwXwXwXwXwXwXqXwXwXeXeXeXeXeXeXwXwXqXqX9X9X6X6X4X-X,X",
"eXwX6XqXwXwXeXeXeXeXeXeXeXeXeX0XqXqX9X6X1X&X&X&X=X,X$X/ U 5.&X1X,XI.A.w.P.9XqXqXqXqXwXqX9XwXwXwXqXwXwXwXwXwXeXwXeXwXeXwXqXqX9X9X5X4X4X,X,X4X",
"qX6X6XwXwXwXeXeXeXeXwXeXqX9X9X9X5X5X5X1X%X%X%X%X,X1X&X9.S.$X5X1X,X,X1X5X9X9XwXwXwXqXqXqXqXwXwXwXwXqXwXwXwXwXwXwXwXwXwXwXqX9X5X5X4X4X1X1X1X4X",
"9X6XqXwXeXwXwXwXeXeXwX0XqX6X5X4X,X,X,X,X,X&X,X1X4X9X9X9X5X1X5X1X4X4X1X5X6X9X9XqXwXwXwXqXqXqXwXwXwXwXwXwXwXwXwXwXwXwXwXqX9X9X5X5X5X5X5X1X,X6X",
"wXqXwXeXeXwXwXwXqXqXqXqX9X5X-X=X%X&X,X,X,X,X1X1X9X9X9X9X8X1X5X5X5X5X5X5X5X9X9X9XwXqX9XwXwX9XwXwXwXwXwXwXqXqXqXwXqXqX9X9X9X5X9X5X5X4X1X-X5X9X",
"qXwXwXeXeXeXwXwXqXqXqXqX6X1X1X-X&X&X,X,X,X1X1XqX9XwXqX9X6X5X5X5X9X5X5X5X5X9X9X9X9X9X9X9X9X9X9XqXqXqXqXqXqXqX9X9X9X6X6X6X5X9X5X5X4X,X-X5X6XwX",
"qXqXeXeXeXeXwXwXqXqX9X5X-X1X1X1X&X,X,X,X1X5X9X9XwXqX9X9X1X6X5X5X6X5X5X5X5X6X6X9X9X6X6X6X6X6XqX9X6XqX6XqX6X6X6X6X6X6X5X5X5X5X5X1X=X#X=X6XqX9X",
"eXeXeXeXeXeXeXwXqX6X4X-X=X=X-X-X1X1X1X1X6XqXwXwXwXwXqX5X9XqXqX9X5X5X6X5X5X6X6X6X6X9X9X9XqXqXqXqXqXqX5X-X1X4X5X4X5X4X4X1X1X1X,X%X].].=X5X9X9X",
"wXeXqXeXeXwXwXqX6X5X,X=X=X,X1X4X5X5X9X9X9XeXwXwXwXwXwX9X9X9X9X5X1X5X6X6X5X5X5X9X9X9X9XqXqXqXqX9XqX9X6X4X1X5X5X5X6X5X4X5X,X%X].OX].].%X,X5X9X",
"eXeXwXwXeXwXwXqX6X4X#XOX=X1X5X6X9X9X9X9XqXwXwXwXwXwXwXwXqXwXqX9X5X9X9X6X6X6X6X6X6X9XqX9XqX9XqX6XqXqXqXqXqXqX6X6X9XqX9XqX6X1X=X,X=X].].#X,X4X",
"eXeXwXwXeXeXqX9X4X=X%X&X,X4X6X9XqXqX9XqXqXwXqXwXqXwXwXwXqXwX8X9X6X6X6X9X5X9X5X5X6X5X9X9X9X9X9X6X9X8XqXwXwXwXwXwXwXwXwX9XqXqX9X9X6X&X].].#X1X",
"wXwXwXqXqXqX9X5X=X=X,X1X4X6X9X9X9X9X6XqXqXqXwXwXqXwXwXwXwXwX9X5X5X5X5X5X9X9X9X9X5X5X4X4X6X5X-X1X6XqXqXwXwXwXwXwXeXwXwXwXwXwXqXqX9X5X1X1X1X1X",
"wXqXqXqXqX9X5X<X=X1X4X6X9X9X9X9X9X9X9XqXqXqXwXwXwXwXwXwXwXqX9X1X,X5X6X9X9XqXqX9X5X4X1X,X1X1X,X1X9XqXqXwXwXwXwXwXeXwXwXwXwXwXqXwXqX9X5X1X1X6X",
"qXqXqXqX6X5X,X=X1X5X9X9X9X9X9X9X9X9XqXwXwXwXwXwXwXwXwXwXwXwX5X1X1X4X6X9X9X8XqX5X1X5X,X,X1X1X1X9X9XqXqXwXwXwXwXeXwXwXwXwXwXwXqXqXwX9X9X1X1X5X",
"6X5X5X6X5X-X%X1X4X9X9XqXqXqXqXqXqX9XqXqXwXwXwXeXwXwXwXwXqX9X4X1X4X4X5X5X5X5X5X5X1X6X1X5X1X,X5X9XqX9XqX9XqXwXwXwXwXwXwXwXwXqXqXqXwXwX9X6X5X1X",
"-X-X,X1X-X=X1X1X5X9XqXwXqXwXwXwXwXwXqXwXwXwXwXwXwXqXwXqX9X9X5X4X4X1X4X5X1X1X1X1X1X5X6X1X#X1X9X9X9X5X6X9XqXqXwXwXqXwXqXqXqXwXqXqX9XwX9X9X6X1X"
};
